/* XPM */
static char *result[] = {
/* columns rows colors chars-per-pixel */
"64 64 256 2 ",
"   c #180800",
".  c #210800",
"X  c #210808",
"o  c #290800",
"O  c #290808",
"+  c #291008",
"@  c #311008",
"#  c #311808",
"$  c #391008",
"%  c #391808",
"&  c #311010",
"*  c #311810",
"=  c #391010",
"-  c #391810",
";  c #392108",
":  c #392110",
">  c #421008",
",  c #421808",
"<  c #4A1808",
"1  c #421810",
"2  c #4A1810",
"3  c #521810",
"4  c #422108",
"5  c #4A2108",
"6  c #422110",
"7  c #422910",
"8  c #4A2110",
"9  c #4A2118",
"0  c #4A2910",
"q  c #4A2918",
"w  c #4A3118",
"e  c #522108",
"r  c #522110",
"t  c #522118",
"y  c #522910",
"u  c #522918",
"i  c #5A2110",
"p  c #5A2118",
"a  c #5A2910",
"s  c #5A2918",
"d  c #523110",
"f  c #523118",
"g  c #523918",
"h  c #5A3110",
"j  c #5A3118",
"k  c #5A3910",
"l  c #5A3918",
"z  c #4A2121",
"x  c #522121",
"c  c #522921",
"v  c #5A2921",
"b  c #5A2929",
"n  c #523121",
"m  c #523921",
"M  c #5A3121",
"N  c #5A3921",
"B  c #632118",
"V  c #632918",
"C  c #6B2918",
"Z  c #633118",
"A  c #633918",
"S  c #6B3118",
"D  c #6B3918",
"F  c #733118",
"G  c #632921",
"H  c #6B2921",
"J  c #633121",
"K  c #633129",
"L  c #633921",
"P  c #633929",
"I  c #6B3121",
"U  c #6B3129",
"Y  c #6B3921",
"T  c #6B3929",
"R  c #6B3131",
"E  c #6B3931",
"W  c #733121",
"Q  c #733129",
"!  c #733921",
"~  c #733929",
"^  c #7B3121",
"/  c #7B3921",
"(  c #7B3929",
")  c #733931",
"_  c #7B3931",
"`  c #5A4221",
"'  c #634218",
"]  c #6B4218",
"[  c #734218",
"{  c #634221",
"}  c #634229",
"|  c #6B4221",
" . c #6B4229",
".. c #6B4A21",
"X. c #6B4A29",
"o. c #734221",
"O. c #734229",
"+. c #734A21",
"@. c #734A29",
"#. c #7B4221",
"$. c #7B4229",
"%. c #7B4A21",
"&. c #7B4A29",
"*. c #734231",
"=. c #734239",
"-. c #734A31",
";. c #7B4231",
":. c #7B4239",
">. c #7B4A31",
",. c #7B4A39",
"<. c #735221",
"1. c #735229",
"2. c #7B5221",
"3. c #7B5229",
"4. c #7B5A29",
"5. c #735231",
"6. c #7B5231",
"7. c #7B5239",
"8. c #7B5A31",
"9. c #7B5A39",
"0. c #7B6331",
"q. c #7B4A42",
"w. c #7B5242",
"e. c #7B524A",
"r. c #7B5A42",
"t. c #844231",
"y. c #844A31",
"u. c #844A39",
"i. c #845229",
"p. c #845231",
"a. c #845239",
"s. c #845A31",
"d. c #845A39",
"f. c #8C5A31",
"g. c #8C5A39",
"h. c #846331",
"j. c #846339",
"k. c #846B39",
"l. c #8C6331",
"z. c #8C6339",
"x. c #8C6B39",
"c. c #8C7339",
"v. c #946339",
"b. c #946B39",
"n. c #947339",
"m. c #844A42",
"M. c #845242",
"N. c #84524A",
"B. c #845A42",
"V. c #845A4A",
"C. c #8C5242",
"Z. c #8C5A42",
"A. c #8C5A4A",
"S. c #8C5A52",
"D. c #945A4A",
"F. c #846342",
"G. c #846B42",
"H. c #8C6342",
"J. c #8C634A",
"K. c #8C6B42",
"L. c #8C6B4A",
"P. c #8C734A",
"I. c #946342",
"U. c #946B42",
"Y. c #946B4A",
"T. c #9C6B42",
"R. c #947342",
"E. c #94734A",
"W. c #947B42",
"Q. c #947B4A",
"!. c #9C7342",
"~. c #9C734A",
"^. c #9C7B42",
"/. c #9C7B4A",
"(. c #947352",
"). c #947B52",
"_. c #9C7352",
"`. c #9C7B52",
"'. c #9C7B5A",
"]. c #A57B42",
"[. c #A57B4A",
"{. c #A57B52",
"}. c #A57B5A",
"|. c #AD7B52",
" X c #AD7B5A",
".X c #A58452",
"XX c #A5845A",
"oX c #AD8452",
"OX c #AD845A",
"+X c #AD8C5A",
"@X c #B5845A",
"#X c #B58C5A",
"$X c #AD8463",
"%X c #B58463",
"&X c #B58C63",
"*X c #B58C6B",
"=X c #BD8C63",
"-X c #B58C73",
";X c #B59463",
":X c #BD9463",
">X c black",
",X c black",
"<X c black",
"1X c black",
"2X c black",
"3X c black",
"4X c black",
"5X c black",
"6X c black",
"7X c black",
"8X c black",
"9X c black",
"0X c black",
"qX c black",
"wX c black",
"eX c black",
"rX c black",
"tX c black",
"yX c black",
"uX c black",
"iX c black",
"pX c black",
"aX c black",
"sX c black",
"dX c black",
"fX c black",
"gX c black",
"hX c black",
"jX c black",
"kX c black",
"lX c black",
"zX c black",
"xX c black",
"cX c black",
"vX c black",
"bX c black",
"nX c black",
"mX c black",
"MX c black",
"NX c black",
"BX c black",
"VX c black",
"CX c black",
"ZX c black",
"AX c black",
"SX c black",
"DX c black",
"FX c black",
"GX c black",
"HX c black",
"JX c black",
"KX c black",
"LX c black",
"PX c black",
"IX c black",
"UX c black",
/* pixels */
"u.,.Z.a.p.Y r @ , Y L 6 f y M q j u | j 7 L 6.6.6.s.3.O. .j.x.`.`.v.s.s.| q N { A d./.U.3.8.8.@. .L L f q 6 S , 1 s I a.a.C.m.u.",
"( J a.$.J s a 6 X S Y s u j L q q j @.O.| j @.K.3.N N j.9.E./.`.`.x.x.j.8.7 L 6.OX{.d.F.9.>.j.| f j f j 0 - J X @ s 9 J ;.u.J U ",
"U G p.p.9 r V % @ Z Z J 6 f L q f q w _.j.j.j N E.s.d.8.E.U.{.{.'.R.R.K.j.x.`.`.oX{.8.6.L. .X.9.q O.q y # Z 0 $ V V 9 I a.M.U ,.",
";.;.Z.p.J 1 s % @ 0 Y L f % Z f q q L 9.L.K. .A ).s./.h.[.U.{.{.{.U.H.z.z.E./.R.E.z.z.F.-.f f j.>.j q 7 j | Y $ r s 8 I a.D.u.,.",
"y.$.a.$.s r Z 2 @ f O.@.@.s 6 q u  . .6.@.@. .{ E.U.s.`.@X%XOXOX XE.x.x.x.).{.`.U.d.j.|  . .j 8.H.&.6 7 -.6.j $ s I t G >.*.U u.",
"*.*.J O.s - 1 r @ 6 q o.| O.j 6 j j L u L { L L d.%.%.{.oXOX{./.XXR.H.Y.K.E.`.U.'.s.q L L >.&.9.O.Y O.M q y 6 $ i @ 1 ~ *.U q.*.",
"*.*.,.*.>.8 @ ,   q 0 &.o.6.O.j L Y l n q f &.| d.'.}.&X{.%X{.`.`.~.R.E.R.K.j.K.`.H.j.L.@.-.| L O.O.| Y O.0 6 X 2 & 9 ,.:.M.*.E ",
"v P 7.,.T r 2 , @ 0 8 6.6.6.O.o.u L @.&.&.L 6. .@.s.x.3.E.x.R.R.`.~.z.R.E.s.j.F.s.&.@.9.9.6.H.9.6.&.| O.L u Y + 1 8 s ;.M.,.) v ",
"c >.d.>.O.I r @ < Y o.6.6.6.@.@.9.@.f f f | @.f  .8.| j.6.f.R./.XXU.x.l.z.j.d.3.| ] L O.| q 7 w  .j j 0 j u Y + @ s v *.u.Z.,.v ",
";.,.,.O.O.I ! % @ Y o.| O.| o.6.d.8.&.M M 6. .L L L L O.>.s.R.U.{.R.z.6.1./.%.A L.g L O.O.j N f L q 7 : 6 j J X 1 W W ;.;.,.:.u.",
";.T >.~ ! ! F + @ O.O.| L  .@.&.6.6.8.6.s.s.6.j  .o.L 2.s.f.x./.`.x.6.-.7./.s.o.j.| L N O.f j f q u j f 0 Y O.X @ W W $.;.;.m.:.",
";.;.y.T ( Z / % @ Y Y | @.6.O.&.&.6.6.6.8.j.8.O.N j L 4.x.l.x./.`.K.6.@.d.U.s.&.j.@.f f | L f f u f y 0 6 Y Y $ 8 ^ G ( ~ t.A.*.",
"J ,.! O.O.J @ , @ j u f J | -.r.L L  .7.j.z.8. .q f @.].{.U.x.K.`.~.j.6.| f %.6.x.A | 6.K.f w j f L j 8 Z S Z % @ 9 I O.~ ;.:.U ",
"T M.>.~ O.! Z $ $ 0 j j Y A  .@.6.| N $.6.8.6.6.7 m N ]./././.`.`.R.~./.U.K.U.L.@.@.j.E.6.f j q q L : u o.S Z V 8 V ~ ~ ~ ,.N.) ",
"*.,.T O.>.I ! a @ u j D Z D j O.0 Y L Y T &.6.j.j.O.} v.R.{.{.{.XX%X@X&Xn.z.`.}.6.F.`.H.@.L M q y 6 s | o.| 6 + I I W M.O.;.,.:.",
"P ,.,.Y ~ ! I 1 8 y s D h Y A 0 ! J l 6.Y 8.s.K.U.K.@.3./.E.[.{.XX&X&X+X~.s.I.j.>.| L { | @.j M 8 q O.O.| 6 s , t V ~ ~ ;.,.q.K ",
"w.7.T ~ T 8 1 1 @ 6 s Y Y #.0 | &.&.@.@.K.6.s.j.x.K.E.o.R.[.R.OXOX@XOX+X;X{.U.d.&.L N N L | L q Z O.&.@.| 0 8 O r 2 9 ~ ~ ) M.N.",
":.*.>.~ Y % 1 Z   8 j | Y &.&.| 6.3.| @.L F.6.6.x.E.g.R.~.{.{./.OX/.{./.R.Q.s.d.| O.@. .N f f 0 O.6.6.6.@.* 6 . s 1 t ~ O.) ) =.",
"c ~ P J ! J 2 r   0 u y o.U.>.L  .6.L O. .O.L.6.L.E.E.R./.[.[.`.XXx.R.x.o.E. . .L >.O.6.6.6.Z | @.&.7.6.@.0 u X t 8 T ~ J ) U z ",
",.,.7.;.O.u 2 @ % 0 8 | @.z.O.&.f L f u  .Y.L.`.K.E.E.).n.].|.{.}.x.s.s.&.6. . .u 6.M f f  .9.6.&.3.6.s.o.O.I X - 1 s ~ ;.M.w.q.",
"V.M.7.;.M - 1 % r O.>.6.6.O.6.| j 6.L E.}.`.E.{.b.x.R.Q./.XX|.|.}.x.s.&.&.@.f N q 6.6.f @.&.9.B.6.o.Y @.o.| J 1 - - 1 ~ >.w.M.S.",
"~ ,.~ ~ ~ s r , % | @.Y j q N &.3.6.L N | +.@.s.-XR./.E.OX{.oX&X{.x.l.s.%.Z @.L w j.s.6.8.6.6.6.&.O.|  .Y @.8 @ 2 r p ~ O.;.,.) ",
"K U O.$.>.u + @ O | O.L j L L q 6. .q q w l L L 7. X/.R.`.|.OX@XOXx./.^.h.| f M 1.j.z.9.&.@.@.O.9.9.@.| J A - @ $ X G >.;.$.( E ",
"U ( >.>.;.V 8 % + Y o.f @.-.6.j u 0 w w f j f @.-.R.W.R.{.OX@XOX&XR.{.[.i.{ f f 8.6.z.9.O.L Y r.F.@.| j j u % @ i ~ W u.,.>._ U ",
"( ;.M.p.>.s i @ @ J u j u q q q 9.0 f q f N q L | @.P.)./.R.R.`.XXOX/.^.!.L N j.8.8.>.&.T L | L  .j A D j f - 1 @ V r a.>.,.T _ ",
";.,.,.$.J t r i @ Z L A 0 Y f L | | A u j o.| A d.L &.z.~./.R.{.}./.`.E.@.o.R.K.j.6.&.Y  . .O.j L Z Z Z J s % @ C t 1 v C.>.:._ ",
"u.;.,.Y 1 8 V 2 . Z &.Z y D L L | d.f N | j.L ] @.f 0 j.K.~.K.XX}.`.`.E...x.R.U.j.j.6.6.@.N J &.d Y J Z Y y # @ r p 9 t ;.;.t.;.",
"v v >.>.G 8 Z 2 $ Y | j j f | L 3.d.{ | &.6.L N | f U.G.x.R.R./.`.{.R.R.b.`.R.j.d.d.F.8.6.&.@.8.L j &.| | 0 # , V s t U a.;.G x ",
";.>.C.$.u 2 r r @ ! O.@. .Y L L 8.6.@.q 8.6.L l u 5.N 9.j.b.R.E.`.OXR./.!.U.b.z.&.H. .6.@.@.6.F.| 6.#.| | y + , 2 @ t I >.A.;.w.",
";.J J T J - @ , . o.&.o.&.3.%.[ @.&.o.m L L f | d.@.f { ~.b.x./.`.[.[./.Q.`.).s.Y.H.L L q f @.u >.6.z.| 8 u % O 2 @ 1 I J J ~ ;.",
") :.T *.>.8 , , + u o.o.%.&.| | ] 3.6.6.9 J 6.6.x.j.z.d.x.x.b.R.`..X/.`./.~.R./.E.(.'.K.L  .w 6 @.6.6.6.>.| 8 @ 3 1 9 ;.) ) ,.:.",
"E K ,.,.T I 2 + + L Z | L f A Y Z | j.p.>.7.@.&.L { L N d.z.v.R.`.OXoX}.E.R.R.$XK.3.&.>.>.&.8.Y 6.| j o.6.Y j O + p I ;.q.,.q.R ",
"v T >.,.~ s J , . Y o.Y u N &.6.6.z.U.6.f J M | L |  .>.d.H.d.R.`.|.oXR.E.{.*X6.A A l f q M d.L 6 j f 7 | @.j O 1 8 s *.,.;.E U ",
"9 ;.a.;.O.I C +   o.Y o.| 3.6.3.&.z.U.6.j j J N N @.{ { j.z.l.R.`.OXOX/./.OX}.| Y L j j q q 6.f u  .L M Z @.j @ - t V ;.;.7.E c ",
"c ,.;.O.I W W 1 $ 6.&.Y &.6.@.j Z v.j.6.Y j { f N 6.6.@.x.j.x./.`.#XOX{.R.{. .L j j f l f w 0 @.| 6.-.} f o.8 , r V I T ;.:.,.) ",
"*.U O.Y ! u + @ @ &.O.| | @.>.8.s.8.U.6. .: J  .| M M @.j.s.R./.`./.R.`.Q.j.| |  .w l j f q }  .q u q j u Z 8 $ X 9 / ~ ;.U ;.,.",
"*.,.;.T ~ I J $ a 8 6 8 J 6.O.&.j.U.z.U.6. .A l u m 6.&.6.s.j.R.`././.U.H.L 6.&.>.&.3.N @.q d.j j Y A 0 o.D 8 r s W U I T ( S.) ",
"K :.>.~ I I I V $ Z j 8 j j 6.#.j.8.s.~.E.9.l N Y } { L d.b.z.E.}.n.R.z.H.q N @.>.O.8.N L &.&.| u | A 0 &.3.y @ I p U G ;.,.E _ ",
"U w.>.O.,.G I , $ u 6 u j j j j 8.6.3.3.U.R.9.l u f 6 o.x.b.z./.}.!.R.j.X.6.j 0 Y L 8.8.f 9.&.&.L Y O.3.&.O.8 @ r J I u.O.,.,.U ",
"*.,.;.I ~ s 2 8 O y % s s q Y 6 9.6.6.B.o.z.{.`.~.` 1.j.x.~.b./.}.!.!.z.N L d.>.N L @.}  .d.6.[ [ %.#.%.&.&.1 X r r J ;.~ ,.:.=.",
"K :.;.T T = 1 s   Z Y 6 u u j >.O.q &.J.8.s.U.`.~.E.j.x.x.R.R.Q.}.b.b.z.z.z.K.z.6.l j q >.9.3.o.%.3.s.o.o.o.# + 8 2 t T ~ ;.q.E ",
"E ,.T T I - 1 r   $.Y q w 6 O.d.L q O.O.H.s.H././.}.z.x.x.R.n./.}.K.x.8.6.d.U.z.8.6.M N @.9.%.&.+.| 3.#.o.J + 1 r 1 p T ~ *.:.K ",
"e.*.*.I ! J 1 @ 8 Z O.u 6 !  .H.$.! f L  .6.j.j.x.E.R.K.x.R.^./.{.H.g.d.u | L Y 6.@.B.p.j.9.A L D A L j D Y s X 8 1 ;.T ~ ~ *.e.",
"v K T J ~ r % % < 1 6 J | Y Y O.#.Y &.u f  .z.U.x.E.R._.~.E.^./.}.g.H.g.O. . .Y  .N 0 >.d.K.d.8.p.@.f j %.o.s @ 1 2 2 I ~ ) J K ",
"E ,.,.~ v - r % $ 8 j Y Y o.Y @.9.Y.j.d.Y.K.g.H.j.8.z.E.~.~.`.{.OXx.K.j.j.{ f N Y { u 6.j.E.p.j L &.6.O.O.&.u @ 2 r 1 ;.I M.q.9 ",
"e.,.*.~ ~ 1 @ + @ s s Y | Y  .6.6.@.j O.@.M +.@.K.6.z.R.x.`.b.^.+Xx.x.z.| u  .&.u 0 q &.d.s.#.o.9.6.@.Y &.o.L , = @ s ~ ;.;.N.e.",
";.*.;.Y $.s @ , O J 6 6 6 0 j j q q f | L N X.| +.U.j.3.z.R.U.R.OXj.s.6.6.X.L N l o.f &.H.U.z.8.d.O.&.O.j y 0 + 2 8 s ;.~ ,.,.*.",
"K I ( u.;.J r + < J 6 : : u L u f L O.N L L 6.j.%.3.U.@.6.!.z./.+Xz.z.s.| 8.>.L l f 7.{.!.R.K.3.O.6.L j 8 6 - r $ s ( M.;.;.U K ",
"K ~ ;.;.~ t p % $ Y j q q j f q u l | L j | 6.j.&.x.U.@.>.U.~.{.OXb.U.s.L X.O.| l A Y.{.z.j.j.&.&.O.L u f j 1 @ 2 p t ;.>.;.U =.",
"Q ) M.>.U t p 2 O Y Y : u y L q Z Z | j : f 6.9.z.%.%.6. .x.R.{.OXT.b.s.o.6 q q 6.{.x.U.3.6.6. .u L L j 8 6 1 X i t 9 ;.;.:._ v ",
"_ ,.,.;.- - t 1 $ S D s 6 j L q q q { Y.8.3.| K.i.L N U.K.`.OXOXOX!.!.U.j.8.9.`. X{.s.d.9.6.j.d.u Y u j 8 % 6 < V t t p u.,.;.U ",
";.~ O.>.G 8 r 3 . j L L 0 # Z j q q L H.K.j.L Z '.s.~.l.{.!.OX@X@X~.U.H.x.E.R.^._.I.z.F.6.f N d.Y Y u 0 6 Y - , r 1 p ~ ;.U ;._ ",
"v v u.;.u = @ , . y O.@.O.u 0 q f L O.d.j.3.O.| '.z.%.`.&X&X:X=X#X/.R.x.x.`.{./.U.d.H.@.Y | f s.H.! 6 q >.6.$ @ 1 = t I u.T v z ",
"*.,.q.J M 2 $ , + 6 M o.o.O.y 8 f L Y f L L | N d.s.s.{.oX#XoX{.#X/.R.E.K./.{.R._.j.q L L >.&.d.O.Y O.J q y > $ 1 = t U ~ M._ =.",
";.U v *.;.2 1 +   u 0 &.o.6.$.j L Y j L f f &.| d.`.}.&X{.&XOX{.}.{././.E.K.z.K._.I.z.L.&.-.| Y O.O.o.Y O.0 > X + - p *.U J _ E ",
"*.:.;.*.T V s >   0 8 6.6.6.O.o.u L O.&.&.L 6. .@.s.z.3.~.x.R.R./.~.z.R.E.s.z.H.s.&.@.9.d.6.H.d.6.&.O.&.I u , @ 2 s I *.:.E :.E ",
"E =.,.:.T t I @ . Z Z 6.s.6.@.@.| @.&.6.| N &.j  .d.>.x.j.h.U.U./.E.j.x.c.8.z.8.+.| L O.@.L &.6.6.O.O.Y Y s $ + 8 - s *.,.E w.E ",
"K K ;.:.~ V C 1 , o.o.&.&.&.@.&.d.6.j q q @. .q | O.f { O.3.j.x.Q.h.8.3.3.s.&.| @.j L | | q q w L f 6 : 8 u + 2 B r p :.,.U ) b ",
"x :.,.T I V s @ @ | O.Y o.Y @.6.9.6.&.O.O.&.Y q f  .N f Y 1.8.0.k.8.1.| { j.D d 9.f j L | J N j u N f 6 6 L . , X p G ~ U ,.K v ",
"9 :.*.~ W G v @ 1 Y ! Y O.@.| o.o.+.+.o.+.&...Z 0 0 y ] <.+.+.8.8.1.L j | 8.| A @.A f f L 0 0 0 0 0 y 0 6 ! @ % 8 J W J ,.E _ G ",
"*.K ( K T I s V $ s y u j A -.-.j j l | +.@.{ 0 7 7 j 3.8.......1...l f f 0 A | | 0 6 0 L u 6 0 6 u 8 6 u Z < 1 I H ~ J ;.I ~ ,.",
";.:.Q ~ I J V % @ 6 8 6 y y L L L 8 8 j ' A j j + 0 6 +.+.' | ....| { { ' 0 A l A 0 ' | L ; 6 : % y ; % j a O @ 8 s J v J v w.E ",
"U :.;.I :.I r 2   , 6 r 5 e 6 y # y 6 r 8 y d h d # # A l { ' { { ......k l l { 0 l | A 0 4 % # % % % y y y o O r s I T T ,.v ) ",
"v q.T ~ ~ 8 1 t - J I J J J J J J J K v c J v J J T T T T T J M P J J K T ) ~ T T ~ T T T T ~ ~ T J J v u t t 2 2 2 U ,.~ :.U _ "
};
