/* XPM */
static char *result[] = {
/* columns rows colors chars-per-pixel */
"64 64 240 2 ",
"   c black",
".  c #080000",
"X  c #080804",
"o  c #100000",
"O  c #180000",
"+  c #100800",
"@  c #180800",
"#  c #100808",
"$  c #180808",
"%  c #101008",
"&  c #181008",
"*  c #181010",
"=  c #181810",
"-  c #210800",
";  c #210808",
":  c #290808",
">  c #211008",
",  c #291008",
"<  c #291808",
"1  c #211000",
"2  c #311008",
"3  c #210810",
"4  c #211010",
"5  c #291010",
"6  c #211810",
"7  c #291810",
"8  c #211818",
"9  c #291818",
"0  c #311010",
"q  c #311810",
"w  c #391810",
"e  c #311818",
"r  c #391818",
"t  c #252118",
"y  c #312110",
"u  c #392110",
"i  c #312118",
"p  c #392118",
"a  c #392918",
"s  c gray13",
"d  c #292121",
"f  c #292129",
"g  c #292921",
"h  c #312121",
"j  c #392121",
"k  c #312921",
"l  c #392921",
"z  c #312929",
"x  c #392929",
"c  c #393129",
"v  c #353125",
"b  c #373335",
"n  c #392931",
"m  c #421810",
"M  c #4A1810",
"N  c #421818",
"B  c #521810",
"V  c #421808",
"C  c #422110",
"Z  c #4A2110",
"A  c #4A2910",
"S  c #422118",
"D  c #4A2118",
"F  c #422918",
"G  c #4A2918",
"H  c #522110",
"J  c #5A2110",
"K  c #522118",
"L  c #522918",
"P  c #5A2918",
"I  c #4A3118",
"U  c #423518",
"Y  c #523118",
"T  c #5A3118",
"R  c #632910",
"E  c #632918",
"W  c #633118",
"Q  c #6B3118",
"!  c #633918",
"~  c #773118",
"^  c #422121",
"/  c #4A2121",
"(  c #422921",
")  c #4A2921",
"_  c #472929",
"`  c #522921",
"'  c #5A2921",
"]  c #522525",
"[  c #4A3121",
"{  c #423129",
"}  c #4A3129",
"|  c #463525",
" . c #523121",
".. c #5A3121",
"X. c #523129",
"o. c #5A3129",
"O. c #523929",
"+. c #5A3929",
"@. c #563921",
"#. c #422931",
"$. c #423131",
"%. c #4A3931",
"&. c #453936",
"*. c #523931",
"=. c #5A3931",
"-. c #573434",
";. c #633121",
":. c #6B3121",
">. c #633921",
",. c #6B3921",
"<. c #633129",
"1. c #6B3129",
"2. c #633929",
"3. c #6B3929",
"4. c #733921",
"5. c #733929",
"6. c #7B3921",
"7. c #633931",
"8. c #6B3931",
"9. c #633535",
"0. c #733931",
"q. c #634A18",
"w. c #5A4229",
"e. c #4A4239",
"r. c #5A4231",
"t. c #5A4239",
"y. c #524239",
"u. c #525229",
"i. c #6B4221",
"p. c #634229",
"a. c #6B4229",
"s. c #6B4A29",
"d. c #634625",
"f. c #734221",
"g. c #734229",
"h. c #7B4229",
"j. c #734A29",
"k. c #7B4A29",
"l. c #7B4A21",
"z. c #6B5629",
"x. c #7B5229",
"c. c #785526",
"v. c #634231",
"b. c #6B4231",
"n. c #6B4A31",
"m. c #634239",
"M. c #6B4239",
"N. c #634A39",
"B. c #6B4A39",
"V. c #634A31",
"C. c #734231",
"Z. c #7B4231",
"A. c #734A31",
"S. c #7B4A31",
"D. c #734239",
"F. c #7B4239",
"G. c #734A39",
"H. c #7B4A39",
"J. c #695435",
"K. c #7B5231",
"L. c #7B5A31",
"P. c #735239",
"I. c #7B5239",
"U. c #7B5A39",
"Y. c #735531",
"T. c #7B6329",
"R. c #7B6331",
"E. c #7B7B31",
"W. c #594844",
"Q. c #5A524E",
"!. c #634A42",
"~. c #674743",
"^. c #734A42",
"/. c #7B4A42",
"(. c #675648",
"). c #735242",
"_. c #7B5242",
"`. c #7B5A42",
"'. c #73524A",
"]. c #7B524A",
"[. c #7B5A4A",
"{. c #735A45",
"}. c #7B5A52",
"|. c #7B5A5A",
" X c #6B5252",
".X c #7A6445",
"XX c #7B6558",
"oX c #7B6763",
"OX c #845629",
"+X c #844A35",
"@X c #845239",
"#X c #845A39",
"$X c #8C5A39",
"%X c #895732",
"&X c #945A39",
"*X c #846339",
"=X c #8C6339",
"-X c #846B39",
";X c #886632",
":X c #897539",
">X c #977839",
",X c #8C6F31",
"<X c #845A42",
"1X c #8C5A42",
"2X c #865748",
"3X c #945A42",
"4X c #895A52",
"5X c #846342",
"6X c #8C6342",
"7X c #8C6B4A",
"8X c #876648",
"9X c #946342",
"0X c #9C6B4A",
"qX c #966647",
"wX c #897846",
"eX c #947B42",
"rX c #9C7B4A",
"tX c #977645",
"yX c #846352",
"uX c #8A6956",
"iX c #966A54",
"pX c #997654",
"aX c #8C7352",
"sX c #A5674A",
"dX c #A57352",
"fX c #A57B52",
"gX c #AD7B5A",
"hX c #A77B58",
"jX c #A57B4A",
"kX c #997666",
"lX c #947B73",
"zX c #A97B63",
"xX c #9C874A",
"cX c #9B8853",
"vX c #8C844A",
"bX c #A88756",
"nX c #A99658",
"mX c #AD9C4A",
"MX c #AD8463",
"NX c #B59C6B",
/* pixels */
"8X} l _ {.q $ # q ) pXn.i r ( } yX_.( e M.( 7XiXzXpX3XsX..3...S 7 w w L @Xg...K.`.<X[...b.^ e ( |.n.> q p $ X q I U.K...U.~.]./.",
"G.2X_.r.O.p e > 5 S hXH.7 7 S q iX[.uX7. .C.6XU.dX@XZ./ D ..' S C w S 5.` ..h.K.S.7X[.o.C.p e X.oXV., 7 F 5 & $ ..U.@.>.| yXuX'.",
"i *.uXm.B.q q $ > ) 5XU.q q 7 ) iX( o.b. .S qXgXfX9X1X1XI.r ' Z.C.' p <...G ;...I.H.I.<X2.4 X.3.lXJ.> q q > + > S L.>.a.X.XX!.W.",
"* h r.G.m.F 7 $ 5 S qX`.) > q ( D.) ( 9 p / 4XpX9XpXqX3XqXG S.S L ;.` Z.2.<X3.S.7XU.I.b.2.S X.9.XXV.$ < 7 $ & i ..d.....( x d { ",
"z 8 * v.^.l q q > S 7X.X) p 5 ) b. .( e 7 F.0.9X0X0X9XqX@Xq G S L q 5 S ..2.<XI.`.I.I.H.p e i +. X+.$ y i # # 4 F I.A.u +.!.2X{ ",
"p 9 ( 9 m.G._.p $ G hX.Xp F X.} D.) e _.M.A.+X&XiX0X1.3.2Xq > p S q 7 p D ;.<X<XI.S.pXH.o.<.i D.$.a & a q $ $ q  .n.j.u [ }.kX}.",
"9 $ v.*.} G._.X.q 0 pX.Xq & ( ) 8.+.p q v. .iXdX0XsX;.3.3.p o.H.H.r ` p ` S.C.;.C.I.H.<X) 8.^.o.~.7 q u p & 4 p F a.A.5XH.lXuX4X",
"~.G.| v.8 v.9 > $ 5 pXI.4 > S ) p ) q p ` H.gX9X9XdX` 3.S ..S.q 4 r S 1.<.2.C.<X<X`.I.H.S o.p S  Xq & p 7 # # >  .a.K.a.G yXiXiX",
"(.e S {.v.j e 5 7 > yXI.i 4 q } H.` 6 2.} @X6XdXiXZ.' @XC.` ' q 4 q L  .A.8XH.6XU.`.S.`.v.o.p -.$.: y y ; $ $ q O.2.I.a. .W.uXyX",
"W.q ) n.n.q 4 > $ r 8XaX7 & q ( H.wXxXz.pX$XhX0XqXZ.Z.5.D S S q ' G 9XI.H.S.<.g.S.S.I.o.H.) ) 4 m.$ y q > + 7 p X.b. ...C s XXXX",
"e.t 7.( B.r > 5 # w `..X( e S w.`.xX8X-X/.0.gX0XqX$X1X) G 7 q A.X.w D G C.2...5.S.S.I.D M.7 ^ e N.+ y p # 7 > p C 2.I.S 7 *.XXyX",
"d p B.+.B.5 $ $ # 5 b.I.F 4 S wXxXj.F wX%XH.dX1X&X0X0.;.o.S q w ;.q D 4 7 q ,.S.I.I.A.b.D.] r _.+.> < y 7 $ ; $ S I.I.` G _.XXyX",
"f p o.P.r.) 4 r 4 5 P...) 4 cXnXcXpXj.+.rX7X0XdX1X..<.C.` ` p > 5 +.o.5 ' S G ;...2.@X..G.C.S ].X.$ q > 7 + $ 7 S C.G a.S }.yX'.",
"f ^ X.).O.7 q p # 5 .X8Xq F MXrXrXbX8X` >X-XqX9XZ.3.D <.;.5 0 5 5 , > 4 S q S S.g.;.iXo.b.S p 2XX.# q 4 > & ; ^ S v...` 7 ~.uXm.",
"s p p v. .` S ; $ 5 P.7Xw vX>XN >Xj.U a o.U.gXS.5.` G S S 7 <.p w G H.r G ;. .2.3.3.;.2.` q <.) 4X> i q # + e 7 S G.G.X.o.uX~.!.",
"b ( .XB.B.p X.w ; 7 C.6X[ bXrX>.;XbXvXp..X<.0X5.;.' 3...D 5 S q > w 2.r o.D ` ' H.b.3.b.` X.o.o.o.7 p 7 & # $ S 2.G.C.Z...uX%.t.",
"Q.N M.).B.=.q $ # $ I.P.p eXqX%X$XhXeXj.wXiXgX#XI...S.3...D q r > 5 q  ...` ....S >.a.;.S H.e 8./.q y r $ 5 5 5 ` 2.H.I.` y.e.%.",
"b 4 X.B.v.7.q 5 ^ & 7X .S & .X5.=X>X%X3.bXC.0X;.h.;.+X, D b.w ` w 7 , G u D ` g.D 5.C.3.<.) ^ C.C.> y 7 $ $ $ r X.2._.H.` t.!.b ",
"Q.~.) B.). .e 5 # 5 8Xa.S p j.:.6.,XnXwXK.I.<Xh.3.3.8.I...D G 5 w G G  .G q D L 2.5.L 5.Z.q Y ) o.q y > # 7 > q 7.2.b.' S .X$.*.",
"e.r ) ^.B. .q ) q > MX .5 $ & 2X~ 7XnXMXo.@X1XK.S.h._...w 5 q , & , > w S ..S L L 2.P 4.H.S i z.8.7 q $ 5 # 4 D S M.D.G iXu.[.x ",
"$.e 7._.b.S 5 5 # $ U. .p > ; 4X;.aXfXtXI.@XS.S.Z.a.....0 $ # +. .> 5 5 0 w ' ` L P 5.;._ D z.E..Xq i & $ 4 _ ) 7.2.H.' w &.J.v ",
"t.S 8.X.^...5 > $ $ 7X7.) ( ) kX;X>XS.@X5.@XS.k.g.G D ..S  ...> $ > q w w m C ' ..;.3.:.i.:XvXwXcXtXG $ # # > p ` C.H.C.G &.=.x ",
"'. .m.+.M.^ 5 # $ # zX+.( ) p uX@XeX5.3.1XK.k.D D S ` , w D , > $ w > q S C L ;.D L ;.3.P s.cXa.>.nXbXjX# $ > < <./.] 3.7 a c r.",
"'.p S ).+.) X.r 5 , kXb.p S q H.2.< <XG #XK.h.D m C C G 5 > 5 w p 5 ..u S S w D ;.;.;.P W U.L.xXwXxXnXK.cXNX# > o._.8.<.r W.J.k ",
"uXe B.).).' S S $ > 5X} q } o.G.2.) D 3.S.f.K w D K q , , > > > q $ 0 w w S ` ..w D K P P K E.mXbXbXwX=X-XrXNX' 7./.^.] H.kX-Xz.",
"`.X.+.G.b.b.) D $ $ .X.X .( X.o.r r ) S.S.,...C , , C G w > $ ` 2.g.w , m L K Z Z ;.;.;.L H K.:XqX=XT ;X>XhXXX) S 8.4X/.XX}.wXcX",
"H.X.).).C.<.5 S 0 p `.[.e p ` X.7.e C.g.g.g.,.>.>.D D , D C.g.C.o.C.a.Z.) ; w C m M P H W H ..#XrXx.+X%X&X$ ` N b.D.bX&.wX%.b U.",
"7.p M.[.G.<.` > > $ iXb.e } 7.o.D ` C.S.k.:.,.D Z K <.g.2.t ( e ` g.I.2.5.C...2 w Z M M J H D I.&X+X=X*XL.w ) r o.tXbXcXy.k $.k ",
"X.} X.G.b.o.N 0 > q `.B.7 p C.^ q 7.L S.h.W Z ..H.3.g.g.^ e X.) ` C.S.6X+.7.o.C.2.L B B J V H i.&Xh.> # & $ , / yX>XgX:X`.z #.#.",
"( ( ^ ].b.` S r > > _.=.e p C.o.` o.C.I.4.g.C.b.o.K.o._ +.j ,.p.( K.A.H.p #X;...2.g.h.h.B B E q.jX+X4 j p > 0 o.`.rXsXcXaXoXe.i ",
"[ (  .^.G._.M.) q i 8Xq p p S S S A.C.,.C.k./ 2.A.$Xj.G +.j r n.( a.s. .r C.S.g.o.o.$X@Xh.Z.R R K.Z.XXt.# $ q :XeXtX] eX>.`.(.*.",
"[ p ~.[.C.o.8.p w n.) p 4 p F.D ..Z.@Xg.k.' ' ) A.K.+.a._ @ O . + u ..G p 2.a.>.b.I.a.,.$X` ) <.<.0.$ ; q w [ :XtX3.5 =Xi.:XG x ",
"p ( =.).yX1./ $ 5 v.b.q 7 G.C.w ' g.h.<.g.X.a.; S.,.>.$ q ; @   . . F S C j.9 ) ` p.X.<.h.S.2.` ] 3.4 $ & 4 @.j.$X4.;.k.*XOXwXR.",
"p +.( 8.8X' 0 0 $ Y.+.e S H.) S 3.Z.^ ' 3.S.D C . o   . . . . . . . . o . p.: $ , . o 3.5 OX<.5.3.5.7 $ $ > 5 ;X;.S.K.f.=Xk.:Xs.",
"i ) ( _.7.C.N 7.5 pX7.i S o.o.D 3.` ,.X.>.o . . .     . . . . . . . . .   . > . ; ; : m w f.x.h.k.Z.4 5 5 ; X.:.P :.W x.OXc.c.S ",
"h p ^._.}.M.` r N 7Xo.4 S q S w Z.S N X.g., .   .   . . . . . .   . . . . . . . @ o @ q 1  .' x.;.3.q 5 $ r r X.D.R f.h.tXwXR.G ",
"9 F 2Xb.H.` ` 8.0 ..2.5 <.7 ` 2...S ' k.k.[ o . . . . . . .           . . . . . . . o . >  .L 4.3...' ; $ w o.` ~ P 4.7XwXT.Y.p.",
"9 4 ^._._.H./ S 5 d.b.e <...q C.,.K.@X>.0 o . . . . . .                   . . . . . . .   ' q ) G 5.h.5 4 , S <.4.i.-X8X*Xc.L.K.",
"9 $ S _.H.' S S r +. .C.p q C.<.;.3.;.>., > . . . .                           . . . . .   r Z S ;.k.h.D 5 r S ` ,.d.x.k.W g.T.c.",
"p & (  .b.H.8.S > 2.` M.q H.3.....S.X.r S $ . .                                 . . . . . . O m ,.g.g.3.& & S M.3.3.i.W Z f.i.f.",
"/ o.) S ( X.r S 7 b.) S X.5.3.@X..C.j o o . .                                       . . . . 0 2 0 N N 3.5.e r o.r ` 2.) m >.Q h.",
"o.8.) ) 8./ S ) ^  .' ) ;....... .` ) o O .                                             .   o ; . 0 G g.3.o.) o.2.` ) 8.( <.W H ",
"( ) 2.o.S S ) S F p.) H.' ,.` ..` ( ) $ $                                                   . q @ 2 ` ,...5.F ) q S ) S ) X.=.^ ",
"7 ( X.=.v.M.7.`  .N [.P ` ..D ` ) p 5 o .                                                   . . A D 3...4.` 8.b.X. .=.X.O.> S S ",
"p p ) 2.X.q 7.7.8.) 3.' G ,.K L ` $ 3 o .                                                   . . 2 w T ` >.` ;.2.7.D.b.B.S p p p ",
"i p ( X.9 =.-.b.> H.;...S ;.;.L q 0 w G                                                         o - >.,.l.4.;.H.2.X.v.r.F 7 ( [ ",
"$ =.p j e X.( 9.[.;.' S P T ,. .G T ...                                                         . q ;.T T D 4.1.( +.r.v.p ( 7 i ",
"p 7 j 4 e 9 4 e 8.;.S h.3.;.e q Y ; .                                                             w S T ! L C ;.S ( d.+.[ F N.[.",
"%.7 $ ( e 7 i I.;.` ;.w S e 4 w o o .                                                             - Y G L P L P Q v.n.+.) [ *.i ",
", =.5 $ h j _.;.L ..r 7 5 5 u ; o .                                                               . o L G S G L W p.| a p N.{.%.",
"+.=.r.( { _.;.P h.3.g.;.w 2 2 .                                                                   . @ ; A D S w Q ' ) | N.x { v ",
"I +.[ p _.3.K K 4.;.,.>.Z A A + o .                                                                 . q q S D 5 0 ' ;.{.} W.W.9 ",
"u S o.=.A.;.K h.4.;.L C G w w + o                                                                     ; 5 r w 5 5 5 P r.&.Q.& c ",
"7 +.@.`.;.K :.h.4.;.' C w , 7 +                                                                       . . @ q 4 , 4 7 K # % k > ",
"5 N.I.b.' D P W W ' C A o @ .                                                                           @ o 5 m > 5 4 P &.f k v ",
"F n.I.L P 0 Z r D T C 2 o .                                                                               , @ 5 H K Z D K k z n ",
"[ H...' S 0 0 q q w C w , .                                                                               . . 5 A > 5 w P b g d ",
"w.<.K P w m 5 2 w > 0 w ,                                                                                   . q w C 5 4 D L t = ",
"a.K D w 0 C , w , $ , , .                                                                                   . w C 0 0 m m P I.c ",
"D K P > 5 w , m , > < .                                                                                     . q , m 2 0 > P L b.",
"Z m w 0 $ C , m w , .                                                                                         > ; > , 0 , 5 K P ",
"D 5 w m q C 0 > o                                                                                             . w , w w q w D K ",
"m m S D m m D D C q > > > > $ $         + + . . . . . . .                                                     $ , q q w S D L K ",
"L ' L ` L ` G L ` G ` G S F G ) F p u q i 7 7 7 6 4 & & & # % # % % % % % % % # % # % % # # # # X # & 4 6 7 q S G )  ..........."
};
