/* XPM */
static char *result[] = {
/* columns rows colors chars-per-pixel */
"64 64 252 2 ",
"   c #080000",
".  c #050505",
"X  c #100000",
"o  c #180000",
"O  c #100800",
"+  c #180800",
"@  c #180808",
"#  c #100808",
"$  c #181008",
"%  c #151103",
"&  c #101010",
"*  c #181010",
"=  c #181616",
"-  c #210800",
";  c #290808",
":  c #250804",
">  c #211008",
",  c #291008",
"<  c #291808",
"1  c #211404",
"2  c #311008",
"3  c #391008",
"4  c #311808",
"5  c #391808",
"6  c #211010",
"7  c #291010",
"8  c #211810",
"9  c #291810",
"0  c #211818",
"q  c #291818",
"w  c #311810",
"e  c #391810",
"r  c #311818",
"t  c #391818",
"y  c #391010",
"u  c #310808",
"i  c #352308",
"p  c #292118",
"a  c #292110",
"s  c #312110",
"d  c #392110",
"f  c #312118",
"g  c #392118",
"h  c #392918",
"j  c #332916",
"k  c #342C0D",
"l  c #292121",
"z  c #272325",
"x  c #312121",
"c  c #392121",
"v  c #312921",
"b  c #392921",
"n  c #312929",
"m  c #392929",
"M  c #312129",
"N  c #342931",
"B  c #393131",
"V  c #393129",
"C  c #211821",
"Z  c #421808",
"A  c #481608",
"S  c #421810",
"D  c #4A1810",
"F  c #521810",
"G  c #521808",
"H  c #422110",
"J  c #4A2110",
"K  c #422910",
"L  c #4A2910",
"P  c #422118",
"I  c #4A2118",
"U  c #422918",
"Y  c #4A2918",
"T  c #522110",
"R  c #522910",
"E  c #5A2910",
"W  c #522118",
"Q  c #522918",
"!  c #5A2918",
"~  c #5A2116",
"^  c #473414",
"/  c #523118",
"(  c #5A3118",
")  c #563514",
"_  c #422408",
"`  c #632918",
"'  c #6B2918",
"]  c #633118",
"[  c #6B3118",
"{  c #633918",
"}  c #6B3918",
"|  c #422921",
" . c #4A2921",
".. c #422929",
"X. c #452323",
"o. c #522921",
"O. c #5A2921",
"+. c #423121",
"@. c #4A3121",
"#. c #423129",
"$. c #4A3129",
"%. c #493925",
"&. c #523121",
"*. c #5A3121",
"=. c #5A3921",
"-. c #523129",
";. c #523929",
":. c #5A3929",
">. c #573426",
",. c #423131",
"<. c #4A3931",
"1. c #4A3939",
"2. c #473332",
"3. c #523931",
"4. c #5A3931",
"5. c #523939",
"6. c #523131",
"7. c #422931",
"8. c #633121",
"9. c #6B3121",
"0. c #633921",
"q. c #6B3921",
"w. c #633929",
"e. c #6B3929",
"r. c #653129",
"t. c #733121",
"y. c #733921",
"u. c #7B3921",
"i. c #733929",
"p. c #7B3929",
"a. c #7B3121",
"s. c #67312B",
"d. c #4E4214",
"f. c #544223",
"g. c #5A4231",
"h. c #5A4239",
"j. c #544438",
"k. c #6B4221",
"l. c #6B4229",
"z. c #644425",
"x. c #734221",
"c. c #734229",
"v. c #7B4229",
"b. c #734A29",
"n. c #7B4A29",
"m. c #794421",
"M. c #7B5229",
"N. c #634231",
"B. c #634239",
"V. c #634A39",
"C. c #6B4A39",
"Z. c #694633",
"A. c #734231",
"S. c #7B4231",
"D. c #734A31",
"F. c #7B4A31",
"G. c #764A39",
"H. c #6B5238",
"J. c #7B5231",
"K. c #785338",
"L. c #6B6329",
"P. c #4E3942",
"I. c #564442",
"U. c #6B4A42",
"Y. c #644944",
"T. c #6A5245",
"R. c #735242",
"E. c #795647",
"W. c #6B5252",
"Q. c #74534F",
"!. c #736346",
"~. c #7B6B63",
"^. c #843929",
"/. c #844229",
"(. c #8C4229",
"). c #844A29",
"_. c #8B4928",
"`. c #875229",
"'. c #844A31",
"]. c #8C4A31",
"[. c #864635",
"{. c #845231",
"}. c #8C5231",
"|. c #8C5A31",
" X c #845239",
".X c #8C5239",
"XX c #845A39",
"oX c #8C5A39",
"OX c #845A31",
"+X c #945231",
"@X c #945239",
"#X c #945A39",
"$X c #9C5A39",
"%X c #9A5435",
"&X c #964A2F",
"*X c #A55937",
"=X c #8C6339",
"-X c #946339",
";X c #9C6339",
":X c #996836",
">X c #A66439",
",X c #845A42",
"<X c #885744",
"1X c #945A42",
"2X c #9B5942",
"3X c #845A52",
"4X c #A95A42",
"5X c #896348",
"6X c #9C6342",
"7X c #976646",
"8X c #886552",
"9X c #956954",
"0X c #987556",
"qX c #987348",
"wX c #A56342",
"eX c #A56B42",
"rX c #AD6B42",
"tX c #A56B4A",
"yX c #AD6B4A",
"uX c #AA6347",
"iX c #B56B47",
"pX c #AC7447",
"aX c #B5734A",
"sX c #BB7849",
"dX c #A66B52",
"fX c #A57352",
"gX c #AD7B5A",
"hX c #AA7753",
"jX c #B57352",
"kX c #B57B52",
"lX c #BC7A56",
"zX c #947B6B",
"xX c #C67952",
"cX c #C6774A",
"vX c #9C8456",
"bX c #B5845A",
"nX c #BD8558",
"mX c #A78458",
"MX c #AC8463",
"NX c #B78964",
"BX c #BB956A",
"VX c #B29768",
"CX c #BDA573",
"ZX c #C88758",
"AX c #D68C5A",
"SX c #C98A63",
"DX c #CB946A",
"FX c #C79C73",
"GX c #D6986D",
"HX c #C6A578",
"JX c #D6A573",
"KX c #9C8C84",
/* pixels */
"9.O.S KX~.= E.m C B l 0 3XG.x ;.f f j z.b.= * p c |  .g 7 X O + + + + + + 8.Y  .w 7 7 > $ 6 w f -.& j.n ,.* z N N 1.j.2 T S t.8.",
"! I , zXz 0 U.z B B = m <XG.G.^ & H.d.f.) 8 * 8 r -.g X.$     X o % > > > w.>. .Y $ > w # 6 P | :.#.j.B 1.* N N #.x 5.r , S q.A.",
"S Z 2 W.I.,.P.I.h.j.n 9X<X4.3.'.8 ^ a f.f. .& r c | U P 6 O   O % + + < e O.w.Y w P P w k < w /  .I.<.1.I.& N M #.v v : ; Q i. X",
"I Q > !.W.W.Y.h.<.v * 7XE...4.l.g.H.= U g p $...f g 7 < O + + % s 4 w 4 < A.o.t w w @ 7 % ^ Q ^ 8 m B j.n l P.m 6.$.f , q.8.F.q.",
"W ! , L.3X8XI.m R.#.* 7XE.x Z.A.<.6.f q * f 9 h 9 6 g 9 + 1 > , > : d U H e.&.o.P 7 > > 1 K I K d.%.b | B m B m 3.3.X.I I ! S.e.",
"S.*.I K.3XI.B 1.m & 3.E.<...<Xz.0 #.0 * * p f > f w g 9 + < s s d 4 4 , > O.>.Y w P g e a i i / ^ f.#.$.N.,.B m <.m I S S J F.8.",
"8.J 5 Y U.N B I.& = 7XE.5.3.<XX.v <.* q & g f f f 9 g     1 , 1 H K r K t e.Y >.w w 9 6 $ 1 ) k k d.B...N.B 1.#.<.1., Q ! 9.i.8.",
"c.S e 5 n m I.I.m R.7XR.c <XZ.3...h.0 @.h f p b g f g > + < : 4 , > , , ; w.w.:.| $ | > K 1 < w k a b 2.m <.z z 2.1.; ! ! F.y.e.",
"! e ; 6 W.W.Q.W.R.9X1XB.0 C.U.Y.T.Y.| c +.f q f f g > + , Y Y Y L H e d d 8.w.P 7  .@ @ % 9 < 8 a k.m m 3.p v m B <.5 8.` 8.c. X",
"W H H t W.~.W.j.,X5XR.R.n Z.E.<.W.#.#.r $.b f 6 9 g - < < , 4 / ( =./ / Y w.w.e w 7 7 s ^ 9 s k ^ @.2.l 0 n m 1.,.h., H ` S.9.e.",
"F.! W S W.2.M ,.9X8XQ.B.;.Z.6...$.#.m c g b f f $ w , 4 w H H d 2 , > , 1 8.*.e 7 7 | 9 s a 6 . 1 p x 5.#.n V n c 0 4 J 8.c.i.e.",
"8.v.D @ Y.W.Y.Y.9X9XR.,.B.K.V.B.c r #.c r 9 ..r $ > , P ^ / / ( ( / e H ; O.>.&.w $ 7 $ $ # 6 9 % c -...5...m = 0 0 ! 8.i.c.q.i.",
"8.9.Q J V.8XQ.<.9X8Xh.p B.XXQ.B.m q h | f 9 r w @ + , , , d / z.z.{ / / ( / *.Y P 7 > w > > * 8 $.| $...$.> f ..b 9 e T *.A.8.e.",
"9.e.J H B.Q.C.l 9X9Xm p h.2.B.3.q 6 w c P c g > # > : + > L H 5 / z.Q Q H d I 9 w g t w > 6 9 # =.#.b -.m g.& * #.U , J '.i.A.Q ",
"y.H 4 H Z.h.U.p 9X9Xl $.2.b 3.$.q | 9 4.r 9 g 6 @ e H , / , Y ( Q R J J L H H , w w 6 9 8 $ q * ^ | -.b m N.H.8 R.g ; ! !  XS.<X",
"p.H , J , <.5.h.3X5.h.Y.4.4.<.Y.t  .9 | 6 7 9 $ , 2 , 5 H b.J.'.F.J.b.b.l.l.z./ g 7 $ > > $ 9 g 8 ;.0 $.0 E.g.<XR.( T Q oXc.F.8.",
"8.S ` > 4 V.E.9X8X<.Y.#.x Q.h.$.g | $.g 6 7 9 @ e I Y / / L H *.n.OXb.b.b.k./ / g w P 9 > $ f 9 m f $.$.$.E.R.<X;.@ S '.'.v..XS.",
"/.e , H Q E.j.8X5X3.h.Y.V.B.+.b ;.g 4.w @ g r 2 H J H *.0.( ( ( ! L R J J H H H U 7 @ - : 8 9 f +.q $.x G.U.R.C...4 4 ` 8.v. XQ ",
"e.I 4 > , 5.5.E.<.U.R.h.3XB.| * 4.g.;.w @ | 9 e H 0.l.F.J.b.b.n.v.x.J Q d d ! Y L w 4 4 + s 8 9 +.| x -.N.C.E.V.C.d ] 8.y..Xs.D ",
"c.Q Q 4 , n ,.U.z 8XU.m 3X<.$.f 4.4.-.> 9 9 8 S e H S H =.{.oX-X6XoXb.n.J.n.b.8.0.w.R Q 2 > 9 9 9 f.f N.3.Z.R.3.3.D J Y c..Xt I ",
"0.! c.( P h.2.Y.8X8XU.H.Y.| #.c -.$.;.$ g f @ < , 2 H ( 8.J J ! -X#Xn.x.n.0.{ ( J L L J 4 , 9 9 f f j h.3.x g.l p e e H '.S.O.W ",
"'.] e H Q E.8XE.3XT.B.Q.h.$...g g C.w X.| r e o.w =.*.2 / x.q.{ ! R ( ] ( R ( ] ( R _ H 5 2 9 9 h f j g.C.b #.M v e > q.Q {.*.w ",
"i.( Q H ( Y.E.8XC.R.g.E.| $.x w 3.X.7 g g -.e W w.e./ XXF.k.b.}.).n.] q.0.{ q.q.k.k.! J 5 5 > 9 > h +./ ;.R.5.U.#.w J I '.F.8.P ",
"/.n.8.w.S 7.8X9Xg.R.;.$.q $.x g C.N.7 f U | D e J I w.6XtXeXpX>XrXeX;X;X#X-X|.|.n.{.x.q.R Z 5 g 9 h <.f @.g.V.4.3.2 w 8.v.A.r.P ",
"{.8.[ ! 5 3.%.N.$.T.V.h p ;...g c X.4 g s I Q 8.0.e.c.v.q.R R x.n.n.q.x.n.q.{ { 0.q.] ( Q H 2 4 w f 9 | U g.$.4.$.2 0.q.F.F.l.*.",
"n.! Q H , w #.N.| V.V.g f | ..| $. .P U f P W 0.0.'.{.c.}.).8.T T J T T J _ W q.! ] ( Q T T 5 3 6 9 9 | f g.g V.$.J q.c. X X*.e.",
"F.n.8.8.0.H j.V.h.h.$. .c g #.g.9 4.;. .w Q w. X7XdXtX6X6XeXrXwX;X'.[ m.8.H { ( J J R R 4 2 - X $ $ f +.| b b 3.U ( q.8.{. Xi.[.",
"n.F.n.Q < K h.b h.H.;. .b | 3.| 9 $.g.| e W I ! S *.oXpXjXpXaXpXpXl.k.:XpXeX}.|.`.`.{.m.q.] J H , > h @.;.;.| V.f Q Q Y F.v.*.: ",
"F. X8.J 9 > V.c 3.H.;.@.c g | s 7 c X.r o : e 8.! c.q.! ( M.6XaXsXsXrXeXeXsX;X;X#X{.{.`.n.x.( T Z 9 | $.:.g.h | w ( 8.y.J.F.i.A.",
"q.c.{.Q J H T.%.C.E.| $.f g r w < m w e 3 e Y e D c.}.}./.y.q.` ] ` ] u.J ] q.x.( R R R Z 2 5 5 5 w @.@.;.g.s 9 > c.! oXl.F.i.,X",
"J.n.Y I H H V.;.U.C.f $.f 9 b g $.r 9 8.I Q '..XS 0.).+X}.+X}.+X_.y.v.`.n.m.).).m.x.q.[ ] R J J Z 5 @.U ;.:.h w 5 J Q F.F.F.l.&.",
"{.{.XX0.Q > | g.C.N.c ..| 9 | | ;.-.w 9.S.! q.uX1X X+X#XyXyXrX>X>X*X).).).).)._.+X+X`.v.] ! J J Z 5 @.U ;.g 9 g ] ( I oXb. Xe.w.",
"c.OX|.{.l.Q U V.C.%.c | -.9 ..g ;.:.W e. X2X2XjXaXyXjXxXcX>XaXsXZXZXZXsX>X>XaXrXpX;XeX;X).v.} R A Z 2 g g > f | H *.l.{.c. XY w.",
"7Xn.y.x.H R w.N.H.< b b ..9 4 g :.&.e T F 9.-XiXjXZXxXcXxXsXnXnXAXAXsXcXAXsXcXxX>X>X;XeX}.).} E E J Z P g $ g +., Q c.{.c.F.I w.",
".X{.] w.n.H / C.H.9 | g | > h  . .T W T ` ! Q [ _.aXsXiXsXrXpXxXAXAXZXZXrXlXaXwX;X;X;X+X}.).y.9.E J D D @.7 g U , L q.F.XX<XQ w ",
"|.oXv.J H J w C.;.9 x ..r w $.-.I 9.i.v.'.y.v.q.[ E J ] ] E E y.( ( T E ` ` E J J u.u.t.m.[ ` E T A Z Z Y 7 q @.w ( n.c.i.A.I w ",
"x.oXn.8.Q , d ;.U w | @.w q r 7 8.! '.].].y.&Xv.%X%X+X/.v.v.).wX-XeX>X}.*X/.} a.*X[ Z 2 o o - ; u - 2 X : 5 g < e q.Q oXc.I 8.Y ",
"8.-X*.Y I H d $.g g g U 9 r w T 9.i.9.].#Xy.+X@X4X>X$XyXrX>XrXaXeXyX@Xi._.&X9.W ( i./.y.y.u.] ] Z T , -   7 f e ( OX-Xc.F.o.I o.",
"0.#X#X( w > , $.-.f g g d 5 P p.[./.@X$X*X*X>X4XrXrX2XoX{.i.i.$Xq.q. .Q D c.pXcXaXrX+X%X+X}.}.].y.[ ] J H 2 7 H 0.x.x.c.{.F.P w ",
"F.c.k.q.J H H @.:.9 9 g  .f i.'.$XwXwXrX4XrXrXwXyXaXkXkXlXnXlXDXDXDXSXZXnXaXrXyXwXrXrX*X%X+X].+X/./.y.] D Z Z < J 0.0.n.q.A.P w ",
" X{.F.c.n.Y L U g.f r h P  .` 8.v.e.}.*X*XiXiXyXaXjXjXxXkXkXlXnXZXZXnXbXaXyXyXwXaXiXwX$X$Xv.p.)._.).v.[ ! T D , H J ).-X7X*.o.P ",
" X7XJ.8./ / ( g g.9 9 P  .D T D D F ` ! T [ [ Q ! q.{.].'..XuXkXnXSXeX:X}.6Xc.0.y.x.y.y.y.[ T ! R A Z 2 3 5 5 < 4 ! ).7X( w.O.w ",
"0.{.-X( ( ( J g @.f 9 d F T ' ` ` [ [ ` [ 8.8.` ! ` ` ` [ ] ` Q Q ! ` ] q.y.u.y.[ ] y.u.u.y.[ ' } A T D D Z D K d 0.+Xn.Q *.Y I ",
"c.J.oXq.q.b.< g $.g 1 g : 3 T Z u.v.9.).).).)././.n.v.v.n.F.F.].v.v.0.v.).n.}.}.v.v.u././.)./.p.u.u.t.! ~ F Z < e ( 8.-X0.Y 8.P ",
"{.c.oXb.v.( 4 =.q f > e J D u u F ! q.+X+X.X}.p.).#X@X@XwX|.|.;X;X;X#X}.n.n.].[.i.c.t.i.'.].&X^.].(.t.! T D D e 0.*.+X{.&.e O.6 ",
"D.b.n.oX] Y L @.6 g 7 J 9.y.p.' t ; 2 S [ 8.q.@XwXtXhXhXpXyXiXpXeXkXhXtX#X#X2X6X2X$XwX$X$X$X$X].%X(._.9.[ ` T k.l.c.n.XXQ g P I ",
" Xl.`.{.q.( x.L w g J Z _._.&X2X$X].].[.#X7X6XpXkXjXkXjXkXkXkXbXNXSXDXDXnXZXkXhXyXjXjXjXuXuX+X].4X*X%X(.u.[ ` l.q.b.F.XX*.o.P Y ",
"n.7XM.oX{.( H 5 < 9./.p.^.[.%X4XiXuXiXjXlXxXgXZXZXlXlXSXSXNXNXFXSXGXDXnXNXSXSXlXkXlXlXlXjXwXwXtX2X%X/.(./.t.T Q {.( =X X0.l.7 I ",
"O.F.J.|.0.( L ( 5 9.9.[ v.v.$X$XwXrXuXjXjXlXlXnXZXSXlXNXSXbXnXSXJXJXJXJXDXGXDXDXnXkXjXjXyXtX#X#X@X].]./.^.t.T 0.b.v.OXK.0.*., P ",
"I F.n.{.-Xk.H > Z D F D F T W ~ p.i.[.}.}./.6XjXgXhXtXyXtX1X6XfX@X7XbXfXn.! l.c.J.F.! Q I ! ! ! F [ ] ` ' ` ` ] Y {.|.}.e.*.t  .",
"U F.q.n.*.*.( 5 D D G F ! ` [ ` 8.9.9.] [ ` ] E T Q L Q ! E E *.r.O.Q Q Q ` Q 9.8.! Q J W 9.t._./.` [ ! ~ ' J q.( =X}.F.F.w P t ",
"Y n.OX7XqX=Xk.L ` 9.9.] p.^././.i.v.].}..X).'.n.l.F.oX] q.c.c.J.{.b.c.'.{.oX'.c.'.v.8.] (._.t.9.` W Z 2 ; 2 < Y 0.{.}.b.'.>.g g ",
"P q.=X=X:Xm.( Q ' ` T i.p.i.].v.'.'.@X.X'.v.'.2X6X1X1XF.F.oX XJ.7XhXfX0XqXtX-Xc.l.S.s.).Q P 3 ; o ; ; ; 2 2 d Q OX=XOXoXF.D.Y o.",
"O.7XoX=Xn.b.}.d ~ [ y.^.[.).].].'.'.'..X1X#X X1XjX7X7XfXtXqXgXgXmXhXhXgXc.} ].@Xc.w.S o.i.p.y.A.e.q.i.t.q.8.K P x.=X{.oX Xo.w.o.",
"7 0.-X}.m.( h K ` W i.i.i.[.].].1X6X].1X1X7X1XhXgXgXNXgXgX7X7X1X@X6XoXoX<Xw.X.O.F.oX X1XtX7X6X#X#X@X@X@X].[.< Y =X=X{.{.Q P w P ",
"l.oXF.qXM.R s K ! i.[.i.9.p..X].1X6X7XdXtXdXfXbXbX7X<X<XG.7XG.7XgX0XK.N.-. .5XqXbXbXbXgXhX2X7X1XF..X.X@X.X^.S q.k.J.{.F.O. .w P ",
"*.Q k.qXM.q.H > ] ]..X@XuXtXdXdXfXyXjXgXgXgXhXfXMXVXNXNXNXBXBXHXHXHXHXFXCXFXBXNXgXgXMXgXlXgXfXoX7X1X<X'..X{.{ |.( =Xn.qXr.:.w 6 ",
"e.Q Y |.w.Y 4 , 8.@X2X2XtXtXdXdXfXhXgXgXgXbXgXMXMXNXNXFXFXFXBXFXFXHXHXFXBXBXNXNXMXbXNXNXNXbX7XdXyX2X<X[.1Xe.( n.|.7X=X*.&.< ,Xg ",
"0.Y 0.:X=Xb.d 0.K  XF.1X.X XF.oXtX7X7XqXtXfXfXhXMXgXNXNXMXBXVXVXVXCXVXNXNXvXfXfXqX,XhXhX7X9X2X7X<Xw.e.8.e.( L n.q.M.|.P w.o.>.>.",
"0.P { b.k.-X|.0.< D 3 e T T ! ` ] ! F / Q ( ( ( N.w.e.C.s.i.l.0XVXVXvXvXc.A.l.D.K.z.U J 0.Q } l.e.q.*.Q Q d 2 / x.|.qX{ P I 6 $ ",
"*.Y e.XX=Xn./ / d J F ! Q W 9.8.( ! >.0.w.8.8.*.] Q ! *.e.e.e.0.&.Y @.*.0.0.l.c.l.c.q.k.Y i.e.c.l.e.q.9.9.< / K `.eX{.J.e U * 6 ",
"*.Y b.qXqX) q.b.d r.r.8.0.e.S.F.w.c.D.l.l.0.A.l.D.D.C.l.l.=.*./ 0.0.=.=.l.l.b.D. X XD.D.l.F.J.{.F. XA.v.c.H > / :XpX=XD.s e *. .",
"d e.M.7X=Xk.b.n.1X<X<X5XK.7X3X9X0X5X8XfX8X5X5X5X,XK.XXXXJ.K.D.XX,X,X5X Xl.XXXXK.XXK.5X,X5X0X5X9XgXmX0X0XvX0X5XY } M.Y 0.&.P A.U ",
"P l.'.=X:X`.n.A.<XK.K.,X,XXX9X5X,X5X0X9X3X5X9X,X,XE.R.K.R.5X8XE.H.8X8X0X!.8X8X0X0X0XqX0X0X0X0X0XzXMX0XhXMXmXqXl.+XqXq.l.Y P 7 P "
};
