/* XPM */
static char *result[] = {
/* columns rows colors chars-per-pixel */
"64 64 253 2 ",
"   c #110909",
".  c #190909",
"X  c #161109",
"o  c #170A10",
"O  c #141312",
"+  c #191110",
"@  c #1A1919",
"#  c #181513",
"$  c #0A0909",
"%  c #221008",
"&  c #2B130B",
"*  c #331A0B",
"=  c #221111",
"-  c #2A1111",
";  c #221811",
":  c #2A1911",
">  c #221118",
",  c #211818",
"<  c #2A1919",
"1  c #321110",
"2  c #321911",
"3  c #3A1911",
"4  c #321A19",
"5  c #3A1A19",
"6  c #220D0A",
"7  c #2A2118",
"8  c #2A2217",
"9  c #322219",
"0  c #3A2219",
"q  c #382515",
"w  c #382913",
"e  c #271821",
"r  c #292121",
"t  c #272424",
"y  c #322222",
"u  c #3A2221",
"i  c #322922",
"p  c #3A2A22",
"a  c #322A29",
"s  c #3A2A2A",
"d  c #312129",
"f  c #3A3129",
"g  c #363221",
"h  c #352B31",
"j  c #3A3131",
"k  c #431D19",
"l  c #421808",
"z  c #42221A",
"x  c #4A221A",
"c  c #432A1A",
"v  c #4A2A1A",
"b  c #442414",
"n  c #522A1A",
"m  c #522110",
"M  c #4B331D",
"N  c #563319",
"B  c #683418",
"V  c #422221",
"C  c #432A22",
"Z  c #4B2A22",
"A  c #432B2A",
"S  c #4A2A29",
"D  c #4A2121",
"F  c #522A22",
"G  c #5A2A23",
"H  c #552B29",
"J  c #423121",
"K  c #4B3222",
"L  c #43322A",
"P  c #4B322A",
"I  c #4A3929",
"U  c #443B25",
"Y  c #533223",
"T  c #5A3223",
"R  c #523921",
"E  c #53322A",
"W  c #5B322A",
"Q  c #53392A",
"!  c #5B392A",
"~  c #5A3922",
"^  c #433231",
"/  c #4B3231",
"(  c #443932",
")  c #4B3A32",
"_  c #433A39",
"`  c #4B3A39",
"'  c #47363F",
"]  c #523231",
"[  c #523932",
"{  c #5A3A31",
"}  c #523939",
"|  c #5B3B39",
" . c #5D3630",
".. c #422931",
"X. c #62332A",
"o. c #633A2A",
"O. c #6B3A2A",
"+. c #683728",
"@. c #633A31",
"#. c #6B3B32",
"$. c #763C31",
"%. c #723829",
"&. c #4E511C",
"*. c #6B4218",
"=. c #4B4623",
"-. c #5B422A",
";. c #564624",
":. c #5D5B26",
">. c #49413A",
",. c #534232",
"<. c #5B4232",
"1. c #53433A",
"2. c #5A423A",
"3. c #574938",
"4. c #4D5429",
"5. c #67442A",
"6. c #744729",
"7. c #695828",
"8. c #7A5326",
"9. c #634232",
"0. c #6B4233",
"q. c #6B4A33",
"w. c #64433A",
"e. c #6C443A",
"r. c #634A3A",
"t. c #6B4A3A",
"y. c #624A33",
"u. c #724232",
"i. c #734B33",
"p. c #74433B",
"a. c #734B3A",
"s. c #7B4B3A",
"d. c #794837",
"f. c #6A5635",
"g. c #74523A",
"h. c #7C523A",
"j. c #795934",
"k. c #666229",
"l. c #76682B",
"z. c #7B7528",
"x. c #7B6635",
"c. c #717230",
"v. c #596118",
"b. c #423942",
"n. c #4A4242",
"m. c #4C444C",
"M. c #534343",
"N. c #5B4342",
"B. c #524A43",
"V. c #5B4A42",
"C. c #5A4A4A",
"Z. c #534A4A",
"A. c #5B5245",
"S. c #5B5353",
"D. c #5A4A52",
"F. c #634A42",
"G. c #6B4B42",
"H. c #6B4A4A",
"J. c #634646",
"K. c #734B42",
"L. c #7B4B42",
"P. c #63524A",
"I. c #6B524A",
"U. c #675546",
"Y. c #735243",
"T. c #7B5242",
"R. c #73534A",
"E. c #7B534A",
"W. c #735B4B",
"Q. c #7B5A4A",
"!. c #785A43",
"~. c #6C5B5B",
"^. c #675652",
"/. c #735A52",
"(. c #7B5A52",
"). c #745453",
"_. c #6C6459",
"`. c #776457",
"'. c #7C735D",
"]. c #796B65",
"[. c #756D66",
"{. c #834B3A",
"}. c #88553A",
"|. c #945635",
" X c #866636",
".X c #8A7636",
"XX c #937639",
"oX c #8A6D2F",
"OX c #845242",
"+X c #83534A",
"@X c #845B4B",
"#X c #8C5A4A",
"$X c #885844",
"%X c #935B4A",
"&X c #985B48",
"*X c #835B52",
"=X c #8C5B52",
"-X c #855756",
";X c #8C544A",
":X c #896447",
">X c #96644A",
",X c #977646",
"<X c #846352",
"1X c #8B6353",
"2X c #83635A",
"3X c #8C6A5A",
"4X c #886759",
"5X c #936453",
"6X c #9B6B5B",
"7X c #986955",
"8X c #987657",
"9X c #897355",
"0X c #A77748",
"qX c #A56B55",
"wX c #A97358",
"eX c #A46B4E",
"rX c #876B64",
"tX c #956B62",
"yX c #887568",
"uX c #997466",
"iX c #8A7B73",
"pX c #947B73",
"aX c #A87967",
"sX c #B57A68",
"dX c #C17F6B",
"fX c #7D842F",
"gX c #968637",
"hX c #898930",
"jX c #A08739",
"kX c #94844A",
"lX c #AC8B4C",
"zX c #99846B",
"xX c #8C8475",
"cX c #988878",
"vX c #938A72",
"bX c #A68875",
"nX c #A7967B",
"mX c #B68972",
"MX c #BDA57D",
"NX c #C68C75",
"BX c #D4AB52",
"VX c #9A8F82",
"CX c #AB9A85",
"ZX c #A98C84",
"AX c #BAA88A",
"SX c #B9AC96",
"DX c #B9B192",
"FX c #C7AA8B",
"GX c #C7B796",
"HX c #CAAD90",
"JX c #D5CCAE",
"KX c #CEC69C",
"LX c #DEDAC6",
/* pixels */
"T.K.0 & % 1 n W t.@.P Q Q aXuXaXaX-Xs ` aXI.ZXU.L rX[ r L Q.7XwXwXwXqX[ r.2.6X[.yXHXCXJXJXbXrXR.R.R.[ #Xt.<.Q { @.A  .f C.nXzXnX",
"OXo.H . 0 : 6 5 F E Q [ L.aXNXrXFXmXA ^ aXN.pXzX2.w.p I.L R.@X7X7X>X#X[ r.6XLXyXVXGXCXJXLXrX2X).-XtX=Xe.{ C E ^ $.E S f ].CXzXVX",
"#XZ n 3 5 6 2 5 +.{ 4 K.K.p.mX2X/.`.1X` 6XH.W.MXG.,.].].t G.6X:XH.OX+XL N.SXJXiXn.cXHXGXGX^.C.rX@X2.P e.p < P e.OX{ , `.iXHXcXVX",
"qXG x 2 & W { 2 W Z   e.] L.mXmX1.K.HX@X2.A 2.(.Q.r ZXu y { R.wXK.G.+X/ *XJXxX[.a _.AXFXGXH.(.2Xw.L.S Q < , u { L.#., xXiXGXCXpX",
"(.p.W - - k 2 o.9.E O | J.+XH.sX/.R.aXK.2.A L [ sXL K.@ S #X2.Y.P R.<.2.2XZ.SXxXiXB.s CXnX`.OX[ p.s.! 0 t @ s @.+Xe.e _.iXVXJXcX",
"W.qXF v 3 - @.v F S   w.H.+X[ ZXuX<XH.sX^ ) ) qXaXr p , i t.Q | u r.^ Q.rXcXxXA.].CX_.vXzXT.t.a.Q E p s e # s K.Q.h.S.S.~.iXKXSX",
"R.@X8X- 3 0 b 0 0.W / w.K.E.( cXbXE.U.1X2XsXdXmX-XL , i t.L [ 8 [ [ I W.bXE L _.t.A a e.w.OX[ y < 7 ) r , p | ] =X{ U.S.^.[.GXDX",
"` 3X6X{ - . - H X. .+XK.L.[ a [.bXI.<XsXsXsXNX3X@Xs P o.Q s p -.G.s :X#XQ C w.{ ! E E T.a.Z P E 9 9 ) 2.E.w.K.{ =Xf ~._.n.'.GXGX",
"1.Y.G.} (.2 1 D @.w.| Q G.L `.^.NXU.2.aXsXwXaX6Xw.0.9.C f P s t.{ p 7XT.A w.9.e.w.9.$Xo.4 p ) , J.H.rX/ ).*X[ t.) , 9X`.C.P.AXDX",
"s } r.Y./.4Xx Z e.e.*XE.F.r FX_.yXI.R.*X2.1XaXF.i o.[ A / 0 Z  .s s.7XA L.$X{.@XOXa.9.< u N.N.+ @ rXrXtXrX(.*X2.` R.nX^.A.^.AXGX",
"G.^ 1.2.3X3XzXt.E e.(.2.` 3.nXxXP.J.w.T.F.wXH.p e @.P C u t.e./ e.eXe.;X7Xy.Y.s.{ ! c ` 6X2Xf.( ) @ uXuXuXtXF.1.A.nXGXB.Z.`.CXDX",
"5XP 1.G.*X=X!.1XE @.} P.M._.xXvXn.I.N.3XY.Q.<Xs , @.< [ w.T.$XeX>X$X#Xd.h.<.u.E S W [ 6X3X*Xy P.>.< pXtX2XH.V.C.].^.cXn.C._.nXVX",
"w.L.7 L P 2.*X1X*XX.3.SXxX^.`.rX_ <X` W.[ F.t.i ; A i 9.Q >XqXG.>X}.{ y < 9 + = ; V.tX` (.I.f r L f yX2X1.j yXxX~.^.[.n.n.Z.cXiX",
"w.@.q L f ^ J.5XR.a.3.[ @XN.L w._ <X` (.L ) 2.{ r A P E { 5XeXw.%XP p @ ; < , i L ^.yX` ).C.( P { V.3XH.a , '.VX[.S._.M._ B.cXiX",
"F.X.Z y 9 P { } 5X@Xe.R.G.t.{ P 7X6Xs T.s s p  .L P ! 9.qX%XOX[ C = 0 } F.2XbXMXHXcXP.1.j ) f R.w.^.yX< t @ Z.[.[.D.C.~.n.B.yXiX",
"2Xp.F - % z r s K.qXK.G.E.+XQ.L 5XwXs G.y P s 9 I [ { %X%XwXg.< 8 7 / 4 ~.yXbXMX'.nX>.rXV.2.s ^ [ a ZX, ( t Z.[.[.S.D.C.Z.Z.].iX",
"=XL.o.z - 6 Z S | s.@X#X1XT.bX#XR.eXP e.[ y A 0 e.W Q wX>Xe.4 < p `.P rXyXrX^.F.A.=X4X3X(.W.).( j M.O A *X2.1.nX[.~.~.S.Z.S.rXpX",
"Q.a.@.z 3 5 k 5 A { / / #XY.6X5X%X5XwXL.+Xs.I = @.{ #XqXT.< 7 P cXz s ` 2.9XyX`.V.I.).`.W.uX2XN.y , s O F.U.s ( VXVXiX[.[.].rXyX",
"F.L.#.- 6 - Z Z u A L y @.P p @.qXqXsXwX{ Q P 7 p @.qX@Xt.0 P M.yXp P.rXyX_ , V.B.r O I U.R.(.(.1XaXK.=X@ N.'.P.t r nXCXnXiX].^.",
"4 =XD 4 F % - k e.P , > 7 , + s S >Xh.7X#XP @.Z 9 c 5X| , 5 f 1.: ^.~.].vXpXcXcXxX'.` O 7 ` 2.@XbX7X-XR./ | R.I.j e r a j `.A.y.",
"< a.k z . - k v e.e.G.K.1.p s o 8 [ >X&XqXOXp  .p < #X! ; p s P Q rX`.C.f rXcXZXpX].( , @ # 8 `./.a j 2.L L K.Y.H.I.^ a r r f j.",
"f #.Z z o.3 Z w.{  .t.T.w.2.C G.< 8 @X7XqX&X! P E 7 w.4 , 8 3.^ ^.pXyXt C.cXyXP.>.cX_.3.@ @ X A.uXe @XA L P t.L.F.s 2.(.P.f q.,X",
"pXh.@.x 3 = 5 @.W ! #.L.p.F.P A <.9 J t.7XeXi.P ! < t.+ y u a ].J.cX_ r ].'.j ^.CXcX'.zXP.@ X 1.2X7X<X(.} ^ a.OX} F.} 2.2.r.lXBX",
"C.+XW 1 % 9 - & 5 E ! a ] ^ G.1.2.Q u i.t.>X{.! W < y   < y ^ /.` `.} r ].7 B.cXcXyX`.^.j h # 3XuXaX1X*X^ P s y L R.Y.2.G.Y.:XN.",
"_ X.F 5 - 6   4 k #.Q s s J.+XY./ `.c 4 Q 0.}.s.0.~ < . 9 t J.E.#X^.I.^ >.a _.iXyX].2XZ.` >.R.3X>.6XuXqXY.H.( s } R.t.`.9XF.^ H.",
") e.0 5 2 5 Z H 2 X.@.@ r [ T.:XI.p F.9 , F 9.}.{.d.<   9 a ` { E a.).( j cX].~.~.).` ^ V.P.>.V.r 3X3X3XY.T.y 7 a E.Q.3XV.^ `.8X",
"J.+X#.2 - 1 W x E { | w.f / K.R.8XR.Q 7 8 # Z s.{.{.,   y C.P P M OXw.M.a vXpXiXP.N.s 2.F.V.I.<X2.i 4XQ.Q.r.[ L a N.L.(.Q.<X9X1.",
"H.+Xo.k 2 6 0 #.H x @.^ [ e K.<XuX3X4Xs : < < u +.%XO . p { r P ! |.+.M.2XH.{ 1.C._ ` / tX*XG.<XJ.i rX1X,.Q.^ 2.d e 2.2X3XuX1.A.",
"/.OXp.x 2 x 5 2 W @.o./ [ r s W.`.U.` /.{ < , + ~ u.< @ u E / E W eX| b.2X1.s w.2.a O (.P._ ).aX1XE.1XQ.R.G.[ w.y s } `.P.W.1.^.",
"M.s.a.& 2 % 3 Z v H e.2.^ r S } uXW.I./.3X2.: = . ! u p < 0.E p E a.k h G.2.s C.< # O J.^ j (.4XJ.<XQ.F.G.I.G.T.t./ ) 8X<Xr.(.R.",
"n.OXF E M : & 5 H W w.#XT...s r.s W.H.N.uX0 f %   9 W C 0 ! W Z K !.G |.G.(.M.C.r r + j n.a J.=X).I.I.I.J.Y.@XT.T.t [ / 1.I.N.*X",
"L L.@.5 6 . 5 k @.W { =X+Xr i s P M.r.7X(.I e.4   = { < r p P p C OX{.%XG.P.M.C.' h O @ F.^ 4X*X3XuX=X/.<X5X6X=XJ.e e / 1.1.Y.uX",
"@ L.n 3 F 2 +.@.e.e.e.,.a f ) e.@X!.1XkXQ.e.0.9.; . y { p Z C C A L.$.w.N.Z.C.P.m.r t @ y <X3XQ.8X3XaX!.) @Xr.U f 3.[ a.T.#X8X,X",
", +X#.5 1 : 3 C ! E @.) =.c.{ t.w.p.1XhX` Y.w.o.< + y 9.! K P 0 { %Xv u.2.2.h _ m.h e @ ) 7X5XzX8X8XwX9Xx.x.r.f fX3.e.| e.#XeXhX",
"<X%XG z 6 3 % - - G 9..XgXz..X$X&X&Xf.k.r.%XQ r.4 < @.W t.9.Q Q @.e.Z h.Z 7 t s @.s @ w.8XlXgX:.gX2.8XkXv.&.fXfXhXk.gX&X&X:Xg.c.",
"5XK.F G . 2 5 z 5 X.0.x.v.k.XXoX&X&Xg.c.r.5X! a.4 < W S A ) P E ! E { u.E s 3.aX+.s r.7X*X,X.X&.c.^ /.z.&.fXhXv.k.z.gX}.%XT..X4.",
":X@XH 5 2 4 F F z W e.f.&.7.7.;..X;.=. X<X>Xw.p.0 u A E Q A E W P P o.: s y.aXqXk Q T !.0Xj.Y s ! U .Xk.&.7..Xk.c.z.;.XXoX7.l.:.",
">X@Xo.3 2 2 n 5 5 F @.@.l.;.I j.7.Y y.f./.$Xe.{ E , o.9.s.u A { K s.K 9 0 ! 6X6X3 x n +X0Xn g.r.` t XX&..X:.=.w l.M .XU 6.p U c.",
"wXs.p.Z x 3 5 z Z o.@.e.l.x.U ;.g .Xf.Y.#Xe.#XY.[ 7 @.] ! Q.s E @.{ C < E @.I./ 0 3 0 E +.[ [ r /.oXlXg 8 =.f.7.XXI < 8 K ;. X=.",
"eX+Xa.5 2 - 3 F W W K.a.=. Xy.7 x.I , #XK.e.$X@X[ C L.; K r.< { e.L u { OXp s 8 - & 0 9 0.P A i.uX.XjXhXg =.jX.X9 0X, Q y.i r [ ",
"| OXF 2 2 & x k @.e.e.@.gXy.f.@ P L ,.E.E.Y.@XQ.w.@.L., C C 9 S S 9 y t.T.P ! 3 X x c p C { E [ M.7.g s x.x.x.x.XX,X7 i f I i U ",
"/.OXG 5 b k T 0.@.s.s.K.p I p @ ,Xa e R.:XG.G.1Xw.t.a.Z 7 v 9 E < K y e.{ y C k % q z : k C ) rXI.-.i r d t.Q I s y.@ U t.r t P ",
"H.5X$.Y q : 3 x F E X.u.[ @ r.0 2.V.(.U.;X@.9.5XI f T.< y u y r o < > a.p P P 3 - : C 4 0 (.G.R.2XC.^ h t d L 9., u I i 1.I.I.a ",
"f.s.o.n % 2 = F F +.+.W 0.L A I 2.{ [ e.E.@.0. .R.S 0.4 @ : < 5 9 C = ) W s M n : z x c H.y } / ) C.H.^.j ( | y.s Q p r.) 2.L G.",
"kXXXZ 5 k 5 b ! x W u.#.W <Xg c L F.L 9.T.G.G.S Y.8 p.& 8   9 0 8 S 7 P y p < F 2 5 = < 9 w.1./ u 1.1.M./.J.L [ <XU.J ) 1.1.^ <.",
"XX5.O.5 - b F ! S G X.O.0.-.9 ,.3.2.) L.w.t.G. .| r p.< p   < < < Y < q Z o Z W Z : 9 < 9 C Z E w.E P P u Z @.Z Q P I 3.Q ) ) r.",
"7.s.s.W x & X.b X.%.p.G u.P <.,.9 2.2.t.-XOXt.r.[ 8 e.< s   + 9 y E 7 s i < c 0.#.# 4 0 O 0 R.P C [ P Q Q { t.9.P c -.J P [ [ r.",
",X@X+.3 3 - z o.u.O.0.s.#.9.K E 9 2./.0.#XK.w.G.S y e.S s o $ i [ Q s L + 9 o.0.@.C % Z < : 9.3X<XS r.t.@XY.! 5 [ [ 9 P P F.F.<.",
"9 s.F Z n 2 2 n #.s.u.u.0.E 5 c S c r.p T.e.! T.[ < t.e.r   < Z N.A ] s ; 7 v #.i.o.o   0 E 9 K Y i.M $XC E Z ! ! v 2 9 0 { { <.",
"M T.F 2 0 v F a.s.0.;Xd.u.o.0.Y 3 v F P +XT.a.T.^ , { $.r   O s N.C i , , , u A c C : < , P Z 0 : c 0.2 u.s.{.}.T ! 0.0.b b n W ",
"0 1Xo.z < x G F T G +.%.d.Z O.o.5 : z c #.! h.T.` . t.u.p = < y i 9 = + < 9 9 < y : < < C A 0 z Q o.Y c 0.v T 0.n W Y Z +.T z - ",
"2 o.W 0 b 0 - G b n +.X.%.W v 5 b k 2 0 c 3 c 0 h : }.u.u.+ % 8 y @ : @.o.q ; 9 9 4 L C L L v 0 0 K F 0 C x 0 3 c k x x F Y 0 2 ",
"E v 0 n x 3 z +.x N u.W x b b 5 5 W Z o.Z T u.I r < {.}.%.. . 9 y o 0 s / 4 : A < 4 L P y E c 0 v ! ~ K Z ! u.e.X.E 0.E F x 9 3 ",
"Z E 4 x 3 o.Z F x 5 v Y Z E 5 W C Z x 9 W Y E L < c c o.$.X . 7 y . : Y Q C 0 A < O i 9 S n 0 5 5 2 0 E z z E W X.Q N j.9.o.E j.",
"W ! E Z b ! W 0 W c F Z Z 0 3 - o.Z Z Z % Y @.! { @.! E ~ 0 & < 0 : ; 0 v b 0 Q = 7 [ A E k 2 9 9 o.p.X.W Z E E ! v j.XXf.!.i.,X",
"c 5 5 0 0 0 z x x 5 F S 5 0 3 Z Z 2 0 v 5 5 0 5 C z x 0 2 2 2 0 9.I J 0 s 0 c A C 0 C c 9 4 - 5 : q Z c z k 5 5 c 6.! N XX XlX5.",
"@.Q #.e.W b W Z A Z b 6 2 & z Y W S C v { 0.~ F a.Z t.5 0 9 0 -.{ t.5.Q & & C 0 0 c & K P : : 2 4 & 0 E Z ! E ! $. Xz x 5.lX0XkX",
"4 S e.k @.s.H W Z z 2 3 V 2 n W @.W 5 W T.W u.OX>X{ K -.0 K Z 9 K M 2 i.:Xs.$Xi.$Xi.K = x : 5 C 9 V C Z { ] C 5 8.n -  Xj.|.%.kX",
"#.E o.o.6 5 Z Z Z V 5 & x 4 C 5 % Z {.0.s.d.v < v Y -.! 0.: b K 9.K M c s.XXi.6.y.~ 5.5.C 0 C : & 9 < 4 % . 4 e.{.N ;.oXXX%.N XX",
"{ S V V = - - F b 4 5 - - 5 6 +.0 . w.h.o.~ c 0 0 5 0.N 9.Z c c N 0.wXg.X.0 o.}.:X}.o.* & 0 Y.4 : ; 4 . u V +   b 8.N l.oX6.6.B ",
"- 4 < 6 5 0 & u 5 z - -   V 2 0.z 3 v 0 Y ~ : ! q.J y.F ! C * 8 2 Q c N g.q.c v +.j.6.N 6.h.Z % : ;   p < s 5 . & 8.5.8.{.m m B ",
"y u 9 C V V S 5 & - 4 2 V Z E W C h.h.C a.q.g.g.-.g.-.Z 0 M J K c }.5.! >Xo.5.* N * 3 6.~ 5.c 3 q 0 0 P 9 C u u c q 8.*.8.6.B B ",
"A - = 4 4 4 5 u - - - - 5 4 C & c 0 Y h.M : K K M 5.g.M c c 0 R b M w l v v N q.N +.v Y N ! N 0 : 2 9 : P 9 < = < < B l *.B B m ",
"= o < = < = - - - . & - : : 5 0 8 C c M 0 v M w R c Y c c K J ~ M N ;.M 0 Y M ;.v M q.5.B c 9 2 0 c = w : = = < + = % + + < 2 l "
};
