/* XPM */
static char *result[] = {
/* columns rows colors chars-per-pixel */
"64 64 253 2 ",
"   c #110909",
".  c #190909",
"X  c #161109",
"o  c #170A10",
"O  c #141312",
"+  c #191110",
"@  c #1A1919",
"#  c #181513",
"$  c #0A0909",
"%  c #221008",
"&  c #2B130B",
"*  c #331A0B",
"=  c #221111",
"-  c #2A1111",
";  c #221811",
":  c #2A1911",
">  c #221118",
",  c #211918",
"<  c #2A1919",
"1  c #321110",
"2  c #321911",
"3  c #3A1911",
"4  c #321A19",
"5  c #3A1A19",
"6  c #220D0A",
"7  c #2A2118",
"8  c #2A2217",
"9  c #322219",
"0  c #3A2219",
"q  c #382515",
"w  c #382913",
"e  c #271821",
"r  c #292121",
"t  c #272424",
"y  c #322222",
"u  c #3A2221",
"i  c #322922",
"p  c #3A2A22",
"a  c #322A29",
"s  c #3A2A2A",
"d  c #312129",
"f  c #3A3129",
"g  c #363323",
"h  c #352B31",
"j  c #3A3131",
"k  c #431D19",
"l  c #421808",
"z  c #42221A",
"x  c #4A221A",
"c  c #432A1A",
"v  c #4A2A1A",
"b  c #442414",
"n  c #522A1A",
"m  c #522110",
"M  c #563319",
"N  c #4B331D",
"B  c #683418",
"V  c #422221",
"C  c #432A22",
"Z  c #4B2A22",
"A  c #432B2A",
"S  c #4A2A29",
"D  c #4A2121",
"F  c #522A22",
"G  c #5A2A23",
"H  c #552B29",
"J  c #423121",
"K  c #4B3222",
"L  c #43322A",
"P  c #4B322A",
"I  c #4B3929",
"U  c #433B26",
"Y  c #533223",
"T  c #5A3223",
"R  c #53322A",
"E  c #5B322A",
"W  c #53392A",
"Q  c #5B392A",
"!  c #553921",
"~  c #433231",
"^  c #4B3231",
"/  c #443A32",
"(  c #4B3A32",
")  c #433A39",
"_  c #4B3A39",
"`  c #47363F",
"'  c #523231",
"]  c #523932",
"[  c #5A3A31",
"{  c #523939",
"}  c #5B3B39",
"|  c #5D3630",
" . c #422931",
".. c #62332A",
"X. c #633A2A",
"o. c #6B3A2A",
"O. c #683728",
"+. c #633A31",
"@. c #6B3B32",
"#. c #763C31",
"$. c #723829",
"%. c #4E511C",
"&. c #6B4218",
"*. c #4B4722",
"=. c #5B422A",
"-. c #584425",
";. c #494338",
":. c #534232",
">. c #5B4232",
",. c #53433A",
"<. c #5A423A",
"1. c #574938",
"2. c #585829",
"3. c #67442A",
"4. c #744729",
"5. c #695828",
"6. c #7A5326",
"7. c #634232",
"8. c #6B4233",
"9. c #6B4A33",
"0. c #63423A",
"q. c #6C443A",
"w. c #634A3A",
"e. c #6B4A3A",
"r. c #624933",
"t. c #724232",
"y. c #734B33",
"u. c #74433A",
"i. c #734B3A",
"p. c #7B4B3A",
"a. c #794837",
"s. c #6B5737",
"d. c #74523A",
"f. c #7C523A",
"g. c #795934",
"h. c #76682B",
"j. c #7B6835",
"k. c #716D2C",
"l. c #596118",
"z. c #423942",
"x. c #4A4244",
"c. c #534343",
"v. c #5B4342",
"b. c #524A43",
"n. c #5B4A42",
"m. c #5A4A4A",
"M. c #534A4A",
"N. c #5B5245",
"B. c #5B5353",
"V. c #5A4A52",
"C. c #634A42",
"Z. c #6B4B42",
"A. c #6B4A4A",
"S. c #634646",
"D. c #734B42",
"F. c #7B4B42",
"G. c #63524A",
"H. c #6B524A",
"J. c #675546",
"K. c #735243",
"L. c #7B5242",
"P. c #73534A",
"I. c #7B534A",
"U. c #735B4B",
"Y. c #7A5A49",
"T. c #685854",
"R. c #735A52",
"E. c #7B5A52",
"W. c #745453",
"Q. c #6C6459",
"!. c #776557",
"~. c #796F58",
"^. c #796B65",
"/. c #756D66",
"(. c #834B3A",
"). c #88553A",
"_. c #945635",
"`. c #856635",
"'. c #897635",
"]. c #937639",
"[. c #8A6D2F",
"{. c #845242",
"}. c #83534A",
"|. c #845B4B",
" X c #8C5A4A",
".X c #885844",
"XX c #935B4A",
"oX c #985C48",
"OX c #835B52",
"+X c #8C5B52",
"@X c #855756",
"#X c #965E53",
"$X c #844A42",
"%X c #896447",
"&X c #96644A",
"*X c #967645",
"=X c #846352",
"-X c #8B6353",
";X c #83635A",
":X c #8C6A5A",
">X c #886759",
",X c #936453",
"<X c #9B6B5B",
"1X c #986955",
"2X c #89765B",
"3X c #997657",
"4X c #8C734A",
"5X c #A77748",
"6X c #A56A55",
"7X c #A97358",
"8X c #A46B4E",
"9X c #876B64",
"0X c #956B62",
"qX c #887568",
"wX c #997466",
"eX c #8A7B73",
"rX c #957872",
"tX c #A87967",
"yX c #B57A68",
"uX c #C17F6B",
"iX c #7D842F",
"pX c #458477",
"aX c #968637",
"sX c #888B30",
"dX c #A08739",
"fX c #988B4C",
"gX c #AC8E51",
"hX c #9A846C",
"jX c #8A8676",
"kX c #988878",
"lX c #938A72",
"zX c #A88874",
"xX c #B48777",
"cX c #A6967A",
"vX c #B4906B",
"bX c #B5A56E",
"nX c #A8AD66",
"mX c #C59071",
"MX c #CBAE5E",
"NX c #945387",
"BX c #4A8584",
"VX c #999285",
"CX c #AB9984",
"ZX c #AC8B8C",
"AX c #BBA88A",
"SX c #B9AF94",
"DX c #85A885",
"FX c #C7AA8B",
"GX c #C7B796",
"HX c #CAAD90",
"JX c #D5CCAE",
"KX c #CEC69C",
"LX c #DEDAC6",
/* pixels */
"L.D.0 & % 1 n E e.+.P W W tXrXtXyX}.s _ tXG.ZXs. .9X] 9 L I.1X7X6X7X6X] w.<.<X/.qXHXAXJXJXZX9XW.P.P.] .Xe.=.R [ +.A [ f m.cXhXkX",
"{.X.H . 0 : 6 5 F R W ] F.tXmX>XFXxX~ ~ tX<.hXzX<.0.p H.L P.%X1X1X,X X] w.3XLXqXVXGXCXKXLX9XE.W.@XwX+Xq.[ C ] ~ @.R S f ^.CXhXVX",
" XZ n 3 k . 2 0 O.[ 4 D.D.#.xX=XR.!.-X_ <XZ.Q.cXZ.:./.^.t Z.<X%XZ.$X|.L 1.KXJXeXx.lXHXGXHXG.m.9XOX<.S q.p < S q.$X[ , !.jXGXzXVX",
"6XG x 2 - E [ 2 E Z   q.' F.xXxX<.A.HX|.<.A <.E.Y.r ZXu y >.P.7XD.Z.}.^ !.JXNX/.h Q.AXFXGXA.!.=X0.F.P W < @ C | F.u., hXeXSXCXrX",
"E.u.E - - k & X.7.H O } A.}.A.yXR.H.tXK.<.L / [ yXf D., P  X<.K.P P.>.<.!.M.SXjXeXc.s cXcX!.{.] u.a.Q p r , s 0.}.e.r B.eXCXJXkX",
"U.6XF v 3 - +.Z n S O 0.Z.}.( ZX0X=XZ.yX~ ^ ^ 1XtXe p @ i e.] [ p e.~ Y.9XkXeXN.^.CXQ.kXhXL.e.i.W H y s e # p D.I.K.G.B.T.eXKXAX",
"P.%X3X1 3 0 k k 8.E P 0.D.I./ lXzXE.G.-X=XyXuXxX+XL , i 9.L ] 8 ( ] ( U.zXP L !.e.s a 8.0.{.] y < 8 I r , s ] ' +X[ J.T.T.^.SXSX",
"_ :X:X| - . & R ..| @XD.F.] a ^.xXH.=XyXyXyXmX1X|.s P X.W s p [ u.s %X XW C 0.Q [ R W L.i.Z P ' p 9 ( <.I.0.D.[ +XL T.Q.x./.KXGX",
",.K.Z.{ E.2 1 D +.0.} W Z.L !.T.vXP.<.tXyX7XtX<X0.8.+.C f P i q.] p 1X{.A 0.7.q.0.7..X+.< C ( , S.A.9X^ W.E.:.e.( @ 2X!.m.G.AXSX",
"s ] C.K.R.>XD Z q.q.@XI.C.r GXT.eXZ.P.OX<.-XtXw.9 8.] s ~ C Z [ s i.1XA f..X{.}.(.i.7.< u v.v.+ @ 9X0X9X9XE.OX<._ U.cXT.B.G.AXGX",
"Z.~ ,.<.1X>XhX9.R e.E.<.) b.cXjXG.S.w.I.C.7XH.s e +.P C u e.q.P q.8X9. X1X7.K.a.[ Q c ( <X-XJ./ ( @ wXwXtX0XZ.,.n.cXGX1.M.Q.CXSX",
",X^ ,.Z.E.+XY.=XR +.{ G.b.T.hXlXx.H.v.-XD.Y.OXs , 0.< [ 0.L.|.8XoX.X Xa.f.>.u.R Z Q { <X:XE.0 G._ < rX0X;XS.b.B.^.T.kXx.M.Q.cXcX",
"0.F.< L L 0.@X,XOX..1.SXkXG.Q.9X) =X_ U.] C.e.i ; A i 7.W ,X6XZ.&X{.[ y < 9 + = , 1.0X_ E.H.f 7 L f qX;X,.j /.lXT.T./.x.x.M.kXjX",
"w.X.q L f ~ n.,XP.i.1.] |.<.L q.) =X_ E.L ( <.[ 7 A P S | ,X8X8.oXP s @ ; < < 7 L T.qX) W.m./ A [ n.qXZ.a , qXkX/.B.Q.M.) c.kXeX",
"C...Z y 9 P ] { ,X|.q.P.Z.D.] P 1X<Xs L.s s s X.L P Q 7.6XXX{.] C > 0 { C.;XzXFXHXkXG.1.j ( f Y.0.G.qX< t @ x././.V.m.T.x.b.9XeX",
"=Xu.F - % k i s D.6XD.Z.I.}.Y.L ,X7Xs Z.i P a 9 W ] [ XXXX7Xd.< 7 7 ^ 4 T.qXcXbX~.CX_ 9Xm.<.s ~ ] a ZX, / t M.Q.eXB.V.m.m.M.^.eX",
"-XF.+.k & 6 v S 0.i.|. X-XL.hXXXP.6XA u.] y A c q.H W 7X&Xu.4 < s R.^ qX9X2XR.C.J.@X:X:XE.U.R.j s c.O ~ ;X<.,.cX/.Q.T.B.B.T.qXeX",
"E.i.+.k 3 5 D 5 A { ^ ^  XK.1X,X X1X7X{.}.i.P = 7.|  X6XL.< 7 P kXk s _ c.9XqXQ.n.H.R.R.U.wX;Xv.y , s + C.J.s j CXjXeX/./.Q.9XqX",
"C.F.@.- . & Z Z 5 C A y +.P p 7.8X6X7X7X[ W P 7 p +.8X|.e.0 P c.eXq G.9XqX) > n.b.r O / U.H.E.E.-XtXK.+X@ C.;XG.e r cXCXcXeX^.G.",
"4 +XD 4 F 6 - k q.W , @ < , > s S 1X{.1X X( E Z 7 Z ,X} , 0 f ,.: R.T.~.lXrXzXhXjX~._ + 7 ( <.|.zX1XOXA.~ } P.H.~ t e a s !.B.w.",
"< p.k z . & z Z q.q.q.D.<.s s O 7 W &XoX6X{.C Q p < |.[ ; p s P W 9XQ.m.f 9XkXVXeX^.( , @ # 8 E.R.d A <.L L D.K.A.H.^ a r r f d.",
"f @.Z k X.3 Z 0.[ [ D.L.0.<.C Z.< 8 |.<X6X&XQ P R 7 8.4 , 7 1.~ T.rXqXt m.kXqXT.;.kXT.b.@ @ X N.wXr |.f L P e.L.C.s <.E.H.f 9.*X",
"qXL.+.Z 3 = 5 +.E Q q.F.u.S.S A >.7 J e.1X8Xi.Z Q - e.+ y p a ^.G.kX_ r ^.~./ J.CXkX~.lXG.# X ,.;X1X=XE.{ ~ u.$X{ C.{ <.<.w.gXMX",
"m.|.E & % 4 - & 5 H Q a ' f Z.<.<.] 0 i.e.&X(.Q Q < d   < y ~ R._ !.{ r ^.r x.jXcXqX!.E.) h @ >XwXtX-X@X~ / s i ~ P.K.<.e.L.%X<.",
"_ +.F 5 - 6   5 D o.W s s S.|.K.^ !.z 9 W +.).p.8.Q :   9 t S.I..XT.H.~ ;.a Q.eXqX^.!.M.) _ P.>X,.wXwX,XK.Z.L s { P.Z.!.2XZ.~ A.",
"( 8.k 5 : 5 Z H & E 0.@ e ] f.%XH.p C.0 , Y 8.).(.a.<   4 a _ [ Y u.R.L j kX^.T.!.W.{ ~ n.G.;.n.r :X:X1XL.L.a r d I.Y.>X1.~ !.3X",
"S.}.@.& & 1 E x R [ [ 0.f ^ D.P.3XP.W < 9 + Z a.(.(.,   u m.P P K {.q.x.d lXrXkXG.v.s } C.n.H.=X<.9 >X|.U.w.( L a S.L.E.Y.=X>X1.",
"A.}.+.z 2 6 0 @.F D +.~ ] e D.=XqX:X>Xs : < < y X.XX+ . p ] t P Q ).o.v.>XA._ ,.m.) _ ^ 0X;XZ.=XS.i 9X-X:.Y.^ <.d , <.;X:X0X,.N.",
"R.(.u.x 2 x 5 2 E +.Q ^ ] r s U.!.U.` R.[ < 7 O ! t.< @ p R ^ R X.&X} z.=X,.s S.<.h O Y.G.) W.tX>XI.-XE.P.Z.] 0.y s { ;XG.U.,.T.",
"c.F.i.2 * % 2 Z Z H q.<.~ e ^ ] <XU.H.R.:X<.< % = Q u 0 < 8.R C R a.k h Z.<.s m.< # O m./ j E.>XS.=XY.S.Z.Z.Z.L.e.^ ( 3X4Xn.E.P.",
"x.{.F R n : - 5 H E q. XL. .s w.s U.A.v.wX0 p =   4 T C p Q E z P Y.G _.Z.E.{ m.r r + j x.t S.+XW.H.H.H.C.P.|.L.L.t ] ^ ,.H.v.OX",
"L L...4 % . 5 D +.E [ +X}.r i s I c.w.1X!.Y q.4   = [ < r p P p C (.(.XXA.G.b.m.` h + , C.~ >XE.1X0X-XR.=X,X<X+Xm.e r A c.,.e.wX",
"@ I.v 3 F 2 X.+.q.q.e.:.j 1.^ xXbXL.%XfXY.q.u.7.% o y [ p Z C Z L F.#.0.v.n.m.T.x.e t @ r =X:XE.3X:XhXg.,.|.C.U f 1.( i.L.XX3X3X",
"< {.@.5 1 : 3 z Q H +.I 2.bXNXjXVXxX4XnX_ L.7.Q < + y 7.Q P Z p Q XXv t.} ,.h j M.h r @ ^ 1X1XhX3X1XtX4Xg.j.w.f k.2.q.<.q..X*XsX",
"|.+XH x 6 3 % & - H 0.'.bXnX*XAXfX6XcXnXw. XW 9.4 < +.E e.7.W P +.q.S f.Z r t s +.s @ w.3XfXaX5.aX<.7XfXl.*.iXiXaXk.aXoXoX%Xf.k.",
"1Xu.n G . 2 k 0 k ..8.h.zXfXbXAXmX#XzXbXw.,X[ i.4 < | P C ( Z W Q W [ t.R a w.tXO.s 0.1X+X*X'.%.k.~ U.k.%.sXsXl.k.k.aX(.XX{.4X*.",
"%X{.H 0 2 2 F H z E q.s.wXrXbX-.mXpX!.j.=X-Xq.q.0 p u R R A W Q P L X.: p 7.tX8Xk Y Q U.5Xg.Y s Q U '.5.%.k.'.l.k.h.-.].[.5.h.2.",
"1X|.+.3 2 2 F 5 5 Z +.+.CXgXBXs.3X3XnXs.E.{.q.Q R < +.7.p.u A | R f.K 4 p Q <X<X3 x n }.5Xn d.w.( t ].%.[.2.*.w h.U '.U 5.0 U k.",
"7Xu.u.v x 3 5 z Z +.X.q.h.gXNX=.f DX3.d. Xq.|.K.] 7 7.' [ Y.s R +.Q C 9 W +.H.) 0 3 0 Y o.] ] r R.`.gXg 8 *.s.5.].*.< 8 K -.`.*.",
"8X}.i.5 2 - 3 F E E D.i.*.gX6Xj.vX!.2X XD.i..X|.] C F.= K w.< ] 0.A y | {.0 s 9 - : 0 0 8.A A y.wX'.dXsXg *.dX'.0 5X, W r.i r >.",
",.{.F 2 2 - k b +.u.q.+.aXvXhX=XI BXfXY.Y.L.|.Y.0.+.F.> C C 9 S P 0 y e.L.P Q q . x 0 p C | R ] v.5.i s j.j.j.j.].*X7 i f I i I ",
"E.{.G 0 z x M 8.X.i.L.D.t pX-X/.MX( !.P.%XZ.Z.-X0.e.e.v 7 K 0 Y < P 4 q.[ y c x % 0 z : V v / 9XH.=.i t d e.] I s 3.@ U e.r t L ",
"A.#Xt.F q & 3 D F H ..t.] @ zX2X1.n.E.H.+X+.0.,X( L L.< r u i r + < @ u.p S A 3 - 2 C 9 0 R.Z.P.;Xm.~ j t d f 7., p I i ,.H.H.a ",
"s.p.O.n % 2 = F F ..o.E 8.L L s.<.] ] q.I.+.8.E P.S 8.4 > : < 5 4 C = ( [ s N n : k v c A.y { ^ ( m.S.T.~ / +.7.s ] 0 w.( <.f K.",
"fX].v 5 z z z T x E t.@.E =Xw J L C.L 0.F.Z.e.S K.< i.; 4   0 p 9 P 7 P u p < Y : 5 = : 9 0.<.^ y ,.,.,.R.C.A ] =Xs.J ( ,.,.( >.",
"].3.o.5 - k n Q Z G ..o.8.=.9 :.1.<.^ F.0.e.Z.[ } y #.< p $ < < < Y < q p + v E Z : 9 < y C C R 0.W S P C C } Z W P I 1.W ^ ( w.",
"3.f.p.E x & X.z ..$.u.G t.L 1.:.9 <.<.e.OX{.e.w.] 7 @., s   : 7 y R < s 9 < C 8.@.; 4 9 + 0 K.P C ( P [ Q [ e.7.S C >.J S ] ] 1.",
"'.=XO.3 3 - z X.t.o.u.a.@.0.N R 9 <.R.8. XP.+.Z.P y q.S s + $ 7 I ] s L = 9 X.8...C = Z < : 0.:X=XP w.e.|.D.W 0 ] ] 9 P P C.C.r.",
"0 p.H Z n 2 2 F 8.a.t.t.@.R 0 c P c w.p L.q.Q L.] < e.q.r   < P v.A ' s @ 7 Y @.y.X.+   0 R 9 K N y.n |.Z P v Q Q Z 2 0 0 Q >.Q ",
"Y F.n : 0 v F i.a.8.{.a.t.+.8.M 3 v F S }.L.e.L.~ , [ t.r   + a ,.A i , , > 0 A c C : < < ^ c 0 : c 8.3 t.p.(.).T Q 8.8.z z F Q ",
"5 ,XX.z : x F F T F $.$.a.Z @.o.3 : z 0 t.Q (.L.( + i.t.0 + , p a 4 , . 9 9 9 > y : < < 0 A c z W +.Y c 8.v X.7.n T Y Z o.T z & ",
"2 7.E 0 z z - G z n O.O.$.E x 5 z x 2 0 c 2 c 0 h - ).t.t.+ & 7 y , : X.X.q ; 9 9 4 L C L ~ Z 9 0 v Y 0 C z 0 3 z z x x F Y 5 2 ",
"R c 0 n x 3 x O.b H t.E v z z 0 0 E v X.Z T y.I r < (.).$.. . 9 9 + 5 p ~ 9 : A , 9 A L y R z 3 c Q ! P F Q 8.u.Q Q 8.R F z 0 2 ",
"Z R 4 v 2 O.v F x 3 v Y Z F 5 Q u Z D 0 Q H Y L < z c X.4.. . < r + : W R Z 0 S < . p y P D z 0 3 2 0 R z k H E ..R M g.7.X.Y g.",
"Q X.R Z b Q E 0 ..z v Z Z 0 3 - X.Z Z Z % Y +.Q | | Q R Q 0 - < p ; % 0 v c q ] % 8 ] A H b 2 0 0 X.i...H Z T R T Z g.].s.Y.y.4X",
"z 4 5 0 0 0 z D v 0 H H 5 0 3 z Z 2 0 Z 3 5 5 0 Z c c 0 2 2 2 0 X.I v p p 0 c C A q A z 9 4 : 4 : 0 Z c z z 0 4 z 4.E M ].[.gX3.",
"7.R q.q.E z E Z C Z z % 2 : b F E S C Z [ 8.T F i.Z e.5 0 9 0 7.[ e.7.! & 2 C 0 0 c & S P : - 2 4 - 0 R Z Q P | t._.q v 3.gX5XfX",
"4 S @.z +.a.E H S z & 3 V 2 F E +.R 5 T L.T t..X&X[ K =.0 K c 9 K N 2 y.%Xa..Xy..Xy.K = b : 9 Z 7 V c S [ ' z 0 6.n : ).g._.B *X",
"@.W +.X.6 5 Z Z Z 5 z & x 4 z 0 & Z (.8.p.i.v < Z ! >.! 8.2 q Z 7.Z J v f.%Xy.4.8.Q 7.=.Z 0 C : & 0 < 5 % 6 4 q.6.M -.[.].4.B *X",
"| S V k = - - F z 5 5 - 1 5 % X.0   8.f.X.T v 9 0 5 8.M 7.Z c c ! 4.7Xd.O.q X.).`..XO.* & 0 K.4 : ; 4 . u u .   v g.M h.`.4.4.B ",
"- 4 , % 5 0 - V 5 k - -   V : @.b 3 Z 0 Y T : Q 9.p 7.M Q C : w 2 Y z M d.9.c v ..f.4.M y.f.v % : ;   p < p 4 = & 6.&.6.4.B m B ",
"y u u V V k S 0 - - < : V Z R E p f.f.C i.9.d.d.=.d.=.Z 0 M J K c ).3.! ]...o.* M * w 4.M 3.c 3 q 0 c L 9 A u u C 0 6.&.6.4.B B ",
"S = % 4 < 4 0 V - - - 1 5 4 C 2 c 0 M f.M : K K K 3.d.! c c w ! c N w b v v N 9.M &.v M M Q M 0 : : 9 : P 8 < = < < B l &.B B m ",
"= + < = < = - - - . : & & : 0 5 9 C p K 0 c N w ! c Y q c K J W N M -.K 5 M ! -.v Y 3.3.O.c 0 2 0 c & 9 - & , < + % + + + < 1 1 "
};
