/* XPM */
static char *result[] = {
/* columns rows colors chars-per-pixel */
"64 64 256 2 ",
"   c #060E03",
".  c #182918",
"X  c #152512",
"o  c #183118",
"O  c #163613",
"+  c #0D2D07",
"@  c #212908",
"#  c #292908",
"$  c #212108",
"%  c #293108",
"&  c #213108",
"*  c #213110",
"=  c #293110",
"-  c #293910",
";  c #213118",
":  c #213918",
">  c #293918",
",  c #213910",
"<  c #313110",
"1  c #313910",
"2  c #393910",
"3  c #383413",
"4  c #2C2D0B",
"5  c #183121",
"6  c #183921",
"7  c #183929",
"8  c #182521",
"9  c #213121",
"0  c #213921",
"q  c #213929",
"w  c #273725",
"e  c #2D2D2D",
"r  c #191829",
"t  c #423910",
"y  c #453310",
"u  c #523914",
"i  c #125413",
"p  c #0C4714",
"a  c #294210",
"s  c #264417",
"d  c #314210",
"f  c #394210",
"g  c #394A10",
"h  c #394218",
"j  c #394A18",
"k  c #314916",
"l  c #395218",
"z  c #375A18",
"x  c #275416",
"c  c #166918",
"v  c #216314",
"b  c #184324",
"n  c #115621",
"m  c #184736",
"M  c #214221",
"N  c #294221",
"B  c #294A21",
"V  c #214229",
"C  c #294A29",
"Z  c #234826",
"A  c #324724",
"S  c #275525",
"D  c #315A29",
"F  c #345425",
"G  c #214A31",
"H  c #254634",
"J  c #295231",
"K  c #245435",
"L  c #315231",
"P  c #345834",
"I  c #314A31",
"U  c #136523",
"Y  c #177034",
"T  c #346628",
"R  c #246831",
"E  c #366635",
"W  c #377634",
"Q  c #2A7027",
"!  c #424210",
"~  c #4A4210",
"^  c #424218",
"/  c #4A4218",
"(  c #424A18",
")  c #4A4A18",
"_  c #474A10",
"`  c #524218",
"'  c #524A18",
"]  c #5A4A18",
"[  c #554413",
"{  c #425218",
"}  c #4A5218",
"|  c #425A18",
" . c #4A5A18",
".. c #525218",
"X. c #5A5218",
"o. c #525A18",
"O. c #5A5A18",
"+. c #634A18",
"@. c #635218",
"#. c #695618",
"$. c #735A18",
"%. c #436318",
"&. c #536318",
"*. c #676318",
"=. c #736318",
"-. c #4A5A21",
";. c #445724",
":. c #5A5221",
">. c #525A21",
",. c #5A5A21",
"<. c #525221",
"1. c #4A5029",
"2. c #635221",
"3. c #6B5221",
"4. c #635A21",
"5. c #6B5A21",
"6. c #6B5A29",
"7. c #735A21",
"8. c #785922",
"9. c #634A21",
"0. c #4A6321",
"q. c #4A6B21",
"w. c #436624",
"e. c #526321",
"r. c #5A6321",
"t. c #526B21",
"y. c #5A6B21",
"u. c #586A29",
"i. c #497326",
"p. c #527321",
"a. c #5A7329",
"s. c #5A7B29",
"d. c #567625",
"f. c #466836",
"g. c #457435",
"h. c #557836",
"j. c #526B39",
"k. c #636321",
"l. c #6B6321",
"z. c #636B21",
"x. c #6B6B21",
"c. c #636B29",
"v. c #6B6B29",
"b. c #696329",
"n. c #736321",
"m. c #736329",
"M. c #736B29",
"N. c #7B6B29",
"B. c #796724",
"V. c #637329",
"C. c #6B7329",
"Z. c #6B7B29",
"A. c #667523",
"S. c #737329",
"D. c #7B7329",
"F. c #737B29",
"G. c #7B7B29",
"H. c #777721",
"J. c #697931",
"K. c #787931",
"L. c #7B6B31",
"P. c #265545",
"I. c #395A42",
"U. c #386645",
"Y. c #356E4B",
"T. c #436B44",
"R. c #457745",
"E. c #477A54",
"W. c #557842",
"Q. c #4A6753",
"!. c #313152",
"~. c #866927",
"^. c #847329",
"/. c #897728",
"(. c #847B31",
"). c #8C7B31",
"_. c #877432",
"`. c #947B31",
"'. c #9C7B31",
"]. c #947529",
"[. c #369030",
"{. c #36A529",
"}. c #188439",
"|. c #578634",
" X c #508A2F",
".X c #698529",
"XX c #778429",
"oX c #698832",
"OX c #7B8431",
"+X c #738C31",
"@X c #788933",
"#X c #689634",
"$X c #779535",
"%X c #4BAA38",
"&X c #73A539",
"*X c #4E8D4A",
"=X c #65974A",
"-X c #5AB346",
";X c #72A74A",
":X c #548C65",
">X c #4F9168",
",X c #52C64A",
"<X c #298452",
"1X c #848431",
"2X c #8C8431",
"3X c #848C31",
"4X c #8C8C31",
"5X c #898939",
"6X c #9C8C31",
"7X c #9C8C39",
"8X c #978734",
"9X c #8C9439",
"0X c #879636",
"qX c #949439",
"wX c #9C9439",
"eX c #9A9A37",
"rX c #908529",
"tX c #A58C39",
"yX c #A68B31",
"uX c #A59439",
"iX c #A59C39",
"pX c #AD9C39",
"aX c #A99435",
"sX c #B59939",
"dX c #A9A539",
"fX c #98A539",
"gX c #899942",
"hX c #999A43",
"jX c #8C8C42",
"kX c #A59C42",
"lX c #AD9C42",
"zX c #A59644",
"xX c #B59C42",
"cX c #9CAA45",
"vX c #97B24A",
"bX c #A5A542",
"nX c #ADA542",
"mX c #ADAD4A",
"MX c #AAA847",
"NX c #B5A542",
"BX c #B5AD4A",
"VX c #B9AC46",
"CX c #ABB54A",
"ZX c #B5B54A",
"AX c #BDB54A",
"SX c #BABB48",
"DX c #AAB753",
"FX c #B9BA53",
"GX c #B0AD52",
"HX c #C6BD52",
"JX c #C9BD57",
"KX c #C6B84A",
"LX c #BDC657",
"PX c #CBC855",
"IX c #D4CE57",
"UX c #C6CE63",
/* pixels */
"U.: M 5 6 d | d f ( e.-.( V.r.2 ..../ ' ' 4.' 4.1XN.`.].N.8.7XkXBXtX8X#.u 2.` M.MXhX1X@XS.b.4.>.) 2 4.) 1 1 = 0.d.0.x 5 q w C E.",
"D O V X 5 ;.| j 1 f -.1 1 ,.z.,.' ,.^ ..:.jXm.+.hXK.~.+.8X5XkXmXBXuX6X`.y M.MXFX8XhX1XgXb.' ' X./ 3 ,.) < # ( % - j N 0 0 q > g.",
"L X o 6 X %.w.q.- { -.-.>.) ,.V.t ,.) ) / K.cXhXD.K.8X`.).kXkXZXZXiXiX6X7XMXDXFX_._.5XC.5X/ ..' 4 O.( } f j h ( @ @ A X : ; I > ",
"E C 6 Z b l q.q.0.1 } } ( 2 V.C.z.) ) ^ :.M.hXvXM.GXhX`.mXHXJXZXAXuX6X6XmXMXbXhXhX5XM./ 0XgXt } C.C.V.1 ( e.= ( 1 k * s 9 I E A ",
"W s P.o S a d |.t.j ( ( 4 ..Z.a.C./ / :.l.5.4.4.m.N.hXtXBXPXPXmXAXuXwX7XMXbXeXhX2.2.4.N.gXOXv.} ....! } } f 1 1 j T X S > Y.f.z ",
"g.o U.o K d d a.t.0.( ( ^ 2 ) J.C.v.t ' :.' ' 4.m.).wX~.GXPXPXMXAXuXkX7XbXnXkXkXu 2.K.D.5Xv.b.k.) ) f >.>.1 = % f @ 5 K ; Y.z f.",
"*XZ B 6 b - j j u.e.>.f -.f ( V.C.OX] 3 l.:.^ ' 5.8X7XFXPXZXPXAXMXkXnXbX7X7XGXkXqXhXK.k.4.M.C.v.J.^ 2 c.) f ( 1 1 % B G S k F |.",
"-X*Xs S O a d j { t.>.u.e.) ! Z.$XS.v.l.4.D.D.6.5.m.N.7X^.kXuXMXmXlX6XbX`.eX^.N.N.5XK.hX0X@Xv.K.6...V.V.% 1 y.j d - > 0 S - g.=X",
"*XE G . b - - d f { t.<.,.,.Z.Z.@XXXS.OXM.) ' l./ 4.5.8.7X).6XlXAXlX6X8X8X).M.N.#.M./ ^ ) v...) ..' c.y.>.r. .h | $ B G * B L j.",
"A K Y.b 7 * d d f f e.d.r.,.Z.C.C.v.@XgX5XM.' (.] ] ] #.8.].6XiXZXlX].N.NX~.@.K.4.M.l.X.' k.! 2 2 <.r.,.>.>.q.a.l @ : : V U.V j.",
"P U.6 5 . d = 1 1 @ u.oXa.z.J.c.r.C.F.@X1X1XK.4X' 3.m.#.~.6X6XiXMX6X8.~.VX].).(.4.2.5.] ' ) ] ..^ c.C.} u.t.{ { j { X q : 9 Y.T.",
":XU.0 . 5 z l % 2  .e.e.e.' ,.,.c.0XC.S.G.G.3XeX5.@.] ^.sXnX6XaXMXtX6.`.~.iX(.(./ ' b.' X.] _ ) } c.>.^ } -.! < d { A . 9 N I.W.",
"E N 6 Z M | -.0.e.t.a.f f ( ) o.,.k.gX@XX.m.5XqX2X2.] 5.NXZXiXnXGXlX8X7X] ].L.m.4X9Xv.) X.' ,.t z.4.! ( } 0.j 1 0.| D Z C w A 1.",
"I Z O o 7 ;.0.0.-.e.{ f 1 ( ....k.k.K.K.l.5.K.2X(.^.u ] NXBXnXNXBXtXnXrXtXGX_.6.qXMX' :.) / ) t Z.4.,.r.-.%.{ j t.q.P V 0 A L ;.",
"g.W o b o l = t.1 { } ( f ( <.,.X...C...l.2.7.~.4X7X2X6.yXnXBXFXFXPXPXMX6XGXFX(.DXhX5.:.) ` / z.C.V.2 (  . .1 p.p.| F O G 0 P f.",
" XU.J M 5 d 1 1 j 1 j ( h ( X.k.O.k.~ S.2.S.M.2XqXhXkXN.^.mXNXAXFXPXHXBX8X7XL.8.2.6.b.X.:.t C.Z.V.2 ..< { { j p.|.1 F . C R.E =X",
"g.P 0 o 5 l d % 0.1 1 f ( 2 ..z.z.X.x.@XD.G.3XK.4XqXiXkX8.iXZXnXFXHXAXIXGX7X8Xm.2.:.:.4./ :.OXC.V.( ! c.2 >.t.s.l j C . H w F |.",
"*X> U.b 7 l d f 2 ( y.{ f 1 ..V.z.3Xx.gXXXN.S.hX^.2XwX7XdXiXAXAXFXBXNXuXMX)._._.N.m.X.' / m.0XOXXX< ! } e.r.>.l l a 0 H q g.L h.",
";.E K o . a d j &.0. . ..._ ) t F.OXK.) D./ @.6.hX).MXbXMXVXVXAXLX8X`.7X7Xm.5.^.X.5.M.K.OXOX@X9XZ.Z.4.r.>.-.0.d d l N 5 w L E f.",
"*XC M H m = d f |  .%.d.y.( oX@X@X@XM.t S.#.gXDXcXFXeXkXmXnXZXHXAX8X~.3.3.N.] m.N./ 6.jXgXOXF.F.Z..Xc.<.Z.t.j f d - * V H C w.*X",
">XL S m m @ k d ( |.y.&.} e.@X$X$XK.v.' 1XK.vXDXmXLXbXlXBXZXHXKXFXrX~.~.N.3.] m.(.` (.5XgXOXx.F.C.Z.,.r.V.t.f d d @ s K P.P E :X",
"U.Y.* o o l - j 2 s.a.+X;X+X.XXX,...K.v.1X4.4.B.4XeXGXmXMXFXVXPXKX'.6X~.+.m.3._.4X1X3X4X1X.XF.c.v.@Xk.V.V.a.@ - 1 > > 0 ; = I.T.",
"g.>Xo Z b i.z 1 %.y.#X#X+XZ.Z.,.>.C.) ' v./ ] X.@.N.FXZXkXFXKXKXJXaXdXsX7.9.] 4X7X5XD.S.v.5XK.c.4.r...r.e.t.o.j 1 { l o M > E.L ",
"D Y.M 0 b g.s.0.|.oXs.+X.XO.C...oX@X,.S.~ ' X.X.5.5.3.nXNXHXHXJXPXpXBXsX5.y _./.qX5X5.l.gXgXk.k...} ( f f a.t.o.0.q.A V 0 N E E ",
"U.: S o m q.d.j #X&Xs..XA.A.} ) ' / ) M.~ ' ] :.5.3.#.bXmXMXnXpXHXHXlXVX2.D.8X2X_.^.@.v.4.C.*.*.<...} - _ } { e.t.0.> G 0 > A :X",
"D > . 0 o s.i.| s.s.&.&.&.k.&.n.! k.4...x.S.' n.n.B.^.^.7XMXNXVXFXnXBX8X8.iXwX).^.7.b.M.X.k.l.X.,...( f ( f f f j d A X V ; A T.",
"P o ; Z o p.p.p.1 @  .&.$Xr.$XF.~ x...k.hX4.,.qXN.B.@.~.kXuXaXuXVXBXBX#.iXwXeX7X4X9X5.5.G.) B.*.l.) ^ ( ( f 1 e.# d s V s w C A ",
"U.P C . R %.i.p.t.j g &..Xk.&.+X+Xx.k.S.9X' 1X(.@.] +.8XqX7XlXnXBXVXnXpXzXiX4X^.hXn.D.3XgXC.*.A.x.) f f ( } < { - - H K 0 P U.P ",
"F C W o G %.i.p.t. .= o.z.J.Z.+XC.,.4.l.3X:.G.1X@.~ _.@._.uXaXnXBXKXNXNXzXiX4X2XM.G.n.1XgX*.OX*.C.) 2 f  .y.( d g g b K > R.E A ",
"W.B W C V | w.0.0.0.( 1 1 ) +XH.OXXXx.*.G.K.2 5.] ).8X` 5.pXsXpXBXVXVXnXBXkX8XkX6.#./ D...G.vXXX! } ) o.} o.t.j j - b G N W P h.",
"-XT Z S M - % j t.t.t.r. .2 Z.A.F.x.x.S.1XF.:.3.(.).eX7X`.7XuXyXBXVXVXBXnXdXLXMXDXkXm.) t G.OX@X+XV.( y.d.&.t.d f 2 5 C D | T ;X",
"=X*XS 5 V - - = = 1 t.>.} z.k.z.*.k.x.k.*.9X2X5XD.n.3.3.@.7XtXyXVXHXPXBXiXUXiX(.H.D.l.3X6.3XX.x.@XA.+X$X&.t..Xj j d D K : D *X=X",
"=XE K G H l l d d - 2 y.t.e.Z.F.' F.3X3XqX9X_.2.6.n.7.n.~.7X'.'.BXKXVXuXLXbX4X@.@.' / 9X4.! ..^ A..XXX&X$X$Xs.- j - . q V N E =X",
"1.U.K 0 7 - | 1 % 1  .e.! J.*.F.+XXXX.X.eX3X(.] 2.] ] _.].uXtX8XVXPXHXBXKXN.n.3.X.X.) :.X.k.y.@XO.Z.XX$XoX#Xs.&.g i.8 q > L I.1.",
"R.Y.: . 5 & = 1 d @ u.r.oX;X$X+Xr.OX3X] =.9XD.' t 5.6.3.8.tX6XlXBXNXHXdXMX=.7.@.l.X.X./ G.,.c.k...V.*.A.oX.X+X|. . X. . 0 C U.T.",
"T.I w o 6 w.% @ 1 1 r.&.$X$XZ.z.v.OX0X3X4X4XD.y n.n.7.+.B.7X8XlXBXlXSXVX7XB.3.` X.X.X.c.v.) ) ' ) ,.z.A.&..X&X|.{  XK 9 0 A I j.",
">XU.M Z 7 %.0.1  .t. .>.r.y.f ( ,.@XF.1XfXCXqXv.@.] ~ (.~.].'.uXBXNXnXtX#.`.n.n./.:.4.qXX...*.~ A.*.k.O.&.&.o.f |  XH q N B I.:X",
"-.P : V . q.q.0. .t.2 2 } _ o.} ..F.H.G.0XeXLX3XX.5.m.5.#.8XyXtXVXuXyXzXu +.$.n.4X4./ G.x.] A.t XX$Xk.+Xo. .# t.s.&.K 5 I q F f.",
"h.E L B G g q.i. .% < f ) ,.! ^ >.4.X.S.3X1XfXCX#.` ` y 8.uXaXtXKXtX'.2X_.y ] 2.2X1XS.G.D.k.H.+X@XC.r..X .f ( p.p.p.b H B A F h.",
"|.U.C ; q g f 1 d  .1 ( } r.< ) X.O.t OX@X5X5XeXFXGX5X^.6XaXpXpXVXsXpX7.3.8X@.4.D.v.D.4X=.M.H.G.XX@X..2 f 1 t.o.t.%.H H 9 P P =X",
" XE P J G l @ %  .1 ( f } >.z.! ..k.OX0X( 9X9X8XCXCXnX6XwXuXlXpXKX'.tXtX7XwX`.n.] u (.(.M.H.0XG.S.C.! ) -.y. . .| - q K C P L |.",
"*XI D 9 . z %.f d j t.} f r.+X+X! x.vX0X] l.v.eXbXMXSXiX6XuXnXiXVXzX'.8.~.n._.4XhXqX9X#.S.H.O.H.H.' r.>.>.J.t.d = - H 5 q g.P |.",
"i.E s I P.* & j f % 1 o.o.f ) ) k.k.OX0XN.4.@.' bXkXCXbXeXlXnXNXKXtX7X~.n.3.B.2.+.N.vX4X3X] } ..*..Xy.t.y.< = h d l M P.I T W 0.",
"j.E C G P.+ & 1 { 1 f r.>.f 2 ,.C.k.S.OX5.X.@.n.mXwXbXbXmXNXnXVXBXzX'.~.n.3.n.@.u D.CXqX4X0Xk...XXZ.r.y.y.2 2 f f l Q P.K P f.W.",
"*XP J 0 o @ = d g  .2  .V.) -.b.v.x.K.K.vX9XcXcXhXmX4X6XnXnXxXKXJXyXyX8X3.2.@.l.` (.cX4XX.#.3XOXZ.@XXX} y.e.f % a  .V M V 9 f.E.",
":XU.; B 0 a & { 1 s.{ } A.V...z.C.S.$X@XG.S.B.:.B.^.uXeXdXtXGXaXPXyXyXB.` ^.7.u ` ^.fXH.S.0XXXk.+XZ.;X+XV.a.# < d $ 0 9 N = E.:X",
"E.>XN N 7 z @ j s.s.e.o.y.y.! ! 2 ..,.) / l.l.4.D.5.].6X/.6XpXuXHX8X].~.N.3.X.B.] ^.bXfX0X0XXXK.O.) XX+Xy.e.} f $ F 0 6 N N >XE.",
"F R.C : 0 { = t.|.t.>.V...r.f 2 2 ,.' X.k.S.l.2.qXX.~.lXN.`.NXtXJXtX'.7._.+.5.] 1XFXfXcX1XH.C.,.^ 2 ..o.( } a.f %. .q V : - E.1.",
"E w H q 0 1 | g _ ) t.e.} Z.k.t :...) ..[ M.4.v.4XD.].8X~.~.uXNXHXsX8X8.[ 5.] *.ZXCX4X9XS.S.k.,.<.( k.) 1 1 < 0.s.q.C ; 0 V w T.",
"f.A ; N 0 %. .j f f -.f f ,.C.,...,./ X.#.G.4.' hX4X~.5.8X~.NXVXHXsXaX`.y 6.2XLXqXhX3X9Xv.' ..X.) 3 r...1 % ( % d l Z : C P A g.",
"P q C 9 E i.0.p.- { e.o.r.) ,.Z.t k./ ..( 0XcX4X4XD.6X/.uXnXNXPXHXsXdXwXuXBXLXSX2XqX1X9X9X' ' X.~ 4 r.} 2 1 o.% 1 f G J N P > %X",
"P L L : K z d.p.g  .e.o.>.r.z.C.) O...) ' D.DX9X#.qXiXdXrXKXKXPXPXxXuXaXnXVXSXkXuXgXN.k.9Xx.' ..~ C.r.} ( ( 1  .= @ V J > E I {.",
"f.F *XV B l | p.t.1 } { ( 2 .XZ.F.2 ) ..k.D.qXrXK.LXDX~.AXIXIXIXIXNXaXaXZXdXdXwXhXD.l...4XvX/ ! +X$Xr.f } y.j 1 f %.q S B Y.F {.",
"|.T A F b d g s.t.e.{ ( 2 ! r.Z.Z.k.~ <.4.4.X.l.m.).uXrXSXIXIXKXHXxXNXuXmXVXbXbX` 2.(.^.9XS.M.z.) } f o.r.1 = % f @ V M F  X%X{.",
"=X|.s S D - l l y.e.e.f o.! ) C.C.@XX.3 l.4.' ' 5.8XeXFXIXLXIXPXFXNXNXnXuXeXDXiXeXcXK.x.x.S.F.v.F.( 2 V.) f { d d = Z K S -X%X{.",
"=X:XL H G d d l { d.e.V.r..._ .X0XF.M.x.4.D.^.l.5.N.N.wX/.MXiXdXmXkXwXNX8XiX].~.D.4X1XcX9X3XF.OXk.} C.V.# 2 y.j d d 9 G C [.{.v ",
";XR.Y.C q d d f g } y.>.r.k.Z.Z.$XXXF.1XG.' ' n./ 4.5.5.4X^.2XqXcXhX2X2X(.).G./.5.B./ ! ..OX4.,.k.X.C.y.} y.p.j  .$ 6 q S ,X[.[.",
"j.E.N 0 0 - 1 d g g t.A.>.k.Z.C.XX*.@XgX9Xl.~ G./ X.) t l.5.K.OXgX@Xv.k.9X*.t C.,.x.X.:...k.! 2 t ..r.k.r.e.p.s.j @ K + + [.T W ",
"j.T.> ; Z @ @ j d g e.V.V.c..XA.v.S.3X0XOXF.k.S.) < <.<.) b.J.OX;XoX,. .$X#.,.V.' 4.v.,...' ..! 2 z.V.O.V.>.p.p.t.a E.+ p  Xv Q ",
"T.f.w S q g > d @ # a.A.V.,.C.k..XV.Z.C.Z.V.V.Z.-.) h ^ &.s.y.a.J.u.1.1.oX>.u.u.} ( ..! ( ^ _ o.2 C.Z.) >.t.} ( f       O %X%Xi ",
">XI.A V . D { { e.a.y.o.} ( }  . .oX#X1.-.0.u.s.;.% = F s. X%.T g.w.k { d a.;.| - j ;.f j h j h } r. .- } e.^ 1 j   r 8  X[.%Xi ",
"W.f.> F H P q.e.0.t.;.1 - a j g l ;.g.g.d k T w.F s * - W W T T E D T Q s E x - q.W x - - = d < q.{ f  .l | l g e !.r P [.Q  Xv ",
"j.R.E ; C F k T , k k a , s s s > O x a B s x S D S p X S Q Y R R R R S n R R B W Q s , O * + x D v & a k k # =XE.T.8 *XQ %XQ p ",
"#XT.N T b + p + i i i U c n i U n n i Y U c c Y Y i U Y U i <XY }.}.U U U Y n i Y n U Y U n c c n p p n i i i %X-XE.S %XW Q Q + "
};
