/* XPM */
static char *result[] = {
/* columns rows colors chars-per-pixel */
"64 64 256 2 ",
"   c #001000",
".  c #001800",
"X  c #001808",
"o  c #071704",
"O  c #051810",
"+  c #000800",
"@  c #002100",
"#  c #082100",
"$  c #082900",
"%  c #002108",
"&  c #082108",
"*  c #002908",
"=  c #082908",
"-  c #002900",
";  c #083100",
":  c #083900",
">  c #003108",
",  c #083108",
"<  c #003908",
"1  c #083908",
"2  c #003500",
"3  c #133607",
"4  c #002110",
"5  c #082110",
"6  c #002910",
"7  c #082910",
"8  c #002918",
"9  c #062518",
"0  c #162714",
"q  c #003110",
"w  c #083110",
"e  c #003910",
"r  c #083910",
"t  c #003118",
"y  c #083118",
"u  c #003918",
"i  c #083918",
"p  c #103110",
"a  c #103910",
"s  c #103118",
"d  c #183118",
"f  c #103918",
"g  c #183918",
"h  c #183610",
"j  c #132408",
"k  c #212915",
"l  c #213118",
"z  c #213918",
"x  c #213610",
"c  c #213108",
"v  c #043822",
"b  c #143722",
"n  c #213121",
"m  c #213921",
"M  c #253925",
"N  c #084A00",
"B  c #004208",
"V  c #084208",
"C  c #084A08",
"Z  c #014704",
"A  c #104208",
"S  c #104A08",
"D  c #184A08",
"F  c #045608",
"G  c #105208",
"H  c #105A08",
"J  c #185508",
"K  c #084210",
"L  c #004A10",
"P  c #084A10",
"I  c #084218",
"U  c #084A18",
"Y  c #004414",
"T  c #104210",
"R  c #104A10",
"E  c #104218",
"W  c #184218",
"Q  c #104A18",
"!  c #184915",
"~  c #085210",
"^  c #085A10",
"/  c #085218",
"(  c #035613",
")  c #105210",
"_  c #185210",
"`  c #105A10",
"'  c #185A10",
"]  c #105218",
"[  c #185218",
"{  c #105A18",
"}  c #185A18",
"|  c #244516",
" . c #215218",
".. c #295718",
"X. c #315716",
"o. c #314A18",
"O. c #086B18",
"+. c #066511",
"@. c #106310",
"#. c #186310",
"$. c #106B10",
"%. c #186B10",
"&. c #106318",
"*. c #186318",
"=. c #186B18",
"-. c #106B18",
";. c #057614",
":. c #187310",
">. c #187B10",
",. c #187318",
"<. c #187B18",
"1. c #107415",
"2. c #136806",
"3. c #226718",
"4. c #326617",
"5. c #217B18",
"6. c #227515",
"7. c #2C760D",
"8. c #084221",
"9. c #084A21",
"0. c #084429",
"q. c #104221",
"w. c #184221",
"e. c #104A21",
"r. c #184A21",
"t. c #134729",
"y. c #085624",
"u. c #105221",
"i. c #185221",
"p. c #105A21",
"a. c #185A21",
"s. c #105229",
"d. c #105A29",
"f. c #185A29",
"g. c #185229",
"h. c #154631",
"j. c #105A31",
"k. c #185A31",
"l. c #155535",
"z. c #214221",
"x. c #214A21",
"c. c #294A21",
"v. c #214A29",
"b. c #274427",
"n. c #314A25",
"m. c #215A21",
"M. c #215229",
"N. c #215A29",
"B. c #295A29",
"V. c #265424",
"C. c #335925",
"Z. c #264733",
"A. c #265634",
"S. c #315A31",
"D. c #186321",
"F. c #186329",
"G. c #146825",
"H. c #157724",
"J. c #186331",
"K. c #186B31",
"L. c #186739",
"P. c #0A6F23",
"I. c #216B21",
"U. c #216329",
"Y. c #296329",
"T. c #296B29",
"R. c #246724",
"E. c #356826",
"W. c #217B21",
"Q. c #297329",
"!. c #297B29",
"~. c #247624",
"^. c #357726",
"/. c #216331",
"(. c #296B31",
"). c #266836",
"_. c #326834",
"`. c #277634",
"'. c #317B39",
"]. c #327733",
"[. c #437824",
"{. c #457933",
"}. c #476E2C",
"|. c #285643",
" X c #315A42",
".X c #186945",
"XX c #187346",
"oX c #286744",
"OX c #326642",
"+X c #257445",
"@X c #357746",
"#X c #296B55",
"$X c #085242",
"%X c #427746",
"&X c #168615",
"*X c #0E9116",
"=X c #218418",
"-X c #218C18",
";X c #248913",
":X c #269715",
">X c #359018",
",X c #2EAA18",
"<X c #088723",
"1X c #178625",
"2X c #16932D",
"3X c #298421",
"4X c #298429",
"5X c #258B25",
"6X c #328727",
"7X c #289725",
"8X c #319C29",
"9X c #349925",
"0X c #298732",
"qX c #318C31",
"wX c #398C31",
"eX c #348635",
"rX c #269633",
"tX c #319431",
"yX c #399C31",
"uX c #399C39",
"iX c #339835",
"pX c #34A926",
"aX c #37B828",
"sX c #25A534",
"dX c #39AD39",
"fX c #35A735",
"gX c #30AF2D",
"hX c #18A531",
"jX c #558734",
"kX c #449A37",
"lX c #559734",
"zX c #458929",
"xX c #42A539",
"cX c #45AC37",
"vX c #45B836",
"bX c #52BA38",
"nX c #4CAB2F",
"mX c #609F20",
"MX c #45C737",
"NX c #57C936",
"BX c #42C629",
"VX c #338644",
"CX c #33934A",
"ZX c #36A845",
"AX c #4B8F4B",
"SX c #638F42",
"DX c #45AB44",
"FX c #48B744",
"GX c #53BB44",
"HX c #56A946",
"JX c #69B14C",
"KX c #55C945",
"LX c #55CC4F",
"PX c #6BCF4D",
"IX c #86CE54",
"UX c #84B55A",
/* pixels */
"k.y 8 AX%Xf.A.A.r 1 V P , & % 7 & # g z.OX|.Z.OXA.0 O + X @ - > { P.H.G.E IXPX(.PXs m.X.SXU }.zXX.[ W 4.^...o.C.x A u 8.q.t.g./.",
"f.I O AX%XU./.oX1 ; P P = % . = . . f w. XZ.h.A.Z.O O + % < > Z B ~ H.H.+.HXHXIXjXJX{.SX[.J.4.X.E.o.3.S E.E.o.x h : u 8.t.i.+X(.",
"q.y 0.CX@X).A.oXV ; P K = & . = . . p d  X|.M Z.b.X 5 o * - B F O.;.@.w P F.VX{.JXJXi.4.[.^.X.o...3.$ E.4.z o.3 G 1 u 0.l.A.VXx.",
").l.8. X@X/.f.f.K : K K w = . = . o 7 b |.Z.l.h.b X & , < ( F +.Z ( O.H.P VXv bXJXwX4. . .j | c ~.4.4.X.X.| 2 o.C.* t s.k.CX`.#X",
"/.E 8.h.@X).f.f.T C P K r = . = .   & y |.Z.A.f M & 7 > % L O.<X<X;.O.{ K s.$XeXbXlX[.4.3 j  . .T.Y.Y.X.A D 4.3 ' u r e.q.CXr.h.",
").d.U y AX/..Xf.) ~ ] e.I 7 & = . . o 0 h.M v.7 b 5 = < B ^ B F <X<XH.P.+.K.K.J.kXlX^.zX4.C.X.& | | o.! W W ..C C u y L.).`.oX#X",
"F.j.8.6 VX/.L.} p.p.u.e.I w & , . . o 9 b l.r.7 0 o = V ~ O.O.;.;.Z , U y.bXKXPXnX^.E.b.W I $ j 4.E.| z ..C.lX! } 8 6 L.U.`.#Xb ",
"l.d.s.I @XOXL.} F.f.f.u.I w w = % o X 9 b |.w.O 0 & = > < ^ ;.<X<XP.&.1./ p.a.JXmX[.W I I y ..zXE.o.C...: : [  .^.u i K./.'.v.Z.",
"g.f.e.6 @X'.d.K.L.F.J.s.E w r = % X X 7 t.A.p o f p , K ~ Z < <X;.+.O.y.^ d.0.PXlX6 i I Q s.}.zXlXlX4...zXE.3.R S t 8.8.f.).B.@X",
"f J.I t @X`.K.L..XF.J.d.E 1 r = & X % p l.T & 5 s w = R ^ F ;.+.( ;.+.( > d.0.IXV.8 t i S.E.AXAXSXkX[.[  .- ^ C f.u y..XN.oXT.r.",
"g F.Q q A.).XXL..XK.J.d.1 , r w . . % , q.s 5 & O p = ] ] G.1X*X*X<X;.( +.G.I O t 6 t N.E.{.AX$ - UX1 jXjX..{ ~ ] 8.U `.`.).Q.B.",
"w.r.e.0.g.OX`.XX.XJ.f.u.: 1 r w . @ , E = % p p , T A 1 * C <.hXhX2X<XP.P.9.v y.i 6 4 I 9.IXC., 1 V V {.HX# R C { 9.d.`.VX@Xv.Y.",
"f.Q u.8.g ).+X#X.XJ.] P K 1 E r . # 1 8.6 & s w , T r R ` +.P < > < ( F Z L 0.i 6 6 5 i N.lXm.1 1 , K 1 $ $ C C P y.L.`.+X_._.B.",
"g r.s.8.i ).XXXXL.J.P P V r E w # & s.r % X & = a T R T H 1.,.*X*X&X~ F F ( j.0.t 8.8 T.{.].zX_ 1 , , 1 # $ V N C y.d.f.+X).| 0 ",
"r.s E 8 8 )..XK.J.k.C C T r I = $ , e.* = & w , , a , r T.<.&X2XhX1.H.+.L < O.4 t u y ^.^.y.^.6X1 = = 1 # $ : Z C y.d.E U.#X|.0 ",
"r.t.E y 4 +X+XK.J.f.P V a , r & , 1 8.% = , , = r T , 1 V V =.rXrX1.F O.+.< * 6 4 v v / U.E.R.wX8X= = = # : V N N 9.K.f.(.N.oXb ",
"w.b b y 6 '.XXJ.J.d.) V a r , = ; K q @ % = = a T R R ` %.,.F > @ < Z O.( ( Z 9 t t 8.U E.9.E Q kXw = = o 1 C N N a.F.W `.v.S.w.",
"g b h.i 6 +X+XF.j.s.Q V , a r = ; r * X & = , A R ! ) } } ,.1.hX&X&X;.O.^ +.^ < 9 8 v U p.U E Q T , o w o $ C N P p.F.w.U.v.M b ",
"f.w.r.y X +XL..Xd.d.] Q Q K = $ 1 > % = , , 1 , , = , a.U.0XuXsX7XsX2XK.H.H.P./ Y t e U d.I i I T w $ = o r K { I U u.i.U.A.A.z ",
"`.g.E i t +XK.K.j.j.u.u.K = @ @ > @ = = , 1 1 V 1 K r 1 A ) H.iXdXsXrXH./ / K < * t I 9.9.y r r T , , @ @ Q 0.-.r I e.w.(.g B.0 ",
"@Xr.r.i 6 L./.K.j.j.d.u.w & . * * % , = , 1 1 R S C ' #.#.=.P i < < K ^ V N C L B L i i 9.w i r 1 , , @ $ Q t.K.8 e.e.m.N.d B.h ",
"'.N.k.y O L.L.F.t.k.8.I , @ . > @ X % , 3 T R R ] ` @.H ` &X5X*X:X&X&X1.+.$.O.^ L ( L 8.y.w i 1 : , , @ @ Q h.F.q 8.f f./.m Y.z.",
"Y.f.f.v I J.).l.l.J.e.I &   * 6 * = = = r r r 1 [ T.(.~.6X>XrXfXfX5X5XO.P ~ B $.^ / Y e I 7 i 1 , , = @ @ R k..Xu 8.t.t.M.x.C.c.",
"T.).g 9.= k.L.F.j.F.U., X   q * = = * , 1 1 , , 1 1 A ^ } ~.0XfXrX1X5X5XH.G.-.O.C / Y Y e r I 1 r , # # $ R J.K.q t.g.m.(.Y.x h ",
"@XN./.e.9.t.F.s.0XT.^.6Xo   > @ = = 1 a R T ) ' %.%.@.@.C Q R 7X1X~ $.] U > , * r * * * > * E r , 1 # # $ 1 .Xl.i p.r.).@X].c.z.",
"B.V.`.E i 8.N.d.a.T | 3.6XkXT % * , 1 V Q R ` *.*.%.5.:.-X-X=X*.Q ` #.H.-.$.{ { &.~ ~ Y > > K I , T & & = I k.K.w s.t.`.T.v.|.g ",
"A.'./.f.t.y N.! a V.f p  .R kX% = * T R ) } Q D.~.!.W.4X5X5X<.aX7X7X1X1X@.-.1.^ C P / L Y e q w r T # & & r k.l.4 K.! VX].Z.d v.",
"@XVXU.f.e.* ].T.[ p p [ a [ [ ! 1 1 1 V T * * T T.`.eXqXuXyXdXiXaXfXsXrX0X!.H.K.9.{ / P > > u 7 r r # & & T k.l.r K./.eXg.Z.d M ",
"_.T.r.f.e.t f.U.& * , r , A = Y.6XGXV 1 R S R V G V V } ~.tXuXDXFXFXZXuXrXH.*.) { ] r r q > %   = = & & % 7 k.y r K.i.].oXb.z d ",
"V.(.W F.Q q q.y E A = w R [ } ^.Q._ R R C ` %.@.,.,.,.[ K : , ] U > > , r ] Q ] V , % r > q q * # , # = = 7 k.i D.i i.].n.d 0 0 ",
" Xg.W J.e.q & * V 1 r r [ f.j _ ^.T.1 1 G ' @.@.%.-X:.7X7X&X&X&X7X-X7X-X:.1X$.` H V ~ P K r q * % $ ; = , y .XU / `.N.(.M.M o.M ",
"A.Y.f F.Q i 8 @ * . r a 1 r V a 4. .Q.} ` #.] <.6X7X=X!.5XfXfXtX5XfX5X5XH.:.` -.H.~ P ~ K < e u 6 @ 1 , = b L.1 d./.T.Y.B.A.n Z.",
"V.T.w.i.u.i v % . I I > * E * = w = 1 a.`.Q.0X!.6X6.=XfXdXwXfXdXdXFXuXiX0X` ) K ~ @.G.F.] K K > u q : R a q.l./ F.`.'.(.@Xb n.Z.",
"x.M.B.r.u.i 8 * q e I U @ = - * a e , 1 1 p Q *.*.^.iXeXwXZXZXZXuXiXtX7XH.wX`.!.!.,.H p.u.d.P P u t R ) ) { l./ p.J.VX'.B.B.n b ",
"|.B.h r.w i w 4 D.j.Q Q % * T . = = R.1 R A _ A S R K !.tX5XiXdXfX5X-X@.:.3XO.V 1 , * , * w < r q q 8 p.K.`.L.U Q U.(.].A.z.n m ",
"z.).N.q.y i w % i K %   r 7 @ 1 1 _ ` %.5.@.%.=.>.:.:.<.,.} } V T T ) &.=.H H.H.=.$.` #.*.) P ~ r r q u G.K.XXU p.a Y.Y.z v.h.M ",
"d A.M.f I i y X q i X + . , # A P _ &.*.:.:.3X$.&X:X=X-X7XpXgXdX&X&XiX7X7X<.7X3X,.,.=.%.{ P P L U V r > K u.K.D.{ ! T.@X Xb z b.",
"d m g b b w 9 % % % %     = a T [ } } } H.,.~.4X0X5XfX7X8XaX8XaXaXgX5X5X5X5XrX8X4XH.,.D.D.F.p.F.~ ~ 1 K 6 Y H p.D.g T.A.|.m M l ",
"z. .! w.r.7 4 w r w = . = 7 ] Q ] } D.Q.4X~.Q.5X0XeXyXfXfXrXyXcXKXMXbXdXFXtXfXZXiXqX0X0X`.`.a.p./ 1 U r r < V y D.i.M.x.B.M M n ",
"B._.N.i.E w O @ w * = X a ! = [ U.T.F.Q.`.`.eXCXDXuXuXvXcXKXLXFXvXxXcXxXDXuXuX].eXiXrX0X0XH.} D.D.] r r r q e U I  .Y.M.z.0 b M ",
"_.].R.r.r.5 4 = 7 . & , r = = * 1 , T [ !.0XwXeXCXDXkXFXDXDXGXLXLXLXLXGXGXDXAXDXfXrX0X] [ R A ] Q r r r r > Y I [ g N.A.z n b.0 ",
"M._.@XN.f.7 % , @ = r j a r K 1 % = D A C V S R } *.qXtX5XfXaXgXfXDXuXI.R S { P * % = R 1 } R E P r % Q K > 6 E f W (.z oXM M | ",
"Z.m '.Y.N.i 6   & & d 1 V 1 ) R R ) #.=.K C = , P 1 1 K T K 1 Q i., K T V * K ' *.H C ` J 2.' { { ) K ) R Q r Q g.i.N.d _.z.S.z ",
"Z.S.B.N.b E t % , w , 1 V R G ) @.) @.) <._ H.-X4X,.&.<.@.@.:.@.@.=._ &X>XaXpX9X=X;X;X<.<.,.{ ` =.` V { P P r E [ V.M.z _.l n.M ",
"M oX_.m.(.E 7 , > > , 1 , S P P H &.-.^ $.-X6X%.3X8XgX8XpXaX;XaXaX8X,XaXvX8X~.=.0X,.~.:.:.%.@.W.,.5.-.P V { 6 u.[ |  .z.E.c.c.n.",
"l | _.c.F.f.I * 1 K [ P P R G.H #.#.H.W.5X9X5X:X6X5X8XtXuXdXZXFXdXMXvXfX8X5X6X7X5XI.i.H ' ^ C ` 7.:.` *.Q.D.r Q i.B.kX_.z b.Z.b.",
"M x.oX'.(.f.U r r K P T [ [ } R.Q.I.~.3X9XzX>X>X9XcXcXGXFXuXxXcXKXKXLXFXdX4X4X8XpX-X5XG.G.} ` <.H H ) ` a.a.e a.`.'.T.).o.b.Z.l ",
"_.OXB.'.U.i.I 6 r Q K r r i.R.].`.I.Q.6X!.!.6XwXeX9XwX].DXFXxXKXKXdXkXiXuXfXdXfX4XuXuX].!.!.=.@.=.=.) ` a.a r a.R.VXB.g OXZ.M n.",
"z.A._.'.r.i.i q r r = @ 1 r 1 1 P S S { *.~.' ) 8XuXfXxXkXFXdXPXGXDXHXLXMXpXtX:.5.W.5X5X@.V V 1 , 1 , 1 , * / a.W ^._.oXd M b.M ",
"S.z.]._.g J.9.6 , , 1 , = , V 1 3 A [ _ V S S U T } 3.yX6X7X8XfXbXdXFX:X<.F >.:X3X` ) V K 1 V , , r T , , r U f.U.Q.A.z 0 n l n.",
"c._.| V.W a.Q 6 1 K , V C ) ) } *.%.^ V %.G } } _ _ A R 1 T R K 1 ` ) , 1 1 ~ ' 3.3.!.' !.=.H #.H @.*.#.#.) p.`.].VXS.c.z Z.OXC.",
"x.l OXT.s a.E w K P K R { ` 6.6.6.%.%.%.%.=.;X;X=X>.>.=X5.} 3.) P R 1 ) ) ,.,.-.5.1XW.,.,.W.5.=.` %.7.5.5.=.^ ~.!.Y.c.d l o.M {.",
"n M B.E.w.r.w y T R ) ' G $.$.@.:.6.;X>X>X>.;X;X>X:X:X7XpXaXaXvXvX:X:XfXDXpX,X-X9X7X;X>.,.=X=X5.5.%.$.P G *.K (.T.).T._.| k b.n.",
"l _.z Y.W f i w R { R *.I.=.=.R.Q.:.2.,.2.-X5X8X8X=X5.8XpXaXaXvXBXaXBXfX8X7X7X8XpXgX8X3X6.=.,.5.~.I.I.I.`.T.U Q. .@X_.c n l n.}.",
"M v.x.B.g p y i + } ! } 3.*.*.I.3.=X4X5X3XiXuXxXxXFXKX8XdXfX8XpXnXMXMXNXNXvXcXnXcXyXxXwXxXxXtX6X!.!.Q.Q.} i.{ D.m.Q.C.E.M Z.Z.jX",
"d Z.M.Y.M.s r 7 f ] } Q T } *.~.6X!.eX!.!.4XtXDXyXbXNXdXnXNXKXNXNXNXNXbXvXNXGXxXcXAXDXDXxXyXyXiXqXwXeXQ.I.} *.T.[ C._.n.M k n.{.",
"n Z.z M.N.b f 7 O X 3.m.(.`.I.T.^.qXwXwXwXwXDXDXGXDXFXKXGXNXKXKXPXMXMXKXKXPXLXcXkXzXwXyXyXdXtXqXqX0X0X!.*.Q Q } ..@X .l M n b.jX",
"b.B.d  .w.w.q.7 Q.X R } a I.a.} T.Q.6XwXkXkXkXkXcXxXdXGXFXnXdXNXMXKXPXLXPXNXKXFXGXcXDXdXiXqX!.3X*.3.*.' 3.E Q W Y.M.A.V.Z.c.Z.jX",
"k _.z  .p i T y d.&.% = K , R , 1 3 G G ) H ` 3.3.^.qX6.7X-X:XpX7X~.3X3.) , , , , R D $ $ , S 1 3 K _ [ i.w Q h x.Y.).d z n.C.{.",
"2.2.>.Z 2 Z ; L d.H.V V = 1 , ; J ' V V : 1 T ) V C V V A V Z 2 D } S V ) R P , , R } :.` ` _ J C H R G /.w E f g V.B.z l M n.jX",
": 3 Z J , 2 B &.p.s.%.#.H @.G %.%.%.$.G &X;X;X7X;X%.-X>.&X:X:X:X:X:XpX,X&X,X-XpX,XaX,X:X:X>X>.%.=X>.@.^ ^ { I f Q.).M l M n.C.SX",
"L L < e K &.< G.s.H.eXzXQ.Q.wXwXwXqXcXkX6XtX>X5.pX:X7X,X,X:X;X:X,X,X,X,X:X,XaX,X:X-X>X7X:X&X1X5X1XrXH.1XH.2Xf.w...z.c.k M M C.SX",
"/ 1 e D.p.k.{ G.d.eX^.].^.3.3X!.wXeX4X*.5.Q.qXtX3X5.8XtX9X5XtXvXgXdX7XfX8XfXpXtX1XdX7XgXgXsX2X1XrXhXP.2X2X2X2XW N.z B.b.z M n.S.",
"@ Y L U K.1X).H.T.I.^.>X>XmXQ.^.6.eX^.6X>X9X~.5.3X9X9X3.6XnXNXaXaXMXFXMXMXdXtX8XtXrX5XZX-X1X2XfX1XrXhXZX2XH.P.-.| c.C.z z | }.}."
};
