/* XPM */
static char *result[] = {
/* columns rows colors chars-per-pixel */
"64 64 256 2 ",
"   c black",
".  c #080000",
"X  c #000800",
"o  c #060704",
"O  c #100000",
"+  c #100800",
"@  c #180800",
"#  c #180808",
"$  c #100408",
"%  c #001008",
"&  c #001808",
"*  c #081808",
"=  c #031103",
"-  c #131308",
";  c #001810",
":  c #081810",
">  c #041418",
",  c #131511",
"<  c #000810",
"1  c #231308",
"2  c #241611",
"3  c #2C1305",
"4  c #002108",
"5  c #082108",
"6  c #002908",
"7  c #022601",
"8  c #102108",
"9  c #172508",
"0  c #083108",
"q  c #033505",
"w  c #002110",
"e  c #082110",
"r  c #002910",
"t  c #082910",
"y  c #002118",
"u  c #052818",
"i  c #102110",
"p  c #102910",
"a  c #182910",
"s  c #102918",
"d  c #172316",
"f  c #003110",
"g  c #083110",
"h  c #083118",
"j  c #003918",
"k  c #083918",
"l  c #033613",
"z  c #103110",
"x  c #183110",
"c  c #103118",
"v  c #183118",
"b  c #103918",
"n  c #163913",
"m  c #153308",
"M  c #212708",
"N  c #243306",
"B  c #212910",
"V  c #272313",
"C  c #332414",
"Z  c #213110",
"A  c #293110",
"S  c #213910",
"D  c #293910",
"F  c #293918",
"G  c #243318",
"H  c #323715",
"J  c #081821",
"K  c #011423",
"L  c #101821",
"P  c #042525",
"I  c #182929",
"U  c #122524",
"Y  c #083921",
"T  c #043522",
"R  c #103921",
"E  c #153424",
"W  c #072631",
"Q  c #153232",
"!  c #0D2E31",
"~  c #232825",
"^  c #372923",
"/  c #253426",
"(  c #353328",
")  c #273632",
"_  c #353532",
"`  c #292931",
"'  c #453326",
"]  c #453631",
"[  c #4F342C",
"{  c #4A3118",
"}  c #064506",
"|  c #144607",
" . c #045504",
".. c #054714",
"X. c #184210",
"o. c #184A18",
"O. c #124614",
"+. c #075616",
"@. c #145614",
"#. c #165608",
"$. c #244602",
"%. c #255605",
"&. c #294210",
"*. c #294A10",
"=. c #214218",
"-. c #294218",
";. c #214A18",
":. c #294A18",
">. c #214310",
",. c #314218",
"<. c #314A18",
"1. c #354514",
"2. c #215218",
"3. c #295218",
"4. c #295A18",
"5. c #235815",
"6. c #315218",
"7. c #395218",
"8. c #315A18",
"9. c #395A18",
"0. c #365710",
"q. c #355604",
"w. c #056405",
"e. c #126508",
"r. c #146714",
"t. c #0D6C14",
"y. c #326807",
"u. c #256815",
"i. c #396318",
"p. c #346815",
"a. c #277716",
"s. c #357516",
"d. c #296607",
"f. c #044323",
"g. c #134523",
"h. c #085521",
"j. c #145725",
"k. c #104F35",
"l. c #254822",
"z. c #334723",
"x. c #245723",
"c. c #355524",
"v. c #274537",
"b. c #344737",
"n. c #365534",
"m. c #295536",
"M. c #146524",
"N. c #157324",
"B. c #0C6929",
"V. c #256723",
"C. c #316321",
"Z. c #376824",
"A. c #267724",
"S. c #367624",
"D. c #346A34",
"F. c #247733",
"G. c #357835",
"H. c #276933",
"J. c #445717",
"K. c #454F15",
"L. c #476618",
"P. c #457716",
"I. c #506F14",
"U. c #474526",
"Y. c #564628",
"T. c #455624",
"R. c #484635",
"E. c #554735",
"W. c #475636",
"Q. c #575536",
"!. c #575927",
"~. c #665636",
"^. c #66512F",
"/. c #456724",
"(. c #546925",
"). c #467724",
"_. c #577625",
"`. c #556834",
"'. c #487733",
"]. c #557934",
"[. c #4A6B31",
"{. c #677926",
"}. c #666736",
"|. c #746537",
" X c #667A34",
".X c #797434",
"XX c #6D7027",
"oX c #637314",
"OX c #144C46",
"+X c #2B4F44",
"@X c #316F42",
"#X c #515844",
"$X c #695842",
"%X c #735A42",
"&X c #506E4A",
"*X c #676543",
"=X c #766844",
"-X c #7A7545",
";X c #6B774E",
":X c #847639",
">X c #857745",
",X c #84734A",
"<X c #2C8818",
"1X c #288526",
"2X c #358927",
"3X c #378937",
"4X c #389832",
"5X c #34942B",
"6X c #2B9A23",
"7X c #4A8A18",
"8X c #698E18",
"9X c #478828",
"0X c #558726",
"qX c #478935",
"wX c #548934",
"eX c #499731",
"rX c #569734",
"tX c #4C9A27",
"yX c #668826",
"uX c #748826",
"iX c #669827",
"pX c #759726",
"aX c #678832",
"sX c #679936",
"dX c #769736",
"fX c #788434",
"gX c #45A933",
"hX c #57A632",
"jX c #4DB431",
"kX c #63AA36",
"lX c #74AF31",
"zX c #68AA18",
"xX c #66C634",
"cX c #478642",
"vX c #549549",
"bX c #799A43",
"nX c #6A924A",
"mX c #71B045",
"MX c #67A259",
"NX c #6ECF49",
"BX c #869933",
"VX c #8CA935",
"CX c #8A8749",
"ZX c #8B8652",
"AX c #948552",
"SX c #94954C",
"DX c #86A645",
"FX c #96AC45",
"GX c #97B548",
"HX c #8CB44F",
"JX c #A7B54C",
"KX c #94B96D",
"LX c #AAAD63",
"PX c #9A9C5D",
"IX c #A1CB64",
"UX c #84AD8C",
/* pixels */
").mXP.P.P.%.P.I.y.%.g.U s =.6./._.L.c.D B -.Z :.9.0.i.i.9Xi.n i.8.&.>.X.p c e p m z g f.Y f.w w 4.9Xs.C.c.c.Z :.9.i.3.P.u.u.wXu.",
"[.0XI.J.L.p.y.| N q.S.u 8 -.Z.9.L.K.7.<.F M S *.&.i.L.9./.3.D 8.D.l.a 8 i 8 i e p t b k k k.t 4 c D.C.<.-.D i.6.:.p.u.rXwXS.9X4.",
"[.HX8XL.I.s.y.P.$.$.R b , -.Z.J.7.'.A 9 M D M S S 9.8.i./.*.Z 9.p.3.o.E 8 * e : e t g k t h g ; =.c.c.*.0 i.aX:.3.S.9XrX).8.s.9X",
"aXBX8XoXL.9Xd.P.$.%.h g.v x.Z.9.'.6.z.N D G B &.&.8.&.i.*.S S S 2.G ;.z p e * * 5 * t k h ..Y ; 8.i.3.u O.2.c.8.Z.hXp.6.7.Z.p.'.",
"0XdXBX8Xi.sX7Xs.%.%.Y z t c.9.,._.1.1.D B Z Z B Z &.&.n *.*.Z m ;.9 a s e : e e * 5 e g t g u u i.X.y Z.3.m @.Z.p.s.I.%.*.N S P.",
").dXbXpXI.sXdXwX%.q.E z s 8.Z.7.L.7.6.F B S M 9 S Z &.*.*.A 9 >.5.n p c * * * - * e t 5 & g r ; l.X.n O.4.} } 8.Z.eXs.s.iX%.)./.",
"d.dXVXVX0XtXDXrXP..XR b v 3.Z.&.9.9.<.9 A B B M n D &.G S x a =.x g.* p * * : * * : h g t k u r F 2.2.C.i.o.@.9.S.S.9XtXZ.s.0X9X",
"6._.lXGXVXiXdXDXoXaXR 8 v :.6.1.L.A &.-.9 -.Z S Z S 3.>.;.n x x o.v 8 p h 5 t : * t t t w k g w C.X.f O.p.o.S.sX0XsX9X).p.%.p.yX",
"%.P.DXFXGXiXiXbXiX(.g.U s -.Z.<.i.A 9.0.Z 9 S 9 S S x &.:.&.n X.-.-.S x i 8 p 8 * 5 5 5 4 g & & 4.4.x.Z.p N %.qXqX$.nXS.mXsXp.aX",
"%.s.yXVXGXHXlXdXuX_.j.i d :.9.6.7.1.1.1.D S G D a S Z c.<.-.7.c.Z.-.S a g.- , , 5 p O.e & g y w S.S.X.h z %.S.vX).8.rXsXmX%.y.aX",
"d.P._.aXHXIXGXDXfXuXb i E 3.6.6.L.J.J.1.x F B - Z 1.<.9././.Z././.F -./ * - a E , z g t & g u w c ).7X6 X.d.eXp.aXs.d.%.mXd.p.{.",
"p.P.yXlXbXKXKXVXoXpXb p * 3.*.&.).1.-.F F Z M ,.A 0.9./.7.:.T._./.D.G D N v - v x n o.O.& g r % '.rXvXtX#.y.d.%.5.p.Z.5.*.8.%.0X",
"p.p.iXdXbXKXKXJXoXoXk.8 n =.*././.9.1.C D G ,.A J.L.L.J._.aX/.L./.T.z.z.a G v d v 2.4.o.y k w & * D.j...%.s.GXy.u.p.A.C.).hXP.P.",
"y.Z.Z.).lXHXKXGX.X(.R p p ;.:.0X0XJ.,.A 1.A 2 F L._._.].yXaX XwXT.I.c.F -.d E d / =.3.2.o.6 ; & & w j j u.<Xp.p.7XDXwX9X2XjX9X7X",
"p.3.u.rX7XbXFXGXJX(.g.h n S =.)._.).J.H D ,.z.z.J._.yX_.dX].L.yX_.(.W.c.G a l.v v ;.;.2.x.k & & & 6 f j qXGXp.7XiXbXsXtXtXtXu.iX",
"A.qXZ.qXvXbXFXIXGX[.g.z s :.L.0X0X/.c.7.z.n.,.1.oX_.yXyXdXaX!. XnXW.z.A G B F a S :.p.u.4.x.& % % f 2.O.a.VX0X| PXNXhXa.<Xu.mX8X",
"3XcXG.j.D.H.H.JXGX[.g.c i x.0X7X'.).T.H D ,.,.1.T.aXuXpX{.K.J._.aXJ.(.z.G G 9 F l.c.3.6.V.2.t & % f j n r.2X0X9.kX9X9Xr.<X2XS.<X",
"F.G.H.H.aXcXvXIXGX@Xg.e x H L.rXwXZ.'.F <.z.H z.T.I.J.K.aX(.(.(._.W.H z.G G B B -.:.:.S.3.5.g.& & f f ..t.hXlX).qXqX| p.r.wX<Xt.",
"g.H.B.H.k.wX XVXVXD.g.8 a iX9.0X0Xc.-.D F z.U.H J.`.(.(.!.`.K. XnXT.A T.H n.z.Z F <.Z.3.x.S V.t % 6 l 6 Z.rXqX'.3XF.d.rXqXs.1Xr.",
"O...k.k.@X@XcXVXj.j.g.p -.rXi.9XwX/.,.z.F [.c.J./.T.yX`.aX`.!. X(.!.,.].A Z c.H c.:.x.:.x.D.x.c & 6 _.#.#.vXD.5.5XN.9X7Xl dXMXs.",
"u u Y k.k.cXcXbXH.M.E i 0X).8.9XqX/.[.wXc.<.n.H /._.L.aXBX X!. XDXDXT.!.T.c.<.F -.Z.8.Z.S.i.2.x.e 6 O.r eX+.V...+.o.@.+.t.r.vXDX",
"t.+.F.B.f.k.XXDXj.h k , 0X).c.9.).wXJ.L.L.K.W.[.<.T.T.uX{.( ( [ |.VX_.K.z.z./ &.v 6.D Z.).8.C.;.p o.f ).r.@.N.mXN.+X+.t.@XdX..sX",
"r.1XjXgXj.D.fXuXj.j.c 8 ).'.0XhXkXlXqX,.'.n.c.H 7.yXJ.[ ^ Y.[ |.SXXXXX(.H z.z.A <.9.0X/.rX9XeXx.b 6 wX0XN.O.+.N.&X@XG.MXa.#.wXDX",
"o.2X3XmXM.uX X).4.3Xx.x.s.9XkXNXhX[.'.c.D z.H [.XXU.' ^.^ |.[ ^.LXLXSXVX(.XXz.Z.<.Z.).9XhXrX).eXc.mX9X4.C.@...t.&XMXV.a.| 0 2XhX",
"u t m j j 7.K.4.9X3X3X3X9XwXeXkXkXvXnXT.7.c..XXX^.( ^ E.' [ [ |.:XLXLXE.E.] E.(._.sX).).)./.).eX3XHXqX4.X.u.+.tXs.H...} MXl aXMX",
"l.0 O.q 6 ..N A.@.u.a.eXtXNX9XNXmX[.'.z.8XfX.X~.' ^ ' Y.|.[ AX~.,XPXPX=XAX-XE.oX(.{.BXrXlXmXhX).2XmXu.4.#.#...| o.G...j.D.bX[.;X",
"g g <X1XO.@.j.j.A.V.D.).rXNXlXlXvXzXpX{.R.^.|.,X^ ' ' ,X~.|.' =XAXZXLX=XE.PX^.[ ~.fXJXXX.XmXhXNXrXZ.<Xq 2Xe.r.+.O.} r.q 5 MX'.| ",
"j.@.r.<Xa...o.eX@.c o.8.NXjXkXxXzXpXW.R..X[ CX[ #X' [ ^.,X' C .X%X-XZX$X[ AX%X' ~.SXSXPX~.BXVXmXxXo.r.w.5XgX .D.Z.o.X.&XUXwXc.Z.",
"G.j.a.@.N.2XS.S.a.a.2.rXNXVXJXBXQ.Q.*X,X~.SXE.] [ [ ' 2 ,X~.Q.-X{ .X:X^.] %XAX~.[ [ >XPXZX-XR.{.] u.+.w.e.e. .| } h.qXrXp.q q q ",
"G.@.a.a.a.s.A.V.r.t.6.tXlXpXFXXX!.Q.,X,X|.AX~.] $X] ^ $ Q.^.Y..X3 ^..XY.] _ ,X$X[ $XZXZX$XCX] E.] Z.V.a.e.#.u.6.#X+.r.lXlXq  .6 ",
"_.t.+.| | 2Xa.V.} k 9XjX^.:XSX_ E.-X#X=X,X=X~.%X] $ Y.. .   . ' 3 V :X!.E.[ ,X,X%XE.E.$X-X,XQ.] ] pX;.2X . .t.} wX@.a.O.| q | ;.",
").r.+.| u.1Xr.r o.o.tXlX^.BXSX[ E.=X$X,X.X%X>XU.V $ R..       - . V !.U.2 Y.BX[ E.Y.$X$X=X$XAX[ ] uXkXS.e.<X .w.w.N.e.e.@.m gXz.",
"f.t 6 6 6 N.N.k +.4.gXdXQ.=XCX[ [ E.>X:XfXSXV 2 C C .           .   1 # # O }.~.C E.|.C ] $XAXR.R.!.zXgX . . .w.2X2X7 *.A.x o.m.",
"Y ; O.x.0 q g O...jXiXR.Q.~.=X^ C C |.!.CXC @ ^ .                   + + . 2 V ~.C { U.# # ~.,X~.$XQ.yXpXw.w.w.r.u.p...s.2Xz k Y ",
"h s g o.e.O.0 q 4XtXU._ E.%X;X# O ^.3 3 !.+ . . . X                   . . . O U.1 # ' . $ E.>X$X$XfX(.iXa.e.@. .....u.jXr w l ..",
"j d 4 5 @.| 0 q xX_._ R.}.~.*XO 1 }.2 O .                                     @ Y.O . . $ E.|.~.~.|.E.W.hXw.t...| 6 xX@.T r f h ",
"& = 5 4 X.j.3.1X7X(._ E.-XU.E.. 3 . O X                                       . H O . @ 1 ' }.~.Q.Q.W.R.uXkXa.& =.X = = & & y j ",
"0 h 6 q q q | jXaXc.E.#X-XE.^ . O .                                               + . 1 @ U.}. X}.#XR.}.dXeXG.j T j q ....j q 7 ",
"l r.6 6 6 6 jX2X`.^ _ *X}.&XC 2                                                     . @ O U.}.V }.Q.E.}.aX8X4Xf f 7 6 4 q } +.6 ",
"@.F.z j l 4X4XwXW.( ( #XR.R.- U.                                                      O O T.!.3 R.$XE.Q.0X0X9XO.l 7 6 } 6 f.B.j.",
"M.@.V.f.r.jX4XU.#XW._ R.2 2 O .                                                       . 1 H ' 2 ' Q.( *XL._.0XjXt.....j.....h.r.",
"j.o.A.#.jX4X).`.#XnX&XQ.- , .                                                           @ - 2 V H ] ( ;X( J.P.1X4Xj.+.+.N.3XMXF.",
"m | @.5X4XG.].nXR.;X*X`.1 C .                                                             . + ( - ^ ] ;X) ( P.wXgXh.h.h.h.+...r.",
"..f.x.4X2X).[.&Xb.b.#XQ.z.( .                                                           X + . ( # _ W.W.) / ) ).6XgXB.+.t.B.+.h.",
"@.l.4XN.A.3.c.&XR._ / , , ( .                                                                 ( ( ~ Q.` ` W.I i.).gXt.t.B.g.4 ..",
"g.gX1X1X7X3.T.#X#X` ~ @ @ .                                                                   2 . V W.~ _ &X_ / s.qX4X+.3Xr.7 o.",
"D.4XA.A.p._ n.n.b.~ ( 2 o                                                                     - . ( 2 , ) W.W.~ :.'.A.tXG.7 | n ",
"jX1X3X2X6.) _ +X) , d c.,                                                                     . . ^ . . ) b.b.z.:.n.1XtX0 wX| 0 ",
"jXu.A.p.I ~ ~ +XH . . a , X                                                                   . X , . . ( b.b.z.c.C.G.1XhXS.n m.",
"1XN.A.E I I U ` ~   $ $ .                                                                         - . . ~ ) n.b.` l.n.A.gX3Xv p ",
"3XM.4.I ) ) ~ ) d   - .                                                                         X , B , ~ ) b.~ I ~ 4.D.1X5X& 7 ",
"F.u.;.I +X+X) / d   . o                                                                             d _ b.+Xm.~ I / / V.F.1XO.5.",
"..A.x.v.+X+XI I v o o -                                                                               o B v.n.) ~ v.U l.H.H.n.&X",
"V.4.OX) +X+X+X, ,   o                                                                                   . v.) v.v.m./ ;.x.M.S.m.",
"j.E ) U I v.Q ,     o                                                                                   . / ;.) U I L U O.x.N.X.",
"g.Q +X> U Q ) >                                                                                         . E j.Q Q L L J L b M.#.",
"g.OXOX! J J g.U                                                                                         o U m.U U L K L > s @.F.",
"v.OXOX! J P Q Q u                                                                                         U k.U J W L > > > O.7 ",
"..k.OX! ! > < >                                                                                           * P Q W W J > > J 6 O.",
"+.h.k.! W .                                                                                               X X W W W K > J j } (.",
"q f.j.h.>                                                                                                 X   o > K K > T } u.A.",
"j j.j.F.j.                        X                                   X                                       % K W K W  .| &X'.",
"+.F.B.B.;         X X % ; : y w P P y ; ; ; ; ; ; ; ; ; % : : % : ; % > J > y ; ; ; W ; y ; ; ; ; % X X       > K K K O.t.A.G.D.",
"..N.N.j f.j f.f.Y j r Y k k f.Y g.k u R b b 5 e t c c e s s 5 t v p u R t h t h h t k h OXk...Y h g } } f j T f.f...1Xr.r.r.m.x."
};
