/* XPM */
static char *result[] = {
/* columns rows colors chars-per-pixel */
"64 64 255 2 ",
"   c #050A05",
".  c #031C04",
"X  c #06170A",
"o  c #031D0A",
"O  c #10160D",
"+  c #0A1B13",
"@  c #121819",
"#  c #032304",
"$  c #032C04",
"%  c #0B2C04",
"&  c #02230B",
"*  c #0B2508",
"=  c #022B0C",
"-  c #0C2C0C",
";  c #152806",
":  c #1B2C03",
">  c #0C3505",
",  c #063A07",
"<  c #04340C",
"1  c #0B330C",
"2  c #123404",
"3  c #133A04",
"4  c #1A3C04",
"5  c #1A3709",
"6  c #133C0B",
"7  c #032C13",
"8  c #072815",
"9  c #152918",
"0  c #033413",
"q  c #0B3314",
"w  c #033B14",
"e  c #0B3D14",
"r  c #04351C",
"t  c #0A341A",
"y  c #043B1C",
"u  c #0B3C1B",
"i  c #183717",
"p  c #222C03",
"a  c #243404",
"s  c #2B3404",
"d  c #273A07",
"f  c #2C3C0D",
"g  c #333B09",
"h  c #263B17",
"j  c #313716",
"k  c #171B24",
"l  c #142E27",
"z  c #073725",
"x  c #033A23",
"c  c #193926",
"v  c #263928",
"b  c #283037",
"n  c #09440A",
"m  c #1B4304",
"M  c #13440C",
"N  c #1B430B",
"B  c #154909",
"V  c #1B4B0B",
"C  c #1B530C",
"Z  c #074614",
"A  c #05441B",
"S  c #0B441C",
"D  c #024C1A",
"F  c #0A4C1B",
"G  c #164717",
"H  c #1C4B13",
"J  c #04541C",
"K  c #0D5518",
"L  c #0D541D",
"P  c #1A5517",
"I  c #12541B",
"U  c #135A1D",
"Y  c #244504",
"T  c #2A4A06",
"R  c #23440C",
"E  c #2B430B",
"W  c #234B0C",
"Q  c #37470A",
"!  c #26550A",
"~  c #2B5C0B",
"^  c #36550A",
"/  c #345B0C",
"(  c #244C13",
")  c #2A4C14",
"_  c #264618",
"`  c #2C4C1A",
"'  c #364917",
"]  c #255313",
"[  c #2A5315",
"{  c #245A14",
"}  c #2B5A14",
"|  c #24571A",
" . c #2D531A",
".. c #2B5C1A",
"X. c #3B5314",
"o. c #385817",
"O. c #33541C",
"+. c #335C1C",
"@. c #18641C",
"#. c #1E721D",
"$. c #2C650A",
"%. c #36670C",
"&. c #3C730C",
"*. c #2A6619",
"=. c #2D631C",
"-. c #346714",
";. c #3B6313",
":. c #3B6A13",
">. c #33641C",
",. c #3B641C",
"<. c #346C1D",
"1. c #3B6C1C",
"2. c #28751B",
"3. c #3A7617",
"4. c #3B731D",
"5. c #084625",
"6. c #0B4C23",
"7. c #154924",
"8. c #0C5322",
"9. c #095922",
"0. c #125423",
"q. c #145B23",
"w. c #195926",
"e. c #125233",
"r. c #284A25",
"t. c #344926",
"y. c #295825",
"u. c #355825",
"i. c #3B5E23",
"p. c #304B35",
"a. c #375836",
"s. c #1A6324",
"d. c #13672F",
"f. c #1A6528",
"g. c #276828",
"h. c #346421",
"j. c #3B6323",
"k. c #356B23",
"l. c #3B6C23",
"z. c #39672A",
"x. c #356C2A",
"c. c #297729",
"v. c #3C7323",
"b. c #377728",
"n. c #276936",
"m. c #356832",
"M. c #2B7337",
"N. c #357A35",
"B. c #45510C",
"V. c #434C17",
"C. c #455514",
"Z. c #475918",
"A. c #525B1B",
"S. c #46700D",
"D. c #466719",
"F. c #55681C",
"G. c #477719",
"H. c #56761B",
"J. c #67781C",
"K. c #455A25",
"L. c #505925",
"P. c #455936",
"I. c #486726",
"U. c #436C2C",
"Y. c #586A26",
"T. c #447525",
"R. c #427A23",
"E. c #42742A",
"W. c #4B7728",
"Q. c #457C2B",
"!. c #577627",
"~. c #5B7B2B",
"^. c #466A34",
"/. c #556B34",
"(. c #497834",
"). c #597936",
"_. c #67732B",
"`. c #657929",
"'. c #657936",
"]. c #354C41",
"[. c #2E7845",
"{. c #4E7147",
"}. c #516B5A",
"|. c #557B56",
" X c #657D49",
".X c #30941D",
"XX c #37852A",
"oX c #3A9928",
"OX c #2C8530",
"+X c #398533",
"@X c #3C9934",
"#X c #3EA42F",
"$X c #52821C",
"%X c #468528",
"&X c #4B842C",
"*X c #578629",
"=X c #459828",
"-X c #56922F",
";X c #4A8534",
":X c #578637",
">X c #5C8C34",
",X c #469837",
"<X c #599635",
"1X c #67832A",
"2X c #738C2C",
"3X c #668837",
"4X c #788A38",
"5X c #64983A",
"6X c #789639",
"7X c #47A52C",
"8X c #4AB22D",
"9X c #48A734",
"0X c #56AC38",
"qX c #4EB237",
"wX c #59B83C",
"eX c #63A53B",
"rX c #64B23B",
"tX c #5AC33B",
"yX c #62CB3A",
"uX c #528F49",
"iX c #599345",
"pX c #5B845A",
"aX c #688846",
"sX c #758A45",
"dX c #6A9546",
"fX c #739648",
"gX c #6A8B52",
"hX c #679555",
"jX c #769957",
"kX c #56AE45",
"lX c #67A745",
"zX c #76A64E",
"xX c #69B848",
"cX c #70AD51",
"vX c #7BA259",
"bX c #5C8465",
"nX c #5E8E6B",
"mX c #628967",
"MX c #7A9D64",
"NX c #669470",
"BX c #6FA767",
"VX c #7CA765",
"CX c #5DC144",
"ZX c #67C648",
"AX c #7BC450",
"SX c #859A3D",
"DX c #8AA23D",
"FX c #859843",
"GX c #859C5C",
"HX c #91A84B",
"JX c #85A75B",
"KX c #A3B95A",
"LX c #87AA68",
"PX c #91B270",
"IX c #729885",
/* pixels */
"T.W.aXj s O E ,./ / T &X%X9X@X<.! ,./ %.G.*XH.U.] R ( O.z.x.(.N.Q.&Xv.H h h N 6 G ( 5 _ O.R ( >.! C { ..V 3 W j.O.T W 3 5 3 R.5X",
"Z.X./.j 5 W o./ T Y ,.-.3.%Xb.<.D.C./ S.-X2XW.D.T Y W Q.iXiXuX{.iX:X(.h.u.i W H N H 3 M >.W l.v.<.-.*.v.>.z.I.o.o.} ) 3 N 3 :.%X",
"d d a d T D./ / ! / :XE.Q.-XR.,.D.F.D.H.1X1XS.D.,./ -.<XlX(.uXx.;X;XQ.v.[ ( (.+.u.h.B B k.=.Q.4.G.&X<.>.*.T.W.R ) +.R ) ) 3 m v.",
"t.^. .(.4.-.~ ~ ! D.hXW.W.&X,.X.A.A.D.!.1XB.d T D.1.*X-XcX1.(.(.h.*.E.<.} [ ] V m ] n , N ..<.<.=.U.>.=.W ,.I.W 2 R 5 5 ) _ m ! ",
"l.lX0XlX-.$.$.;.T T D.;.G.~ o.A.Y.C.L.sXY.g s Y +.{ 4.-XdXcX<.....*.:Xk.h...+.| ( V M M > { } } +. .) V W :.-./ T N N 2 N ( i.O.",
"~ -XlXlX$.%.~ T V ! / F.D.o.Y.C.C.Y.'.!.B.g ^ ^ >.j.x.E.Q.<Xl.V B B =.] B y.+.V ] C G G P =.E.<. .N ) ..1.%.W.;.o.) ).K.` [ I.K.",
"v.<X<XlXxX5X~ ~ %.^ S.1X1XF.I.C.C.~.D.E Y Q D.~ :.;Xm.k.R.:XE.! C ! <.<.<.x...B C @.b.<.v.$.v.v.1.V 2 ) :XW.3XD.o.T !.:Xz.(.).I.",
"<.<X-X0XxX5X~ m T ~ H.6X2XD.Z.Y.^ / Q 4 4 Y m $.*XcX:Xx.>.>.E.! -.<.l.*.v.;XQ.k.k.XXb.XX;XQ.Q.4.-.U.O.3 } 1X'.I._ 6 W (.).:X).O.",
"~ :X-X<XrX5X%.! m ^ J.2XH.^ C.D.T 4 4 % 2 m W B T.cXR.z.>.l.v.v.R.b. .V <.:X,X,X%Xc.#.b.;X(.;X%XR.l.z.( >.*X/.X.O.O.W j.W.:XO.d ",
"C 4.eX;X%X>X/ T T F.`.2XJ.D.H./ m : ; : 4 W +.;.! ).1.;X=.$.c.3.b.z.N M P b.uX+Xc.2.#.+X,X;X<XR.v.h. .+.G.3XfXW.( j.R [ l.(.u.` ",
"*.R.dXlX&X%Xm Y ^ J.J.J.F.S.o.T : : E / I.D.W.).I.,./ >.>.<.k.c.b.y.M M , K g.c.2.,XwXxXkXiX;X(.;Xj.[ l.T.:XzXfXi.O.^.) O.h. .` ",
"{ v.<XR.;X-X} 4 ^ H.J.J.D.B.Q s : a !.1X~.`.`.W.3XT.>XE.l.} 2.b.b.g.$ $ , C *.;XXX=X0XxXxX;Xk.<X:Xj.3 R j.I.sXfX:Xi.(.i.u.z.u.` ",
", *.&XE.%X=Xo.4 Y S.J.J.F.Z.B.s p s !.!.H.F.S.:.lXzXlX5Xi._ ] C OXc.$ > n *.b.=X=X0X0X=X%X*.N.;XzXdX(.1 1 % o.3XaXU.U.U.] U.j._ ",
"$ V h.>.&X-XW.T Q Z.F.H.F.C.Q s : : d $.T.H.rXeXlXeX5X5X} ( V C 2.b.P M n *.b.%X0XrX-X%X2.U M.*.N.dXj._ q 1 # +.).W.U.j.6 r.^.u.",
"6 M ( ! 4.<XG.T ^ B.o./ C.C.Q s : : Y ~ :.&.AXxXeX5X-XG.l.h.| x.2.b.h.N B ! XX0XrX-X%XC B n Z n x.z., H G , 1 $ z.U.U.^.i # 6 ` ",
"H { [ m 1.-XH.S.Y.F.^ Q ^ B.Q s : d / &.:.3.AXxX*X%X>X<.} ..| ( j...[ m V -.4.%XG.<.} B y.q.n n I n C *.y.H 6 > [ [ I.aXu.# 1 6 ",
"( j.z.W / -X*XH._.L.B.C.C.C.V.a g D.H.&.G.G.eXeXeX5X-XR.>.P H N [ ( m N W { B ] H M H P M.U Z n B C <.b.b.g.6 > r._ i.)./.u.G k.",
"_ [ [ W.*X6X6X`.A.L.C.C.Z.Q s s E !.D./ 1.:.W.<X:X5X>XQ.x.N m 3 B ] [ ! ! N 1 % N > G G P B P y.g.*.} ....G y.r.i # i E 3XfX3X;X",
"O.O.] *X5X6X2X1XY.A.A.V.Q j ' s E Z.Q d E Y Q.;XE.Q.(.k.G M N B ] B -.G.;.W % # # - 1 < M g.x.x.*.k.z.M H H ( r.5 # $ 3 D.4X4X*X",
") N W T.1XSX`.2XA.A.A.V.V.L.s g g s : : : 4 4.:Xv.b.v.H $ 6 | =.C ! :.%XD.o.5 # * * - $ P =.2.k.k.:XE.(  .+. ._ % # 3 { >.'.'._.",
"+.i...:XzXHXSXJ._.L.L./.L.g s s s s d Y Y C %X4.+.>...M , G B =.=.C ! >. .2 # * * % 2 ( ] C V <.4.4.v.)._ W N 2 m ] 1.b.<.-X!.Y.",
">.>.U.zXfXFXSXS.Y._.A.L.V.s g d E Y ^ %.~ $.-X&Xu.N |  .H H 6 $ , } +.( 1 % % * * 5 3 +.z...] >.>.v.l.j.[ [ 3 2 >.v.R.&X<XlXQ.o.",
"T.:X&XfX`.SXSX2X_._._.V.Q g d T T ^ D.G.3.$.<Xv.( H .. .` > > r.> V ;.u.5 N % % # # o.:Xj.] H ( ( ) ( H y...N W T.R.XX%X<X<Xv.h.",
"&X3X3X3X!.DXKXDXY.L.A.V.A.g Q ^ / %.:.G.3.-.$.$... .] ` ( R ( u.M 3 V u.5 2 % % - 2 I.I.U.m 3 $ 6 N [ W N 3 ] ! *X%X3.%X&X5Xv.E.",
"*X*X*X1X4XHXKXHX`.V.A.A.C.Z.D.&.%.&.S.$X:X1.~ $.-.z. .H ) ] ] z.+.m ( u.N > % % i # O.O.+. .> 5 O.4 ) O.> m ! $.G.3.3.XX=XR.4.-.",
"3X*X*X1XHXKXHXHXSXA.V.V.C.S.S.S.&.S.S.3.T.G.G.1.1.E. .H W ..>.1.! V D.+.` G R d a 5 d W _ 5 2 ) O.' T T T m ~ G.3.3.2.3.%X:.$.:.",
">X*X1X6XHXHXHXHXFX_.A.V.Z.H.$X$X&.$X$X&.:.G.T.~ Q.:Xh.} { -.>.} ) ) ;.I.O.W o.' K.'./.V.a a /.I.4 ) R X.D.1.3.G.&.:.$.~ 3.$.$.$.",
">X3X2XFXSXDXSXFXFX4XY.A.D.H.-X*X&.&.:..X%.:.^ >.(.T.<.$.<.,.! U.+.:XW.K.I.o.*XY._.FX_.GX' I.GXK.% ; X.D.H.*XG.&.%./ T Y $.$.$.3.",
"1X5X3X6X2XSX4XFXFXsX). X).G.H.S.S.&.4.4./ o.' T -.:.3.4.1.%X4.>XT.(.).,.~.W.`.F._._.A.FX4XY.aXK._ R ).3XG.S.G.S.;.Z.E Y T.,.R.%X",
"5X1X1X1X`.2XSX_.4X4X3XaX:XD.%.$X$X&.D.I.o.I.a d 1.4.-.$.<.:X;X-XW.v.(.3X3XsX4X!.Y.V.B.SXsX3XsXi.o.'.aX:X:.H.!.;.o.o.g d >.z.uXiX",
"3XW.1X!._.SX_.J.`.sXdX*XG.S.D.*XW.o.o.o.o.V.a : +.v.h.b.;X%XR.:XG.;X/.).jX~.3X~./.s A.sX_._.4XF.3X3XaXW.D.~.I.O.' Q a E a.{.mXmX",
"'.3XY.Y.`._._.F.!.sXfX:X:X>X!.!.Y.o.X.X.' ' d : u.u.a.pXhXuX:X<X3X:XuXW.fXI.Y.!.).a g V.Y.Y.!.!.1X3XdX>X*X'.I.' ' ' 2 ` {.}.mXbX",
"sX/.Q A.F.A.A.F.Y.aXPXLXjXJXGX3X/.Z.Q E K.E a d ^.[.}.nXnXhXiX<X>XW.>X:X).).I.I.Y.h : t.A.Z._.!.!.LXPXJXGXsX/.' ' E 4 ' (.bXbXpX",
" XK.Q X.B.B.B.B.D.MXPXPXLXLXKXsX).L.g E ' d a Y ^.{.mXbXbXpXhX-X-XQ.l.u.R i.i.i.O.i i j ' C.I.F./.PXPXLXPXGX'.' O.E : ) ^.|.bXpX",
"L.V.V.j p s g B.I.GXPXPXPXPXPXfX'.K.' C.' d a 4 i.^.pXpXhXpXuXiX<Xk.| ( 3 _ O.t.' h i h ' C.A.Z.aXLXPXPXPXFX~.D.o.f 4 ' u.|.bXNX",
"V.' K.s p p g V.).LXLXLXPXHXjX5X).I.A.I.E d 5 h O.y.|.pXbXnXnXkXv.C H =.[  .' ' t.h i _ i.X.C.K.VXPXLXPXzXdXI.I.K.a 5 _ a.|.bXIX",
"Q V.t.f p p s X.aXVXMXMXjX5X*X*XG.D.Y.Z.f f d d t.a.|.mXnXIXBXuXc.C n C } /.u.j t.t.r._ ..X.C. XjXVXVXzX3X*XD.I.o.d f h a.mXmXIX",
"V.K.h ' f p s C.aXjXMXhXjXdXH.$XH.Y.!.K.E j h s t.a.|.mXNXBXkXuXb.g.b.P j.:X' t.t.h i r.v.U.,.aXjXMXjXfX3X~.!./.K.d h j p.|.mXIX",
"K.j j h f f g ' gXMXgXgXjXdX~.!.I./.).I.Q f j j t.P.}.NXnXiX,X+X{ B | , I.aXN P.r.h _ r.g.Q.(.gXVXMXgXhXdX!.Y.).K.f j ' P.}.MXLX",
"t.i h h ; p s s {.jXgXjXGXfXaX~.W./.I.K.E f ' ' /.}.}.NXBXiXN.g.G G 3 > (.:Xd a.t.h h ` g.x.h.).GXgXgXVXfX).).U.' E X.Y.sXMXLXLX",
"p.i 9 9 ; ; : ; '  XjXGXjX X/.^.I.I.+.o.X.X.I.).gXMXVXVXiXh.P B n M M ( ^.^.) ' t.5 h r.G ( y.( /.sXjXJX3XU.I.I.o.D.W.dXvXBXiX:X",
"v 9 8 + X O * ; O ' gXgX/.K.u.O.( E ' } D.;XjXVXBXuXuXN...m.r.G 3 6 > H i.^.5 h t.i h p.i # v - ; P.gX).P.( d ( -.Q.hXBXuXg.s.C ",
"z 8 o + X X . . . . i h v _ i - - % - > R y.m.m.y.6.Z Z Z G r.G _ ( i q I.I.; h h : ; v v 1 r.G . . i h _ 2 % H *.b.+Xn.9.K K , ",
"8 & + 8 8 8 o o & & 8 8 & = t 7 7 0 7 = 7 7 r u r r 7 0 u 7.7.G 7.7.G i P.^.; h 9 9 9 j u.n.m.r.8 = 7 = 7 & i 7.F K 0.Z Z Z < = ",
"& . + 8 & = 7 8 = = = 0 7 = = 7 7 7 7 7 7 0 0 w w 0 0 0 S u S u u r q 8 5 P.9 - * h * 9 t.y.S e e e t 0 0 0 7 = = $ < $ $ $ = & ",
". . o o o 7 0 = # . $ w 0 $ & * o X o & 7 0 u w w i q q u S 7.u u 9 o & c ].t 8 . 9 - h r.G 0 r = & & # = 7 7 0 & o o . & . & o ",
"y r 0 7 0 0 = = & # # = < Z u i q # # = = e 7.S < 0 - # . # 8 e q i & & u c z r = t 8 v r.M w.n.y.i u S 7.0.Z y 0 7 7 r t t r y ",
"5.5.r 0 r 0 0 w e 0 $ $ Z 8.F e e w.n.y.I 0.n.y.G i 6 - 8 7.7.i $ & 8 r 7 r r 7 7 7.7.u G w.N.OXOX[.n.q.F D Z w 0 0 0 0 < 0 w w ",
"5.5.x y w w w A J F S 0.q.q.w.0.Z Z g.x.U I I 7.x.{.(.7.S 7.w.e.S z z z r r z r t r t 7.G P U @.g.q.8.7.7.0 e u w w A A < A A A ",
"e.5.x A w 0 A w F q.f.w.L q.d.w.0.6.L K I I q.U I U 0.A 6.q.w.7.G Z G z z z r z 8 = = i H P K U 0.Z u u = & 0 S , D J J D D A Z ",
"z x 5.0 y A w A L F f.q.8.F 6.6.6.S F U K U I U U q.G u 0 q < 6 n H | 0 7 x x r 7 = 7 M (.;Xc.P , < 0 # . . = w.9.J d.d.9.9.D D ",
"l z x 5.A D D L 8.Z F I F F 0.Z 6.5.F K I K s.L I y.^.r.# % > % > < 1 u c 5.7.z = = $ n x.x.| H 6 q q * . & 0.[.F Z J 9.9.D D D ",
"z z z 5.e.n.9.8.K K K I w.U U U f.8.0.w.@.s.f.q.G y.{.r.% u.t.r.* q 9 t e w.n.5.w $ , P | g.y.| n Z 7 . # e n.w.w < < D D D D Z ",
"z z z 5.[.n.q.8.K K U 9.+XuX+XN.N.d.s.g.g.d.g.w.G 6 r.; >  .a.p.9 o . * S n.[.[.6.S M P @.x.(.(.| m.n.G 0 Z w.$ = $ w D 9.9.J D ",
"z z z x e.n.[.w.q.F K U @.c.+XiX,XN.s.w.s.f.N.y.r.t.; * % # 9 9 * * - 7.p.7.[.[.0.e < M P B { g.g.N.N.y.F S i = u $ L f.J J J 9.",
"z z z z z w.n.n.q.I q.s.@.s.c.@XuXN.s.K s.c.N.z._ a.a.P.i * o v v O 9 {.{.G A 0.7.0 < - M , n n g.g.P w.n.S 7 # & w F J J J J D ",
"z 5.z x x 7.0.0.6.8.g.c.f.q.s.@.g.M.f.8.M.n.c.i v j b v ; O       O l 9 ; % 1 7.< < > # . 2 { *...m.m.g.q.< < < A 8.8.L L 0.n.0.",
"8 x x x 5.e.5.A 5.8.q.0.9.9.f.q.D q.q.8.U 0.G + O O 9 + O O     k b k X   $ Z 6.A S S # # # n C n.n.g.f.D w J 9.d.9.I G G G 1 i ",
"l z z z e.e.A 5.6.8.0.e.f.d.s.s.f.f.f.9.s.f.7.O + 9 l i v a.^.p.].].l * i G P 0.S S S 7.6 < , B m.n.U f.9.J d.d.F e - - % q r.p.",
"@ + 8 x 5.e.5.6.0.e.8.8.q.f.c.g.g.f.f.9.@.s.G 8 7 7.y.N.lXzXVXhXgX;XM.P b.kXXXs.I w.g.y.I , n n y.$ < A A 8.A z r.r.r.1 & 8 9 9 ",
"@     z x x x e.8.d.K J @.c.OXc.#.9.@.9.@.@.c.f.g.c.+X7XrXrXxXrXkXqX9X9X@XqX9X7X@X,XkXuXc.OX+XOX0.w x z 8 X + l v v c o 9 9 # - ",
"@     8 x y A 0.f.OX2.@X@X#XqXkXkXkXkX#X@XOX@XoX@X@XoX,X0X9X0XwXZXZX0X#XoX9XqXqXwX9XoXqXqX9XqX9X+XU 7.& 8 8 + + @       + 8 c p.",
"X 9 8 8 5.g.c.c..X@X#X#X#X#XtXCXCXCXZX8X#XoX.XoX9X9XoX.X.X9XwXrXrXrXwXkX7X9XxXCXqX9XoX9XqXwXoX#XqXkX,XK y.r.p.b @ O k k k + 9 v ",
"8 z p.].M.oXoXoX#X7X#X#X8XtXyXtXtXtXZXtXkXqXqXwX9XwX<X9X7XwXwX8X=X8XxXZXxXwX8X8XZXqX#X8XoX9X9X7X8XwXZX0X,XkXhX|.].].b k k @   X "
};
