/* XPM */
static char *result[] = {
/* columns rows colors chars-per-pixel */
"64 64 256 2 ",
"   c #010201",
".  c #010901",
"X  c #050B0A",
"o  c #011101",
"O  c #001A00",
"+  c #061708",
"@  c #061615",
"#  c #111416",
"$  c #0A110E",
"%  c #002201",
"&  c #012A01",
"*  c #092A01",
"=  c #002108",
"-  c #002A09",
";  c #082A09",
":  c #092207",
">  c #122805",
",  c #013202",
"<  c #093201",
"1  c #0A3B02",
"2  c #013209",
"3  c #083309",
"4  c #023B0A",
"5  c #083908",
"6  c #053801",
"7  c #113A00",
"8  c #113209",
"9  c #113A09",
"0  c #173505",
"q  c #012A10",
"w  c #0A2A11",
"e  c #042517",
"r  c #132912",
"t  c #003210",
"y  c #013A12",
"u  c #0A3A11",
"i  c #013A19",
"p  c #093918",
"a  c #053215",
"s  c #113111",
"d  c #113A10",
"f  c #153717",
"g  c #242A01",
"h  c #2A3200",
"j  c #233606",
"k  c #333602",
"l  c #213814",
"z  c #28291C",
"x  c #0F1A2B",
"c  c #063723",
"v  c #153A23",
"b  c #0F262D",
"n  c #263423",
"m  c #222E2F",
"M  c #094309",
"N  c #094A09",
"B  c #044505",
"V  c #194201",
"C  c #194B00",
"Z  c #114B09",
"A  c #164608",
"S  c #0A5507",
"D  c #17560A",
"F  c #014312",
"G  c #094211",
"H  c #014A11",
"J  c #094B11",
"K  c #014219",
"L  c #084319",
"P  c #014A19",
"I  c #084B19",
"U  c #114310",
"Y  c #194310",
"T  c #134A12",
"R  c #1A4B11",
"E  c #194218",
"W  c #104A18",
"Q  c #194B18",
"!  c #104218",
"~  c #005212",
"^  c #095212",
"/  c #015219",
"(  c #095219",
")  c #055A17",
"_  c #115310",
"`  c #195210",
"'  c #115A12",
"]  c #12531A",
"[  c #185817",
"{  c #214C0A",
"}  c #254804",
"|  c #364507",
" . c #215300",
".. c #225309",
"X. c #215A09",
"o. c #2A5B09",
"O. c #285505",
"+. c #345609",
"@. c #264815",
"#. c #354711",
"$. c #225211",
"%. c #225A11",
"&. c #2B5A12",
"*. c #2A5319",
"=. c #225B19",
"-. c #2A5A19",
";. c #255316",
":. c #325A10",
">. c #365615",
",. c #086604",
"<. c #1B650C",
"1. c #166616",
"2. c #197615",
"3. c #0B6912",
"4. c #2A630A",
"5. c #266505",
"6. c #326B09",
"7. c #356509",
"8. c #36730A",
"9. c #22631A",
"0. c #2B631A",
"q. c #2B6B19",
"w. c #266715",
"e. c #326A12",
"r. c #396B11",
"t. c #356717",
"y. c #277419",
"u. c #33731C",
"i. c #3A7319",
"p. c #377614",
"a. c #2A720C",
"s. c #074823",
"d. c #144724",
"f. c #085221",
"g. c #055623",
"h. c #115A22",
"j. c #155625",
"k. c #135432",
"l. c #254626",
"z. c #265724",
"x. c #345824",
"c. c #265635",
"v. c #304D32",
"b. c #086624",
"n. c #156725",
"m. c #187528",
"M. c #106F30",
"N. c #276823",
"B. c #316322",
"V. c #396B21",
"C. c #366925",
"Z. c #267525",
"A. c #337322",
"S. c #3B7A23",
"D. c #397626",
"F. c #266935",
"G. c #277833",
"H. c #347634",
"J. c #376833",
"K. c #444910",
"L. c #465615",
"P. c #4B5209",
"I. c #466717",
"U. c #556817",
"Y. c #457717",
"T. c #567918",
"R. c #48740B",
"E. c #677517",
"W. c #485429",
"Q. c #476925",
"!. c #546824",
"~. c #427321",
"^. c #467926",
"/. c #567827",
"(. c #466836",
"). c #546832",
"_. c #467833",
"`. c #577834",
"'. c #667825",
"]. c #65712E",
"[. c #635A18",
"{. c #22354C",
"}. c #2A5446",
"|. c #2D684B",
" X c #1D6154",
".X c #475547",
"XX c #477545",
"oX c #4C734F",
"OX c #5F7350",
"+X c #2F8517",
"@X c #278628",
"#X c #378626",
"$X c #379725",
"%X c #358535",
"&X c #359834",
"*X c #288F2E",
"=X c #38A933",
"-X c #158333",
";X c #478616",
":X c #558818",
">X c #6F8716",
",X c #468726",
"<X c #568826",
"1X c #489828",
"2X c #569528",
"3X c #488733",
"4X c #568A33",
"5X c #499734",
"6X c #579735",
"7X c #658828",
"8X c #748A22",
"9X c #77962A",
"0X c #698B35",
"qX c #699635",
"wX c #769837",
"eX c #6C902D",
"rX c #56A629",
"tX c #49AA35",
"yX c #56A837",
"uX c #59B639",
"iX c #4BAD2F",
"pX c #66A838",
"aX c #66B738",
"sX c #79AC31",
"dX c #56C63A",
"fX c #74C93A",
"gX c #2D9047",
"hX c #2BA549",
"jX c #299463",
"kX c #578945",
"lX c #599A46",
"zX c #4B8D49",
"xX c #679945",
"cX c #779A44",
"vX c #6E8F4D",
"bX c #55AD46",
"nX c #6BAA46",
"mX c #76A847",
"MX c #67B946",
"NX c #76A854",
"BX c #6DB74D",
"VX c #74AA68",
"CX c #5D8F67",
"ZX c #6ECC4A",
"AX c #66E050",
"SX c #859937",
"DX c #88A539",
"FX c #889A49",
"GX c #85A646",
"HX c #90AD4C",
"JX c #8DAE6C",
"KX c #96A762",
"LX c #86D152",
"PX c #9CD86C",
"IX c #8FB893",
"UX c #9CD684",
/* pixels */
";.q.S $XiX+X3.1 1 Z +.kXj v.> Z 4 mXI L.Q.y e U.g.k.p d.5X=XI I J ^ S ] W pXMXqX7XrX6XZX,X,Xt.A.t.t.} V.Q &.t.#X_ u N * 9 /.d Z ",
"A.i.S $XdX+X3.S 6 1 *.`.7.f 0 R 2 B.I U.x.a c s.s.s.j.n.G.n.p J N 1 N ] #XyXpX'.P.7XyXMX#Xt.%.$.&.&.@.B.B.q.$.B.x.> 5 A Q.D.A 0 ",
"`.q.u.2.2.2.ZXfX1 5 @.3X<X5 > 5 u [ p x.].W.d.i e v KXk.f.I L J 1 < 2.0.mX/.E.9X2X6X<X4XyXt.*.@.: @.j B.t.Y.C.#.l.j $.*.0.C.{ } ",
":.D y.3.<.[ uXPXN G 4.#XN.6 7 < *.6Xp u /.7Xp p (.KX|.s.] L I f.O.7 $X:XBXmX8X:XdXbXZX5X,Xi.i.@.} $.9.l.y.*.*.B.l #.-.-.S.,XY.{ ",
"~.' 2.y.2.I ^ Z.~.] N M *.1 %.6 5 ` h.s.Q.'.p g a c.OX#.&.s ] L 7. .T.9XxXpX!.W.U.aXrX,XC.x.@.@.j D.:.e.;.t.>.j h !.| &.h h :.lX",
"Q M B aX1Xy.J -.mX,X' 4 0X@.Y E Z 3Xg.I 0X0X0 > e v .XV.$.t.<XL 5.C <XHX9XK.L.`.7.Y.ZXrX} | O.D 7.6.4.-.z.$.:X@.*.t.$.i.4XD.B.9.",
"*.^.A G u S - [ 4XdX6Xo.,XU.x.a u 3X;./.0XeX#.> t >.v.~.Y `.mXM O.R.>X8XR.O.6.:X8.t.qX0 > V T.C t.3X4XB.@.f -.C.t.,Xt.[ i.0.l y.",
"A.V ` G ; 5X@.3XQ.[ `.2.3.*.B.Z %.I I./.0XeX*.> k j v.T.r.0XmXV | R.E.SXE.7.R.7.C 7 > > 1 V V x.D.^.#XC.@.*.Q ^.S.^.*.4XB.2.1._ ",
",X* { ' * Y.t./.>.K.I.3X,XQ.,XrXZXJ.I.~.!.qXY 8 j l ).:Xx.Q.0XO.E.SX>XSX8.7X7.7.O.0 h 0 ~.`.t.x.lXkXlXp.:.L.] t.L.@.4XA.t.B ,.,.",
"4 Z 3.<.* * +.#.L.P././.MXt.<XaXA.(.~.~.~.^.0 > > f Q.^.@.).I.P.9X>X>XE.L.P.P.j h h | <XR.;X<XeXxXxX^.C.~.:.9.;Xu.j ^.4X3.X.,.,.",
"A M 1XS 3 0 } I.U.U.wX'.FX>.Y.^.[ x.~.~.Q.Q.*.8 0 r ).V.#.).>.P.>X>X>XU.Y.P.| h h h I.wX9XeXeXqX>.| Q.I.I.!.2X^.u.j 2X;X<.2.a.a.",
"i.D 2XM I.+.T.U./.9XDXsX0X>.*.q.0 E ,Xi.C.>.#.#.0 l.c.@.#.W.O.+.R.>XR.E.U.P.k k k k I.T.7Xt.D.T.7.+.T.6XT.9X3X4Xi.>.6XmX+X,.D ,X",
"I.a.^ ' 2X:XT.'.9X8X9XwX`.!./.-.8 5 ^.&.>.x.j 0 d z.v.j #.#.&.} U.U.E./.U.K.| k g h k } ;X<XD.3X:X:X<X6XwX8XzX2X~.3X^.0XD u.r.<X",
"7.w.;XY.i.t.r.T.A.S.^.,XY.V.<X:.Y 5 3X0.C.B.h 0 ` l.l.l.x.} } +.E.R.I.+.L.Y.| k h g { 7.6.Y.C.~.Y.t.I.bXt.~.<X2XqXHXHXGX,Xp.r.3 ",
"r.e.t.~.e.>.4.>.^.xX^.Y.~.V.Y.t.@.3 S.t.C.t.0 0 f 3 n n @.o.R.!.U.].+.C I.| P.| h h #.R.p.e.C.#Xp.:.0.>.Y.cX^.D.qXGXGXLXrX1X#XS.",
"2X<X<X:X:X:XT.:XFXwXU.I.o...0.q.8 0 B.*.-.x.l @.Y 8 v.n >.I.KX].!.k I.I.U.).| k k L.2X<X<X:X4X#X$X:XT.<XqXwXL.o.t.<XeXpX:X6X9X9X",
"R.Y.i.>.#.k !./.i.C :.I.O.X.~.^.0 < z.-.;.x.*.@.f [ l.l T.].kXP.!.kXP.U.).k h #.#.I.7Xr.;XY.Y.>.$X#.I.I.^. .Y.} X.e.^.7XqX<XKXDX",
">.>.>.4.r.I.p.r.O.V  .C V e.o./.I.Y B.-.} x.>.@.I k.s >.SX>XU.U.].!.!.!.k k W.k k Q.`.| L.>.:.6.r.I.Y.r. .V V V 6.X.R.<XwXGXxX/.",
"g g g o.:.+.+. .0 0 7 V -.D.o.^.<X^.V.0.A *.l.! ! d.v (.9X'.E.[.L.L.L.k (.W.k k #.#.h > g j j o.>.+.O. .0 0 7 C 3XS.7.r.7XpX<X/.",
"j O. .X...D +.I.V V V C C 4.O.:.Y.3XV.N.} | C.Q f ! v Q.>XwX'.E.[.P.).!.).k k k #.h k j } C  .4.{ { +.t.V V C C ..O...t.:XeXwXx.",
"O.o.4.e.7...:.>.7.X.` ` { {  .:.:X3XV.Z.0 #.x.I [ j.l 0X>X8XSX'.U.].!.`.K.k k k k k #.} O.4.4.t.o.O.>.L.:.X.C { .. ...7.:X<XeX7X",
"R.6.6.4.4.o.t.4X~.t.4. .X.C  .7.^.4X~.A.0 l ;.=.=.z.c./.E.[.[.].0X].].K.#.k k K.| O.7.eX6.6.6.4.w.4.t.4XY.i.o.D .. .4.6./.0XT.wX",
"R.8.p.7.4.4.{ `.t.V.o.4.X.X.o.+.Y.0XH.C.0 j @.j.[ Q l.!.>X[.[.'.E.vX).K.K.h k +.} } 6.eX8.8.6.5.4.o.o.`.0.D.o.o.X.X.4.o.T.0XT.wX",
",Xp.p.p.4.Y.a.i.q.vXN.0.t.4.o.7.Y.6X6XC.j @.l.[ 0 Q @.8XKXDXE.[.OX[.L.W.K.L.>.6.7.8.8.:X;Xi.Y.6.r.1XuXi.t.kXB.Q.x.O.e.6.Y.0X7XwX",
"0X4Xu.e.6.6.;X0X^.i.A.A.B.0.e.p.Y.pX6XA.0 C.v.5 < Y j vXPXSXSXE.P.| OX[.!.Q.L.8.6.8.;X:XpX6X,XuXAXdXuXaXpX`.2X2X4XcXY.,X4X2X:XwX",
";X4XD.Y.7.6.:XJX3X~._.3XD.S.p.,XS.nX6XA.0 J.l.9 0 E z l.HXHXSXSXP.).K.P.L.Y.R.Y.8.;X;XaXrXZXuXS.#X,X#X#Xw.,X6X<XrXsX/.4X<X4X<X0X",
"p.;X:X/.D  .NX,X4Xi.i.D.kX4X;X1X2X2XyX#XY C.l f f Q l v.GXHXGXSX'.K.L.W.U.:X:X:XR.aXsX;XyXrXA.-.y.u.A.,XfXLXfXLXZXZXaX2X^.A.BXpX",
";Xa.R.&.AXAXnX^.~.8.p.a.u.,X6XqX2X6XyXy.U C.l s l.E J.|.SXHXHXJXwXwX[.L.Y.:XsXrX8.rXMXu.nX2XD.l C.~.2X;X4XrXaX6XfXfXrX=X#XA.uXlX",
"pXaXrXiX#X#XyX,X5X7X4X<Xu.xXlXnX6X6XbXa.U Z.@.d.F.u E c.wXHXKXFXFX0XvX).7XT.BXaXuX1XBXZX,X_.C.D.[ &.&.O.t.x.~.^.Q.,X#XS.0.C #X1X",
"pX,Xi.0.w.q.~.#X6XrX<X<X4X4XvXnX6XwXuX9...t.f Z.z.9 E v.XXSXSXSXwXcX0XVX4XpXyXrX2XyXZX1XD.z.~.B.i.D 5 @.q.-.N.0.$.&.R %.M C t.,X",
"6XZ.x.z.D.i.2XaXMXfXyX#X6XlX4XlXlXqX&X1.Y t.f Q Q u E l.(.'.'.FXwXwXNX,XnXyXiX+X#X=.iX0.%.-.u.o.i.u.t.+X+X<.9 %.@.u M <.' ' q.,X",
"C.x.j.B.:.,X3XyXyXnXtXy.lXZXBX6XlXpX,X0.Y &.@.< E ; E l.H.'.E.SXcXNXNX<XpX1X#Xe.yXuX1Xy.[ N.w.' 7 ..q.>.$X' Z B 9 j.9.D ..4.w.l ",
"*.z.0.*.A U %.N.A.C.A.=.N.tXtXBXxXGXD.=.Y Y @.> d.s d.l z.U.].'.'.JXNXNXBX6X#XBXZX%Xq.Z.U [ ' <.Z A 9 M 5 M 9._ U m.j.1.M j S.C.",
"z.N.` 5.%.w.q.Q 9 0 _ M w.*XZ.xXxXGXD.y.U ;.f E f j d.j l.`.]./.vXPXPXIXJXJXFXZXZXiXuX;Xp.u.S.+X9.Z _ _ 1.,.*.U ` q.$.[ $.@.4XV.",
"_ N n.J Z ` y.N 5 W N N =.$XN.tXNXcXtX#X8 9 Q l f > f g l.|.!.U.FXUXPXAXZXZX3Xx...A.$XzX{ nXp.U D.9.#X@X@X+X2.1X#Xj.D.D.3X#X#Xp.",
"[ B.y.Z _ & O j.u ( ] * f Z.%X5X0XNXzXtX> 8 ;.@.8 r f E @.|.).!.JXAXBXAXpXrXyXAXS.MX#X&.q.Z.' M * J 2.$XiX=XLXZXbXZ.z.C.1.S.@._.",
"@X=.o =.Z.@X1.G 4 ` d Y C.%XH.q.H.3XbXj.- 9 U M ; 6 ; > f }.(.vXIXBXuXtXZXPXdXbX5XuXA.;.U <.Z S M y.$XtXuXdXZX$XH.0.%.U N.H.B.%.",
"9.S , 2 F ) 1.G.*Xn.N.G.9.[ Z.N.3Xn.AXz.* U 9 ` ; A.r > s E |.KXVXtXNX^.LXAXtX^.,X1X9.q.n.0.N.X.C a.1XdX1X` 9.S m.Z.9.M ! Q W z.",
"1.< M ^ *X@X=X=XG.j.] Q z.Z.q.G.A.F.zX>.: y f l.* l.> p f l }.JXiXtX-.q.#XyXuXMXMX%XA.` N C 9.<.[ y.U %.T N @XZ.N 2 ' 1 M I 3 ; ",
"h.M 6 M @X*X2.' G.[ u [ j.! %XZ.1.#X|.t.: p d.v r d.v d w d.v.VXMX4X@.R 1.tXS._.5X#X5 Q <.X.< #X#Xa.1 0 ; % j.J 1.1.y.w.#X5XA.B ",
"M 5 Z N 2 G M ) y F 5 ; y < J d.Q z.5XB.+ a 5 c.s c.s [ + d.c.JXVXvXkXlX=X#X%.-.0.U u _ N +XB ..Z * % : < 4 W u.` y.N.3Xu.6 T z.",
"M [ 9.' & : 3 ( 4 4 5 u O 3 f M j.I ,XA.r u 5 f 3 f w s : d J.XXGXCXH.3XtX$X%.$.R ` [ ] * * _ w.{ * < : O <.e.t.5 y.u.#XA.D.J.w.",
"G N G = O & p I n.] ] ] y 2 = O I n.H.z.w F 2 * R w 9.+ : s d.c.).D.bXFXMX0.Q =.=.$.-.Y %.N.Z 5 H.9 5 R * Y z.A ..<.d Q _ T C w.",
"5 5 =.< , o 1 ] J n.m.< p W O = W h..XzX0 t t - T a 5 w ; d d }.+ N.z.XX`.x.%XA.-.=.@.=.0.B...D.l.` ` 0 +X0 U ;.3 0 { Z V c., 6 ",
"6 s.k.y 5 = 2 G - M W W M - = I n.M.v.J.r q = % U w U ; w k.f v + + : r #.! %X5X+XQ _ ;.0.w._.x.x.f V.<X/.>.J.&.z.- F.< U _ 3 ; ",
"I d.s.g.h.h.! ; - 3 3 u & 5 I b.M.m.( H.e - % & ` - ; & 3 s.d.Y - * t q = F.H.p [ p =.#XA.j.N.z.4Xt.C.6X>.j e OX_.6XD.R R B.u i ",
"g.i G.M.i f.G p a J - 5 - - = 3.+ s.@XgXe , O & ; = > % - d.f.Y L - - q q I Z.t i p p 5Xp #X] s.N.H.p F n j.d.I p m L p s.i j.' ",
"f.B P y F y y L y M.K / P / K K F t j.j.- & , : 3 & a o % H ] j.c.o o + = + 2 y + O - M j.M , O 4 - = + q - 2 - j.%Xb.3 2 + - = ",
"4 / q H 2 P H F F K K / b.~ ^ I i L N j.- & M - % O O o = 2 f.d.k.K K g.b.g.s.i F 2 - % 2 O % 2 &.c.[ L W j.H.NXxXN.F.b.n.N.qXnX",
"q 2 / b.) ) P H / / H H P ~ P P P d.F.k.p F 2 = L d.K K K f.b.b.M.b./ P s.F B F y y F y P K I I k.f.m.m.M.G.m.] 1.M.3.n.k.n.) M.",
"P b.s.) g.) 3.-X( H / ) ) ^ ) h.( n.j.f.I I H f.P I P L i s.P / P f.P P K K K 4 i y t K q ( s.f.k.j.h.J M ( I 2 - s.n.N.n.F.h.m.",
") / ~ / F / / / / / m.-Xm.M.b.~ H ( P L P I I K J ^ c i e - 2 - t L 6 B S ^ F K i i 4 H 5 h.M.H.%XG.c.I F - s.- - y n.H.v.n.1.h.",
"/ / ) / B / / ~ P / ) ) g.I J S ' P f.s.( H J p I K m.f.y O o z.% 1 B B *XM p P F y P H H ) m.bXVXVXF.f q % 2 ( & 2 & - y b.n.m.",
") / P / P ) P i q 2 F , 4 ( S *XN c K L ( ' ^ f.W s.G.N.u % % , c.* 6 1 3 ! O v t K f.^ I y f.L %X@Xm.3.J.q O - o O o t c.F.2.m.",
"P ~ ~ S ) ~ 1.h.y o ; 5 % B & , G  X Xc.h.h.g.h.d.x.@.; % 9 D.A.*.v 3 < q ` |.h.k.|.c.) b.y i t s.h.' h.j.( L + - - , q s.H.n.G.",
"/ / ) b.P H M.M.- 2 G _ ; & ; o ; ; J B m.gX1.l.>.O > O o ; Z B.c.|.zX@ f |.l.: O M J M.-Xn.U u j.d.z.z.&XyX%Xj.N ^ = K g.g.h.zX",
"P g.s.g.f.2 a O , 1 ] n.|.k.@ % 4 4 ' y.*XgX1.j.+ n > : * % % e b m + . % & O S N ` @X@XgX) ' _.q.N.q.A.F.D.Z.L W 2 Z - ^ @X2.&X",
"k.g.g.L J . 3 % O & q b b - B p k.k.z 3 =.%XG.CXz J.*.Q.B.; O & + # + % 4 W j.z.F.d.Z N.F.3.' <.X.:.i.S B d.3XD.2.D D ' ' 2.j.m.",
"b./ q e X a c g.t + O + |.k.  v zXCXY { 5 j.n.d.n v m }.{.# O o   v.v.r . n (.VXIXkXC.> p n.( 2 & 4 H C C S ,.3.^.X.n.6XtXZ.c h.",
"s.s.a = p d.s.{.b @ + . o . x b r + : < 5 D [ # # m m b X # $ #   . . + 8 m z l.f @.0 > o h.k.y f.I & - = o.5.#XM.m.a.^.+X[ W.g.",
"c c @ @ x b b @ . . X X . e x x . X o : ; ^ h.o X @ . : : + $ #     X {.x m # # $ + + * 5 ^ s.v.n.h.- % - B ` C ,.<.' N 9 R 4 ' ",
"b       @ . q @ e b @ b b {.{.x @ * : G M g.3.@ @ u k.l.m m v.z m z W.{.{.m # # X . + % > 5 j..Xn.K ^ ' , 4 y I F S S 6 B 4 2 4 ",
"x x @ e c b c c {. X X|. X Xd.v e k.d.Z.G.Z.1.O . L v.}.|.oXCXOXoX.X.X.X}.m x $ o = o , 2 H 3.n.j.j.] j.B 4 ( J I I 3.B N ~ < s.",
"e @ o + s.k.k.-XhXhXhXjXgXhX&X*Xf.g.%X5XyX5X$X5Xn.k.n.Z.nXZXZXZXNXmXCXkXoXoXt.f 1 N.j.H.%XG.n.) K ( f.h.* I Z.*XtX*Xm.[ P m.n.j."
};
