/* XPM */
static char *result[] = {
/* columns rows colors chars-per-pixel */
"64 64 252 2 ",
"   c #050A05",
".  c #041403",
"X  c #061B04",
"o  c #091E03",
"O  c #0B1D0B",
"+  c #08150A",
"@  c #121B07",
"#  c #0B1814",
"$  c #121717",
"%  c #0A0C14",
"&  c #0C2305",
"*  c #0E2A06",
"=  c #0C230B",
"-  c #0E2A0D",
";  c #132C06",
":  c #13250C",
">  c #142C0C",
",  c #1A2807",
"<  c #14330B",
"1  c #1B340A",
"2  c #1C3B0C",
"3  c #17360A",
"4  c #0C2513",
"5  c #0E2B13",
"6  c #0D251A",
"7  c #132C13",
"8  c #122D1A",
"9  c #172617",
"0  c #143314",
"q  c #1B3415",
"w  c #163A15",
"e  c #1C3C14",
"r  c #15341C",
"t  c #1C341C",
"y  c #163A1C",
"u  c #1A3B1C",
"i  c #242D0B",
"p  c #252C07",
"a  c #25340B",
"s  c #2B340B",
"d  c #233C0D",
"f  c #2D3C0E",
"g  c #33390E",
"h  c #2C3413",
"j  c #233C12",
"k  c #2D3C12",
"l  c #22351C",
"z  c #2B3B1C",
"x  c #253717",
"c  c #313C13",
"v  c #343A14",
"b  c #2D2B17",
"n  c #192C26",
"m  c #153523",
"M  c #1B3D23",
"N  c #193826",
"B  c #1B2233",
"V  c #273A24",
"C  c #2B362D",
"Z  c #161A26",
"A  c #1E420E",
"S  c #1D4214",
"D  c #1C431C",
"F  c #1E491C",
"G  c #23430E",
"H  c #2B430E",
"J  c #244314",
"K  c #2A4414",
"L  c #244A16",
"P  c #2B4B14",
"I  c #24441B",
"U  c #2B451A",
"Y  c #234C1C",
"T  c #2D4B1B",
"R  c #324413",
"E  c #324A13",
"W  c #39451C",
"Q  c #324C1C",
"!  c #3C4B1C",
"~  c #384617",
"^  c #2C531B",
"/  c #27511B",
"(  c #335215",
")  c #33541D",
"_  c #3B541C",
"`  c #345A1C",
"'  c #3B5B1C",
"]  c #375616",
"[  c #30400F",
"{  c #3C621D",
"}  c #39661E",
"|  c #1D4323",
" . c #1E4924",
".. c #1E4730",
"X. c #234C24",
"o. c #234C2A",
"O. c #294726",
"+. c #344D22",
"@. c #364926",
"#. c #255324",
"$. c #2B5524",
"%. c #2C5A25",
"&. c #26532A",
"*. c #2B542B",
"=. c #2C5B2B",
"-. c #265929",
";. c #355323",
":. c #3B5424",
">. c #355B24",
",. c #3B5C23",
"<. c #35532C",
"1. c #325D2A",
"2. c #3C5D2A",
"3. c #3C562B",
"4. c #274A33",
"5. c #374734",
"6. c #2B5534",
"7. c #375A33",
"8. c #3D6324",
"9. c #32622C",
"0. c #3C642A",
"q. c #39682A",
"w. c #3C7229",
"e. c #356433",
"r. c #3A6C34",
"t. c #396739",
"y. c #3E7535",
"u. c #2E642F",
"i. c #444D1C",
"p. c #444B16",
"a. c #43531C",
"s. c #47591D",
"d. c #45661D",
"f. c #56631F",
"g. c #445423",
"h. c #4A5423",
"j. c #435B23",
"k. c #435D2C",
"l. c #4A5928",
"z. c #535B26",
"x. c #485A35",
"c. c #474F2B",
"v. c #436424",
"b. c #4B6224",
"n. c #446B24",
"m. c #4A6C24",
"M. c #43642B",
"N. c #4A642C",
"B. c #456C2B",
"V. c #4A6C2C",
"C. c #55642B",
"Z. c #536B2C",
"A. c #586928",
"S. c #45732B",
"D. c #4C732D",
"F. c #4B7628",
"G. c #53742B",
"H. c #5B722D",
"J. c #547B2C",
"K. c #5A7A2D",
"L. c #486934",
"P. c #536C34",
"I. c #586A36",
"U. c #4C7333",
"Y. c #487838",
"T. c #527433",
"R. c #5C7232",
"E. c #537B34",
"W. c #5C7B33",
"Q. c #54733A",
"!. c #5C743C",
"~. c #547C3A",
"^. c #5B7C3C",
"/. c #68772C",
"(. c #616C35",
"). c #637C3C",
"_. c #667837",
"`. c #727D38",
"'. c #616C2C",
"]. c #313E43",
"[. c #3B4D41",
"{. c #3B6C42",
"}. c #455649",
"|. c #4D6B43",
" X c #597A44",
".X c #52744E",
"XX c #677B44",
"oX c #637C5C",
"OX c #637E65",
"+X c #5E7566",
"@X c #58812E",
"#X c #4C8935",
"$X c #588639",
"%X c #57983A",
"&X c #49852C",
"*X c #65833C",
"=X c #67873A",
"-X c #76863B",
";X c #63933D",
":X c #70913B",
">X c #5EA33E",
",X c #63A53D",
"<X c #598643",
"1X c #5A9944",
"2X c #54874D",
"3X c #6A8443",
"4X c #648B42",
"5X c #688847",
"6X c #758947",
"7X c #689646",
"8X c #75964A",
"9X c #698857",
"0X c #748B54",
"qX c #6A9657",
"wX c #799657",
"eX c #5DA243",
"rX c #62A444",
"tX c #67A947",
"yX c #74A84C",
"uX c #6BB14B",
"iX c #73B74C",
"pX c #6AA852",
"aX c #78A955",
"sX c #77B854",
"dX c #6CB452",
"fX c #678467",
"gX c #7A9964",
"hX c #6C8F6F",
"jX c #75A66B",
"kX c #7BC357",
"lX c #78C34E",
"zX c #82913E",
"xX c #87984B",
"cX c #84995A",
"vX c #818D45",
"bX c #85A359",
"nX c #95A556",
"mX c #83B45B",
"MX c #90A852",
"NX c #839C66",
"BX c #89A669",
"VX c #94A86A",
"CX c #87B664",
"ZX c #89A775",
"AX c #94AD74",
"SX c #98B479",
"DX c #8EB376",
"FX c #A5B76F",
"GX c #8DCB63",
"HX c #87CE5D",
"JX c #7C9988",
"KX c #97B383",
/* pixels */
"V.E.*Xh b @ c v.] ' P 4XF.7X#Xw.E N.` d.F.=XJ.V.U K Q +.L.r.Q.|.~.$XV.x z x I e j +.e U :.j Q ,.^ U P ) K 2 J N.) E U 1 j ; J.7X",
"a.~ C.v , K j.' E K b.,.B.%XY.8.C.d._ d.:X:X/.v.P K J E.5XqX X2X7X<X~.0.3.x I L I T < d 8.U B.S.8.n.` Y.0.Q.N.:.j.:.Q 1 J 2 v.@X",
"i h , i E m.' ] ( E 5XL.W.4X@XN.C.f.s.*XH.-Xm.j.l.` ( yXyXU. X1.<X^.$XB.^ U  X,.2.0.G 2 L.,.$XB.T.$Xn.8.' V.Q.d K N.K Q ! 3 G D.",
":.x.J Q.D.v.` ] ] v.aXP.J.<XM.( s.z.A.Z.-Xa.s f V.n.=X@XCXj.<X~.2.>.U.8.) ) P U d ^ A < J ,.8.B.( V.0.8.G v.T.d ; j j ; +.T j P ",
"n.bX%XyXd.` 8.8.H P d.s.E.G g.a.z.h.i.cX(.v s E N.P U.$X8XCX8.>.>.^ 5Xn.8.2.>.) T I I O.& >.,.) 2.+.U K P v.v.,.K j x 1 J K k.:.",
") %XaXyX` n.] ( P ( ] H.Z.E (.i.p.I.XX_.~ s p.( 0.M.L.U.$X8Xn.J T S 0.^ J >.2.J ` L L L L ` ~.8.>.d :.,.V.{ W.' j.K ).) T T N.x.",
"D.7X;XaXmX;X] ) { ] d.-X-X_.C.p.s.`.g.K [ E b.] { U.L.0.B.<Xv.` P ^ B.B.8.0.>.L L ^ <XB.B.` U.D.L.U ; G *XW._.v.j.d Z.5XL.~.XXl.",
"8.7X$XyXHX:X( 2 P ' d.xX-Xb.a.R.E ' Q a d H A d.K.mX<X0.>.' Q.) ] B.U.` B.3XE.q.q.$XY.#X$X~.E.v.' Q.) 2 ) 3X3XN.K 2 d Q.$X3XXX+.",
"` 4X;X7XsX8Xd.^ H ( A.-XH.E ] A.E 1 a & ; d K S n.CXn.0.,.D.S.S.U.Y.^ P 8.$X7X1X~.r.q.Y.<X~.<X#XE.M.L.U j.*XZ.! Q :.Q ,.T.3X^ j ",
"^ B.yX$XF.7X_ E H A.`.zX/.d.H.] d , , ; 1 _ N.{ G 8Xj.qX0.^ Y.S.U.L.S 3 ` y.1X2Xw.w.q.#X<X#X7XD.D.0.>.,.B.5X8XT.z L.U ) N.Q.;.+.",
"8.E.7XaX$XE.3 R a./././.Z.s.s.R , , p s.).v.).3XP.j.' ,.8.M.S.Y.Y.2.S e * S ^ r.w.%XdXaXaX7XY.~.^.0.;.P.G.^.cXwX) ;.Q.T >.k.Q U ",
";.B.8Xn.7X7X] d E /././.f.s.p.p p 1 _.=XH.'.`.M.Z.( 8XV.L.( 0.S.S.1.* ; < %.} 7X#X%XrXmXCXY.8.5X3X>.2 d V.N.8X8X0XE  X:.k.k.3.Q ",
"3 8.$X~.D.%X' f f f./.H.A.z.p.s p p _.K.A.G.d.] 7XaXmX8Xj.T ^ A Y.Y.& q S 8.#XE.%X;XyX@X#X8.Y.<XaXwX X1 > > ! 0X3Xk.L.Q.j Q.k.I ",
"* / ,.M.W.;X!.K E A.f.A.Z.s.R g , , 1 ' J.F.MX;XCXyX7X7XQ T J ^ w.~.^ e < } U.&XyXiX;X$Xy./ Y.q.,.qX,.<.0 7 o Q 5XL.Q.k.; <.L.3.",
"w J U P 8.tXm.H a.] z.] a.s.p.p , , E ` { J.GXmXaX8X:XD.B.M.>.L.q.~.0.L J ^ #XyXyX%X$XL S 3 F S $./ < S J > 7 ; P.M.Q.Q.& & > T ",
"L >.K G F.=XG.b.'.A.] ~ ~ ~ ~ s p a ] m.} d.GXmX;XG.;XB.) 9.;.T 0.^ T 2 L 8.D.~.E.} E 2 9.1.A < / 2 ` 0.1.J e < J d k.5X3.: & j ",
"Q N.N.+.L ;X_.A.(.(.v h.h.h.h.s v H.G.d.K.J.mXyXaX7X:XD.M./ K j ) U ; T T ( J Q 2 e X.L Y.L 3 w A ^ B.U.~.9.e ; @.O.L.!.).W q 0.",
"U ;.) *X=X:X8X/.z.(.p.h.i.p.s s c P.Z._ n.v.m.4X4X8X7X~.L.J 2 ; 3 >.P ) P G q * j > T L $.F $.$.U.0.^ ^ >.e $.3.q X > d XXwX3X$X",
":.k.Q W.8X8X:X-X'.p.z.z.v v i.p c h.a f k H D.D.8.U.~.L.I 2 I 2 ) 3 d.J.n.K & o . > > q S $.w.,.>.^ ~.* T T U U > o * 3 s.6X6X_.",
"Q 2 J D.=XxX/.-Xz.c.z.b i.z.p b c g , , , 3 ` 5XU.E.B.S & w >.8.A L n.E.b.Q q o : > 7 & / q.L.q.` ~.V.L ;.,.>.z o & 1 T m.R.6XA.",
"j.M.>.5XcXMXzX'.`.c.z.(.I.g g g f s f [ E ( %X' ( L.>.e ; I L ) } ^ L v.Q ; o : o o ; Q ^ T ^ E.U.B.0.0Xd P j ; J ( S.E.8.;XR.C.",
",.,.B.wXbXMXzXf.(.(.h.(.v s s f g H ! ' ' } yXT.:.1 ;.;.L X.e o * >.,.U < * & : & x 1 ) M.>.) 0.v.U.0.N.) ) 1 * L.D.Y.E.7XaXE.:.",
"U.5XW.wX-X/.zXzX'.(.(.h.v g s [ H ] m.G.} n.aX8.U I ,.;.:.; ; <.; J { k.1 z 1 & . X ) 0X) K 2 2 $.T K T 2.M.e J G.U.$XJ.7X7XB.M.",
"$X6X;X6XG.nXFXnXz.(.h.p.h.g ] s.s.{ F.J.d.n.{ ^ M.;.T T j U I 2.j 3 K 2.j , * ; > x ' V.XX2 j & j j :.J d * >.G =X$Xn.$X$X7XB.E.",
"$X=X=X*X6XnXFXnX`.p.z.h.h.s.s.d.d.F.F.K.5XB.( } 8.L.;.U T ;.^ N.,.J U ;.j < & , q = Q ~ ,.3.; ; k.1 ~ ) & G ( { F.E.S.w.;XF.D.8.",
"=X_./.=XnXFXnXnXzXh.i.p.s.d.K.m.} F.m.F.G.m.W.8.V.U.$.K P ,.8.V.) G N.,.+.J T j a i d K U 1 1 d R :.K k R P ( @XF.F.S.#X$Xd.{ n.",
"*X*X_.xXnXnXnXnXxX(.z.p.s.A.=X@Xd.@XJ.F.m.F.E.( $X5X,.,.) >.,.` P K ' P.;.K _ R h.`.XXb , ; N. X; :.R ' b.n.F.K.n.d.} ] } ` { } ",
"=X=X:XxXxXnXxXxXcXvX'.c.s.G.=X=XF.F.F.J.{ G.E ,.<XE.v.` n.v.E V.,.3XP.j.N.] _.(.(.cXC.FXs g.VXc.* @ j.b._.@XF.d.n.s.[ d d.{ } S.",
"=X6X8X8XzXzXvXxXvXxX).XX3XZ.@XF.J.d.G.S.' j.! k v.n.n.B.S.^.0.5XV.~.!.s.XXG.).A.`.(.z.nX6Xl.wXl.+.; XX6XF.m.K.m.v.Z.f d E.v.G.#X",
"8X=X).`.`.`.vX`.XXvX3X0X3Xv.d.@X@Xd.M.b.! P.a a b.V.n.` w.4X$X=XT.B.Q.5X6X6X6XA.C.p.p.vXvX`.0Xj.R XX5X5X] *XH.] _ g.g a v.0.9X9X",
"*XH.*X_.(.vX`.'.`.6XcX^.m.n.d._.@Xs.Q a.:.g.s i 0.U.,.Q.$X$XE.4XF.^.|.).cXR.3X_.XXp i.6X(._.6Xb.5X6XwXZ.v.*XN.! ! W i z 7.|.fXfX",
").XXA.A.`._.'.C.(.6XwXW.3X*XW._.'.s.a.g.k W i , 2.<.x.2X9X5X<X7X5X5X5XV.wXN.Z.H.(.p h h.z.I.H.H.6X3X8X*X).).l.W W W p @..X.XhX9X",
"3X(.p.s.'.z.f.z.C.6XSXDXcXBXcX6XI.h.v c c.v s k L.}.+XfXfXqXqX:X=XQ.5X5X XXXN.j.I.k , @.z.s._.(.R.SXSXBXBXcXI.W z R a Q L.fXOXoX",
"XXh.c i.v p.p.s.z.wXKXKXBXVXFX0XXXl.g f g.k a d L.|.hXfXfX9XqX$X;XG.V.:.d k.k.k.:.h 9 z W p.C.C.R.SXKXVXFXcX(.W :.k d Q L.oXfX9X",
"x.i.h.c p s v i.l.BXAXAXAXFXAXcXXXl.! g.! d a d L.L.fX9XfXoXfXtX7X8.>.Q 3 U :.c.@.z q l R i.z.g.5XAXSXSXSXBXI.j.g.j i W *.oXfXhX",
"i.i.c.h p p g g.I.AXAXBXAXVXaX8X!.C.l.P.a k , K 2.+.oX9XfXfXfXpXw.L I 0.Q +.R @.@.x t z P.! h.g.AXAXDXVXwX8XG.C.g.h a O.7.OXOXJX",
"v c.W h p , s p.3XBXgXgXwX8X$X_.G.s.R.l.h z h a 3.<.fXOXJXhXhXpXS.F A L ^ P.@.v @.@.V z ) _ g.0XNXBXBXwX=X_.m.I.! k h z 7.OXOXKX",
"c.c.z @.h s s a.3XgXNXgXwX8XK.H.H.Z.).l.k W k h @.5.JXOXhXjXpX2XY.r.~.$.' 5XU @.@.z z +.V.Q.j.0X0XgXNXwX6X*XR.!.j.c z l 5.OX+XKX",
"c.U z v h v v W 0XNX9X9XgXwXK.(.C.P.XXI.k c v b C 5.+X+XhXqX%XU.^ A T 3 ] 0Xx x.z V z <.9.~.Q.gXZXNXhXwX8XZ.P.XXl.v v W c.+X+XZX",
"3.b l l , i i i I.NX9XgXNXwX6X!.V.XXN.g.g h W i.I.|..XhXjXgXY.r.L J e 3 T. Xh x.O.z V @.r.B.,. XZXXX9XBX8XQ._.I.:.k i.z.0XNXAXZX",
"5.t V 9 @ , , : z 0XNXVXcXXX!.P.l.V.:._ ! ! P.R.9XZXZXDX7X$.%.S 3 I e +.V.L.W W @., @.@.e ;.3.2 I.wXNXBXXXP.N.N.j.s.W.3XjXDX4X<X",
"C 9 9 O + @ @ , & a NXoXI.c.:.+.Q U +._ V.W.gXDXDX9X.XY.^ L.+.e w 2 < I ;. Xq x @.> V C l o l : O x.wXXX:.U j K 8.T.gXjX<X9.1.L ",
"8 4 # +   + . O X . 7 x t O.V : : * * ; I U 2.*.&.w w 0 F u O.U T U e > k.k., z q : : V t > *.= .   : q @.; o I q.Y.2X-.-.#.Y 0 ",
"4 4 6 # 6 8 . + X O 4 5 4 4 r 7 5 8 6 7 4 8 u | M r 5 0 u *.O.w 4.<.M q x.c.: V : l , b 7.>.|.X.> 8 4 O - o O.*.Y L &.S D S 0 - ",
"= O 9 6 4 = 5 4 7 = = 4 5 4 = 8 5 6 7 0 8 5 y y y q 7 5 u y u r r 8 7 - : x.q : @ l o 9 @.*.D S w w t 0 r - 5 4 = - - > * - 5 5 ",
". O . X . - 0 5 & X 0 r 0 * O O = . . . u 0 w t w 0 q y t *.o.| q 7 X O V }.8 8 . 9 = l 5.e 5 - =   . o = 5 5 7 . O X . O . O . ",
"M m M 7 r 5 = = o = o & - X.o.O.7 o = 7 5 w X.X.& 5 = o . = - q 7 t 7 4 ..4...N 7 7 7 z +.e 7.=.&.M | o.6.&.| y 5 r r m r y M r ",
".. .y 5 y 5 0 y u 0 > & F X.X.w w 7.7.*.S 6.7.<.< 0 o o 7 <.O.w X o 4 8 8 4 4 4 4 4.4.t X.0.2X2X2XqX.X7. .F S S 0 r 5 0 0 - 0 w ",
" ...r r y y w D  .#.X.*.=.u.*.*.D 3 -.9./ Y #.$.0.2X9XO.u o.4.4.| M M N m m m r 8 r m | e F Y 9.u.#.#.&.M y M y w 0 #.D 5 y D D ",
"6...m | y w y w F -.e.=.o.#.=.&.X.&.$./ =.=.=.1.Y *.*.M X.&.*.X.D e u u N m m m 8 4 = q J / Y / #.S u m O & 5 &.0 F #. . .#. .D ",
"m m | 5 y y w  .&.D =.X.X.F F &. .| D %.F $./ u.#.$.u y > - * S e L $.r r r m y 5 5 q J <X$XU.$.< < q O   & & &.-.#.u.u.-.-. . .",
"..N N | | D F  .#.F D %.X.X.X.w o.| | F %./ =. .#.;.|.<.o > e * 1 ; > M M | ..y 5 - & 3 0.9.$.L < u 7 = . & y 2XX.w -.-.-.F  . .",
"B m N ....{.#.-.#.F #./ =.F #.%.#. .-.9.9.9.9.=.I <.oXO.o :.<.V = 7 8 7 0  .{...y ; < $.9.0.;.Y I w 7 . = q t.6.w 5 < F D D  . .",
"m N m N {.u.u.#./ #./ %.<XqX2XY.y.u.=.t.u.9.e.*.X.j @., ; ;.x.[.# . X : 0 {..X{.X.w I / $.B. X X/ |.1.w y w =.& = * w F #.#.-.F ",
"m m m ..{.t.{.=.=.F / -.9.Y.y.pXqX|.%.9.%.%..X1.z I.= o > * 9 $ O 7 = @.O.I {..Xo.0 * e $.L 8.q.w.Y.2X1.D X.q X 0 * #.-.F #.#.-.",
"m m m m N ..{.{.&.#.-.%.%.9.y.1X1XY.=./ ^ y.#XL.q x.5.|.x :   5.5.: & +X|.D D #.D q 7 * w < 2 2 r.*.I X.t.y = o = 0  .#.#.F #.F ",
"6 ....N m  . . .o.#.e.Y.-.-.%.%.e.y.=.X.|.t.9.t l V }.b b           9 9 @ > q X.- - > & o ; 0.q.1.L.r.e.*.0 y - D  .#.#.#.*.{.=.",
"4 m m N ..6. . . .o.=.&.=.#.r.e.F -.=.#.&.-.o.    + % $ % @     $ B Z     & q X.D D I o = & S / t.7.=.=.D w #.-.u.-.*.J X.j < q ",
"m N m m ..6.| ..o.&.&.6.=.r.-.-.-.e.-. .u.9.V 9 $ l t m l 5.}.C }.].C 9 q O.#.X. .M M o.q < 2 Y |.e.%.y.#.#.e.u. .< = 9 = : <.5.",
"# + 6 m ..4.| &.&.&.o. .-.q.r.e.r.u.u.-.u.9.L 4 4 O.*.Y.wXbXCXwX9X~.t.L w.pX#X9.X.T 7.7.X.3 3 3 t.* * w | &.u w &.*.O.> = 8 $ 6 ",
"$     m y | y ..-.u.#.F / w.#Xr.r.-.-.#.-.u.y.u.7.y.#X7XiX,XmXmXuXrXeX7X%X7X>XeX1XeX1X1Xy.y.#Xy.X.y M N #   # n n V l + t : O : ",
"$     6 N m | ..u.y.w.eX1XeXdXdXeXpXdX1X1X#XeX#XeX#X#X%XdXrXtX,XkXGXuX%X1XrXtXtXiXeX%XtXuX>XuXuX2XF 4.. 6 : # # $ %     + 4 l 4.",
"+ 9 6 4 D -.r.y.#XeX>X1X%XeXlXlXlXkXlXrX%X%X&X%XeXeX&X#X#X,XiXiXmXiXuXdX%XeXkXkX>X%X%XeXtXdX#X>XdXsX%X< *.4.C Z $   % % Z $ n n ",
"4 N C [.t.%X%X#X>XeX%XeX>XlXlXdXsXlXHXlXdXuXrXsXeXsXtXtX%XuXiX,X#X,XsXHXkXdX,X,XHXuX%XeX%XeXeX%XrXiXkXtX%XqXgXoX}.[.C B Z %   + "
};
