/* XPM */
static char *result[] = {
/* columns rows colors chars-per-pixel */
"64 64 256 2 ",
"   c #010201",
".  c #010901",
"X  c #050B0A",
"o  c #011101",
"O  c #001A00",
"+  c #061607",
"@  c #061615",
"#  c #111416",
"$  c #070E16",
"%  c #012201",
"&  c #012A01",
"*  c #092A01",
"=  c #002208",
"-  c #002A09",
";  c #082908",
":  c #092205",
">  c #132804",
",  c #013202",
"<  c #093302",
"1  c #0A3A02",
"2  c #013209",
"3  c #083209",
"4  c #023B0A",
"5  c #093A09",
"6  c #053801",
"7  c #143805",
"8  c #002A10",
"9  c #062615",
"0  c #013211",
"q  c #013A12",
"w  c #0A3A12",
"e  c #013A18",
"r  c #093919",
"t  c #053216",
"y  c #133715",
"u  c #132610",
"i  c #252C00",
"p  c #2B3301",
"a  c #253704",
"s  c #323502",
"d  c #333B03",
"f  c #383B07",
"g  c #233915",
"h  c #28291C",
"j  c #0F1A2B",
"k  c #0D2D29",
"l  c #232F2C",
"z  c #084203",
"x  c #02420A",
"c  c #094309",
"v  c #094A0A",
"b  c #024A04",
"n  c #184200",
"m  c #194A00",
"M  c #13430A",
"N  c #124B09",
"B  c #174708",
"V  c #0A5507",
"C  c #18560A",
"Z  c #014412",
"A  c #094312",
"S  c #014A11",
"D  c #094B12",
"F  c #014219",
"G  c #094319",
"H  c #014A19",
"J  c #094B19",
"K  c #124311",
"L  c #1A4312",
"P  c #114B19",
"I  c #174915",
"U  c #005212",
"Y  c #0A5213",
"T  c #015219",
"R  c #095219",
"E  c #015A18",
"W  c #085A16",
"Q  c #125310",
"!  c #195311",
"~  c #115A12",
"^  c #1A5A12",
"/  c #12531A",
"(  c #1B531A",
")  c #145A19",
"_  c #214C0A",
"`  c #264804",
"'  c #364508",
"]  c #225301",
"[  c #225309",
"{  c #225A09",
"}  c #2A5C09",
"|  c #295605",
" . c #34580A",
".. c #254A15",
"X. c #384811",
"o. c #235312",
"O. c #235A12",
"+. c #2A5319",
"@. c #235A19",
"#. c #295B1A",
"$. c #285614",
"%. c #365714",
"&. c #086604",
"*. c #1B650C",
"=. c #156616",
"-. c #197615",
";. c #0B6713",
":. c #2A630A",
">. c #256405",
",. c #326C09",
"<. c #366509",
"1. c #37740A",
"2. c #22641A",
"3. c #2A631A",
"4. c #2B6B1A",
"5. c #276715",
"6. c #326A12",
"7. c #3B6B12",
"8. c #326B19",
"9. c #3B6C1A",
"0. c #356315",
"q. c #27741A",
"w. c #33731B",
"e. c #3A7319",
"r. c #377714",
"t. c #2A720C",
"y. c #064822",
"u. c #124724",
"i. c #095221",
"p. c #055623",
"a. c #115A22",
"s. c #185A22",
"d. c #145526",
"f. c #125332",
"g. c #274724",
"h. c #265724",
"j. c #365925",
"k. c #265835",
"l. c #2F4B34",
"z. c #086624",
"x. c #156725",
"c. c #197428",
"v. c #0F6E30",
"b. c #286824",
"n. c #366824",
"m. c #277527",
"M. c #3B7322",
"N. c #3B7B23",
"B. c #367726",
"V. c #246935",
"C. c #396836",
"Z. c #277933",
"A. c #357632",
"S. c #434908",
"D. c #475717",
"F. c #4D560E",
"G. c #46670C",
"H. c #476818",
"J. c #556817",
"K. c #467718",
"L. c #567819",
"P. c #4D750D",
"I. c #657917",
"U. c #4B5C22",
"Y. c #4C542D",
"T. c #466926",
"R. c #556826",
"E. c #427321",
"W. c #477927",
"Q. c #557828",
"!. c #587834",
"~. c #496F35",
"^. c #667929",
"/. c #657C37",
"(. c #22354C",
"). c #295248",
"_. c #27674E",
"`. c #1D6154",
"'. c #4D744A",
"]. c #51624A",
"[. c #318619",
"{. c #278527",
"}. c #388726",
"|. c #369626",
" X c #378635",
".X c #339733",
"XX c #298B30",
"oX c #269634",
"OX c #488617",
"+X c #558819",
"@X c #4A8812",
"#X c #6A8417",
"$X c #778C17",
"%X c #478726",
"&X c #53832B",
"*X c #578927",
"=X c #489629",
"-X c #569829",
";X c #478834",
":X c #5B8C32",
">X c #568834",
",X c #489533",
"<X c #589735",
"1X c #648827",
"2X c #748828",
"3X c #669527",
"4X c #698A35",
"5X c #778936",
"6X c #679839",
"7X c #769837",
"8X c #74962B",
"9X c #56A72A",
"0X c #48A935",
"qX c #56A936",
"wX c #59B638",
"eX c #4BAC2E",
"rX c #64A737",
"tX c #65B83A",
"yX c #71AD2D",
"uX c #56C63A",
"iX c #75CA3A",
"pX c #2B9248",
"aX c #2BA549",
"sX c #299463",
"dX c #588A46",
"fX c #599945",
"gX c #528C4F",
"hX c #668A46",
"jX c #689944",
"kX c #769844",
"lX c #739452",
"zX c #59A942",
"xX c #55B146",
"cX c #69A647",
"vX c #78A546",
"bX c #67B846",
"nX c #70AF51",
"mX c #71B469",
"MX c #5D8F66",
"NX c #5BCA45",
"BX c #70CE4C",
"VX c #69E951",
"CX c #859A3C",
"ZX c #81912E",
"AX c #86A73B",
"SX c #849B45",
"DX c #88A947",
"FX c #97B04D",
"GX c #86AA56",
"HX c #90B14F",
"JX c #8DAF69",
"KX c #A1B967",
"LX c #87CF51",
"PX c #8AD96E",
"IX c #ADDC76",
"UX c #90B890",
/* pixels */
"o.q.V |.eX{.;.1 1 N  .dX` j.g 9 5 N 4 @.6X~.J +.fXx.J J D D Y Y Y / m.rXbXrX4X1XqX<XzXBX%X;X0.e.4.7.` n...O.8.B.Y y v % B Q.y v ",
"M.M.V |.uX[.;.V 1 1 +.!.%.y g 7 B I 5 c #.@.J %.z.J A v v 1 z b J q.}.9XrX1XI.F.#X9XqXxX}.9.O...#.$.g n.8.5.o.n.j.* 5 L n.E.B 7 ",
"!.4.4.-.-.-.iXuX6 < I W.&X1 * > < 3 w A ) J r +.J G G v 1 1 N q.4.<X6XQ.I.#X2X-X9X&X&X<XqX6.$...> ..a 3.6.W.n.+.X.7 ..+.5.n._ ` ",
"%.V r.;.*.*.wXIXv A 6.}.b.6 1 7 < 7 I n.;Xn.r r r J J R | n C |.+X6XnXvX2X1X-XNXxXbXtX<X%X9.e...7 o.@.h.4.$.+.j.y X.0.#.W.%XE.` ",
"E.~ *.q.-.R W b.E.) v c +.1 M ^ K 6 5 M I / p.J w P J A :.|  .+X3X6XrX3XR.T.T.J.rXwX-X%Xn.j....._ T.$.6.@.9.%.a p Q.' [ p a %.fX",
"I c x tX,Xq.D #.vX%X~ 2 4X_ ..L L L v ^ W.m.p.R 6.W.M.G >.C  .1XAXCX^.D.D.T.E.<.K.9XtXeX_ ' | C 7.,.:.%.h._ +X....0.o.M.>XM.n.=.",
"#.W.N x c V ; a.:XNX<X} W.R.U.h.L w w ( A.M.+.T.!.6X!.M | G.I.$X2XI.G.| ,.P.L.<.<.*XE.7 > n P.m 8.;X&Xb.g.L #.n.%.,X8.{ e.b.g q.",
"M.n ! A ; ,X..&XT.Y &X-.;.+.#.8.^ B ! ^ P #.E.T.6XjX&Xn |  .P.I.ZX#XP.<.P.<.| m 7 > > * 7 n n j.B.W.N.n...+.L W.N.W.+.>Xb.q.*.v ",
"%X* L ~ * K.0.Q.D.X.H.,XOXT.E.%X-X9XtXcXA.T.H.E.R.!.J.' I.$XZX$XZXL.K.1XG.,.<.] a i > 7 T.Q.3.j.fXdXfXe.%.D.! 0.D...:X8.8.b &.&.",
"4 N ;.*.* *  .X.F.F.R.Q.bXn.K.W.9XrX%XB.C.T.E.E.R.T.H.G.#X$X$XI.L.G. .F.S.d i a a ` D.*XK.+X*X5XjX6XW.n.K.} 2.%Xw.a W.<X;.{ &.&.",
"N c =XV < > ' 9.D.J.CX1XSX%.%.e.W.K.#.o.h.n.E.E.~.U.G.F.I.#X$X#XI.P.G.F.S.s p i p %.Q.8X8X3X3X6XD.' H.H.T.J.*XW.r.a %X%X&.-.t.t.",
"9.C -Xc P. .K.J.+X8XAX7X5XX.%.+.5.4.L B L 3.&XM.D.X.|  .G.I.I.I.I.J.J.S.d s s s s %.J.I.*XH.M.L.<. .W.<XL.8X;X,XM.%.<X7X[.&.C =X",
"G.t.W C *X+XL.^.8X2X8X8X>XJ.Q.Q.n.+.7 y 7 n.:X!.R.W.0.` G.J.J.I.L.J.F.X.' d s i p d d ` OXOXB.;X+X+X*X<X7X2X,X3XW.%XW.4X] B.<.%X",
"6.5.OXK.r.9.1.L.e.N.W.%XW.n.9.W.9.H.%.+.o.W.<X&XE.H.K.J.J.J.G.H.%.%.H.K.S.d p p i a | 6.6.K.M.E.e.9.9.xX0.E.&X<X8XDXGXDX&Xr.7.3 ",
"6.6.0.E.1.%.%. .W.jXL.W.E.n.M.W.W.K.9.T.j.T.>X&XL.Q.#X^.J.R.J. .`  .D.S.S.' d p i `  .7.7.6.B.m.e.%.3.%.K.kXW.E.<XDXDXLX9XeX}.N.",
"*X*X*X+X+X+XK.*XSX7XT.G.| [ { 0.M.n.H.j.D.T.Q.~.1XSXSXhXQ.D.X.D.G.D.R.~.X.d d d D.+X1X*X*X+X>X%X|.+XK.+X6X7XD.{ e.Q.3X7XQ.3X8X3X",
"K.K.9.%.X.X.H.Q.r.`  .H.[ { 0.e.&XW.T.%.%.T.~.R.5X5X/.^.R./.R.S.J.R.U.a p a g X.T.Q.Q.<.OXK.K.%.|.X.H.9.W.] K.` { 0.W.:X6X*XGXAX",
" .%. .6.0.H.G.7.} 7 ] m n ,.:.} Q.1X1X!.T.~.!.W.ZX2X^.^.^.R.R.Y.R.S.s f Y.X.p X.T.Q.H.' D.%. .7.H.H.1.7.] n m n ,.{ P.Q.7XAXhXQ.",
"i i i }  .%.} ] 7 7 7 n #.W.n.9.K.&X4X6X:X:X!.&X5X5X5X^.Y.F.Y.F.d D.Y.j.p s d ' f a i i > i 7 |  . . .] 7 7 7 m ;XN.:.K.*X7X1XQ.",
"` ` C ] [ [ | H.n n n m m :.} 0.H.H.K.1X:X>X&X&XZXZX5X^.F.F.F./.Y.R.U.p d d ' ' a p a a ` ] ] :._ _  .0.n n m m [ | | <.*X3X7Xn.",
"] } :.6.:.|  .%.O.| ^ C _ _ _  .0.H.&X:X<X:X&X&XZXZX5X^.J.R.R.R.!.Y.f s f f f f f ' ' ` | } :.9.} | %.j. .| B _ [ ] ] <.+X*X1X1X",
"P.,.,.,.:.:.8.!.K.0.} ] ] _ ] 6.H.K.L.1X4X>X4XjX5X5X5X5X/./././.S.S.f s s S.' ' |  .K.1Xt.,.,.:.5.:.9.>XE.e.| C [ ] :.<.Q.4XL.7X",
"K.t.r.:.:.:.[ !.M.M.} :.{ { { } H.G.L.*X6XjXkXkXCXZXZX^.I././.R.S.f f s d ' ' ` ` >.K.4X1.1.,.:.:.} } Q.8.M.[ } { { :.:.L.4X*X8X",
"+Xr.r.e.:.K.t.r.8.hXb.3.8.:.:.O.9.K.K.*X<XDXDXDXFXCXZXY./.R.F.U.Y.D.D.S. .:.,.<.1.1.P.+XOXr.K.>.7.=XwXe.6.dXn.T.j.[ 6.<.K.4X1X7X",
"4X>Xe.6.,.,.OXhXW.e.M.4.b.0.0.6.K.OX%X*X7XDXHXDXFXDXZX^.F.S.F./.R.R.T.D.H.1.1.,.1.@X@X+X6X=X%XtXNXuXuXtXrX;X*X-X:XkXK.%X:X*X*X7X",
"[.:XT.K.<.,.+XGX>XW.;X;XB.%XN.e.%X*X&X:XrXHXHXDXFXFXDX5XF.Y.Y.F.F.F.H.7.K.r.P.1.[.@X-XtXwXBXwXN.=X}.}.}.3.OX<X-X9XyX&X*X>X*X*X6X",
"1.@X+XW.m m lX%X:Xe.M.B.dX>X>XOX-X-X-X-X9XDXHXDXFXFXDX8X^.J.D.D.Y.J.P.+X+X+X@X@XyXyXrX%XqX9Xn.#.q.4.e.%XiXLXiXLXLXiXtX;X%XM.bXrX",
"@Xt.@X%.VXVXbXW.E.1.r.:.w.%X%X<X-X7XrX3XrXDXDXDXFXFXFXJXkX7X^.D.D.J.L.*XyX3X@X1.-XrX-Xe.rX-XB.g n.W.*X%X>X9XtX<XiXuX9XeXw.n.qXzX",
"jXwX9XeX}.}.qX%X,X:X>X&Xr.jXjXfXcXvXcX6XvXDXHXDXFXFXFXSXSX5X5XhX!.>X*XL.tXbXwXwX-XcXBXNXW.B.j.B.O.}  .o.9.#.W.R.T.OX}.B.3.C OX=X",
"tX%Xw.3.5.q.E.}.:X9X>X:X&X-X<XvXvXjXjXjXvXDXHXDXFXFXDXCXSXkX6XhXlXhX6XrXrX9X-X-XqXwXwX=XB.n.B.n.8.^ 5 ..5.#.b.#...$.! O.c N 4.%X",
"<Xn.b.+.M.e.-XtXtXtXqX}.fXfX<XrXjXcXjXjXvXDXDXDXFXCXCXSX7X7XkXlX>X6XcXqXeX|.[.}.5.}.}.3.@.#.B.} e.w.4.[.[.=.7 O.+.w c *.~ Q 3.%X",
"n.h.h.h.%.%X;XqXqXbXeXr.fXBXnXnXcX<XfXcXyXDXvXvXSXCXCXCXSXkXnXlX*XqXqX|.r.w.W.qXqXeX|.q.^ b.>.~ 7 } 3. .|.~ v z 5 s.2.C [ 5.} ..",
"h.h.h.+.M L { n.B.n.q.@.b.0X0XqXxXnXnXvXDXkXkXkXCXSXSX^.2XGXmXjXnXnXbX,XB.0XbXbX}.B.q.m.B ^ Q *.v B 3 7 1 c =.Q K V.d.=.c a M.M.",
"h.2.! >.{ =.4.I 7 7 N v 2..X{.N.<XcXlXkXDXkX<XrXkXkX2X4XhXKXKXUXUXJXJXKXDXGXmXBX0XwXeXOXr.w.N.[.2.C ~ Y =.&.+.M ~ 4.o.^ o...>Xn.",
"~ v x.N N O.q.v 3 / v v o.|.{.b.;XzXvXDXDXvXvXvXlX5X/.^.kXKXIXPXVXBXBXbX,XM.#.{ 4.}.|.fXB bXr.K M.3.|.{.{.{.-.|.}.s.B.N.;X}.}.r.",
"! 4.q.N Y & = d.w i./ ; L b.B. X,X,X4XkXGXvXvXDXlXhX5X/.JXVXVXbXBXbXrXqX0XNXwX;XbX,Xw.$.4.m.! c < D =.|.eXeXLXBX0XA.h.b.=.B...~.",
"{.@.O @.-.XX) A 4 ! w L n. X;XA.A.4.Z.;X<XvXnXkXhXhXkXSXJXmXbXzXqXiXLXVXbXxXzX,XqX%X3.( M *.v C c q.|.0XwXuXBX|.Z.3.@.K b.A.b.@.",
"2.Q , - x ;.=.m.XXx.n.m.2.^ ) b.b.c. X;X%XcXLXlX4XhXlXJXGXzXxXnXW.bXVXBXeX%X%X%X=XN.4.4.x.3.b.C C t.=XuX=X! 2.N m.m.2.z I I I h.",
"s.< c Y oX{.aX0XZ.h.J ( h.m.m.b.m.Z.m.b.A.hXjXkX/.hXgXGXxXqX=Xh.4.B.,XwXwXbXbXbX.XB.5.I v B =.:.N q.c o.Q b XXm.v 2 Q 1 v P 3 ; ",
"=.v 6 z q.oX-.;.V.) q ( d.G (  XZ.m.=.2. X>XhX/.!.~.'.GXbX<XC...L ~ m.,XB.B.;X}.}.( M P *.>., %X%Xt.5 7 ; % d.v =.~ q.q.}.,X4.4 ",
"x 5 v v 2 A z a.q 4 w ; w 3 5 K I I I I C.>X6X>X~.~.hXJXGXlXhXgXfX0X.X}.3.@.#.@.K w A Q v [.z ^ ! * % : < 5 I 8.! q.b.,X4.6 ! h.",
"A ! 2.Q * % 5 R 4 4 5 4 O 5 w r r K P / P W.<X>Xj.~.'.hXnXlXdXA.;X,X.X|.:.I _ o.^ ^ ( / < ; N 5.` * , ; O *.4.8.z q.8.}.B.M.n.5.",
"A v A - O % t J x.) / / 2 5 - O O - w a.V.;X>X!.j.U.~.'.!.~.;XzXlXbX,X0.( @.@.^ o.$.o.L ^ 2.N c C.M < I * B h.C _ *.y ( ~ Y L 5.",
"5 6 @.< 2 O 1 Y H =.c.3 r J w O O ; G / b.~.'.gXn.j.T.C.h j.4.b.~.~.~.j.B.B.4.#.@.+.o.( #.n.[ n.g.Q ^ 7 w.7 L ..3 7 _ N n l., , ",
"1 i.f.e 1 = 2 A ; c D P x - - - w J =.Z.Z.A.C.C.k.j.g.g.g g + > u g I P A.;X;Xm.( Q ! o.3.5.~.n.j.y n.*XQ.j.C.} h.8 V.1 y ! 3 3 ",
"i.y.y.p.a.s.G ; - 0 3 w & A w G i.a.v.Z.A.Z.b.C.k.k.h.+.y L - 8 8 8 r b.A.d.A ( r ( b.}.B.h.b.h.>X8.n.<X%.a 9 '.~.<XB.I ! 3.w e ",
"i.e Z.v.e d.A w 5 G - 5 - - - O D W 3 y h.m.;X;Xu.J h.+.h.3 - 8 8 - t / m.J q e r r s.,Xt }.R y.b.B.r Z h d.u.J r l G t y.r i.) ",
"R 4 H 2 Z 2 q y.e v.F T S T F F x q d.d.L L B = ; - e O O v / d.k.o o + O = 8 q O O - c s.c , O q - = + 0 - 2 - a. X=.t - = - O ",
"4 T 8 S q H S x Z F F E z.T Y J F F K d.2 & z - % O O O - 2 J J d.e F p.z.p.y.e x 2 - % 2 % = 2 $.k.( F P s.A.nXjXV.V.z.x.b.6XnX",
"8 2 E z.E E H S T T H U S U S F F u.V.f.q G 0 = G u.F F y.y.v.z.v.z.p.H y.Z x x e e x e S F J H d.f.Z.-.v.Z.x.a.=.x.;.x.f.x.;.x.",
"H z.y.E T E z.{.R S T E W R W p.Y x.V.J H G S i.H R F F e y.H H p.y.H S F Z F Z e e q F 8 R G p.f.a.p.S v R J 2 - y.x.b.x.v.a.v.",
"E T U H F H E E E T v.c.c.v.z.W H Y Z F J J J Z J R r t 8 - 2 - 0 F 6 b Y Y F F e e 4 S 2 s.V.Z. XZ.k.A Z - G - - q x.A.l.x.=.) ",
"E T E T S T T U H E E ;.p.J D V ) H y.y.R S D r J F c.d.q O O h.% 1 b b {.z r J x q H S S W v.xXmXmXb.k 2 % 0 R & 2 & - w x.z.x.",
"E T S E H E H e 8 2 4 2 4 Y V XXc r F y.Y ) W i.P y.Z.b.4 O % & k.* , 1 3 r = y 0 F R Y A q i.J A.Z.c.=.C.8 O - O O o t k.V.=.{.",
"H U U V W U x.a.8 O ; 3 & z & , A `.`.V.a.a.W a.u.%.g.; % 7 B.M.( k ; < - ! _.d.x._.k.p.z.q e q y.a.~ z.s.R G o O 2 2 - y.A.v.Z.",
"T T U z.H S z.x.- 2 D Y ; & ; o ; * A b x.pXx.g.%.o * % O ; M b.k.'.gX+ y _.l.: o c D v.XXx.A y s.u.h.h..XqX Xd.A Y = F p.p.W gX",
"H p.y.p.R - t O & 5 ) x._.f.@ % 2 5 / 4..XpX=.d.+ g ; u % % % 9 k j + o % & O V D ^ {.{.pXE ~ C.5.b.b.B.b.B.m.r ( 2 N 3 R {.-.XX",
"f.p.p.G D . t O O & 8 j k = x G v.f.k 7 ^  XA.MXh C.+.C.n.; O & + # + % 5 P s.h.k.I N b.V.;.~ >.{ <.e.b v u.,XB.=.C V C ~ -.a.m.",
"z.T 8 9 + t e p.0 = % + _.f.  k MXgXM ..5 ) x.r l l l ).(.# O o   l.l.u o h ~.MXUXgXn.u y x.R 2 , 4 v m N b &.;.W.C x.<XqXb.r f.",
"y.y.t 9 r r f.(.j @ + . o o @ l u + O 7 1 C d.# # k l h X $ $ #   . X : y l l g.y ..7 > O i.f.Z i.J & - =  .>.}.v.{.t.N.[.W Y.z.",
"k e $ j j k k $ . X X X . k j j . X O % * Y a.o o @ . ; @ + + $     $ (.j l j # # o : * 1 Y y.l.x./ - - 2 x m m &.*.V N 5 N q ~ ",
"k     . + X @ 9 9 j u j k (.(.# @ & : A A p.;.@ @ y f.g.l.l l.h l h Y.(.(.h # # X . o % : 6 d.].x.F R ~ & 4 F J Z V V , b 4 2 4 ",
"9 j $ 9 k k k k f.`._.`.`.`.u.k 9 u.u.m.Z.m.=.O . G l.).C.'.MX'.].].].].).l # # O O O 2 - S =.x.d.f./ ( b 4 Y S J J ;.b b U < J ",
"9 @ . = y.p.f.XXaXsXaXsXpXaX.XoXa.f.{.,XqX,X}.0Xx.d.x.m.cXbXPXBXcXcX'.gX'.'.n.y c h.d.A. XZ.z.W S R i.a.* G m..X0XoXc.) J c.x.f."
};
