/* XPM */
static char *result[] = {
/* columns rows colors chars-per-pixel */
"64 64 253 2 ",
"   c #080000",
".  c #000800",
"X  c #080800",
"o  c #040808",
"O  c #100800",
"+  c #180800",
"@  c #100808",
"#  c #180808",
"$  c #150000",
"%  c #081000",
"&  c #081008",
"*  c #081808",
"=  c #001008",
"-  c #101000",
";  c #181000",
":  c #101008",
">  c #181008",
",  c #101808",
"<  c #181808",
"1  c #101810",
"2  c #181810",
"3  c #081810",
"4  c #210800",
"5  c #290800",
"6  c #210808",
"7  c #290808",
"8  c #250000",
"9  c #390000",
"0  c #310800",
"q  c #390800",
"w  c #310808",
"e  c #350404",
"r  c #211000",
"t  c #291000",
"y  c #211008",
"u  c #291008",
"i  c #211808",
"p  c #291808",
"a  c #311008",
"s  c #391008",
"d  c #311808",
"f  c #391808",
"g  c #311000",
"h  c #211810",
"j  c #291810",
"k  c #311810",
"l  c #391810",
"z  c #391010",
"x  c #102108",
"c  c #182108",
"v  c #182908",
"b  c #102110",
"n  c #182110",
"m  c #102910",
"M  c #182910",
"N  c #182918",
"B  c #102918",
"V  c #053618",
"C  c #183110",
"Z  c #103118",
"A  c #183118",
"S  c #103918",
"D  c #183918",
"F  c #123310",
"G  c #0B290D",
"H  c #212108",
"J  c #292108",
"K  c #212908",
"L  c #312108",
"P  c #392108",
"I  c #392908",
"U  c #212110",
"Y  c #292110",
"T  c #212910",
"R  c #292910",
"E  c #212918",
"W  c #292918",
"Q  c #252118",
"!  c #312110",
"~  c #392110",
"^  c #312910",
"/  c #392910",
"(  c #312918",
")  c #392918",
"_  c #213110",
"`  c #293110",
"'  c #213118",
"]  c #293118",
"[  c #213918",
"{  c #293918",
"}  c #213910",
"|  c #313110",
" . c #393110",
".. c #313118",
"X. c #393118",
"o. c #313918",
"O. c #393918",
"+. c #343910",
"@. c #183921",
"#. c #163323",
"$. c #182921",
"%. c #213921",
"&. c #293921",
"*. c #243323",
"=. c #313921",
"-. c #393924",
";. c #342C26",
":. c #4A0000",
">. c #420800",
",. c #4A0800",
"<. c #420808",
"1. c #460404",
"2. c #520800",
"3. c #5A0800",
"4. c #560404",
"5. c #4A1000",
"6. c #421008",
"7. c #4A1008",
"8. c #421808",
"9. c #4A1808",
"0. c #421000",
"q. c #521000",
"w. c #521008",
"e. c #5A1008",
"r. c #521808",
"t. c #5A1808",
"y. c #5A1000",
"u. c #421810",
"i. c #4A1813",
"p. c #5A1810",
"a. c #521813",
"s. c #630800",
"d. c #680503",
"f. c #780505",
"g. c #631008",
"h. c #681306",
"j. c #751008",
"k. c #691810",
"l. c #771810",
"z. c #422108",
"x. c #4A2108",
"c. c #4A2908",
"v. c #522108",
"b. c #562508",
"n. c #422110",
"m. c #4A2110",
"M. c #422910",
"N. c #4A2910",
"B. c #472818",
"V. c #522110",
"C. c #522910",
"Z. c #572613",
"A. c #423110",
"S. c #4A3110",
"D. c #423118",
"F. c #4A3118",
"G. c #423918",
"H. c #4A3918",
"J. c #423910",
"K. c #523315",
"L. c #632D12",
"P. c #552825",
"I. c #453725",
"U. c #4F2D2B",
"Y. c #662626",
"T. c #683131",
"R. c #682931",
"E. c #054318",
"W. c #104218",
"Q. c #184218",
"!. c #164917",
"~. c #185218",
"^. c #214218",
"/. c #294218",
"(. c #214A18",
"). c #294A18",
"_. c #254610",
"`. c #314218",
"'. c #394218",
"]. c #354A18",
"[. c #255218",
"{. c #084A21",
"}. c #024721",
"|. c #104221",
" X c #104A21",
".X c #184A21",
"XX c #184223",
"oX c #085221",
"OX c #025725",
"+X c #105221",
"@X c #185221",
"#X c #185A21",
"$X c #105A29",
"%X c #185A29",
"&X c #145427",
"*X c #165831",
"=X c #105231",
"-X c #214221",
";X c #294221",
":X c #214A21",
">X c #294A21",
",X c #274629",
"<X c #314221",
"1X c #394221",
"2X c #314A21",
"3X c #394A21",
"4X c #334829",
"5X c #215221",
"6X c #295221",
"7X c #255827",
"8X c #315221",
"9X c #345726",
"0X c #244A33",
"qX c #364834",
"wX c #275535",
"eX c #315635",
"rX c #076529",
"tX c #186329",
"yX c #136629",
"uX c #156636",
"iX c #077432",
"pX c #127736",
"aX c #066D31",
"sX c #216329",
"dX c #256728",
"fX c #236733",
"gX c #237735",
"hX c #424218",
"jX c #4A4718",
"kX c #434621",
"lX c #455227",
"zX c #454533",
"xX c #4B4F35",
"cX c #674621",
"vX c #2E5445",
"bX c #296B4E",
"nX c #397767",
"mX c #147346",
"MX c #525653",
"NX c #4D5149",
"BX c #466356",
"VX c #52635A",
"CX c #457066",
"ZX c #860E0A",
"AX c #158739",
"SX c #148A42",
"DX c #108F48",
"FX c #378A77",
"GX c #448677",
"HX c #39A99C",
"JX c #39A9A5",
"KX c #448C84",
"LX c #4A948C",
/* pixels */
"< X . % * * W.Q.- c X O 4 p > , < n < < , c n , , b , : < O y + 4 r i i n M b , , n c 3 S b 1 , , & b : < : : 4X, 4Xa p n.O 5   ",
": X X X G o #XM _ X   + r ; > , , , n c , , , n x x & : : O ; t 4 r r i H M b b , M n & b 3 1 & & , 1 1 : > : R ] 3X~ O u u 5 4 ",
": : % & & F #XM } X + + r   T < < n < c n c c , , , < > : > r t 4 t y p H T M b b M n , , b A , 1 1 n %.n U > Y '.1Xf O O 8.4 4 ",
": & : & % F #X* } ; - O + n _ ' n < n n n c , , , < < < H p O r 4 t y J H T < n b n n n S N b n M 1 * 0Xn h h ^ lXlXp a O + w 4 ",
"% : x * , x dXX < R ; y 5 n T T n M M M n n , , n < < > : y + r 5 u y p i U c , n M x U Q.N 1 A @.& 1 -X] # > i lXxXu i.s + s 4 ",
"% , & * !.v 5X< - ` t P U T T T T T M n A A , , n < i > > O O O 4 p ; J i i < , M b n , 1 b , A %XN , ' U i j ! 3XkXu a a X 9.4 ",
"M & , , x F 5Xc - i t P U T ' T ' n n _ M M M , n H i > p ; ; + 4 u d J i i < n M n n b 1 Z b b A %.& ' U y y p 3XlXf 4 u s 9.4 ",
", . , * S ~.^.< > X ^ f U U [ T ' T T ' M M D M n , H : > p u r t r y p J < < c n n n n M , & , D n & n < > > p X.xXB.O s s # 6.",
"X & , x yX~.M T i X ^ L R T T _ T T ' _ ' M T M n , H : y L a r g t f i J i U n A M M n T * = M A n n ] h @ > y ! D.~ + a 4 6.6.",
"C & , , dXdXM H X i + ] ] { T [ M _ ' ' T n M n , , < > p P f g r 8.d L ^ Y R ' n [ M n _ T & * n N n 2 i > > @ W G.u + X O Z.# ",
"M X x * dXtX_ i . p y ..R { T ' _ M ' T M b M U c , < < i P f f a z.d / ^ Y H { M ' M M ' T * & n n ' 2 i > y y i Y l a X X f f ",
"& , , #XdXC H - > ^ 5 R R &.] ' ' n ' b b n n n n , , i p M.p 8.x.a P / ! ^ R ` T [ M ' [ [ o & b E 2 =.] > @ > O X k X a u.d @ ",
", c , M ^.: < > O +   ^ | Y { { ' n M n n b n n U < i i d M.u x.t f P ~ L o.o.R T ^.[ T -X[ & o , ' T < ] -.( Y Y O : # k d 8.n.",
"c M . , M - O - O ; p ^ ^ ] ] /.{ T ' T M b n U U H < L P d d N.c.a z.~ / O.^ { ` _ -X-X_ -Xn 3 & U U 2 < ( j @ > @ d # ) # 8.a ",
", M , & < < > - + X / ! ^ ..] { T -X[ M M M M n U < i ! L 8.u C.f 8.f z./ O.o.| ] M ' -X[ [ ' & o , 2 < h R Y h @ =.O.6 / . u.s ",
", c Q.& % % O X + + ~ ^ Y R ] { T /.' ' ' ' T U U < i M.I z.f C.z.f f d /  .^ | `.T ' [ ' M ' b & , n , : U Y h > @ ..( ! O f f ",
", x . C X X . O O 4 ~ X.^ < ^ R ] ;X;X[ M ' ] ` U J i L p z.z.v.8.f f L A.G.^ ..<X` { -X/.M E n o , N , n n > : h X ! ! @ O u a ",
"M F & X % K > ;     ~ / Y ^ ^ ] T ;X' ;X;XT ` R R J ! ~ d N.x.8.8.d 8.z.A.! ! O.o.] ' { [ [ ' ' n , n 2 2 , n : : : Y U > u > f ",
"M x W.. . X > y p y ~ / ^ ! Y R ..] >X>X>X;X] ..^ ^ / L P z.7 r r.f z.P P J Y O...R T [ [ [ T T R : n , 2 < Y h U : h U @ y X f ",
"* x C x . . X + I 8.f / ! ! R R R ] { >X>X;X2X..Y X.p L ~ S.A.S.! ~ ! ~ L / kXO...R ` ' [ /.{ T R : n ;X> : : : Y h i ..i X X d ",
"C #X: dX. O X O a f f d ! ! ^ ..` T { 6X6X<X`.o.^ / Y A.Y / / / H / ! ! ! / F.kX^ T T { /./.{ R R Y > U h : h Q i < . Y ^ y X y ",
"Q.M c : T . O y r f d i ! ^ ^ | T T { wX7X2XG.A.A./ Y ^ ^ U ^ ^ ^ G./ Y ^ D.A.kXhX! Y ` ' { /.R R R > &.Q ] > ( ( p y h @ p d # ",
"!.!.c H U R X y s f p ~ d ^  .R R T _ / O.hXG.hXhX^ ^ Y  .| R ^ | R  .R ^  . .G.lX/ / A. .A.' R R Y Y W > y > y j i # y h # u u ",
"~.C , < H H > X a 8.f / d ! ^ R R | ^ ^ 3X3XO.kX .R | R R |  .| | ..| | ^  .'.kXhXkXhXG.X.hXO...U U ^ ! k y X # p > k p j X.X 7 ",
"/._ M i J p p d s a 8.p ~ ! ^  .| | R R O.9XO.'.O.T O.o.` ..` ..` o.'.` R O...| 3X'.O.'.O.O.'.O.^ Y / ~ p y y u y i ) ! > d 7 7 ",
"[ (.[.< i < > L s a f p M.~ / | | ..` R o.9X`.3X3X{ 1X`.o.o.M ] ` o._ { T `.3X'.3Xo.'.3Xo.'.o.3X3XH M.p f u y y u u ~ k n.k n.l ",
"} ~./.].> i # + a m.8.P P ~ / ^ | o._ `.{ 2X8X/.2X/.{ 2Xo.2X_ ] ' o.[ { _ 2Xo.`.>Xo./.].`.2X`.'. ./ M.P m.a y y 6 # k u n.l F.u.",
"(._.` +.i ^ p a 9.m.8.m.n.!  .O.U ` ` /.).6X8X6X`.;X/.;X6XM { { [ `.{ 8X6X/./.;X9X8X9X9X2X2Xo.O.O. ./ p z.p # a a a u u l f m.V.",
"dX).J +.'. .; s r.r.m.C.z.A./ R o.` { /.^.dX^.7X7X]./.[ 6X7X>X[ [ >X/./.fX>X;X7X>X7X/.6X/./.o... ./ ~ p d > z.l n.6 + 6 7 O 6 C.",
"6X).^ ^ O.p p u r.r.C.C.S. . .| 3XR { ).5XsX5XD 7X:XQ.D gX:X[ ^.D 7XD fX).7X^.:X7X6X6X/.6X/.o.R | ^ ~ p p u 8.s a 6 7 7 +   7 # ",
"^.` +.p +.L n.9.r.v.C.N.H.A.X.^ 3X{ { 7X:X5X.XD gX:XsXD gX6XD Q.D 5X!.sX/.fX5X5XsXsX5X^.6X/.] | ^ Y ~ p p p 8.7 a 7 7 a 7 6 $ 6.",
").{ ` { O.7 u r.s b.x.z.H.A.O.| O.2X8X/.7XS W..XtXtX#X&X.XXX%X.XS .X.XgX5XAX5XfXsX7X5X[ ' ' T T R ^ / i p 6 r.L.8.s 7 s 6.4 5 O ",
"6X9X`.].~ i d r.r.9.v.z.H.hXG.+.` o.8X>XwX XW.!.@X+XW.%X#XgX~.#XS .X#XAXtXAXtX.XtX@X7X^.>X_ _ U R ! ! d p f 8.a r.w + p.<.w w 7.",
"{ 8XY R n.J.r.r.7.6.8.P N.J./ 3XR o.`.^.^.Q.Q.W.W.+X$XoX&XpX$XuX[  XDXDXAXAXtXtXtX%XQ.:X-X{ `.R | Y ! i d V.9.r.7.4 7.p.<.<.r.7.",
"< { 3X].X.G.g.>.7.8.9.Z.S.M.G.3X| `.8X).A D .X@X+XAXyX$X|.oX XfX..#XpXDXiXSX.XpXtX@XD wX>X;X{ O. .! ! d d Z.v.r.h.w.k.q w.s <.w ",
": `.O.H jXf 0 w.6.9.9.m.d ~ G.'...` `./.D D !.@X XoXpXoX{.E.yXqX..$XpXpXpXSXpXE.+X&XQ.5X>X>X`.R O./ ! d P x.8.r.r.k.7.7 k.<.<.q ",
"c `.^ lXjX~ 5 e.s r.8.f ~  .D.O.^ ` /./.^.D W.@X XiXrX{.oXV {.=.=..XrXiXrXDXOX$X.X%XQ.5X>X8X6X+.| G./ P N.f f r.6.>.7.5 k.4.h.4.",
"` `.i L G.H.2.7.s s f f n.G.G.R R T T ).:XQ.W.W. XrXrXpXE.E.}.=.&.W rXiXiXAXaX$X X.XD (.6X8X2X'.O.^ ! H.p d 9.s g 0 L.0 e.k.w w.",
"`.R i G.M.9.,.7.w.a d z.n.A.kX| R o.`./.^.:X.X.X XrXoXOXE.OX=.&.E E +XiXrXiX$X X@X@X:X(.>X9X8X3X'.D.~ M.N.f 8.6.6.>.h.a.q e.d.e ",
"o.o.f G.L ,.2.5.7.u a P N.G./ '.o.o.] >X:X:XQ.W. XoXoXaXOX{.N E ,XE E aXOXoX+X+X{.%XD A ).9X2X3X3XG.! ~ d 8.w 6.6.q.,.C.,.l.j.9 ",
"R 9Xy f X 3.y.5.6.u d n.H.~ /  .O.`.;X/.5X!.S V V oXoXV V N ,XN *.&.W }.E.E.yX+X+X.XD D 6X6X8X3X1X ./ ~ z.f r.r.7.w.2.i.,.l.ZXl.",
". X > u n.,.>.q 6.a u m.S.A.G.O.o.2X{ ).:XdXtXV yX{.oX}.}.@.N #.A ;X4XOXOXiXOXoX@X.XQ.D 6X>X2X'.O.^ A.d C.x.x.7.7.q.3.Z.q 3.j.3.",
", : X X r.2.q e.6.9.a N.S.M.D.| O.`.o.>X:X5X@X@X+X|.oXoX{.|.$.B Z 4X&.OX$XOX{.+X XQ.S /.>X/.8X3X'.Y ! P K.m.8.a 7.5.3.,.7 8 j.d.",
"i J f d 3.,.q 5.6.9.a M.F./ O.'.'.8X{ >X^.5X@X%X{.V oXV oX|.0X#.#.4X*.{.{.E.yX XS  XQ.Q./.).9X`.O.hX/ ~ N.m.8.s 7.>.s.3.m.# f.ZX",
"i X y d 3.,.>.5.7.v.f f H.hXD.1X..`.{ /.(.:X@X@X|.S E.B {.&X,X@.0XeX&.&X|.|. X$X XS ^.^.^.>X6X'...G.^ n.F.8.Z.9.w.5.h.4.V.e.3.ZX",
"& i d l :.3.>.q.6.9.n.n.F.A.hX'.O.o./.>X^.^.@XW.W.Z S V |.uX@.@.XXwX>X.X@X@X%X&XtXW.:X^.dX).].| 1XhXG.~ N.8.c.r.w.,.j.s.cX8.2.ZX",
": p G.u 2.3.,.5.7.9.K.M.A.A.hX1X..] 2X/.D D Z D D m B B %.fXZ @.*XwXQ.%.fX:XXX^.dX%X-X[ >XT 9X'.| kX/ ~ N.C.9.a e.>.g.,.K.L.9 ,.",
"< Y  .@ 2.3.>.q.r.7.C.S.M.A.G.O.O.` { /.F D D A [ m m B %.fXA &XbXwX:X-XfXwXD wX7X7X5X^.6X/._ `.O.kXH.D.N.C.9.u e.,.4.,.cX6.>.4.",
"X i X X 3.j.>.5.b.8.C.H.N.D.G. .9XO.W C A ' A ' ' E M ' { ' ' bXmX[ ,X{ eX{ <X2X' /.9X>X>X8XM o.| kXkXH.K.b.Z.s t.q s.3.N.5 ,.d.",
"& : i O 3.h.2.2.9.6.Z.K.~ D.A.O.'.`./.{ `.] ] E E n T { E =.n 4X,X' 4Xo.].<Xo.<XW ] =.] _ o.{ R U G.| M.K.V.Z.r.t.q s.d.n.5 h.f.",
". U : X 3.s.q.q.r.9.r.K.M.G./ X.| `.<Xo.o.X.....R U U O.......=.E W ] ..1X{ 1X3XX.X.1XO.` ] ` | +./ G.~ K.v.x.r.r.5.s.j.N.0 j.d.",
"> : < X 6.3.,.q 6.9.V.K.N.! / X...O.O.X.X.^ X.X.U U U ( W ..R ^ Y ^ ^ R U X.-.'.X.) X.X.O.^ R O.R ^ M.M.S.9.f w.w.e.s.h.L.w d.3.",
": . < y > s.,.0.6.Z.Z.K.F.D./ G./ D.G.G.G...) D.^ ! ~ Y Y ( Y ) h X.Y Y ^ I.D.I./ ^ / / M.! ^ / / / jXM.N.8.a r.7.q.s.3.x.q j.j.",
"X : > p y 3.>.5.6.Z.C.K.N.M.M.A.M.~ F.F.F.F.D.B.! D.i j ~ ! j ! Y Y ! ! ~ D.I.G.! j ~ n.M.M.k ~ M./ Y ! F.f a s t.,.3.q 8.7 ,.f.",
"O O O X X p >.q 7.9.x.N.N.n.n.m.n.n.m.F.F.B.F.N.l ~ D.j j k k ! ~ i f k n.~ I.F.k ~ N.~ N.n.n.x.n.~ M.n.f u 9.6.t.>.,.p m.0 2.f.",
"y : O X + y >.e.6.9.8.N.x.8.m.V.n.l u.C.Z.m.B.u.d u.p l d d l d d y f f m.n.n.N.N.N.u.m.m.m.m.i.f f m.V.n.x.x.u 7.>.3.7 9.q :.:.",
"i Y J O X p q w.s 9.s f 8.9.r.8.9.8.8.m.C.C.V.8.8.s 8.s 8.f f f n.y f f C.8.9.C.V.i.V.V.V.V.9.a 8.r.s r.u y 8.s a q.u P 0 5 :.3.",
"i + + ! J ! P w.6.9.r.9.6.r.r.r.7.7.7.a.Z.V.p.r.9.a r.8.9.6.a u 9.u 8.s V.r.r.a.w.a.r.r.r.p.Z.u s r.6.7.s 9.u 6 4 q t M.6.>.3.s.",
"y +  .4 O y A.e.s <.e.w.w.w.7.6.e.w.e.w.t.p.t.7.6.6.t.a r.s s <.6.7.7.9.t.7.t.t.e.p.e.w.t.e.t.r.a w.<.s 7.w.s 7 s >.O F.<.q s.9 ",
"p u O.t y f 0 8.0 7.e.7.g.e.e.e.e.e.e.e.h.g.e.w.w.<.w.w.w.<.e s 7.7.t.t.t.e.w.h.e.k.e.d.g.e.g.h.e.7.0 w.7 <.<.7.q $ + y 0 q d.1.",
"i y / ! P 4 4 6.2.>.1.1.:.e 5 d w l a n.i.z P.Z.i.Z.P.a.R.Y.Y.Y.R.T.R.R.T.T.R.R.R.P.R.P.P.R.P.P.P.m.B.U.a.U.R.P.U.B.4   4 8 s.d.",
"J + !  .O t 5 q >.9 9 9 7 U U &.4XE qX=.-.qXqXI.;.I.I.U.zXI.U.F.U.T.xXU.I.;.NXMXMXMXMXMXNXVXVXVXVXNXNXVXMXMXMXNXNXU.NXNX$ $ 3.d.",
"+ u + ~ f s 9 8 1.e p %.*X#.XXfXuX-XbXqX,XvXbXeX4XvXeX*.' 4XqXqXqXxXxXqXNXvXNXvXqXvXvXMXvXCXCXCXLXFXnXKXnXFXKXvXvXCXKXCXW $ 8 2.",
"+ + + f 8.0 8 8 i v V =XaXmXuXuX*XuX$X*XuXDXbX%XbX*XwXvX0XwXeXwXwXvXvXvX0X#.vXvXvXvXnXnXnXnXFXHXJXJXJXFXbXKXKXbXnXnXKXCXBX$ 9 :."
};
