/* XPM */
static char *result[] = {
/* columns rows colors chars-per-pixel */
"64 64 256 2 ",
"   c #080000",
".  c #080800",
"X  c #040605",
"o  c #100000",
"O  c #180000",
"+  c #100800",
"@  c #180800",
"#  c #140808",
"$  c #081204",
"%  c #101000",
"&  c #101008",
"*  c #181008",
"=  c #101808",
"-  c #181808",
";  c #181000",
":  c #161810",
">  c #081810",
",  c #210000",
"<  c #290000",
"1  c #210800",
"2  c #290800",
"3  c #210808",
"4  c #290808",
"5  c #310000",
"6  c #390000",
"7  c #310800",
"8  c #390800",
"9  c #310808",
"0  c #390808",
"q  c #211008",
"w  c #291008",
"e  c #211808",
"r  c #291808",
"t  c #251000",
"y  c #311008",
"u  c #391008",
"i  c #311808",
"p  c #391808",
"a  c #341000",
"s  c #251511",
"d  c #391810",
"f  c #351413",
"g  c #182108",
"h  c #152411",
"j  c #173218",
"k  c #292108",
"l  c #222308",
"z  c #362208",
"x  c #242711",
"c  c #362513",
"v  c #273413",
"b  c #363512",
"n  c #332C21",
"m  c #183921",
"M  c #420000",
"N  c #4A0000",
"B  c #420800",
"V  c #4A0800",
"C  c #420808",
"Z  c #4A0808",
"A  c #520000",
"S  c #5A0000",
"D  c #520808",
"F  c #5A0808",
"G  c #560800",
"H  c #421008",
"J  c #4A1008",
"K  c #421808",
"L  c #4A1808",
"P  c #461000",
"I  c #521008",
"U  c #5A1008",
"Y  c #521808",
"T  c #4A1010",
"R  c #4A1810",
"E  c #431612",
"W  c #521010",
"Q  c #5A1010",
"!  c #5A1810",
"~  c #551815",
"^  c #630000",
"/  c #630808",
"(  c #6B0808",
")  c #680500",
"_  c #730000",
"`  c #730808",
"'  c #7B0808",
"]  c #790200",
"[  c #631008",
"{  c #6B1008",
"}  c #641707",
"|  c #731008",
" . c #7B1008",
".. c #731808",
"X. c #631010",
"o. c #6B1010",
"O. c #631810",
"+. c #6B1818",
"@. c #671814",
"#. c #731010",
"$. c #7B1010",
"%. c #771813",
"&. c #462413",
"*. c #5A2118",
"=. c #542413",
"-. c #453213",
";. c #573215",
":. c #4E2308",
">. c #632118",
",. c #6B2118",
"<. c #672513",
"1. c #772416",
"2. c #6D2B11",
"3. c #462722",
"4. c #572821",
"5. c #543426",
"6. c #50362C",
"7. c #6B2921",
"8. c #652621",
"9. c #7B2921",
"0. c #772421",
"q. c #663225",
"w. c #783425",
"e. c #703931",
"r. c #521821",
"t. c #334418",
"y. c #184221",
"u. c #2F4C24",
"i. c #216B31",
"p. c #424518",
"a. c #554831",
"s. c #684432",
"d. c #7A4631",
"f. c #685433",
"g. c #795636",
"h. c #724629",
"j. c #756539",
"k. c #634218",
"l. c #6D5644",
"z. c #6E6948",
"x. c #5A5642",
"c. c #840808",
"v. c #8C0808",
"b. c #890600",
"n. c #9A0807",
"m. c #841008",
"M. c #8C1108",
"N. c #961008",
"B. c #841010",
"V. c #8C1010",
"C. c #8C1810",
"Z. c #871815",
"A. c #941010",
"S. c #9C1010",
"D. c #941810",
"F. c #991815",
"G. c #840810",
"H. c #A91513",
"J. c #B91614",
"K. c #B20B07",
"L. c #892216",
"P. c #982317",
"I. c #843114",
"U. c #A52118",
"Y. c #A92518",
"T. c #B52118",
"R. c #B92618",
"E. c #842921",
"W. c #892824",
"Q. c #972721",
"!. c #883426",
"~. c #973426",
"^. c #8F3931",
"/. c #A92622",
"(. c #BB2721",
"). c #A93425",
"_. c #B93526",
"`. c #B03731",
"'. c #8C1821",
"]. c #CA1512",
"[. c #CD0D0A",
"{. c #C92317",
"}. c #DB2218",
"|. c #CA2722",
" X c #D92722",
".X c #CA3525",
"XX c #DA3425",
"oX c #D03931",
"OX c #EB3225",
"+X c #F83427",
"@X c #EB2F2B",
"#X c #ED1818",
"$X c #884329",
"%X c #964529",
"&X c #894731",
"*X c #984832",
"=X c #885635",
"-X c #995333",
";X c #AB4329",
":X c #AA4634",
">X c #B84533",
",X c #A85535",
"<X c #BA5435",
"1X c #B94229",
"2X c #8F6539",
"3X c #B26739",
"4X c #CC4429",
"5X c #CA4734",
"6X c #D94733",
"7X c #CA5637",
"8X c #DA5636",
"9X c #D84629",
"0X c #EA4733",
"qX c #F84831",
"wX c #E95838",
"eX c #FC5638",
"rX c #F34229",
"tX c #D06339",
"yX c #F36639",
"uX c #AF5042",
"iX c #887446",
"pX c #946E46",
"aX c #B17047",
"sX c #D25542",
"dX c #F05847",
"fX c #C86742",
"gX c #DA6846",
"hX c #DC7348",
"jX c #CF7A4E",
"kX c #EA6644",
"lX c #FB6845",
"zX c #F3744E",
"xX c #7B8C4A",
"cX c #928E54",
"vX c #B39156",
"bX c #94B066",
"nX c #A9A663",
"mX c #DD8858",
"MX c #CE9154",
"NX c #FC8957",
"BX c #F28E57",
"VX c #D98E63",
"CX c #F99A65",
"ZX c #F39468",
"AX c #CEB06E",
"SX c #FDA86B",
"DX c #FEA975",
"FX c #EABC7A",
"GX c #FFB877",
"HX c #E8AF6C",
"JX c #D2A55A",
"KX c #A3CA77",
"LX c #DCC77A",
"PX c #ADD284",
"IX c #D4D488",
"UX c #FBC684",
/* pixels */
"N ^ _ _ < M } 1 r z u 6 D H -.C.) @ x + y K <.,.1.!.&.=XxXg.JXmX;XJXvX3XbXxX;.d.*.1.*.3.s / ) 5 4 y.j > j m j : - q c f 9 u R R ",
"N A ] ] 6 V V O w z 4 6 C H :.L.w.r - . y C q.w.!.+.5.2Xa.2Xg.HXGXtXvXcXf.j.=.,.,.0.8.n 6.M _ O 5 - j X y.h m # s * c 3 y y <.7.",
"5 N 5 6 < ..B 7 w 2 B M C =.c.` I 3 # # q K ,.w.9.+.;.iX2Xf.aXtX7XvX=X3Xg.a.q.e.w.w.4.3.n , ] 8 , , > h h y.h : x n c r 4 ~ @ L ",
"A _ M M , U < 1 t K { O Y U D.9.5.q . e 4 E ,.!.e.=Xj.iXKXnXvXjX3Xh.,XvX=Xs.h.w.=Xe.e.n f O v.^ o O & > j j - - x b &.d 4 T 4 2 ",
"M _ N ) G 8 1 @ e H o.< =.n.' 1.w # & v c R 1.7.&X$X2Xz.bXKXAX-XCXMXAX3X2X=X2X*.g.g.8.&.3.9 S ^ @ o } h X h h * s q 6.w &.<.@ H ",
"A ] N ) B P O p i 2 M < R S.P.1.c X * j c 5.L.2.=X2.5.g.z.2XJXHXDXHXhXaX3X2XiX7.d.=X8.c f n A _ @ u 1 s > h h x n q r &.0 H ~ Q ",
"^ A A G , 2   t c @ 6 , | m.M...# & * h 3.5.w.*.&X=X;.g.j.cXj.HXSXhXwXjXpXpXh.!.e.=Xq.8.n 6.M ] a @ C { > h j x u.x f y H =.0 4 ",
"S ^ S M I O a t z 7 N B ) ` m.U # : u.n c w.,.h.=X-Xf.iXcXnXaX7X<XeXaX-X-XaXh.7.q.s.d.5.f 3./ ^ 2 w u O.- h j - b c &.w d L C U ",
"N A N O 8 7 t @ c < V Z ) / m.1.r x - x &.7.w.*.2X%X5.cXcXg.<XHXzXNX$X<X-X2X<.*.q.;.g.4.s f Z c.8 @ 2 I 5 i.h x x -.&.d R u +.I ",
") S A G 2 2 K q y 8 ' V ' ( / U : : j u.e.0.w.q.-X&X2XpXKXKXAXHXaXNX0XjX-X,X-X7.=.8.d.q.a.x M v.G i -.0 6 6 : X # f d &.E 0 2.@.",
"b.6 < ) 8 1 w q 1 < G G M.( D R c v h x 8.e.d.>.-X%XiXg.j.xXKXSX%XBXCX;X7X,X-X>.*.4.*.4.z.6.S `  .1 r 0 O 5 Z - X q w &.H w Z U ",
"N M ) 7 2 1 @ l @ 8 F ( `  .@.y : : h c ~ ^.w.7.^.,.=XiXiXbXj.HXSXBXyXwX7XaXaX>.*.&.d.q.x.6.8.A./ 1 @ &.Z 8 F Z X X f 4 Y u 0 9 ",
"A N ) 2 =.t t - @ { c. .P.%.C 3 v j : r.4.^.*.q.~.1.2Xf.z.g.vX-XNX).!.kXfX~.$X0.>.8.>.4.z.6.4.` F O @ b 7 2  .` / r r 5.*.T J Z ",
"N M } 2 :.i i . L ( v./ { [ H q v v > f d.0.>.8.,X9.pXpXz.cXjXtXtXeXkXhX~.,X~.9.=X4.w.5.x.6.s.A.| 8 y t.2 O U N D I * 3 y H X.0 ",
"< V G 7 H &.k q   6 ' ` %.U W q = m 5 ~ iX8.~ &X9.w.=XiXKXnXLX-X$X$Xw.rX6XgX$X,XaX7.w.z.l.-.6.` m.7 1 q 1 2 [ C M Q.I &.! H Q o.",
"M G U 9 L c * . 8 < c.A./ J Q * & y.` q.e.^.7.7.~.3X,XcXbXPXLXJXSXgXqXyX6X;X,X;X^.e.!.6.s.6.3./ B.8 t * t y C C V C.J =.! H X.I ",
"N V U } K * * . 2 ' H.A.#.@.T # # S &X6.e.q.^.d `.,X2Xf.f.f.vXFXGXSXNX.XwXwX;X:X%Xq.w.e.z.z.n c.| Z t i + w 2 0 F / D L.J Q @.[ ",
"G B } :.p z - c @.D J.A.%.J u X M < 3.s.e.@.,.*.,.!.~.=XbXxX2XHXGXNXwXeX4X9X7X,X!.>.1.z.6.x.4.' #.%.u w - . @ I { , C.U.%.O.U D ",
"M V } K w e v u I H.A.P.P.W w / N N l.l.d.9.R 1.W.!.=X=Xz.2XMX;X7X9XyX9XyX5XQ.`.1.8.E.d.l.x.4.0.{ D 7 r v - y P O.7 H. .o.u U Z ",
"B B I K ; k g p F S.$.U.L.+./ v./ N 6.s.q.w.*.E Q.-X,XpXg.2XMXmX;XCXNX1X_.).6XP.9.&X+.l.d.6.n ~ B.U < -.k l r L 1.  F F { ~ I I ",
"B I J t q k b p 2 A.(.%.L.J.D ( 3 3 c 4.w.7.+.>.E.*XaXnXcXcXAX,X%X%Xh.).+XXX4XI.W.&X+.q.w.6.f f B.o.L z i - &.L 0   , M.A.L.Q Z.",
"2 2 2 u q l b K 0 ` H.L.B.#.M / D 9.3.4.7.^.^.,.7X-XaXvXnXPXLX3XSX4X6XNXeX.X).7X).^.>.w.w.q.f 3.C.%.u p . - - a K !.I V.` $.9 ..",
"7 1 K t . v b L @ A.J.0.H.V., G.v.5.&.q.9.*X9.%.<X-XaXaXbXcXnXFXVXDXCXlX_.+XXX`.sX*X~ *.w.5.3.3.B.%.} @ b x v -.=.K o 9 G.B.Q.%.",
"7 2 z . % v &.u Z B.|.F.B.H.n.v.A # 3 s.e.W.,.! 1.~.=XpXcXj.2XFXSXNXhXlXrXqX0X4X<X*X!.>.d s 4.r.#.#.:.p r l - b ;.u <.F D C /.o.",
"I 7 2 K k v -.7 D A._.H.B.J.H.H.v.# f e.&X!.^.+.).!.=Xh.uXnX2X&XzX%X!.lXeX+XqX6XL.,XI.4.E d 6.d | X.} u t . v t.-.:.1.+ [ ` D Y.",
"7 8 @ -.b v ;.I m.F.~.].S.V.N.K._ * s >.^.~.:XL._.>X!.3XaX2XvX7XyXlXwXNXkX0XJ..X.X:X+.R R w q.6.%.| U =.. . - t.c =.! :.J Z S.U.",
"P u t - . u.:.9.` |.|.J.V.` ' n.K.s # 7.E.+.)./.5X,XjX,Xg.aXLX3X&X-X%X).0X+X XY.Q.^.f *.q # 4.3.W o.L K K z t.= t.K 2.w.1./ m.v.",
"..y i z = p.;.~.#./.(.F.H.' ` ].v.s E !.1.1.~./.7X<X3XMXAXnXLXHXGX8X0XzXlXeXR.P./.L.3 ~ q # *.f d Z.o.a 1 -.k - - -.;.;.! I A.H.",
"<.i b b = -.k.O.].@XH.H.H.G.( n.$.3 E 0.+.F.%.).5X7XfXMXAXAXIXFX-XDXDXzX~.XX XOX(.W.e @.w # *.d f %.o.C u -.t.& g p.a.:.E u 0 B.",
"<.K b b $ r ;.H H.@X#.H.H.G._ [.~ s q.~ ~.P.1.%.).!.;.$Xf.nXAXLXGXSXNXlXyXeXOXT.(./.3 ~.w # 4.d 4.@.m.<.i b i r & l :.;.2.+.1 J.",
"L b t k = &.Y U  X|. XG.9 ' ( K.f >.w.f Q.Q.o.P._.R.;XtXMXh.f.aXGXkXwX9XlXqXXX+XOX).Q ,.@.T ~ d &.,.Y.L :.k i - = x &.=.=.!.{ D ",
"a p * & - y 2.C oX@XJ.S.D ' A n.E r.8.+.%.).{ +.1X~.w.;X,X7XAX-X<XwXyX4XlXwX X}.(.%.H R T O.7.T q.1.P.! } z - b e - p.w ;.1.! @ ",
"L c e l v p !.P. X|.H.S.A N n.K.8.W @.Q.P.U.| F..X9X<X&X<XhXMXFXCXmX,X~.!.Y.OX+X{.F.u W.+.%.%.W r.~ F J L Y i x k = e . =.=XU B ",
":.q r = = K 2.[ J.J.J.4 6 6 K.n.7.W T Q.F.H.B.|.5XgX8XsX;XfXIX,Xd.&X$X8X0X XOXOXH.Z.#.+.%.W.%.T E r.%.U L <.&.r . g v % w *.%XL ",
"Y r e g k L -XI (.|.J.s ' N v.3 q.9 O.C.U.H.{.oX~.4XhXmXmXJXBXFXGXNXeXqXzXlXXXOXH.Y.V.+.Z.@.o.r.9 ~ #...I =.w % % g x g p i w.1.",
"p % - h * y 2.J '.'.].J./ _ 0 7.0.%.'.F.o.A.H.oX0X9XhXmXmXHXIXFXVXGXDXzX/.@X+X+X@XU.B.F.Z.+.o.+.Q T 7...J Y p % - x h x k =.$XU ",
"w % g h e ;.h.! /.F.J.].6 ) 3 8.0.W Z.$.Z H.|.(.U.L.I.!.jXmXJXGXGXCXNXlXlXeX+XT.}.F.X.#.1.L.%.o.Q f 0.U.D H @ . . - = g k =.Y / ",
"q & & = e w <.%X/.Z.H.A.6 T 0 +.Q Z F #.C H.J.}.{..X.XhX&X&X,XaXGXyX8X5XlXeX X+X+X/.D.C .X/./ Q Q X.7.r.I.<.y q . $ $ = * L w.@ ",
"w @ & = -   p ^.Z.$.G.c.f Q 0./ o.C Z.B.H.c. X}.P.1.w.1X8XzXfX*X<XtXyX4XzXlXXX{.{./.H.| oX(.%.+.Z +.Q 9...<.K ; . e $ = r :.w.J ",
"* v & = l * i 7.X.H.' C X.1.C F C C c.9 K.v.].OXOX9X6XwXwXlXmXFXCXBXfX`.!.!.XX+X{./.T.v.Z.J.V.I o.Z.'.+.,.u @ . e $ & g - ;.! | ",
". l - = = * w w.0 D.N.3 T Q %.Z.4 H.S.| }.v.#X}.qXXX9X).5XBXHXuXg.&X$X>XqX+X|. X(.6X{.H. .c.A.4 D C T X.J *.@ + X & & g * =.<.U ",
"q . * = & & q 2.I D.4 W U 0 / / Z n.J.].[.K.) J.OXqXlXlXBXZXZXHXMXSXlXqXlXzXqXOXU.`.|.A.{ H.Z D C C #.%.0 ~ + . $ . & X . ;.L  .",
"q . * % . x q E I 0 Z o.[ ( F./ | 6 / [.[.[.#X#X+XqXyXzXCXSXZXjX-XDXDXZX_.).+XOX@XoX0XG.| A./ | X.D Z.@.D Z y * . . $ l * ;.7 F ",
". . ; . . - * &.*.Z W $.F ' ` D m.C ].[.[.#X#X+X+XXX4X4XlX7XHXUXUXGXNXdXeXeX+X@X}..X6XG.c.7 F m.D F.P.$.Z < 9 * ; + k * r ;.7 D ",
"t + + . & + q w 9 X.Z.F c.( _ L.A.F [.K.[.[.K.K.R.qX).!.~.8XNXBXGXCX8XyXwX+XqXqX@X@X@X].` O } M.Z.F ' $.Z F 0 e % + + + * ;.[ ` ",
"L 2 t + * + # i #.' M F _ N ] M.T.A.].[.K.b.H.].P.U. XzX1X^.:X:XwX%X,XlXdXdX9XXX@X|.S.].S.( D.T.M.N M $.` ( C e * . ; * i L D M.",
";.8 2 . r c q w %.^ ) 5 N , S m.{.L.{.K.n.n.J.].H.XX0X_.6XzXhX7X;XmXHXfX_.~.L.|.|.].V.( ].O C.{.m.D S S.$.` A @ r q q r r H B M ",
"L @ i . z e c q ( ^ < < < N ] A.[ .XA.b.n.N.].}..XL.Y._.9XBXZXfX&X,X^.^.;X9XOXY.{.D.Z.` ` F .X[ A. .] V.V.' A i + @ 1 w i J , 6 ",
"U   2 @ k r r q N < N < 6 < 6  .M.R.%.N b.) J..X9XwX6XhXhXhXzXDXDXBXyX6X6XtX8X.X|. .` `  .D.R.N. .F N A c.` S + i 1 2 2 z B 5 < ",
"[ O 8 1 2 w 3 2 6   , O o , | C H.H.A.K.[.].{.R.9X8XgXhXmXkXuX&X!.sXmXVX8X1XC.R.Y.J.J.v.H.H.H.H.C { O ( ) G N 0 u 1   o     6 6 ",
"7 , O a t y c w _ O O O ) < m.F D.0 [ $.[.K.{.{.5X8XgXjXVXVXZXZXDXZXBXaXQ.`..XR.|.R.J.H.n.I 9 D.G | A 6 A ` ) S 1   + 2   O 5 M ",
"V B 5 8 + u c 2 ^ M 6 N 6 O ( B H.V.[ [ K.S.m.! L.L.^.sXmXhXBXlXNXhX`.8X8X4X4X{.F.R.A.[.F A.A.H.B C./ ^ N ' M N 6 O , o   , , , ",
"V V 5 7 7 y p a O N o , O N G D B.A.[ $.b.c.C._.W.1.w.!.q.).`.Q.`.W.w.E.7X>X.XP..XR.J.J.Z.$.A.B.` D.` A < M M M M 2       O   < ",
"N N 5 6 5 , 7 8 o N A   O G { | C.9 F D.v.` P...1._..X.XsX8XoXoXoXsXgXfXfXfX>XL.Z. .m.( 0 0 4 B.| D.) ' ) O 6 M A !.  O     O 5 ",
"M 6 < A 6 < 2 8 1.A S O O G  .M.C.D D F.D.| P.L...I.Q..X.X5XkX.X!.W.E.0.).2.P.2.C.H.J.m.F 0 D C.M.C.G N ) M < N N I.).7 O o O A ",
"6 < ^ S < 6 O 6 1.%.O A 6 ) D.H.{ , F U 3 S.C.L.L.%./.).sXoX>XzXdXkX0XoXR.R.U.P. .F.| @ /.9 O F R.P.G ) ^ _ S M N ,.~.1.o O , A ",
"A M N ^ O M < O.,.,.O.S N / M.F.U.D | Z F P.U.U.(._.`.sXoXXX_.Q.9.(.|.oXoXoX`.)./.C./ Z L 3 D U.Y.P.( < N S 5 +.~.>.!.9.1.O , S ",
") M M S 5 M 6 1.R Y ,.M ) )  .R.H.F V.C sX/.).).`._.5X5XsXsXdXdXdXdXdXsXoX.XU.| $.D.Z `.%.9 F H.R.F.) S ^ A T !.E.,.!.9.9.,., N ",
"N A 6 6 , < , O.R ~ ,.,.D F ` H.F.Y.V.4 `.X.F.).)..X_. X|.oX@X@XdX0XoXoX|.{.R.Y.V.F.F.:XV.D Y.F.H. .F L.0.uX`.9.^.E.9.9.O.W 5 5 ",
"N N < , 6   W W ! E +.,.O./  .D.A.`.` Z Q.).U.Y.[ I Y. XXX X@X8XsX5X6X}.|.].J.H.V. .c.).+./ _.A.$.` / uXuX`.`.e.^.~.E.W.0.!.E.! ",
"N < < o < H u E E +.~ ~ 6 M  .A.H.X.V.9 `.`.G.$.W./.W.`.).:X<X7X8X;XtXyX:X;X(.A.H.F.M.`.Q ( o.H.S.Z Q :X`.uX`.5X>XoXsX>XoXsXoX~.",
"6 M M 6 9 J J ! ! >.~ u ~ 6 ` ' ( F.o.W Q.F.W.7.4.w.^.`.:X7X>X<XyXNXzX;X8X1X>X>X).S.N.D.F.C '.( ` ` :X!.W.^.^.Q.`.^.`.`.~.~.~.^.",
"  6 , , 0 4 Q X.W T ~ ! ! ~ ) N.F ( U C.E.9.8.*X!.).:X;X7X<XtX8XyXyX7X9XtX8XsX<X>X).9.C.%.V.` / v.Q.^.W.W.0.^.W.^.W.~.~.`.^.W.W.",
"O O < D Z F Q 0 Q T u f ! @.~ $.Z.E.W.,.+.E.L.*X^.3X~.tX4X8XyXBXyXtXwX8X8X4X4X8X7X1X:XW.!.W.^.%.>.+.0.W.0.W.0.0.0.Q.W.E.E.*.W.r."
};
