/* XPM */
static char *result[] = {
/* columns rows colors chars-per-pixel */
"64 64 256 2 ",
"   c black",
".  c #080000",
"X  c #000800",
"o  c #080800",
"O  c #040808",
"+  c #100000",
"@  c #180000",
"#  c #100800",
"$  c #180800",
"%  c #150808",
"&  c #001008",
"*  c #081008",
"=  c #081808",
"-  c #031404",
";  c #101000",
":  c #181000",
">  c #101008",
",  c #181008",
"<  c #101808",
"1  c #181808",
"2  c #181800",
"3  c #051810",
"4  c #151810",
"5  c #000018",
"6  c #210000",
"7  c #290000",
"8  c #210800",
"9  c #290800",
"0  c #250608",
"q  c #310000",
"w  c #390000",
"e  c #310800",
"r  c #390800",
"t  c #310808",
"y  c #390808",
"u  c #310008",
"i  c #211000",
"p  c #291000",
"a  c #291800",
"s  c #211008",
"d  c #291008",
"f  c #211808",
"g  c #291808",
"h  c #211800",
"j  c #311000",
"k  c #391000",
"l  c #311800",
"z  c #391800",
"x  c #311008",
"c  c #391008",
"v  c #311808",
"b  c #391808",
"n  c #251810",
"m  c #361810",
"M  c #290810",
"N  c #142407",
"B  c #082110",
"V  c #032713",
"C  c #102110",
"Z  c #152613",
"A  c #063518",
"S  c #103118",
"D  c #163618",
"F  c #082608",
"G  c #252307",
"H  c #372303",
"J  c #252513",
"K  c #342512",
"L  c #263215",
"P  c #343413",
"I  c #303507",
"U  c #133921",
"Y  c #082C2B",
"T  c #2D3028",
"R  c #420000",
"E  c #4A0000",
"W  c #420800",
"Q  c #4A0800",
"!  c #420808",
"~  c #4A0808",
"^  c #520000",
"/  c #5A0000",
"(  c #520800",
")  c #5A0800",
"_  c #520808",
"`  c #5A0808",
"'  c #421000",
"]  c #4A1000",
"[  c #421800",
"{  c #4A1800",
"}  c #421008",
"|  c #4A1008",
" . c #421808",
".. c #4A1808",
"X. c #521000",
"o. c #521008",
"O. c #5A1008",
"+. c #571503",
"@. c #471710",
"#. c #571510",
"$. c #630000",
"%. c #6B0000",
"&. c #630800",
"*. c #6B0800",
"=. c #630808",
"-. c #6B0808",
";. c #760604",
":. c #6B1008",
">. c #661304",
",. c #771105",
"<. c #671510",
"1. c #781310",
"2. c #462402",
"3. c #522900",
"4. c #552305",
"5. c #573508",
"6. c #462312",
"7. c #572613",
"8. c #453213",
"9. c #553415",
"0. c #463108",
"q. c #652405",
"w. c #673608",
"e. c #662515",
"r. c #762213",
"t. c #673615",
"y. c #75300A",
"u. c #433621",
"i. c #563327",
"p. c #683621",
"a. c #753621",
"s. c #124C00",
"d. c #2F4710",
"f. c #164522",
"g. c #0E4E25",
"h. c #314A24",
"j. c #0E6D33",
"k. c #306C1A",
"l. c #564508",
"z. c #4E4C0F",
"x. c #674608",
"c. c #6A5508",
"v. c #755608",
"b. c #675710",
"n. c #754B0D",
"m. c #686612",
"M. c #776711",
"N. c #787513",
"B. c #706A0E",
"V. c #4D5029",
"C. c #794525",
"Z. c #6C522C",
"A. c #467529",
"S. c #536D2C",
"D. c #767922",
"F. c #736F2E",
"G. c #4A730D",
"H. c #083647",
"J. c #085757",
"K. c #880504",
"L. c #881406",
"P. c #881311",
"I. c #971512",
"U. c #980B07",
"Y. c #A91513",
"T. c #B4100D",
"R. c #872514",
"E. c #9A2414",
"W. c #873413",
"Q. c #953613",
"!. c #8E2608",
"~. c #AC2817",
"^. c #8B3222",
"/. c #BA2621",
"(. c #AC2C25",
"). c #C62118",
"_. c #C92322",
"`. c #D52D26",
"'. c #D21410",
"]. c #874610",
"[. c #994611",
"{. c #875710",
"}. c #9A5613",
"|. c #844208",
" X c #A84417",
".X c #BA4618",
"XX c #A85416",
"oX c #B85318",
"OX c #876711",
"+X c #986611",
"@X c #8E7613",
"#X c #A86415",
"$X c #B96618",
"%X c #B17717",
"&X c #945731",
"*X c #8D4F28",
"=X c #AB5526",
"-X c #896636",
";X c #90702C",
":X c #B86F26",
">X c #C95318",
",X c #D25A25",
"<X c #DA6724",
"1X c #DA7825",
"2X c #CD7427",
"3X c #EC6726",
"4X c #F2742B",
"5X c #D4611A",
"6X c #B5734A",
"7X c #358435",
"8X c #498B0F",
"9X c #718E18",
"0X c #478A32",
"qX c #558F36",
"wX c #759635",
"eX c #6E8E2D",
"rX c #71AB33",
"tX c #56A939",
"yX c #4DAD44",
"uX c #76B545",
"iX c #589C42",
"pX c #78CE4F",
"aX c #968616",
"sX c #8D8F17",
"dX c #A98D18",
"fX c #969A26",
"gX c #979934",
"hX c #8D8D2C",
"jX c #AE9128",
"kX c #96A938",
"lX c #91AB24",
"zX c #AAA824",
"xX c #A8AA36",
"cX c #B8B835",
"vX c #B2B12B",
"bX c #9CA510",
"nX c #D68E2B",
"mX c #EC842E",
"MX c #C69929",
"NX c #B2C82F",
"BX c #9CC639",
"VX c #CACE38",
"CX c #88AC44",
"ZX c #95AB42",
"AX c #89B745",
"SX c #9AB847",
"DX c #A8B944",
"FX c #B2B443",
"GX c #8C9C4A",
"HX c #91CD4E",
"JX c #BBC846",
"KX c #B0D64B",
"LX c #C8C944",
"PX c #CAD743",
"IX c #C6E752",
"UX c #CEB542",
/* pixels */
"5 . 5 5 7 w ! 7 8 d $ 4 C * X X & & X V 3 , 8 @ x 8 0 d t . 8 s s J o % X 4 * S S f.B C Y 3 X D Z = D = h.J 1 s d % c e.9 + O._ ",
"5 M 0 R E q ! 9 x 8 0 s > o   X X V & A O % 6 t @ @ @ 7 q . e 0 g 1 o O X Z * Z A S Z & g.U 4 4 3 4 f.< L J , , d 0 e...o.7 <.7 ",
"0 0 0 E Q Q r y y v d # o < O   X 3 V V & @ + . . @ . . q + @ t P n > o X C * B S S S & A * * U Z S f.U > L M % % @.c M a.^.1.` ",
"4 % u w E w W e 7 x 8 $ # . < & X V X 3 & q . . . + + + w 6 ~ $ P 4 > > X Z D C f.C S & & & * f.< o Z = = J , K 6.0 $ @.#.1.-.@ ",
"* O > R q E w w 7 8 + . + # * = & - - X O 6 @ . 6 8 8 @ + w @ y 6.B B > o f.D C = * U 3 B V B U > 4 = D L J J m K #.d } 0 <.P.=.",
"Z . > R ^ R + @ W c @ + . $ Z   & X O X O @ w . 6 e 8  .@ w ` ! y o * B > h.C Z 3 < B & V Z = < Z * & Z J J f x 6.#.$ % t P.1.I.",
"< * O E E w + . + e @ 8 # s 1 o B X X X & R + 8 e 9 $ b 8 <.6 e O.7.* B = S Z C U S 3 S V A = = 1 o * 4 Z n s s m 7.7.#.1.+ O.=.",
"Z % , q 6 w q 7 7 + e @ . $ , , = X 3 & * + q r e e $ 8. .` =.6 6 i.6.= B C S S D S S j.& 3 V C X   O O , J d d m o.c o.t . ^.! ",
"> 4 # q + R q q 7 6 7 8 8 $ $ , = = & - O Q Q 6 c $ $ 8.9 r :.) 7 | % n 3 Z S U S B g.f.& 3 V = o o # > 4 J n m x c 0 <.| ` 1.P.",
"* , L E / E / q + 7 @ e e 8 . $ o * & V & Q ' e + + p P 8.$ r q q r . d < S S f.U g.3 V & - = = o   # , , K K d d @.e.| O.t P.<.",
"L , d R E + ^ E q q 7 7 e 9 . $ # * = - & Q >.r 8 $ $ H 8.e W 6 ` ~ . # % f.j.g.f.U = A & g.X o o o $ O 1 n V.0 % @.#.<.| _ P.I.",
"L s v R R + + E q + 6 @ 8 $ $ $ # = = & F q O.+ r $ x G P 7 ! Q -._ @ $ M n j.j.f.B B 3 j.j.& *   o . . * , g m 8.#.! <.! R.1.P.",
"J n s 6 6 @ 7 + 7 6 + + . + # # o o N & = w W 6 @ k i f h.y e 6 ;.;.r 8 c o j.h.f.B B 3 j.j.& X > o # 8 e s V.x m c | } R.=.I.=.",
"K u.6./ w + R E . 7 + 6 @ $ i # o o < - ;.7 e + e # # s d.8 # . 1.-._ y o o % B C S = S A A & - * > o 8 t s u.m c x } y #.y P.I.",
"d m @.^ E R 6 6 7 + + 9   + #   o o - * E ( o.9 ..} o g J $ 8 r.~ Q ` @ ~ t s 4 Z B S B A A - X o o , $ 8 } K c @.0 #...~ ~ -.0 ",
"n K @.%.w 7 R . @ + 6 @ . $ . $ o o ; o q W + ..j j d g X $ $ r ` + K.1.:.8 d K K 1 Z * V g.g.- X # $ p c 7 6.m d c ~ ~ ~ y _ ! ",
"m t y / / @ 7 6 @ 7 e + . . . #   ; * Q q W Q 6 9 # v g f o 8 9 =.r =.E.1.<.e.s u.J J S & g.F * * o . $ 8 6 +.@.x 0 ..#.y ! q 7 ",
"K x e.$.q 6 +.] ] W r 9 . 9 o # h ; < *.&.Q W ..4.8 K g f J o 0 <.` y =.~ ^.r.@.@.@.g m 4 1 Z o o 1 L i $ 8 ..| } t <.~ ` #.y ! ",
"m c | w 7 ( W Q 9 9 k e . p $ o 1 ; 1 q E w ( ..c j H g : g b x c ,.,.Y.-.P.<.#.c 7.c @.m h., < F ; G $ 9 e e q.7.e.o.~ t -.,.r ",
"} c ! / $.@ ] ( W 9 k 8 8 p i : 2 N ) E q ( o...9 e f G , > H  .c o.~ ~ P.P.<.@.#.a.b 7.m n 8.J D 2 P # 9 9 r +.6 ! q #._ 1.` I.",
"c | >./ ;.^ X.q.e 9 j j j p # f 1 < R R E W <.y  .$ 2 K h P I 7. .^.o 1.q =.R.#.1.P.#.| #. .b K ; # # g a 8 e X.r + . =.:.P.P.P.",
"d <.! 7 ,./ X.q.9 r ' j 9 8 o o : ; q / ( W Q + 7.9 $ o 1 Z P 9.6.#.. _ =.P.(.t I.#.1.c #.r.b d 1 G 2 G H e ' . 7 q *.*.y I.=.;.",
"#.#.! 6 %.*.( >.W e 8 j # h i G 1 K.*.^ Q e 9 e 8.b v v g L P P ..{ x o.~ _.P.~ /.Y.<.<.:.O.<.t . 1 d G b y ' ] @ @ q R 1.Y.I.Y.",
"d o.1.@ / ) W q.9 8 # $ p H i : I K.w ) ( Q o.e j l 0.P I > P K 7.b a.| y ~ ~.P.T.I.T./.,.-._ 9 t N , = H o { ] e . 0 _ E.P.1.Y.",
"^.~ P.@ 7 ) w q.W e ' $ a z.$ , 1 K.;.( ) ) | y 8 x z.P P 1 1 z.6.t.e.r.` =.#./._.Y.;.T.U.;.;._ R K G N p $ 2.' ] 6 + w 1.1./.U.",
"1.1.I.;.^ ^ w y.W 8 8 8 H h o : 9 U.) Q ,.( | q.c b 8.s P , < P K t.*X^.=.Y.1./._.1.-.U.T.;.E R =.6.n G h k $ r X.Q W / #._ ~.Y.",
"_.1./.+ E R E >.r ' ' $ I $ a : U.b Y.,.,.:.Q e.c t P P h.G > L 8.7.q.W.<.Y.P.`._.Y.I.@ ! K._ R w p.D K z a 8 3.X.&.R / w y /.).",
"y I./.w E w q O.Q k $ z : i h 1 =.I.U.( ,.) r.c t.2.g J Z G * G 1 y 7.e.R.P./.`.`.T.K.+ w q ;._ ( V.P P i H k ' X.W / ;.E <.(.`.",
"=./._.` w + @ 7 W { $ l i H h / e.I.<.L.!.,.o...9. .g , 1 J Z L g b } -Xa.O.(.`././.~ @ q $.R Q y C.V.g H H j 9 ) >.*.E E R ~._.",
">.T.`.U.+ 6 Q ' +.4.r l l l i T.7.f c 6 L.,.O.r 7.9.m * f N N J g s x *Xa.1.=XI.(.I.T.+ q T.q <.1.*XV.g a # 3.+ q.&.*./ 7 ^ Y.Y.",
"P._ ).P.;.$.+ . Q k k z.p ; a E c P.W._ !.r.r...4.8.6.> f < X N 1 g #.C.a.#.a.=.^.(.T.K.q K._ ~ a.*X-Xn : i $ { +.>.;.E q w ~.`.",
",.Y.).K.%.. 7 ' 9 k p 2.H H T.+ O.Q.^.y E.Q.q...d 8.4 J < > * * O g m C.p.#.p.P.(.(.P.Y.R K.u r.C.*XZ.m i $ 8 +.9 >.*.w $.q I./.",
"I.I.I.I.;.q $ 7 q.{ [ l H # K.@ 7.Z.Z.~.E.Q.1.9.@.i.K 4 < > = * 1 f b Z.7.#.C.@.^.i.1.U.%./ @ e.&X&X&X7.a H 8 j r ,.&.$.K.+ / I.",
"P.P.P.P.$.w Q W +.] p $ : ' K.E @.-XV.t.E.W.1.v K h.J T 4 o * ; X o d 4.p.m Z.(.^.i.K.;.;./ 9 r.-X-X-Xb a l 2.{ r r >.%.;.+ 7 ,.",
"! I.;.U.%.&.w >.e $ 9 z i '.'.E % =X*X^.E.!.:.4.9.h.J U B ; o o 1 > g b i.7.Z.^.&Xp.-.-.E K.@ e.F.-XC.b o p 2.+.W r ,.$./ 7 ,.).",
"-._ ;.%.$.E ( >.q.' { z 9 T.K.R -.E.*X&XO.>.&.>.i.T 8.h.P , # # ; , K d V.7.Z.i.Z.p.-.;.E K.,.e.&X-Xt.d o H 3.j { W Q K.^ / Y.~.",
"-.L.K.%.%.E *.>.>.+.3.z a U.T.R U.W.&X-XR.-.&.X.J u.P V.V.f g o o f o g i.9.V.u.-Xp.@._ E K.:.^.-X6XC.$ o H { z W Q &.;.^ 7 /.P.",
"7 R / ^ R q ,.>.o 4.x.4.z K.K.q $.^.-X-Xe.E R Q K 9.V.V.T T i K p $ d 8 h.J S.T Z.a.-._ ^ $.W.=X&XF.K 8 f H 5.o 8 e >.^ ^ R I._.",
"7 R K.K.%.&.;.y.W 4.2.6.7./ ^ $.^ W.-X-Xp.( E 6 6.9.T V.S.K H J K $ o $ U T S.h.S.a.;.w E *.t.&X-XD.K 9 f 0.5.8 e e . w %.w Y./.",
"T 7 ^ ;.E ,.L.>.' y.4.q.5.E q 7 6 ' Z.-XZ.` E =.} T V.h.S.J x d b @ $ 6 T T V.V.S.a.<.E w E Z.-X-XZ.0.d o 8.p $ { O.Q R ;.u K.=.",
"J.J.J.u ^ L.L.$ { r.' a.4.w + @ + @ V.-XF.b E 9 9 8.V.Z.GXjXjX;XwXS.wX*XFX6XFX-XS.a.#.y %.E Z.wX;XF.9.i K 8.H b | X.6 Q E L.;.;.",
"J.H.T E ;.L.( X.1.7 k n.y.@ . @ . % V.F.-X5.2.B.N.xXKXHXCXqXA.A.A.7X0X0XuXqXGXGXKXJXfXN.x.3.V.;X;XZ.g v h V.9.p c $ 9 @ ^ !.;.T.",
"H.H._ E ,.,.!.!.!.{ r ..5.O @ + { 6.hXxXgX@XM.N.sXkXCXwXCXwXS.A.k.7XyXtXpXiXCXSXCXhX@XsXsXB.gXDXgXZ.p H v S.b #  .8 9 r w L./ K.",
"H.Y ! =.L.6 r !.8 r.x { y.].$Xx.+XdXD.FXKXeXN.N.fXxXAXCXAXiXuXqXqX7XyXyXpXpXHXGXCXwXhXN.lXeXgXSXFXcX%X}.r 6.g o 8 $ $ 7 6 ,./ ^ ",
"T i.w ,.r Q Q :.# 4.b t.W.v.I l.9X9XqXhXkXkXsXN.N.wXSXZXHXuXrXS.0X0XiXyXpXuXKXSXSXhXm.aXD.fXkXZXDXwXb.z.z.V.8.6.d o # r 7 Q K.) ",
"6XE ) >.W o 9 { c e.4.R.*XI N s.s.s.8XlXkXxXD.aXsXvXJXSXHXkXpXqXA.A.qXS.HXHXHXHXDXgXN.N.aXxXDXJXDXwXA.k.h.L 9.9.# # e 0 r r %.;.",
"a.M ;.W ) 8 k O.# >.7.[.XXd.I s.s.k.8XhXcXcXD.vXsXNXkXCXJXSXuXeXA.A.A.qXHXHXSXKXSXfXfXsXzXxXJXNXDXeXA.A.k.h.K 9.d $ r . X.q / / ",
"<.% w &.X.e k o.$ +.r.W.].l.z.s.s.k.8XlXNXcXfXaXdXNXxXKXJXKXAXrXA.A.S.iXHXHXSXSXkXfXM.zXzXVXLXPXKXwXyXA.d.V.K g | # +.e + w $.w ",
"y W ) + $ # j c p R.2.$X+XOXb.l.z.k.8X8XsXvXzXzXvXvXvXPXKXDXAXwXV.S.F.qXHXKXKXJXkXzX@XaXaXVXPXPXBXeXqXN.8XeX6.@.b 6...+.8 @ / ^ ",
"w ~ ) 6 W W | q.v W.{.#XOXOXOXb.c.G.8XG.9XxXzXcXNXdXVXIXJXCXHXuXS.0XS.qXSXSXKXDXxXfXaXvXfXvXLXPXBXtXtXeXwX9XeXH x 6.j ' +.$ ;.w ",
"q X.Q 9 +.8 W.Q.n.n.x.{.v.c.b.b.bXv.8Xz.rXaXvXjXbXMXPXVXJXJXSXAXeXS.S.wXZXSXSXJXxXzXjXdXvXvXNXPXHXrXB.9XlXsX9X9XN.$ p k w.+.;.w ",
"W 7 +.W { >.q.{.n.OXl.v.l.l.B.N.sXbXaXm.rXaXcXM.dXvXVXLXxXJXJXkXuXwXwXwXSXDXDXJXxXzX@XdXzXVXVXPXHXN.bXB.N.M.v.c.N.m.b.r n.e E / ",
"Q e W $ 4.0.H 5.l.5.l.l.l.OXc.c.c.B.B.@XOXdXfXN.B.zXVXVXLXLXxXkXrXS.wXHXDXJXFXUXhX9XM.OXaXN.@X@Xv.M.aX@Xv.OXv.M.c.v.l.M.x.y.w ^ ",
"O.9 ' $ H z H H H 0.I 5.v.OXl.v.OXc.c.zXvX%XzXfXlXrXcXcXLXLXxXgXF.eXCXAXKXLXFXLXgX;XhXN.sXOX@X%Xv.OXM.M.OXOXv.v.x.l.x.0.3.5.w ^ ",
"X.X.k l 2.H h a 0.0.5.v.v.c.sXv.l.@XdXdX%X+XdXvXNXzXhXD.m.rXxXxXF.S.CXSXKXPXD.qXS.hXM.jX%XnX%X%X+XM.x.c.c.v.x.c.x.n.x.5.3.5.^ w ",
"( j : l 8 l H 5.3.x.v.v.v.c.x.c.v.aX+XdX+X{.MXnXMXdX+X;XF.eXS.yXqXS.uXF.A.h.h.m.OX{.%X%XMX}.%X+X+X+X+Xv.c.c.x.x.5.x.5.3.3.3.' 6 ",
"e e k j z 3.H 3.x.H l.5.c.v.c.n.@X+Xn.#X{.#X$X2XnXnX:X;X#XGXF.wXS.S.h.S.wXgXhX#X+X$X$X$X%X$X#X+X#XOXv.{.n.x.5.x.5.5.3.H 2.2.a 6 ",
"w e 9 { j 2.3.a l.w.0.5.x.3.n.OX5.{.[.}.%X{.n.#X>XnXnXnXUXFXFXGXhXF.F.gX;X+X:X2X1X$X$X$X$X$X+X#X#X@X+X{.n.v.x.3.H 2.2.2.z j { 6 ",
"6 e ' 8 2.z 3.5.H 2.w.5.5.x.v.n.5.].v.XXXXw.}.XXXX2X<X1XnX=X:XxX;XgX;X:X:X2X1XmXmX5X>X$X$XXX$X[.}.}.{.{.{.v.B.c.x.3.a p p j ' r ",
"w 7 ' 9 { z r 2.2.3.3.0.5.w.w.y.w.w.5.y.[.[.}.].$X$XnXmX,X1X2X2X2X=XoX2XnX4X3X1XnX5XoXoXXX[.#XXX[.}.].|.y.n.w.w.3.3.5.4.4.{ 8 r ",
"w q r k 9 2.{ z [ 2.[ 5.4.w.w.4.w.w.t.[.[.XX|.:XoX X<X>XoX4XmX2XnX&X,X3X4X3X<X<X5X2XoXoXoXXX[.[.].[.|.y.y.w.x.w.5.+.3.3.{ ] e W ",
"w 6 q r e ' p k z { 4.2.3.4.4.4.y.3.].Q.[. X X XQ. X.X>X3X4X4X4X4X4X3X4X4X3X<X2X2X5X.X.XoXoXXX[.[.[.y.|.q.y.q.4.4.2.{ { Q ] r w ",
"q 7 7 6 r 9 ' j j 2.z [ 4.4.7.q.q.q.Q.Q.XXW.Q.Q. X>X5X>X<X<X4X4X4XmX4X3X,X<X>X/.>X>X$X!. XQ.W.W.Q.Q.W.|.y.y.q.4.{ [ k k ' W r 7 ",
"w q 7 7 7 e e k r 9 { z ..O.4.q.4.W.W.}. X XoXQ. XoX~..X,X_.3X4X4X4X4X3X3X,X2X5X X.X.X X X~. XQ.W.W.W.y.q.q.+.+.{ k j e r W q 7 "
};
