/* XPM */
static char *result[] = {
/* columns rows colors chars-per-pixel */
"64 64 254 2 ",
"   c #010100",
".  c #090000",
"X  c #020901",
"o  c #090901",
"O  c #000808",
"+  c #090908",
"@  c #110100",
"#  c #190100",
"$  c #120901",
"%  c #1A0901",
"&  c #110A08",
"*  c #190A08",
"=  c #0B1104",
"-  c #011008",
";  c #091109",
":  c #0A1A0A",
">  c #091505",
",  c #111102",
"<  c #1A1203",
"1  c #111109",
"2  c #191108",
"3  c #111909",
"4  c #191909",
"5  c #1E1E07",
"6  c #001810",
"7  c #091910",
"8  c #111A10",
"9  c #191911",
"0  c #181010",
"q  c #220100",
"w  c #2A0100",
"e  c #220901",
"r  c #2B0901",
"t  c #210A08",
"y  c #2A0A08",
"u  c #320000",
"i  c #3A0100",
"p  c #330901",
"a  c #3A0901",
"s  c #310808",
"d  c #3A0908",
"f  c #221001",
"g  c #291000",
"h  c #221109",
"j  c #2A1109",
"k  c #221809",
"l  c #2A1909",
"z  c #321001",
"x  c #3A1101",
"c  c #321109",
"v  c #3A1108",
"b  c #311809",
"n  c #3A1908",
"m  c #221910",
"M  c #2A1911",
"N  c #291010",
"B  c #391910",
"V  c #19230B",
"C  c #12210A",
"Z  c #092211",
"A  c #082A19",
"S  c #072515",
"D  c #112211",
"F  c #192211",
"G  c #122B12",
"H  c #192913",
"J  c #102218",
"K  c #102A19",
"L  c #192A18",
"P  c #1A2518",
"I  c #09321C",
"U  c #113219",
"Y  c #193219",
"T  c #163819",
"R  c #212108",
"E  c #292108",
"W  c #2A2C0C",
"Q  c #312108",
"!  c #392209",
"~  c #3B2D0C",
"^  c #212211",
"/  c #2A2312",
"(  c #212918",
")  c #292918",
"_  c #242615",
"`  c #352713",
"'  c #213219",
"]  c #283516",
"[  c #3A3211",
"{  c #323A11",
"}  c #373514",
"|  c #083821",
" . c #113321",
".. c #123B22",
"X. c #193622",
"o. c #182F21",
"O. c #293921",
"+. c #243421",
"@. c #313521",
"#. c #420000",
"$. c #4A0000",
"%. c #430901",
"&. c #4A0800",
"*. c #430908",
"=. c #4A0908",
"-. c #520100",
";. c #5A0000",
":. c #520801",
">. c #5A0902",
",. c #530908",
"<. c #5B0908",
"1. c #441203",
"2. c #4C1304",
"3. c #431108",
"4. c #4B1208",
"5. c #431909",
"6. c #4A1908",
"7. c #471905",
"8. c #531208",
"9. c #5A1109",
"0. c #531908",
"q. c #5B1708",
"w. c #421910",
"e. c #4B1712",
"r. c #561710",
"t. c #630000",
"y. c #6B0000",
"u. c #630800",
"i. c #630808",
"p. c #6C0808",
"a. c #680503",
"s. c #730100",
"d. c #7B0000",
"f. c #720902",
"g. c #7B0801",
"h. c #730908",
"j. c #7C0909",
"k. c #730308",
"l. c #641209",
"z. c #6B1008",
"x. c #641908",
"c. c #6B1A09",
"v. c #641504",
"b. c #741009",
"n. c #7B1008",
"m. c #7B1808",
"M. c #731909",
"N. c #6B1110",
"B. c #641A12",
"V. c #741110",
"C. c #7B1010",
"Z. c #731A11",
"A. c #7B1911",
"S. c #7B1818",
"D. c #7F0910",
"F. c #462409",
"G. c #56220C",
"H. c #422210",
"J. c #422A11",
"K. c #4A2612",
"L. c #542210",
"P. c #5B2211",
"I. c #522A10",
"U. c #562518",
"Y. c #463515",
"T. c #573514",
"R. c #59300F",
"E. c #682717",
"W. c #782515",
"Q. c #693218",
"!. c #7B3312",
"~. c #772209",
"^. c #7A3421",
"/. c #7B2921",
"(. c #4A3921",
"). c #364418",
"_. c #264318",
"`. c #114221",
"'. c #104A29",
"]. c #164527",
"[. c #195735",
"{. c #0D4F2E",
"}. c #244327",
"|. c #265331",
" X c #2F4C23",
".X c #106639",
"XX c #216339",
"oX c #306F2B",
"OX c #18461F",
"+X c #524218",
"@X c #485225",
"#X c #664521",
"$X c #7B4424",
"%X c #6B5A31",
"&X c #4A7729",
"*X c #7B7729",
"=X c #107046",
"-X c #830000",
";X c #8C0100",
":X c #840901",
">X c #8D0800",
",X c #840909",
"<X c #8B0909",
"1X c #840008",
"2X c #940000",
"3X c #9D0000",
"4X c #930A09",
"5X c #9B0A09",
"6X c #960800",
"7X c #841109",
"8X c #8A1709",
"9X c #9C1009",
"0X c #941409",
"qX c #9C0810",
"wX c #831110",
"eX c #8C1010",
"rX c #891916",
"tX c #941111",
"yX c #9C1111",
"uX c #9A1A16",
"iX c #A40000",
"pX c #AC0100",
"aX c #A40909",
"sX c #AC0A09",
"dX c #A40902",
"fX c #BD0808",
"gX c #B60403",
"hX c #A51009",
"jX c #AD1008",
"kX c #A51111",
"lX c #AD1211",
"zX c #A91A16",
"xX c #B51010",
"cX c #B91917",
"vX c #85230B",
"bX c #852414",
"nX c #972416",
"mX c #8A3511",
"MX c #AA251A",
"NX c #B7211D",
"BX c #8C2D21",
"VX c #AA2421",
"CX c #B62521",
"ZX c #C90807",
"AX c #D30E0D",
"SX c #C62423",
"DX c #D92A28",
"FX c #D51515",
"GX c #8E712D",
"HX c #985218",
"JX c #399C39",
"KX c #658835",
"LX c #108856",
"PX c #5A9C42",
/* pixels */
"o * o 4 m 9 ^ 9 4 9 }.3 D D 8 ].=X].A U [.LX=X.X.X.X=X=X{.=XA A A | 6 - 6 6 S 7 Z A A I Z K `.Z > Z X...L }.].( H P 4 ] ) @.t j ",
"o o * & o ^ 9 9 P ( o.|.|.XX].K 6 ; ]....X'.7 6 {.S | 6 S 6 6 {.| `.6 6 - - - 6 - O - 6 K J 7 7 ; - J F ' }.}.3 4 4 ^ ] m ] @.) ",
"l l 2 M ) m 4 ) / ^ + O O O Z K O A K K A A U 7 - O 6 A A | A S | A 6 7 O - A Z 7 : 7  .S 7 Z J + 8 8 O + O O : }.}.h ^ O.9 ) * ",
". k l M 2 2 2 1 + + X 3 D O D 8 : K L D 6 + - 7 A  .=XLXS '.{.A 6 | 7 6 - - - - S 7 A T > + D ; F 8 7 + O F ; O O X 9 ) ( } h h ",
"t b l h h & + 2 & + 8 m ' : L 3 : 3 ; 7 D U S K : '.X.=X..A A '.'.'.- Z : 7 - - O : ; ; : 8 D ; L |.|.Y +.P 9 ; + o 3 4 1 ^ h * ",
"s e * y j y l h _  X9 ( / F ; 1 9 8 K Y K X.].XX..U =X7 [.K U 7 '.A 7 ; - - O ; 7 7 : ; 9 D D F D ' 9 9 _ m 9 4 1 + * & 2 k M ` ",
"  $ b t t M 9 * m M m O.) 0 9 8 ( 9 L ' L 8 ].|. .XX=X[.{...J  .D T Z : + ; ; ; ; ; ; 3 9 X.F ( L F +.m m & m * * h 2 + 2 2 h h ",
"% t * y * t * t M m m 9 m M ) ] ' ( J D +.X.+.|.XX[.|.[.[.X.].J J K ].A Y L 8 : 8 3 J D P 9 9 9 9 9 _ / M ) 2 9 2 l & * t h % o ",
". # % $ % t M 2 k t 2 m ) * 2 1 9 0 _ O.O.( |.L L Y +.L }.].8 8 D 8 D K L L V 8 9 9 9 X.9 1 1 + & 2 * 2 m * } / M M t N l c j % ",
". @ $ @ # y j t t * j h * 4 * m m ) P 5 ( 9 9 9 L P 8 Y K L P 8 9 7 +.X.J 8 8 + 3 1 : D : S 9 1 m 4 h 4 2 0 & * j j M t t j c e ",
"@ . . . e e y y t % % y * * j h h h ^ m l 9 1 2 m 9 8 9 +.9 F 4 9 2 L H o 3 +   ; ; + J ..`.I T 4 * * h b N b b B ` b n B v v d ",
". # w # y s y r e r e t % * h h h h h 2 M 9 ) 9 9 L X 1 ' J 3 & / 2 ' 9 o 3 o X 1 1 + ; T ..A ..K * t h h c b y c d s s w.5.v 4.",
"# q u a p # r q q q % e $ e t % b j h b M E 2 * & + + + & 2 % % / l ( _ X H + X & ; + ; Z U U  .D G 3 f c j d r y r y r d *.=.=.",
"#.#.w w w w u a p p d v v % % t y t t l 2 * * $ @ # q @ . a s h O./ 9 ] o 8 o X = = ; O : G ..Z ..7 8 8 e d y p p q u w #.i #.u ",
"#.i u $.i w i w w w %.p d 3.y r s s h . . @ @ @ @ . u w @ p # s [ @.( ] + 9 X X 1 O > D D U `.U '.8 8 & 3 * u w %.&.u i i w @ #.",
"#.u # #.w i q # u #.i w i y.u u . q @   . . @ . . @ i q q =.a % w.} ^ ] 1 o o X 1 3 Y : G T '.Z '.K 8 = = o X . u w q . w . i ;.",
">.:.u.:.>.i $.u u $.t.;.#.$.#.i @ i q @ @ . @ % . # # w :.u %.d s Y.) O.L & + o 3 Y L 8 U '.`.> Y D ; ; X X X X w @ # . @ w w u ",
"&.j.:.u q ;.$.-.i $.-.$.i $.q # #.u u o w e e % p # # w $.,.w d ,.e.` m ' o 1 + + ].; Y U : `.3 U Z 8 ; + X o . u #.q $.q w . # ",
"u.a #.q q $.#.-.$.w $.#.t.u . u w &.i . # p d g e v 0.u <.i >.,.d r.Y.}  X1 o + 1 ].G T U > [.> Y D H 3 9 1 o y d *.<.=.i a . . ",
"q ;.-.;.u i ;.$.$.;.-.#.-.$.$.#.w #.&.# p % r r # n e 8.B.h.$.r ,.r.=.H.` ] + 1 , |.L T U U ].Z `.Z H F ( * w.d =.,.,.S.%.w q u ",
"i t.t.;.$.#.;.y.$.;.$.$.#.u u w i i a a p e r r e ! F.q.>.b.i # . t E.K.(./ + 1 3 OXT T K ].U 7 Y T 3 L * f d *.r i i.S.d q $.$.",
"-.t.y.;.-.#.y.y.y.t.u $.#.$.i @ q @ q q x . b e E Y.c %.:.p.i.i # q p @ v ` + m 4 G ..G D Y U > 8 X.Y ^ j 3.*.u i q z.S.&.#.u h.",
"u i -.-.t.w i i $.#.t.t.#.#.u >.%.i w q e r e f E [ e p r ,.<.>.%.# r d & v E 2 F V T J D G : D L X.L h y y d i =.*.h.S.-.$.i i.",
"i @ #.. w @ u q u t.s.d.-.-.$.&.a 9.p p @ # @ % t [ Y.n $ ~.:.u u u a r . $ n 4 ^ }.; 3 F Y 8 K Y Y 2 j Q.q <.*.i.,.V.C.-.i # f.",
"i q -.. . q i u u $.;.d.s.i i :.%.,.r r r @ e % % Q Y.d p q.%.q u i d p . $ & b R 4 K > F H 8 Z L 4 h v U.e >.d -.,.V.C.p.u . j.",
"i q u . . @ i q q -.t.s.-.u u &.c.x.a p % r % e % R Y.I.p *.p u w >.$.@ e y @ & * 4 L L G : 3 L 9 ) y B 4.<.<.-.$.p.rXS.C.$.# j.",
";.;.i . . @ w q w i s.t.$.#.u i c.x.%.e a p 5.% $ E { H.r a r %.q p.<.# # e d * o * / F T 3 D G 4 ` j *.=.u i.=.$.i.rXrXj.-.@ 7X",
"u #.u . -.. u # w #.t.t.s.#.q i i.&.%.# @ a $ f l k ).g s r d q w a.i.a a s y c o o 1 1 Y T G ^ M K.8.d z.w h.,.h.p.h.h.h.#.$.y.",
"w ;.$.q w . $.w u $.t.;.#.t.-.&.:.a %.% e z % % f h ).b r r r @ @ a.$.p.i.N.s y * X & k 1 T Y ` v d y s i.w eXh.j.$.;.h.t.i #.u ",
"#.i u w ;.q @ u q #.;.;.$.t.u.&.# r 1.% 6.6.j f o 2 R Q r % e *.*.i.<.j.=.9.d $ y $ y k o 1 1 H.v 3.t S.p.q eXh.h.j.u ;.-.$.#.u ",
"$.#.u # # @ q u i #.d.t.u u.#.&.&.v P.z d x z l o l k h % e 8.9.b.=.,.,.p.n.p ,.* % h y o + 2 w.3.<.,.S.#.i.j.j.i.,X:.w q i u #.",
"i u y.@ -.# u i u -.d.;.t.i u %.a q p %.z o 3.g s l X o % f $ p =.<.q w j.q bXz.e d j c o & ` U.0.Z.<.C.i.V.<.p.-.j.@ &.u.u q #.",
"#.y.d.@ t.u w #.w ;.-.-.-.$.:.%.%.p r x r e a ! y l k 2 o o % r r <.a =.i.h.uXZ.=.d E.B * * e.*.4.V.N.uX%.>.i.w =.&.h.q @ t.;.# ",
"@ ;.#.#.$.$.w -.;.-.s.;.q -.u.:.&.p e 0.6.e % J.! l R V $ X o % * q.M.%.i tXnXC.Z.B.s Z.w.U.4.,.=.=.V.uXi.<.#.p.h.yX-.p.q q $.<X",
">Xd.i y.q t.;.t.-.d.#.;.$.#.u.u.:.a r 7.r d % J.l h < W ).Y.b x 6.B.m.*.i.yXh.,.nX/.E.e.e.e.=.N.y <.C.p.#.<.i.h.i.yXs.$.u u i d.",
";X$.y.d.d.d.t.y.;.-Xt.-.u $.#.i a r 0.a v x n $ E l , _.l J.n c 5.0.9.# n.tXC.p.rXS.r.=.B.v r.*.V.=.j.,.p.# @ -.j.<Xj.j.p.q w -.",
"-Xy.t.s.$.$.t.t.y.;.-.i #.#.%.:.,.a &.0.r e % l W 5 * _.$ l n 5.v 3.^.. =.i.i.j.,.z.N.E.r.,.=.b.N.,Xp.h.5X0Xj.i j.h.9Xy.:X-.w -.",
"4X$.$.t.$.$.-.t.;.t.y.;.#.$.i a x.c.0.6.G.F.c f t { 1 4 W { [ H.L.5.r.% @ *.<.=.l.rXbXW.B.9.A.p.uXwXi.i.hXj.hX4Xj.hXhX9Xt.-.,Xi ",
">X-.# u y.t.t.d.;.;.y.u ;.$.%.a %.x.2.L.G.e e e l 4 R V { { ~ I.F.3.y r.. a <.$.eX<.nXbX*.A.rX7Xh.eXi.eXcX=.<X<X<XhXhXaX<.s.y.d.",
"t.2X;.i y.d.iXy.t.y.:Xs.g.u.>.w r p d x I.I.g o X $ o ] Y ).[ Y.I.v v ^.% % =.h.wX<.rXBXd N.i.eXeXtXtXn.cX-.zX<.-.t.5XaX5X;Xy.i ",
"y.d.y.;.d.2XiXd.y.s.g.f.u.i %.q r r e 2.I.j j o o % 1 4 _.{ [ H.I.5.6.E.# d =.<.i.wXMXbX,.C.h.lXwXlXtXNXkXh.kXp.:.u 4X5X2XaX;X#.",
";X;X;.i t.-XiX2Xt.g.<Xs.:.u a &.a r r p 7.a c F.~ ~ { 5 > ] ).[ Y.P.G.=.E.9.<.r <.tXrXuXS.VXeXeXj.lXh.h.i.,X<Xt.t.y.aXsX;XsX-X;X",
"dX6X$.w $.-XpX-Xd.:X:Xg.>.u a a a p r d x r c F.k l E o V , { ! @XI.0.P.W.E.l.p p.tXi.=.uXMXzXh.<.kXh.cXh.h.h.j.-.s.aXsX2XaXd.2X",
";Xs.#.@ $.3X2Xd.d.>Xt.$.:.q j.>.%.@ 0.7.e z b Y.b [ { k 4 V W } Y.K.5.Q.E.B.4.<.yXtX<.A.NXDXzXkX<XcXlXaXi.i.;.-X$.$.s.xX-XaXy.y.",
"d.i $.. ;.2X3X;.;X>Xg.w &.:.b.:.2.0.c.7.z y H.Y.J.h { 1 1 3 4 W Y.` #XI.$XW.i.z.n.i.C.SXSXSXqXk.j.C.,Xj.q ,Xj.;Xy.w y.,XgX3X-.y.",
"d.$.;X@ u d.-.y.t.g.9Xi a.a m.:.:.2.q.0.5.3.f E l `  Xl R 3 , E Y.5.I.H.L.Q.E.S.=.a 9XSXDXDXSXxXk.p.#.j.u j.t.,Xh.1Xd.aXaXd.sXs.",
"2Xd.ZX# w $.d.-.-X>X<Xn.n.%.vXM.~.8.1.2.6.G.I.l Q ! [ o R 3 4 V ).[ 5.E.3.Z.W.B.d b.kXSXNXDXFXkXqXtX. $.i h.i.<Xs.t.4XfXy.fXfXd.",
"d.-XgX. #.q $.t.-X#.#.n.&.a m.i.%.9.q.1.P.0.~ Y.b l W k R R 3 ] 4 X o K.P.$XmX/.$ MXCXuXDXDXxXlX,X4Xi.;.i p.j.p.;X-.sXfXiX-XgXiX",
"ZX2XZX. y.t.d.-.-.;X0X,X7Xu.8XM.9.M.8.x L.R.I.T.b , k X W 5 3 W + l l n N GX^.^.$ MXVXzXcXyX4XxXi.u # #.u a.$.u 2X-XsXu ZX2XZXfX",
"fXd.ZX-.s.-.;.$.;.# f.n.# 8XvXM.8.3.8.a I.R.I.n 1 o k k C X V H 3 l 1 5.c #X^.^.*.bXCXuXzX,XcXqXlXi.@ t.q aX-.u d.4Xy.s.. s.fX3X",
"-X;XgXd.d.y.d.;.;.g.u.n.&.7Xm.m.c.%.0.8.v I.F.o $ o h { V > > V 3 l $ ` r.#X$X$X$ Z.C.j.eXp.4XlXjX<X;.;.w xX#.w t.t.;.d.s.u -X-X",
"d.iXgX3X3Xy.s.t.$.:Xi n.&.8XmXbX!.8.1.v c 5.$ o * 4 % 4 = = > C 3 3 4 ` r.U.$XQ.*.rXh.j.j.C.kXqX5XxX4X;.q -.$.-.;.d.d.d.t.t.;.2X",
"y.ZX;XiXAX2Xy.;.#.u.u g.h.mX8XmX!.q.3.P.%.5.J.2 n o X W 4 ; + > + 1 W 2 5.L.Q.!.r S.<.h.,Xj.sXyXxX,XkXj.#.#.i # s.;.t.d.;Xs.y.ZX",
"-X3X;XiX3X$.-.y.w -.>.u.nXnX8XmXmXc.x.0.6.6.n < f $ & 4 1 > 3 > 3 = 4 o n x Q.E.e z.m.h.i.j.<Xj.aX5X4Xh.# ;.w q s.t.s.y.i t.;XiX",
"-Xy.2XZXs.s.t.g.@ >.g.&.n.7XvX~.!.m.x.4.n t o % o o l , X 4 = > 1 3 4 , t % I.L.% ,.p.7Xj.;.h.y.h.y.h.s.w ;.# # s.t.-X$.t.$.2Xd.",
"$.d.2XAXpX-.;Xu $.s.f.g.8XnXm.!.l.8.x.4.4.2.% % $ < X o $ = o X , o , = j j L.P.s p ,.j.<X,Xj.-.t.p.s.q $.;.@ q t.u s.;.2Xs.t.-.",
"i ;XiXAXgX;Xt.q d.jXg.7Xb.m.u.vXz.9.x.0.x.L.e e o . X o = = o o o 5 k o l y K.I.B.8.b.n.j.<Xp.t.s.j.t.. s.d.# # -.i t.d.-.;Xw ;X",
"q ;XgXpXy.t.w y.aX6X4X7X0X0Xb.c.b.>.8.4.c r 3.$ c X < * 4 , o o o 2 2 X E l J.K.4.p i.$.$.i.h.;.;.y.;.y.t.;X# i $.$.u u $.;.u d.",
"w ;.pX;XgX;Xu s.-X2Xd.6Xg.$.g.n.%.z.&.2.e . v z o f j l k R $ o o o $ t % h ! K.,.,.a u -.$.y.t.t.t.s.-.y.;Xw y.t.t.q y.;.;.u t.",
"y.t.;Xy.d.#.y.-Xy.y.-X$.d.g.t.#.$.:.a w q % p y e t l 2 % E k & o $ % E Q j ~ 7.p &.# u u u h.s.s.-.y.i w ;X# y.d.s.w w # -.$.s.",
"$.t.-.d.d.w #.t.y.y.;.;.s.t.$.$.i &.&.w w 1.a e % r e y W r % E % g % r j e ` h a @ @ w # q t.t.-X-.-.q d.y.#.s.-Xs.t.#.w u i u ",
"t.-.y.t.$.t.$.;.-.s.d.>.y.-.t.$.u -.w u u q q 1.c j l Q b l % Q o ! ! % . . j   o . . w # w t.y.d.t.i t.$.y.-.$.s.s.u *.t.# i -.",
"-.i ;.$.$.t.$.u i p.S.MXCXn.t.$.i #.$.&.#.q q %.@ s r ~ . b r e p n z % . # I.T.+XE 2 h . u -.-.d.:.$.y.h.-.U.@X@X@X%XT.t.;.;.#.",
"q . q . . e i.rXuXVXNXnXCXzXcXrXC.eXn.:.#.q @ q @ e b ! p q r 2.G.!.mXmXHXHXGXGX*XGX*X*XKX&XPX&XJXJX[.oXoX&XoXoX@X@X).} Y.T.s ;."
};
