/* XPM */
static char *result[] = {
/* columns rows colors chars-per-pixel */
"64 64 255 2 ",
"   c #000000",
".  c #090000",
"X  c #020901",
"o  c #090900",
"O  c #000808",
"+  c #090A08",
"@  c #110100",
"#  c #190100",
"$  c #120901",
"%  c #190801",
"&  c #110A08",
"*  c #190A08",
"=  c #0B1004",
"-  c #011109",
";  c #081108",
":  c #0A1A0A",
">  c #091505",
",  c #111102",
"<  c #1B1303",
"1  c #111109",
"2  c #191108",
"3  c #111909",
"4  c #191808",
"5  c #1E1E07",
"6  c #001810",
"7  c #091910",
"8  c #111A10",
"9  c #191911",
"0  c #181010",
"q  c #220100",
"w  c #2A0100",
"e  c #220901",
"r  c #2A0901",
"t  c #210A08",
"y  c #2A0A08",
"u  c #320000",
"i  c #3A0100",
"p  c #330901",
"a  c #3A0901",
"s  c #310808",
"d  c #3A0908",
"f  c #221001",
"g  c #291000",
"h  c #221109",
"j  c #2A1109",
"k  c #221809",
"l  c #2A1808",
"z  c #331001",
"x  c #391001",
"c  c #321109",
"v  c #391108",
"b  c #311809",
"n  c #3A1908",
"m  c #221910",
"M  c #2A1911",
"N  c #291010",
"B  c #391910",
"V  c #19230B",
"C  c #12210A",
"Z  c #092211",
"A  c #082A19",
"S  c #082615",
"D  c #112211",
"F  c #1A2211",
"G  c #122B12",
"H  c #182912",
"J  c #102218",
"K  c #102A19",
"L  c #192A18",
"P  c #1A2518",
"I  c #09321C",
"U  c #113219",
"Y  c #193219",
"T  c #11391B",
"R  c #193717",
"E  c #212108",
"W  c #292108",
"Q  c #2A2C0C",
"!  c #312108",
"~  c #392209",
"^  c #3B2D0C",
"/  c #212211",
"(  c #2A2312",
")  c #222218",
"_  c #212918",
"`  c #292918",
"'  c #252813",
"]  c #312911",
"[  c #362613",
"{  c #213219",
"}  c #283516",
"|  c #3A3211",
" . c #323A11",
".. c #3B3B13",
"X. c #343215",
"o. c #083821",
"O. c #113321",
"+. c #123B22",
"@. c #193921",
"#. c #1A3322",
"$. c #182F21",
"%. c #293921",
"&. c #243421",
"*. c #313521",
"=. c #420000",
"-. c #4A0000",
";. c #430901",
":. c #4A0800",
">. c #430908",
",. c #4A0908",
"<. c #520101",
"1. c #5A0000",
"2. c #520800",
"3. c #5A0902",
"4. c #520808",
"5. c #5B0908",
"6. c #4C1305",
"7. c #431109",
"8. c #4B1208",
"9. c #431809",
"0. c #4A1908",
"q. c #431303",
"w. c #531208",
"e. c #5A1108",
"r. c #531808",
"t. c #5C1908",
"y. c #421910",
"u. c #4B1712",
"i. c #561710",
"p. c #630000",
"a. c #6B0000",
"s. c #630801",
"d. c #630808",
"f. c #6C0808",
"g. c #680503",
"h. c #730100",
"j. c #7B0000",
"k. c #720801",
"l. c #7C0800",
"z. c #730908",
"x. c #7C0908",
"c. c #730308",
"v. c #631209",
"b. c #6B1008",
"n. c #641908",
"m. c #6A1908",
"M. c #731009",
"N. c #7B1009",
"B. c #771908",
"V. c #6B1110",
"C. c #641912",
"Z. c #731010",
"A. c #7B1010",
"S. c #7B1811",
"D. c #7B1818",
"F. c #731C12",
"G. c #7F0910",
"H. c #442309",
"J. c #57230C",
"K. c #422210",
"L. c #432A11",
"P. c #4A2612",
"I. c #542210",
"U. c #5B2211",
"Y. c #522A10",
"T. c #562518",
"R. c #463515",
"E. c #573514",
"W. c #59300F",
"Q. c #672717",
"!. c #782515",
"~. c #693218",
"^. c #7B3312",
"/. c #752209",
"(. c #793321",
"). c #7B2921",
"_. c #4A3921",
"`. c #364318",
"'. c #254418",
"]. c #114221",
"[. c #104A29",
"{. c #164527",
"}. c #195735",
"|. c #0D4F2E",
" X c #244327",
".X c #265331",
"XX c #2F4C23",
"oX c #106639",
"OX c #216339",
"+X c #306F2B",
"@X c #18461F",
"#X c #524218",
"$X c #485225",
"%X c #664521",
"&X c #7B4424",
"*X c #6B5A31",
"=X c #4A7729",
"-X c #7B7729",
";X c #137347",
":X c #0F6F46",
">X c #830000",
",X c #8C0100",
"<X c #840800",
"1X c #8D0800",
"2X c #840909",
"3X c #8B0909",
"4X c #840008",
"5X c #940000",
"6X c #9D0000",
"7X c #930A09",
"8X c #9B0A09",
"9X c #970800",
"0X c #851209",
"qX c #89180A",
"wX c #9C1009",
"eX c #941008",
"rX c #9C0810",
"tX c #8C1010",
"yX c #881614",
"uX c #9C1111",
"iX c #971714",
"pX c #A40000",
"aX c #AC0100",
"sX c #A40909",
"dX c #AC0A09",
"fX c #A40902",
"gX c #BD0808",
"hX c #B60403",
"jX c #A51009",
"kX c #AD1008",
"lX c #A51111",
"zX c #AD1211",
"xX c #A91A16",
"cX c #B51010",
"vX c #B81917",
"bX c #85230C",
"nX c #862414",
"mX c #972516",
"MX c #8A3511",
"NX c #B2211B",
"BX c #8C2D21",
"VX c #AA2421",
"CX c #B42420",
"ZX c #CA0807",
"AX c #D30E0D",
"SX c #C62423",
"DX c #D92A28",
"FX c #D51515",
"GX c #8E712D",
"HX c #985218",
"JX c #399C39",
"KX c #728634",
"LX c #4A8C39",
"PX c #108856",
"IX c #5A9C42",
/* pixels */
"o * o 9 / 9 9 9 3 9 XX1 Z D 8 +.;X{.A I }.PX:XoXoXoX:X:X|.:Xo.A A o.6 - O     S Z Z A T 7 A ].Z : Z #.{.K  X XL L F 4 } ` &.h j ",
"o o * & o / 9 m P _ #..X.XOX{.U 6 ; {.+.oX[.7 6 |.Z o.6 7 6 6 |.o.o.6 - O     6 - - - 6 K J 7 7 + - J 8 {  X X3 3 9 m } / ` *.] ",
"l l t l ] m 9 ` ` m + O O O Z K O K G K S A I 7 - - 6 A A o.A Z o.I 7 S -     Z 7 7 7 O.S 7 8 J + 8 8 O + O O : XX%.m / %.F ` * ",
". 5 l M 2 2 2 1 & + X : D O D 8 7 A L D 7 + - 7 K o.;XPXS [.|.A 6 o.6 - -       Z 7 A T > > Z ; D 8 8 ; O 9 3 O O X 9 ` _ X.h h ",
"* b l h h + + 2 1 + 8 P { 8 L : 3 3 ; 7 D U 7 P : [.$.:X+.A K [.[.|.- Z 7 7     - 7 + ; : D D ; L .X.XY &.) 9 ; + o 3 4 & / h 1 ",
"s e t y y j l * ( *.9 ) ( F ; 1 F 8 J #.K @.{.:X+.I ;X7 }.K U 7 ].K : - O -       8 : ; 8 F D F D { 9 9 ) m 9 3 1 + * & 2 k M [ ",
"  o B t t l m * m M m %.` 2 4 8 _ 3 L R L 8  X.XO.OX;X}.[.+.J o.Z Y Z : + ; ;     ; + 3 8 &.9 _ P F &.m 9 1 m * * < * + 2 1 h h ",
"% y * t * t * h ( m m 9 m M ` %.{ _ J P { #.&..X.X}..XoX}.@.{.J J O.{.K Y Y 7     . Z D P 9 9 9 4 9 / ` M ] 2 9 * M & * h y % $ ",
". # % $ % t M 2 h h * m ` 2 2 ; 9 0 m %.%.{ .XL L Y &.L  X{.J 8 D 8 D K L L         9 $.9 1 1 & 1 2 2 2 m 2 X.( M M t N l c j % ",
". @ @ @ % y j y t * l h * 2 2 M 9 ` _ 9 _ m 9 3 L P 8 { J L P 8 9 7 &.R 8         3 3 D : S 8 1 M 2 h 2 * 0 * * h b M t t j v e ",
"@ . . . e q y y e % * s % * j h h l ( m k 4 2 0 9 9 7 9 { P F 1 9 2 L P       X ; ; + D +.].U +.2 * * h l N l b B B n n B v c v ",
". # w # y s y e e r e * % * h h h h 2 2 M 9 ` 9 9 _ X 1 { F 3 & ( 2 { 9     o X 1 1 + ; T +.A +.A * 2 h h v b y s v y c y.9.7.8.",
"# q u a r q r q q q e e $ e t % l j h l b ( 2 * & + + + + 2 % % ( l _ '       X ; ; O > Z U U U D D 3 h c j d p y r s r a d ,.,.",
"=.=.w w w w u a p p d v v % % t y t y l 2 * * $ @ # q @ . a d h X.' F { o     X 1 + ; + : G +.Z +.D 7 3 e v y p p q u w =.i =.i ",
"=.i u -.i w i w w w a p v >.y r s s h . . . @ @ @ . u w @ p # s X.X._ } +       1 X ; D D U ].U [.8 8 & 3 * u u ;.:.w i i w . -.",
"=.u # =.w i q # u =.i w =.a.u u @ q @   . . @ . . . i w q ,.a % y.*.( } 1 o     1 3 Y Z D T [.D [.K 8 1 + o X . w w q . w . i 1.",
"3.2.s.2.3.i -.i u -.p.<.=.-.=.i # i w . . @ @ % . # # w 2.w ;.d s _.[ %.L +     : Y L 8 U [.].; U D ; > X X X o w . @ . @ w u w ",
":.x.2.w q 1.-.-.i -.<.-.i -.q # -.w i . w e e % p # # w -.4.w d ,.y.[ / } o     1 {.; Y U 7 ].3 U D 3 ; + X o o u =.w -.q w . # ",
"s.a =.w w -.=.<.=.u -.=.p.u . w w :.i . # p d g e d r.u 5.i 3.4.d i.P.X.XX1     1 {.H R T > }.= Y D H 8 9 & o y d >.5.,.i a . . ",
"q 1.<.1.w i 1.-.-.1.<.=.<.-.-.-.w i :.% p % r r e n % w.V.M.-.    w.,.K.] %.    = .XH T G T {.Z @XZ H F _ * 9.s ,.4.4.D.i w q i ",
"i p.p.1.-.=.1.a.-.1.-.-.=.u i w i i a a p e r r f ~ H.t.3.M.i       Q.P._.M     3 @XT R K {.U : K @.3 L 2 h d >.w i d.D.d q -.-.",
"<.p.a.1.<.=.a.a.a.p.i -.=.-.i . w . q w x . b e W L.c ;.2.f.5.        . n [     4 H {.J D Y U > 3 @.Y / j >.>.s i # b.D.:.=.i M.",
"i i -.<.p.w i i =.=.p.p.=.=.u 3.i i u % e r e g W R.% p r 4.5.3.=.      . n     F V Y D D G : Z L #.Y h y y d ;.,.>.z.D.<.-.i d.",
"i @ i . w @ u w i p.h.j.<.-.-.:.a e.w a . % @ % e | R.n * /.2.u s         %       {.> 3 P Y 3 K Y Y * j ~.w 4.=.s.5.Z.A.<.i # k.",
"i q <.. . q i w i =.p.j.a.i i 2.:.w.r r r % e @ % ! R.v p t.;.q i i ;.              K ; F H 7 D L 1 h v Q.% 5.d 4.4.Z.D.f.i . z.",
"i q i . . @ i q q <.p.h.<.i i :.m.n.a a % r % e % W R.P.r ,.p i w 3.                H H G : : P 9 ] y B 7.e.d.<.-.f.yXD.yX-.@ x.",
"1.1.i . @ @ w                   m.n.;.e i z 9.% o W ..~ r a w ;.q f.      e v * o * ( ' T 3 D G 4 [ h 7.,.u d.>.-.d.yXyXx.-.@ 0X",
"u =.w .                         d.:.:.@ @ a $ f l l `.g s r d q w d.    a s y s o o = 1 { R G ' [ P.w.d f.w z.4.f.f.z.z.z.-.-.a.",
"u 1.-.q         u -.p.1.=.p.<.:.2.a a e e z % % f h `.b r r r @ # d.    v.V.d y * o & < 1 R Y ] s d y s d.w tXf.x.i 1.z.p.i =.u ",
"i i u           w =.1.1.-.p.s.2.@ r q.% 0.0.j f o h E ! r % r d >.d.    ,.5.d o y o y h o ; 1 K.v 7.t D.f.w tXz.z.x.i 1.<.<.=.u ",
"-.        .     i =.j.p.w s.-.:.:.v U.x v x z l o l k h % e w.e.M.      f.N.p 4.t * t j o + 2 9.7.5.4.D.=.d.x.2Xd.2X3.w q i w -.",
"        <.#       <.          ;.a q p ;.r $ 7.g y l X $ % h $ p ,.    u x.# nXb.e v j s o 1 [ T.i.F.5.A.d.Z.5.f.<.x.. :.s.u w i ",
"    j.@ p.u w                 ;.;.p r q.r e a ~ y l k 2 o o $ r p     ,.d.z.mXS.,.d Q.B * * u.y.,.Z.V.iX;.5.s.w >.2.z.q @ p.1.# ",
"# 1.=.i -.-.          1.w       :.p q r.0.% e L.~ l E E o o           ;.i tXiXA.F.C.s !.y.T.7.5.,.,.D.iXd.5.=.f.c.uX<.f.q q -.3X",
"1Xj.i a.w p.    <.j.=.1.=.=.      a y q.r 7.% L.l                   B.>.d.uXM.4.BXD.Q.u.u.u.,.V.y 5.A.f.=.5.d.z.d.uXk.-.u w i j.",
",X=.a.j.j.j.p.h.1.>Xp.<.i -.=.    e r.p v x                       r.e.# N.uXA.f.yXD.C.w.i.v e.,.Z.,.x.4.f.@ * <.x.3Xx.x.f.q w <.",
">Xa.p.h.-.-.p.p.a.1.<.i =.=.:.      6.r.r %         2 '.= l n     7.(.@ ,.d.d.x.4.f.C.C.u.w.,.z.V.2Xf.z.wXeXx.i x.z.wXa.<X<.u <.",
"7X-.-.p.-.-.<.p.1.p.a.1.=.-.i a     r.0.J.      h X.& 4 Q ..^       i.$ @ >.5.,.v.yXnX!.C.e.S.f.uXyXd.d.jXx.jX7Xx.jXjXwXp.<.2Xi ",
"1X-.# i p.p.p.j.1.1.a.u 3.-.=.a                 l < E V }  .L.Y.      i.. a 5.-.tX5.mXnX,.S.yXtXf.tXd.tXxX,.3X3X3XjXjXsX5.h.a.j.",
"p.5X1.i a.j.pXa.p.a.<Xk.l.s.3.w                 o o X  .R `.| R.Y.        % ,.z.D.5.iXBXd     tX0XuXuXM.vX1.vX<.-.p.8XsX8X,Xa.i ",
"a.j.h.    5XpX>Xa.h.l.k.g.i ;.e r e e 8.Y.      o $ 2 4 '. .| K.Y.9.            d.yXxXyX        2XzXrXCXlXz.lXf.2.u 8X8X5XsX,X=.",
",X,X      j.aX,X1.l.7Xk.<.u i :.i r r p q.  X H.^ ^ `.< > } `.^ R.U.I.8.          tXyXX           zXz.z.d.x.3Xp.p.h.8XdX,XdX>X,X",
"fX        >XaX>Xj.<X<Xl.3.u a p a p r d x     L.k l W o V 4  .~ $XY.w.J.!.Q.v.              xX      z.vXz.z.z.2X<.h.sXdX5XsXj.5X",
"          6X5Xj.j.1Xp.-.2.q x.3.;.% t.9.e     R.b |  .k 4 V E `.R.P.y.~.Q.n.8.          CXDXxX.     zXsXd.d.1.>X-.-.h.cX>XsXa.a.",
"    -.    5X6X1.,X1Xl.w :.2.M.2.w.r.n.        R.L.% .., $ 3 4 Q R.L.%XY.&X!.d.b.    A.SXSXSXrXz.      x.q 2Xz.,Xg.w a.2XhX6X<.a.",
"  -.,X    j.<.a.p.l.wXi g.a         X       . W l ] XXl E 3 3 W `.n Y.~ i.~.Q.S.    wXSXDXDXvXcXf.      u z.p.3Xc.4Xj.sXsXj.dXh.",
"5Xj.            >X1X3XN.X               0.J.P.l ! ~ | o E 3 4 E `.R.9.Q.7./.!.C.    xXSXSXDXFXlXrX      i z.d.3Xh.p.7XgXa.gXgXj.",
"j.>X              =.=.N.      d.;.e.t.8.J.r.^ R.b l X.k E V 3 } 2 o o P.U.&XBX(.    CXiXDXDXzXzX2X7X    i f.x.z.,X<.dXgXpX>XhXpX",
"ZX5XZX    p.j.      3XX     qXm.e.m.4.x U.W.Y.E.b , k o Q E 3 Q 1 l l n c GX(.(.    VXxXvXuX7XcXd.u       g.-.u 3X>XdXu gX5XZXZX",
"gXj.ZX    <.1.            qXbXB.w.7.t.p Y.W.Y.n , o h 5 C X V H 3 j 1 9.N %X(.(.    CXxXlXyXcXrXzXd.#     sX<.i j.7Xa.h.@ h.gX9X",
">X,XaX    a.j.<.1.        N.0XB.m.>.6.r.v Y.H.o $ o h  .V X > F : l , ] i.%X&X&X    A.x.tXf.7XzXdX3X1.1.w cX=.w p.p.1.j.h.i >X>X",
"j.pXhXpXpXa.h.p.-.<X      qXMXnX^.w.6.v c 9.% X 2 < , 4 = > > C 3 1 k [ u.U.&X~.    z.x.x.A.lXrXwXcX3X1.q <.-.-.1.j.j.j.1.p.1.,X",
"a.ZX,XpXAX5Xa.1.-.s.    M.mXbXMX^.n.7.U.7.9.L.2 n $ o } 4 > o : + 3 Q * 9.J.~.^.    5.z.2Xx.zXuXcX2XlXx.i -.i # h.1.p.j.,Xh.a.ZX",
">X5X,XpX6X-.<.a.w -.    mXmXB.MXMXm.n.r.0.q.n 2 h o & 4 1 X 3 ; 3 = 4 $ n v ~.Q.    S.z.d.x.>X2XdX8X8Xc.# <.u # a.a.h.a.i a.,X6X",
">Xa.5XZXh.j.p.l.@ 3.    M.qXbXB.!./.n.0.v e o % o o g 1 o , = = 1 : 3 , h % U.I.    f.0Xx.1.z.g.c.g.c.h.w 1.# # h.p.>X-.p.-.5Xj.",
"-.j.5XAXaX<.>Xi -.k.      mXbXbXn.3.n.w.7.0.% % $ < X o = , = X , o , , j y P.U.        3X2Xx.<.p.f.k.q -.1.@ w p.u h.1.5Xh.p.<.",
"=.>XpXAXhX9Xp.# j.dX      B.g.bXb.e.n.t.n.I.r e o o X o $ = o o o 5 V o l c P.Y.        x.7Xf.p.h.x.p.. h.j.# # <.i p.j.<.,Xw ,X",
"q ,XhXaXa.p.w a.fX1XeX      M.b.M.e.r.7.d r 7.$ c X % 2 4 = o o o 2 2 o W y L.P.8.p     -.s.z.1.1.a.1.a.p.,X# i -.-.u u -.1.u j.",
"w 1.aX,XaX,Xu j.>X5Xj.9X    l.N.;.f.;.6.% . v z o f j l k E , o o o o t < t ~ P.w.4.      -.a.p.p.p.h.<.a.>Xw a.p.p.q a.1.1.u p.",
"a.p.,Xa.j.-.a.j.h.a.>X-.      ;.-.2.a w q % p j e t l < % W k & o % % W ! j ^ 9.p ;.#     u z.h.h.<.a.i w ,Xq a.j.h.w w # <.-.h.",
"-.p.<.j.j.w =.p.a.a.1.1.      -.i :.:.u w 6.a % % r e j Q g % b % g % r j e ^ * a @ @     # p.p.<X<.<.q j.a.=.h.>Xh.p.=.w u i u ",
"p.<.a.p.<.p.-.1.<.h.j.1.    p.-.u <.w u w q q q.d h l ! b l % W o ~ ~ % . . j   . . .     w p.a.j.p.i p.-.a.<.-.h.h.s -.p.# i <.",
"<.=.<.-.-.p.-.s i f.S.VX    p.-.i i -.:.=.q w ;.@ c r ^ . b r e r n z e . # Y.E.#XW 2 % . i -.<.j.<.-.a.k.<.T.$X$X$X*XE.p.1.1.=.",
"q . q . . q d.yXiXVXNX      SXyXN.tXx.3.=.q @ q @ e l 9.p q r 0.r.MXMXMXHXHXGXGX-XGX-XKXKX=XIX=XLXJX}.+X+X=X+X+X$X$X`.} R.E.d 1."
};
