/* XPM */
static char *result[] = {
/* columns rows colors chars-per-pixel */
"64 64 243 2 ",
"   c black",
".  c #000800",
"X  c #000808",
"o  c gray3",
"O  c #000008",
"+  c #001008",
"@  c #081008",
"#  c #001808",
"$  c #081808",
"%  c #000515",
"&  c #001010",
"*  c #081010",
"=  c #001810",
"-  c #081810",
";  c #001818",
":  c #001018",
">  c #101810",
",  c #101818",
"<  c #101018",
"1  c #002108",
"2  c #082108",
"3  c #102408",
"4  c #002110",
"5  c #082110",
"6  c #002910",
"7  c #082910",
"8  c #002118",
"9  c #082118",
"0  c #002918",
"q  c #082918",
"w  c #102110",
"e  c #102910",
"r  c #182910",
"t  c #102118",
"y  c #182118",
"u  c #102918",
"i  c #182918",
"p  c #182110",
"a  c #083110",
"s  c #083118",
"d  c #083918",
"f  c #033514",
"g  c #103110",
"h  c #183110",
"j  c #103910",
"k  c #183910",
"l  c #103118",
"z  c #183118",
"x  c #103918",
"c  c #183918",
"v  c #213118",
"b  c #213918",
"n  c #213610",
"m  c #001021",
"M  c #082921",
"N  c #002521",
"B  c #142521",
"V  c #083121",
"C  c #083921",
"Z  c #103921",
"A  c #183921",
"S  c #153121",
"D  c #213121",
"F  c #213921",
"G  c #293921",
"H  c #293929",
"J  c #212921",
"K  c #084516",
"L  c #104218",
"P  c #184218",
"I  c #104A18",
"U  c #085218",
"Y  c #085614",
"T  c #105618",
"R  c #214218",
"E  c #294218",
"W  c #214A18",
"Q  c #294A18",
"!  c #214210",
"~  c #295218",
"^  c #215218",
"/  c #084721",
"(  c #104221",
")  c #184221",
"_  c #184A21",
"`  c #104229",
"'  c #184229",
"]  c #184A29",
"[  c #085221",
"{  c #105221",
"}  c #105A21",
"|  c #185A29",
" . c #165426",
".. c #185A31",
"X. c #214221",
"o. c #294221",
"O. c #214A21",
"+. c #294A21",
"@. c #214A29",
"#. c #294A29",
"$. c #254229",
"%. c #314A29",
"&. c #334826",
"*. c #215221",
"=. c #295221",
"-. c #295A21",
";. c #215229",
":. c #295229",
">. c #215A29",
",. c #295A29",
"<. c #215A21",
"1. c #315221",
"2. c #315A21",
"3. c #315229",
"4. c #315A29",
"5. c #395A29",
"6. c #395724",
"7. c #295231",
"8. c #265A34",
"9. c #315231",
"0. c #315A31",
"q. c #395A31",
"w. c #314A31",
"e. c #186329",
"r. c #106321",
"t. c #186331",
"y. c #156831",
"u. c #187331",
"i. c #296321",
"p. c #216329",
"a. c #296329",
"s. c #296B29",
"d. c #216B29",
"f. c #396321",
"g. c #316329",
"h. c #396329",
"j. c #316B29",
"k. c #396B29",
"l. c #366821",
"z. c #377527",
"x. c #296331",
"c. c #296B31",
"v. c #266936",
"b. c #316331",
"n. c #396331",
"m. c #316B31",
"M. c #396B31",
"N. c #366539",
"B. c #297331",
"V. c #297339",
"C. c #257735",
"Z. c #317331",
"A. c #397331",
"S. c #397B31",
"D. c #317339",
"F. c #397339",
"G. c #317B39",
"H. c #397B39",
"J. c #317B31",
"K. c #425A31",
"L. c #426331",
"P. c #426B31",
"I. c #4A6B39",
"U. c #427B31",
"Y. c #427339",
"T. c #427B39",
"R. c #4A7B39",
"E. c #477435",
"W. c #527939",
"Q. c #426329",
"!. c #366642",
"~. c #377B42",
"^. c #297B42",
"/. c #446B42",
"(. c #427342",
"). c #4A7342",
"_. c #4A7B42",
"`. c #4A7B4A",
"'. c #527B42",
"]. c #527B4A",
"[. c #5A7B52",
"{. c #398439",
"}. c #378634",
"|. c #428439",
" X c #4A8439",
".X c #428C39",
"XX c #4A8C39",
"oX c #458431",
"OX c #4A9439",
"+X c #4A9C39",
"@X c #528C39",
"#X c #398442",
"$X c #398C42",
"%X c #39884A",
"&X c #399448",
"*X c #428442",
"=X c #428C42",
"-X c #4A8C42",
";X c #428C4A",
":X c #4A8442",
">X c #598647",
",X c #429442",
"<X c #4A9442",
"1X c #4A9C42",
"2X c #42944A",
"3X c #4A944A",
"4X c #429C4A",
"5X c #4A9C4A",
"6X c #429C42",
"7X c #529C42",
"8X c #529C4A",
"9X c #529442",
"0X c #578752",
"qX c #439B52",
"wX c #638C54",
"eX c #679557",
"rX c #4AA54A",
"tX c #4AAD4A",
"yX c #52A54A",
"uX c #52AD4A",
"iX c #52A542",
"pX c #4AA552",
"aX c #4AAD52",
"sX c #4AA55A",
"dX c #4AAD5A",
"fX c #42A557",
"gX c #52AD52",
"hX c #55AA55",
"jX c #52B552",
"kX c #52B55A",
"lX c #5ABD5A",
"zX c #57B957",
"xX c #73A55A",
"cX c #6B9C63",
"vX c #739C63",
"bX c #56B963",
"nX c #73A56B",
"mX c #5AC65A",
"MX c #5AC663",
"NX c #58CC67",
"BX c #63CE63",
"VX c #84B573",
"CX c #A5C68C",
/* pixels */
"].9.z e w 5 + + 6 w c ,.*.h c b O.b R R ,.R W g.A.k.U.z.q.4.|..X5XY. XU.1.v R 2.P g.pX,XA.{.H.Z.:.=.O.P c *.b 5 + + + - w e r 9.",
"+.o.r > e 5 - s # 5 e O.=.O.c O.=.c c O.m.g.Q Q 2XA.f.+..XT.<XrXuX.X<X.XU.-.b A.dXmX|.=XH.m.#Xi O.R R c e W c e X s - 5 e > e o.",
"P.4.3.#.c - ` # X l R c O.a.z R O.b R c R qX{.4.=.=X.XT.U.5X<XgXgX.X<XXX|..X.XdXdXjXS.M.2X=.G.m.=.R R 3 W c c e X # ` - c #.h 3.",
">X].:.e w S l X X 7 h e a.a.,.h R R b O.=.2XfX=X1.aX3XU.jXbXbXlXgXXX-X|..X.XbX5XaX=X=XH.,.R =.$Xg.h R x.,.B.e 2 X X l ) w e g ].",
"=.O.i w X.8.+ X X 5 h R x.>.a.,.r b b ,.,.:.=.=.+.|.,XXXjXMXbXjXgX<X<X<X=X5XpXrX=X2X=.=.=.g.g.#Xa.,.X.X.O.h g l + X + ' $.e r O.",
"v c F F 7.;.X X   5 X.r P c.,.a.R z O.O.=.O.=.=.=.T.=Xf.jXjXlXgXrX1X-X<X=X5XpX<X5X2Xb +.=.g.g.H.a.,.:.c c h h e X . X l 7.F F c ",
"cX0X(.F l - + X   e g h c ,.x.G.b.X.=.,.+.c b 4.4.|.=XbXNXjXbXjXrXrX<X<X5X-X-X,X5X3X=X2Xm.Z.=.=.a.a.,.x.O.2 >.l   X X * g O.(.0X",
"'.P.,.u * t X X = x X.c c a.G.D.g.,.R =.g.m.g.g.4.b.g.=XA.rX+X1X<X<X5X.X5X.XA.=XA.h.g.H.{.;X$X#Xg.,.x.:.R R ,.( 4 X X - * q +.P.",
"4.X.r > > w @ 5 = u O.O.a.a.G.Z.m.g.#Xm.R R +.A.R 4.4.6..XM.U.<XrX X3X.XoX.X.XM.4.k.=.g.-.c c R O.R R X.b X.a.X X 5 $ $ > > i $.",
"3.D +./.F l u +   X X.O.a.,.a.,.a.Z.#XH.m.R M.M.=.+.E 1.5.n.U.<X<XU.<XU.k.|.U.~ |.Z.=.g.g.=.b c O.c z h e *.,.X   X l l F (.+.D ",
"n.).N.0.X.5 + X X X *.*.x.:.,.a.a.m.Z.Z.S.A.S.{.+.=.g.1.z.U.U.OX5X5X|.n.n.-XyX4.,XA.=.=.g.R b R X.R R c O.:.c X X X + - X.0.%.).",
"P.+.y > > - - X X + X.b O.O.,.D.#Xa.g.Z.g.H..X{.+.+.+.n.+XtXXXXX<XXX.Xn.T.l.k.|.,XA.b R =.+.+.O.:.! R R ,.:.c + X X - l > > t +.",
"F i i i > @ ' - X # k c c W O.=.x.%Xm.+.=.F.{.A.A.b +.2.yXkX<X5X5XgX5X5X.X+.1.M.3X2.H.#X2XR R R :.O.h ,.O.O.z # X - ' w > i y i ",
"F G v i t @ g 5 X # g c X.R =.Q ,.m.D.,.+.A.A.S.A.=.b +.yXrXyX5XyXuXXXyXU.<XT.3X=.=..XqXF.R R R =.c h a.O.O.O.# X 5 g * t i S G ",
"n.M.G 0.u w @ V 4 + k c X.@.Q =.O.a.c ,.:.3.b.A.|.|.S.4. X1XgXjXgXMXbXlXrXoXU.hXg.H.sX=Xg.,.b R R b -.a.a.h c + X V @ @ t 0.i M.",
"2.N.M.N.w t @ X = q c c X.+.W :.~ c 3.+.+.g.M.H.,X<X<Xh.A.rX5XuXjXjXMXMXuX<XXX|.+.g.=.,.4.,.b =.h a.a.a.x.h e q 4 X @ $ w N.,.N.",
"4.g.=.*.O.5 * + X + e g R :.=.g.k -.m.g.g.H.#XH.|.|.<XpX6.+XuX1XkXjXzXgXNXhX5X|.2.4.+.+.=.=.=.z ,.m.a.a.c c X.+ = + * $ O.*.,.g.",
"P.cX>XO.) - X + X + e e R ,.,.j.Z.,.Z.Z.4.g.m.{.A.|..XT.1XrXhXjXyX1XuXyX1XrX<XT.g.M.g.4.+.O.k +.b.G.Z.c.e g z + X + o + ) O.k.cX",
"R.0XT.O._ * - 1 X X k k c z -.&Xb.m.R m.b +.=.*X=XT.qXpX5XyXyXuXhXOX X|.XXh.|.4.Q M.+.,.g.m.H.Z.m.Z.G.a.a.,.O.X X 1 - * _ O.b.0X",
"P._.Y.m.c w x 7 7 = c c c.v.Z.m.Z.,.h j.,.=XsXqXpXrX<X5XrXrXuXlXgXOX|.P.1.E 1.4.+.4.g.b R {.#XH.g.j.c.a.a.a.X.= + 7 x !.c M.(._.",
"4.wXY.g.l @.$ $ 4 = c O.c.D.Z.a.D.,.O.Z.=.qXsX4XdXbX1X5XyXhXzXhXgXOX|.P.h.1.1.=.=.4.A.R b.H.#X~.g.,.a.,.a.,.O.= + $ $ 8.l g._.0X",
"#.+.a.O.,.u + + X 4 ^.c.s.c.=.c *.m.m.H.=.=.2.g.U.kXsXtX5XlXuXzXlX<XoXXXk.1.5.1.+.S.}.A.S.S.S.D.j.x.,.:.x.a.O.4 + + + 5 ,.O.*.O.",
"eXwX(.b.P 5 - X = X c.a.a.O.O.,.=.b D.a.b O.Q +.=.2.dXgX1XjXzXlXlXXXOXuX7XM.Q +.~ |.=XH.m.m.g.m.#Xm.,.+.O.*.X.X ` X - 5 P b.).wX",
"q.E b w w u $ $ q X O.W ,.R >.c.D.O.R c R O.R Q g.+.3.rX1XkXlXlXlX8X1XjX7X4.g.E T.A..XH.g.+.Z.%XG.=.=.W P c c . q - $ t w w z o.",
"v > i c w u @ 7 s X -.-.P c O.c c b G.c R W =.R =.1.2.5XpXuX1X1XyXuXlXyXuXR R .X.XS.M.M.3.m.b m.=.~ =.X.R c z X 1 7 @ u w c F w ",
">X/.R u e u w Z + # R *.*.,.k -.R =.,.,.=.R =.4.1.h.M.n.*XpXyX<XgXuXrXjX|.1.<X<X.XS.h.3.4.g.4.X.W =.R O.$.R c # X Z w w e u c /.",
"h.&.+.F X.w ' - X 6 a.O.Z.a.k =.:.O.g.$Xb +.{.g.2.g.+.n.3X<XOXXXgXhXhXhX1..X<X.X=X|.|.{.g.:.4.m.W ,.=.:.R k c 6 X - ' w X.F b &.",
">Xh.o.v z u Z X X X x.O.O.c.B.,.=.=.m.{.a.A.S.=.Q R +.|.=X|.OX8XyXgXuXOX1X-X<X.XS.M.;X4.g.A.Z.$Xm.=.a.,.R k l + + X Z @.h v 3.h.",
"Y.I.3.w z $.u X   X *.x.a.c.c.:.=.=.H.Z.m.m.H.=.+.h h.+.H.|.OX1X1XlXjX8XiX:XpX.XA.H.g.Z.g.Z.S.G.Z.j.-.,.R k g X X X q N.z w 4.I.",
">Xg.X.l #.:.X X X + R c c.i.j.Z.j.-.g.c.g.h =.+.4.T.T.R 2.rXXXOXyXuXuXyXrXpXpXT.,X2X:.+.b m.R X.b.&Xc.c c c k +   X X #.#.z v g.",
"X.o.Y.Y.X.w @ X . q c e a.-.i.j.-.-.-.z.Z.O.b g.M.|.,X|.T..XXXXX3XlXyXyXgX5X1XgXgX4XdX2X=.j.h b D.m.D.D.c.O.c q V X @ * X.Y.4.R ",
"cXnXeX=.w > * + 5 X O.;.O.=.W R =.-.Q -.{.F.~.g.g.1.1.=.+.T. XXX1XjXzXlXpXyXOXNX<XA.j.m.M.{.g.=.x.O.,.D.c.a.V.X + + @ t w =._.nX",
"eXR.X.y > - e 5 X X O._ a.a.O.*.j.J.A.$X4Xm.b +.2.=.4.4.M.*X:XT.1XmXzXuX<XuXkXA.2.+.Q X.b H.#XR O.R c ,.c.a.B.X O 5 e 2 > i 3.R.",
"Y.+.i ).7.7.w X X + h 8.*.a.a.Z.a.W Q .X,XM.b ,.+.+.R A.A.<X|.XX5XMXmXmXuXjXkX=.4.1.Q +.R b O.:.,.<.c.O.a.a.a.+ X X t $.7.).r +.",
"I.%.P.].7.u w X X + ^.^.B.c.O.m.D.G.=.2.{.j.R b n g.4.1.h..X|.1XyX7XyXzXrX5XM.1.4.+.,.Q =.b -.+.,.,.*.R :.*.W + + X t - 7.].0XH ",
"W.>X3.t > * ] 5 X X G.c.O.X.a.a.m.G.$X$X,Xj.R 4.=.=.=.Y.h.U.U.<XyX7X7XuXrX5Xh.2.=.R Q +.W R H.=.O.R R O.c O.W X X 5 ] $ > q D >X",
"E.q.i i y > e ' - X *.P h z R ,.Z.g.{.2X.X4Xj.R =.+.+.m.2.U. XXX1XXXyXyX-Xb E A.2.2..X=.-.#X,.=.=.-.R m.Z.*.*.X X ' e * y i J q.",
"v v y D z y - - q s X.O.c ) R =.,.g.H.H.S.fXpXj.R -.=.b Q |.XX X5XXXOX1X<XM.h k.2.4.H.=.+.;XZ.O.,.-.h s.Z.,.c.X # ' - > i D i F ",
"D G #.0.z i @ X s C X.X.h z R O.R W H.Z.Z.,X,X4X+.b R b 6.<XXXXXyX7XOX<X|.A.M.n Q +.S.S.W {.Z.R =.a.Z.Z.O.O.V.C - X @ > z 9.F G ",
"P.%.,.`.O.S , @ X 4 c O.e c R b =.z #XG.Z.~.S.aXsXpXH.m.|.OX8XOXyX8X9XuX4.E M.M.E =.b.a.a.m.A.2.i.j.j.j.Z.*.e 1 - @ , > O.`.Y.%.",
"k.3.g.*.b.u $ @ X X h O.=.h c b O.m.a.R m.H.S.3XpXrX5X|..XOX1X1XyX7X X<X X|.|.*XA.2.E R m.A.2.2.j.H.j.-.a.;.c X X @ @ w b.*.4.3.",
"h.4._.-.c w * @ @ X e O.c.c.P c ,.&X:.O.:.g.=XH.rXrXaX<X.X-X5X7XuX@XXXXX4.2.g.h.M.{.qX|.{.~ Q m.W R i.i.R b >.X + @ * w c -.'.4.",
"P.>XeXM.O.> - L 5 + e g c c O.:.,.m.g.4.m.+.b {.,X<XaX5X=X1X<XyXyXT.:X:XM.3.2.1.2.=.G b.H.=XS.j.h R R Q s.a.c + s L - @ O.M.R.>X",
"W.>XR.k.*.u l - + X O.e O.x.:.a.g.=.=.m.m.;X#X=X2X=X|.=XrX1X8XgXgXXXXX<X4.4.M.+.+.+.n A.{..Xg.Z.J.Z.m.x.O.,.O.+ X - l $.*.M.M.>X",
"R.n.:Xg._ :.5 o X - *.>.c @.x.a.a.G.&X2X#X;XA.A.A.,XA.|.rXOXyX1XgX<XXX<X4.M.T.E b 4.Q M.{..XQ c m.G.m.a.c.D.;.- - o 5 z _ g.R.n.",
"R.n.R.g.x.i $ o X - p.>.R ;.:.:.,.G.m.m.O.4.+.2.g.H.=X.X1XOXhXOXiX<XXXXXg.1.+.M.=.b b M.{.g.j.j.D.m.=.B.Z.G.V.- 9 o $ w x.g.k.n.",
"%.3.=.N.j.i - - - X p.*.h z r k O.O.c c R =.=.Q 4.g.k.|.k.|.1X<X7X X|.U.M.T.+.+.=.4.R M.=X=X$XH.m.m.m.O.R *.B.X Z - - > j.F.=.3.",
"vXeXE.F u w - 5 ) X ;.O.h r h b *.R X.,.4.,.+.=.|.Q f.<Xk.A.1XXXyXXXXXU.4.A.5X=.=.Q F.sX5X4XH.l.G.a.O.c h h W X 7 5 - i i F _.eX",
"5.i h $.w z w ' 5 # k ,.O.h P b X.b R b =.+.=.g.A.h.E.U.n.n.XX8XkX X@XT.1.v E 2.E 6.pXpXS.{.H.m.,.:.O.X.P :.X.# + ' w l w X.v z ",
"D &.c p w S u A o & g X.,.O.c R =.c R +.a.=.R +.=XT.f.2.U.A.1XuXzXOX7X<XU.+.b 1.2XkX.X=XF.m.{.l O.R R c e W c & X A u i w p i &.",
"xXL.o.r b z 7.5 X = R c O.a.z R =.c R c *.;X{.2.m.T.|.M..X5X7XlXlX+XyX1XXX-X{.sXdXjXS.M.2X=.{.m.=.R R 3 W k c = * 5 7.w b r b L.",
"h.5.'.r z i O.X X X h e ,.a.,.h R R b O.=.2XfX*X1.pX3X-XyXmXzXBXmX7X8X<XOXXXbX1XaX=X=XH.,.R =.}.g.h R a.,.c.e X X X O.F z r L.5.",
"P.L.o.r e #.c X o - e e a.a.c.b h b X.,.4.{.S.m.4.dXpXf.gXMXMXBXBXuXyXOXOX1XbXtXrX*X=Xg.,.+.,.$X,.b c V.c.c.e - X X c !.e h %.L.",
"Q.>XP.r #.b.- $ X s R h O.a.,.a.b z R +.:.O.=.1.+.T.=XS.jXlXMXzXjXyX8X8X<X5XpX1X<X2Xb +.+.g.g.H.a.,.:.c c h h s * @ - :.o.r n.>X",
"eXI.&.q.#.i , o - X g h c ,.x.G.b.X.=.,.+.R R 4.4.T.=XbXNXkXMXlXjXjXyXyXrX<X-X,X5X3X=X2Xm.Z.=.=.a.a.,.x.O.w >.X 9 @ , p #.q.o.P.",
"h.&.wXI.c > $ u - X X.c c a.G.D.g.,.R =.g.m.g.g.4.g.g.=XA.rXOX1X1X1X5X.XrX.XA.=XA.h.g.H.H.=X$X#Xg.a.m.#.b P >.X X u @ i c _.0X&.",
">XVX'.X.> > z w X # O.O.a.a.G.Z.j.g.#Xb.R R +.A.R ,.=.=.{.j.z..X6XT.2XoXoX|.S.j.=.k.=.g.-.c c R O.O.O.O.X.X.a.# @ w z - > X.].VX",
"CX>X+.H /.!.u o o # O.O.a.,.a.,.,.Z.#XH.m.c g.b.O.=.R c 4.3.Z.}.}.Z.{.j.-.j.S.W m.x.=.,.=.X.b c O.k z h e *.,.+ + @ u 0./.H v >X",
"eXh.G 0X(.X.) w X X *.,.x.:.,.,.a.s.m.m.m.a.j.Z.e R ,.R ^ i.a.J.{.G.Z.:.*.G.Z.R Z.s.R O.,.W c c X.R c h O.;.c X X w ) w ).[.o.S ",
"W.H '.v > > A _ - X X.X.O.O.>.c.x.>.*.p.<.a.s.a.P c h P i.B.a.s.B.e.p._ ;.W W >.p.>.g g P c P P _ k c c ;.;.k X 5 _ A * > v w.= ",
"K.P.'.i > > u ) u s c c P P P *.v.V.$.O.*.>.c.| c h e I B.C.d.p.p.d.p.) O.P P >.t.*.g P ;.c c x ) c c P  .W e s ( ) u - > B & & ",
"W.q.o.i D z - * - ] e g x j x x  ...| g x  .| _  .e 7 c d.C.e.e.t.C.e.t.| P P  ._ g | t.| e g e x g w _ c c c ] l * - i % M N & ",
"I.G i G F z < * o $ 7 7 g l j j l L 2 d l x x I { { j 7 T T y.e.t.u.e.y.} { I t.a ` y.| L a 7 7 a 2 x L ` 5 7 $ X * < M 9 8 : : ",
"m : ; - @.i t - $ = 4 8 8 4 0 d 6 / U U y.K } } d f [ T T r.Y I K d d U U U [ / d K d 6 6 6 = + 0 s 6 C f s / 0 @ 8 N M = ; % & "
};
