/* XPM */
static char *result[] = {
/* columns rows colors chars-per-pixel */
"64 64 256 2 ",
"   c black",
".  c #080000",
"X  c #000800",
"o  c #080800",
"O  c #000008",
"+  c #000808",
"@  c gray3",
"#  c #100800",
"$  c #100808",
"%  c #130302",
"&  c #001000",
"*  c #001800",
"=  c #001008",
"-  c #081008",
";  c #001808",
":  c #081808",
">  c #101008",
",  c #181008",
"<  c #101808",
"1  c #181808",
"2  c #101000",
"3  c #000810",
"4  c #080810",
"5  c #020618",
"6  c #001010",
"7  c #081010",
"8  c #001810",
"9  c #081810",
"0  c #081018",
"q  c #001818",
"w  c #081818",
"e  c #101010",
"r  c #101810",
"t  c #101818",
"y  c #171513",
"u  c #100810",
"i  c #211808",
"p  c #211008",
"a  c #211810",
"s  c #291810",
"d  c #271212",
"f  c #351414",
"g  c #082108",
"h  c #082908",
"j  c #042104",
"k  c #102108",
"l  c #182108",
"z  c #102908",
"x  c #182908",
"c  c #002110",
"v  c #082110",
"b  c #002910",
"n  c #082910",
"m  c #002118",
"M  c #082118",
"N  c #002918",
"B  c #082918",
"V  c #102110",
"C  c #182110",
"Z  c #102910",
"A  c #182910",
"S  c #102118",
"D  c #182118",
"F  c #102918",
"G  c #182918",
"H  c #083110",
"J  c #083118",
"K  c #063716",
"L  c #103110",
"P  c #103910",
"I  c #103118",
"U  c #183118",
"Y  c #103918",
"T  c #183918",
"R  c #183310",
"E  c #083108",
"W  c #212908",
"Q  c #262408",
"!  c #333308",
"~  c #212110",
"^  c #292110",
"/  c #212910",
"(  c #292910",
")  c #212118",
"_  c #212918",
"`  c #292418",
"'  c #312118",
"]  c #312918",
"[  c #322511",
"{  c #293110",
"}  c #213118",
"|  c #213918",
" . c #263215",
".. c #363515",
"X. c #2B2E08",
"o. c #081821",
"O. c #051323",
"+. c #101824",
"@. c #101831",
"#. c #082121",
"$. c #062625",
"%. c #102121",
"&. c #182121",
"*. c #182921",
"=. c #132826",
"-. c #083121",
";. c #053724",
":. c #103121",
">. c #183121",
",. c #103921",
"<. c #183921",
"1. c #153529",
"2. c #142833",
"3. c #163235",
"4. c #083131",
"5. c #212921",
"6. c #222525",
"7. c #372521",
"8. c #243725",
"9. c #353623",
"0. c #243634",
"q. c #2C2E34",
"w. c #422916",
"e. c #443512",
"r. c #553712",
"t. c #443908",
"y. c #452723",
"u. c #463625",
"i. c #523926",
"p. c #563733",
"a. c #423131",
"s. c #633921",
"d. c #104218",
"f. c #184218",
"g. c #184A18",
"h. c #084218",
"j. c #274418",
"k. c #374214",
"l. c #355214",
"z. c #184221",
"x. c #184A21",
"c. c #184229",
"v. c #184A29",
"b. c #104423",
"n. c #185221",
"m. c #185229",
"M. c #165824",
"N. c #164832",
"B. c #134D31",
"V. c #214A21",
"C. c #214229",
"Z. c #274626",
"A. c #344724",
"S. c #215229",
"D. c #295229",
"F. c #295A29",
"G. c #235523",
"H. c #345326",
"J. c #254733",
"K. c #334833",
"L. c #215231",
"P. c #265835",
"I. c #315231",
"U. c #355736",
"Y. c #246533",
"T. c #346734",
"R. c #357436",
"E. c #2C6D2B",
"W. c #186B35",
"Q. c #484614",
"!. c #564811",
"~. c #565414",
"^. c #554508",
"/. c #684511",
"(. c #6A5713",
"). c #765710",
"_. c #746412",
"`. c #737B18",
"'. c #474524",
"]. c #584527",
"[. c #455524",
"{. c #474532",
"}. c #574636",
"|. c #445736",
" X c #575533",
".X c #585627",
"XX c #664734",
"oX c #675434",
"OX c #745638",
"+X c #6B512C",
"@X c #526527",
"#X c #436436",
"$X c #427735",
"%X c #516B30",
"&X c #776736",
"*X c #686336",
"=X c #183146",
"-X c #233344",
";X c #212942",
":X c #254246",
">X c #314858",
",X c #304D4D",
"<X c #286842",
"1X c #376644",
"2X c #337748",
"3X c #317B56",
"4X c #345566",
"5X c #364D6E",
"6X c #445742",
"7X c #4F5048",
"8X c #745A45",
"9X c #675A42",
"0X c #456544",
"qX c #477847",
"wX c #547545",
"eX c #4D7050",
"rX c #766644",
"tX c #677942",
"yX c #797645",
"uX c #706C4D",
"iX c #465A6F",
"pX c #4D6673",
"aX c #637B6B",
"sX c #866912",
"dX c #867515",
"fX c #846537",
"gX c #847331",
"hX c #845239",
"jX c #845A45",
"kX c #866645",
"lX c #877546",
"zX c #977853",
"xX c #8F704D",
"cX c #A57B52",
"vX c #7B8418",
"bX c #528C39",
"nX c #638439",
"mX c #34874F",
"MX c #568854",
"NX c #518F4B",
"BX c #6E8D51",
"VX c #689966",
"CX c #679E5C",
"ZX c #928752",
"AX c #A68959",
"SX c #89AD52",
"DX c #B59966",
"FX c #BAA871",
"GX c #9C9463",
"HX c #CEB573",
"JX c #9C9421",
"KX c #424E88",
"LX c #4F7089",
"PX c #6B8CAD",
"IX c #8CBD84",
"UX c #BDC68C",
/* pixels */
"w 0 7 w S 7 5.9 6XA.S k.} 1.;.M F <XT F <.2Xv.I B F + ,.P.B v I m.v 9 ; + = ; B 8 ;.-.c ;.9 + m ;.$.M w %.w 7 w r j.U : V  .D 7 ",
"3 w 7 0 S < C 8.D y  .| C $.M B v c.G I 9 : J L.9 c.,.v.9 m.d.m.Y J 9 + 8 = + X ;.+ N 8 6 + 6 m 8 3.t w S t 7 0 j.C G.7 j.V 0 6.",
"3 7 7 0 0 A.A : 6 / U.6 *.4.6 8 <.<.9 z.M 9 7 9 9 + N.n B Y.b.<Xd.H = K b + 8 + c = ; 4.6 6 8 = m #.S %.w 0 7 : : A 9 V C | 9 q.",
"3 3 0 6 w } C 7 7 / 7 7 | #.6 B ,.z.m.Y.9 Z I 7 Z = G : T W.M.Y.m.n b.+ + = + = 8 c J 6 = + N = b =.D t F 7 - V 9 r U : U Z 4 5 ",
"3 3 6 w 0 V 7 7 r V 4 t S q M v B J 2Xn.Y.H v v - 7 n 9 P.M.b.n.d.I = = = ; = J + B N ; m + + + N q 3 Z L r V.0 4 / V < A.0.r [ ",
"3 3 3 w 6 A e 7 r r 7 4 - -.8 9 B g.R.m.n 9 9 n h.I 9 Z J <Xm.I 9 9 v = B + ; X X -.b $.8 + = 8 ;.c T 7 + $X+ V.t r r D.: 7 y 9 ",
"6 4 3 S w w r 7 ..w 6.s t -.6 B n n.G.V F F S.= B = 9 ,.L.v B v : v 9 1.+ 8 = X c -.;.N 6 O + m c K 3 9 k 3 7 T V 0 S [.D e D e ",
"7 7 0 5.D 0 ) r  .7 q.u J.-.M 7 B P.x.U F <Xv - n = :.z.9 L.J ,.v v ,.= + O 9 = v = c N + + 8 = ;.J U M 9 3 3 D.J.0 0 ..} w r 1 ",
"w 9 C t 8.0 7  .7 t s r 1.B.q M N.x.T z.z.F + + - Z.z.+ L.Y S.b.F c.M + + 9 + ,.X ;.b b + + N + m n F.V : D.T.5.8.w w ) ~ t ) r ",
"*.9 r ) S 0 t _ 0 y w.4 7XJ M w :.Y.Z >.S.0 7 : 7 P.9 c.L.z.I 1Xx.7 S F - + = :.M 8 ;.J = + 6 N m M S z.<.0 : ~ 0 %.S 0 / &.&.V ",
">.9 < < 7 &.7 t D D !.C.*.8 6 M F z.x.9 k U S @ V - I P.z R.x.U 2X<.v F + - 9 : :.+ = b + -.+ N b 3 0 3 *.@ C 1 9 %.&.D S t *.e ",
"C r dX< 7 *.%.0 e A.!.*.*.M 9 M 9 P.C.P.>.0 - y <.<.I 9 T.v.F.G S 9 7 :.I F *.N.v = B b b ; $.= N 6 0 + C.w X.7 7 >.w t 0 ) &.e ",
"~ 0 e...e >.t D : ..{ G M M w 7 B P.S.9 <.I - 4 S P.7 <.R.D.G G P.D t 7 7 ,.v + 9 v N.; + + VX:.b 6 6 5 R.: l 1 7 S 0 0 7 _ t 7 ",
"r 9 < JX7 I t t o.W Q.I.t B 8 / F >.I F 9 9 S.2XV J.U T.v U.S.Y.G.<.n 7 9 9 9 I 9 :.v = + + m NX;.v n 3 Y.7 < < 9 7 t 0 0 _ t C ",
"S 9 9 dXdXw t 0 o./ ( |.&.-.B._.B g.Y.<.S V 7 t D - I.J I.T.T.NXF.B S G.d.4 :.- I ,.6 K CXI + P b.6 6 f.E.w l < 7 %.w 3 7 ) t 9.",
"t &.e dXsX_.7 0 ~ W 4 U.7 $.6 (.J.M.n.F r d.I 7 Z Z C.S $X$X2XR.R.P.Z.9 7 Z :.9 9 B : B.R.b.v E NX3 D n.E.L T v 0 w 7 o.0 _ t *.",
"7 &.3 dX_.(.3 0 y l 7 *.{ M (.(.m.Y.M.M.I 7 w <.T V V D.K.qXVXMXD.U >.9 :.I 9 I v 9 :.-.IXT.F.d.m.6 S P.x.t 7 V.7 8.CXBX< _ F 8.",
"C w + sXr._._ w 1 W y _ ..8 X.(.M.M.R.F k F P.r F V - D.MXZ.G z.8.J.1.c.<.7 <.v + :.c.P.,.CXm.n.S.+ g.d.Y S 6 t NXD.R.| ) k V Z.",
"dX4 7 (.)._.vX9 l l G k.X.q  .).f.L I ,.S P.9 P.z.9 U.qX| NXj.H.1XD.1.T.7 S v 9 F v.L.v v.= J E S.+ n.H f.S = $XF.$XE.H.*.S D.8.",
"dX( 4 Q.^.(.vX`.i x l.x < h.R T.d.S Z I <X+ >.v t P.U U qXCXqXT.G T.VX7 7 + 7 t <.z.= P.b.n T.R.v.c.n n I F F.S.F.F.NX9 w 0 ) 8.",
"[ ).sX7 !.l !.~.W - x ! w X._.Y.G.E z.P.9 7 J.*.I.k I.T.1Xa. XrXeXI.8.t S r 7 >.1.S.<XP.c.,.c n.d.h g n 4 I I F.L bX0 0 0 t 9.*.",
"7 !./.0 (.l r.!.k k W !.: (.X.x.Y.mXT >.t S.7 t T.,XeXtX8XxX7XxXGXuX7XeXD 7 t C.- P.P.<.c.3Xv MXH g g n Y g P K V.6 0 0 w t |.S ",
"_.e.e.e.!.~ r.t.< : ^.( M t.!.mXP.B M z.F 7 S J.U.ZXZX8XxXxXp.AXFXFX7XxXK.F.1X1.C.2X3.9 mXL.,.T.f.& * M.n Y n <.F.7 9 = A.CXSX< ",
").7X/.e.0 ! Q ..: : { Q./ X.H.M.M.NXL.I S.8.1X7X7Xp.zXzXrXOX7.zXxXDX7XcX8XZXGXwXeXF 0 P.m.v.Y.f.h & ; T.g g v z.7 bXbXR.H.$X} t ",
"r././...6.e.- ( - l l !...Q m.Y.#.G F 1.0X8XlXzXzXkX}.8Xu.i.OX].p OXp.8XjX9XAXuXrX0XJ.<X3XY.z.B : * * g E L R.R.G.S.V.F.E.0 D t ",
"(.e./.1 A 3 M l - X.- Q.{ j.Y n.P.2X7XDXzXHX9Xp.8XXXf s a $ . # ( f w.OXi.XXOXjXjXoX X{.9X0XU.v.X * z.g P d.z Z z.V.G.H.#X$ +.5.",
"KXr.Q Q.k 9 z - @ ` -  .S W.W.U.A.{.}.xXAXxXzXXXoXgXi.$ $       $ d d , jXy.kXy.jXxX8XXXp.HXkX6XX X * n K h n g h G.Y.T.UX' r.9.",
"5X{.r.1 V g : - @ ~.: } ` wX#X X}.XXXXhXrXe.s ] s $ ( O             % d /.w., XXp.p.gXhXkXDXFXrX8.Y X * v v n h L P T.| FX/./.Z.",
"2.aX[ | : : - - 1 !.D G ( yXOXAXlXkXOX7.xXp 1 y p $                     O ] # ' 7.] +Xy.kXcX9XxX6X; X g v & ; Y h G 9 ; VXk.^.t.",
"u.aXKX[ A - @ - ~.l C V D.xXjXXXXXOX&XXX[ % , i .                             . # [ +XfXi hXa.cX}.U.X g ; ; ; z.$.8.G uX#X..r.t.",
"!.X.-X;Xq.< @ > ! W 0.D K.p.XXy.' ..[ , .                                         . p , s 7.y.cX}.I.= & #.I h n g h Z NXNX1.*.,X",
"s ..s 2.pX4X@ @ X.: *.0XOXOXOXf 9.$ .   .                                             i , ` i.kXXXlXU.; v & #.; * g V.$Xn SX1.,X",
"t.Q > - -X,X,Xy Q - 6XK.AXxXOXf . .                                                     # , &XrXOX].%X2.+ $.I I.0XN.3.I.T.BXVX>X",
"#X! 1 - iX,Xq.iXQ - K.rXi.u.w.w.                                                        . . gXXXXXzXyX>.2.N.2.4.2.;X3.|.#XBXVX4X",
"I...^ > u @XK.6.x C.OXZX8Xa.].i.                                                          . +Xw.}.XX9XT.$.4 w $.2.:X4.H.0XwXpX,X",
"U.I.Z : ..[.&.8.[ U.lXAXxX].s o                                                             +Xe.XXOXOX|.P.0 -.U.U.eXN.j.|.tX,XK.",
"1X1XJ.| C...@ 2.U.lXlXkXXX@ , .                                                             $ $ 7.y.oXu.C.$.$.A.#XtXS A.|.tX&.6.",
"I.1X1.K...- @ : U.{.+XkXfX, ( .                                                               ` ].7.&Xi.0.J.- #X#XSX1.D.U.tXq.U.",
"U C.3.&.| + @ J.9.u.OX] w.$ $                                                                 , ].u.oXoX9.1XJ.0X#XwXJ.Z.9.wX| H.",
"! z.<.:  .@ D c.9.].XX7.i.i                                                                   . $ ..*X+Xu.P.>.j.| j.BX| R wXr A.",
"$ A v @ { @ I.9.u.*X+X].1                                                                       o i ].].u.oX#XZ.| Z.H.Z V.[.%Xn ",
"~ - v - R I.'. XrX].7.[ 1                                                                       . i '.s ].&XyXI.j.j.j.R R nXz z ",
"g +.4 : z I. X&Xi.7.] a o                                                                         # '.w.lXyXtXI.g | | l.v @Xg h ",
"w 3.0.- C.|. XoX7.s i.$ o                                                                           ..OX}.gX&X|.Z T  .z j g g & ",
"=.=Xw 7 U.BXoXu.7.a y a                                                                             i ..'.oXZX{.C.g z * X j * * ",
"MXeXc.,..X7.}.w.e.d %                                                                               . , 2 oX9.u.8.: * X & & X & ",
"H.3.1.Z.'.[ i.i.d ^ ^                                                                                 { > '.7.oXu.Z.X + X O O.@.",
"3 z.P.7.9.oX'.' '.[                                                                                   1 - 7.)  X9.V.+.0 5 6 w O ",
"c 3.8.{..X].s Q., .                                                                                   ~ # s ..*X*X9.Y @ w w 3.2.",
"+ A.9. X'.` ' ` , .                                                                                   . $ > '..X' %XH.+ 6 + o.4.",
"PXA.K.pX5.e.^ @ $                                                                                       o > ~.u.i. XtXI.O + 7   ",
"pX4XiXLX X( 1 @ 1                                                                                       X ..] s 9.|.%XH.O.+.w ; ",
"K.:XiX,XG o 1 Q                                                                                           > 1 s @X].'.|.C.O.o.1.",
"5XLX=X4X4X- .                                                                                               $ , ` ]  X@XV.w @.1.",
"LX-X,X3.>X2                                                                                                 , A.1 ] w.%XH.1.,.$.",
"LX=X&.>X4X@ o                                                                                             . o > ` a [.@X8.J B N ",
"&.t =X>X#                                                                                                     > 1 [.[...A.U c.o.",
"V 3.=X2.o                                                                                                     . ~ ^ a 9...G b.o.",
"+ 3.-XN                                                                                                       > ~ y , ` `  .A.V ",
"e 5 q -.                                                                                                        o ! k.'.'.'.A.c ",
"J.C H.S - 7 r e - X                                                                               X - - - - > r : F I S 9 + V I ",
"H.&.T @ + - @   + r - - -       @ o @                 X X                         X   X   X X - - @ 7 @ @ O - D D - v V.d.: = X ",
"q.U.8.- + 9 @ - : 8 v Z : = X +     .         @ + X + = = = = o - - - - : X X V : r - X + X     O @ < r + 4 e D 5._ 9 9 P n.d.H ",
"_ D K.y 7 9 Z z.D.f.T I D.F F - V } G C < @ : 9 - = = = - 9 : 9 V 9 - - 7 - 9 = X + = = = + + - 6 r S @ @ - r G r - - - @ n h K "
};
