/* XPM */
static char *result[] = {
/* columns rows colors chars-per-pixel */
"64 64 254 2 ",
"   c black",
".  c #000800",
"X  c #000008",
"o  c #000808",
"O  c gray3",
"+  c #001000",
"@  c #001800",
"#  c #001008",
"$  c #081008",
"%  c #001808",
"&  c #081808",
"*  c #000810",
"=  c #080810",
"-  c #000818",
";  c #001010",
":  c #081010",
">  c #001810",
",  c #081810",
"<  c #001018",
"1  c #081018",
"2  c #001818",
"3  c #081818",
"4  c #101010",
"5  c #101810",
"6  c #101818",
"7  c #181818",
"8  c #141408",
"9  c #002108",
"0  c #082108",
"q  c #022908",
"w  c #002110",
"e  c #082110",
"r  c #002910",
"t  c #082910",
"y  c #002118",
"u  c #082118",
"i  c #002918",
"p  c #082918",
"a  c #102910",
"s  c #102118",
"d  c #182118",
"f  c #102918",
"g  c #152413",
"h  c #003110",
"j  c #083110",
"k  c #003910",
"l  c #003118",
"z  c #083118",
"x  c #003918",
"c  c #083918",
"v  c #083910",
"b  c #103110",
"n  c #103118",
"m  c #103918",
"M  c #183918",
"N  c #183114",
"B  c #102D08",
"V  c #213118",
"C  c #263915",
"Z  c #292910",
"A  c #001821",
"S  c #081821",
"D  c #101821",
"F  c #002121",
"G  c #082121",
"H  c #002921",
"J  c #082921",
"K  c #002929",
"L  c #082929",
"P  c #032129",
"I  c #102121",
"U  c #102921",
"Y  c #102929",
"T  c #162425",
"R  c #003121",
"E  c #083121",
"W  c #003921",
"Q  c #083921",
"!  c #003129",
"~  c #083129",
"^  c #003929",
"/  c #083929",
"(  c #103121",
")  c #183121",
"_  c #103921",
"`  c #183921",
"'  c #103129",
"]  c #103929",
"[  c #183929",
"{  c #183129",
"}  c #072632",
"|  c #102931",
" . c #182931",
".. c #132636",
"X. c #003931",
"o. c #083931",
"O. c #083333",
"+. c #103131",
"@. c #103931",
"#. c #183139",
"$. c #163735",
"%. c #233625",
"&. c #233734",
"*. c #262E2C",
"=. c #004218",
"-. c #084218",
";. c #084A18",
":. c #004513",
">. c #164418",
",. c #085518",
"<. c #254418",
"1. c #314A13",
"2. c #086318",
"3. c #004221",
"4. c #084221",
"5. c #004A21",
"6. c #084A21",
"7. c #004229",
"8. c #084229",
"9. c #004A29",
"0. c #084A29",
"q. c #104221",
"w. c #184221",
"e. c #104229",
"r. c #184229",
"t. c #104A29",
"y. c #184A29",
"u. c #144A21",
"i. c #085221",
"p. c #085229",
"a. c #085A29",
"s. c #015525",
"d. c #105229",
"f. c #105A29",
"g. c #185A29",
"h. c #145325",
"j. c #004231",
"k. c #084231",
"l. c #004A31",
"z. c #084A31",
"x. c #004A39",
"c. c #084A39",
"v. c #034239",
"b. c #104231",
"n. c #184231",
"m. c #104A31",
"M. c #184A31",
"N. c #104239",
"B. c #154739",
"V. c #005231",
"C. c #085231",
"Z. c #005A31",
"A. c #085A31",
"S. c #005239",
"D. c #005A39",
"F. c #085539",
"G. c #105231",
"H. c #185231",
"J. c #105A31",
"K. c #185A31",
"L. c #105239",
"P. c #185239",
"I. c #105A39",
"U. c #185A39",
"Y. c #214229",
"T. c #234626",
"R. c #265326",
"E. c #335825",
"W. c #244735",
"Q. c #314239",
"!. c #235734",
"~. c #355633",
"^. c #314A29",
"/. c #086329",
"(. c #056626",
"). c #106329",
"_. c #106B29",
"`. c #086331",
"'. c #006339",
"]. c #036B36",
"[. c #106331",
"{. c #106B31",
"}. c #106339",
"|. c #186339",
" X c #106B39",
".X c #186A36",
"XX c #107339",
"oX c #187339",
"OX c #107B39",
"+X c #187B39",
"@X c #107631",
"#X c #107729",
"$X c #236927",
"%X c #236735",
"&X c #376334",
"*X c #2C6E29",
"=X c #4E5618",
"-X c #577634",
";X c #457136",
":X c #47651B",
">X c #183542",
",X c #233745",
"<X c #004A42",
"1X c #184A42",
"2X c #144344",
"3X c #025743",
"4X c #165643",
"5X c #045854",
"6X c #274546",
"7X c #245744",
"8X c #274256",
"9X c #245555",
"0X c #344D4E",
"qX c #016646",
"wX c #106342",
"eX c #106B42",
"rX c #186B42",
"tX c #166648",
"yX c #03764A",
"uX c #107342",
"iX c #187342",
"pX c #187B42",
"aX c #18734A",
"sX c #187B4A",
"dX c #107B46",
"fX c #056852",
"gX c #007655",
"hX c #167156",
"jX c #226443",
"kX c #257546",
"lX c #247B52",
"zX c #2F694A",
"xX c #395A77",
"cX c #0C6D65",
"vX c #296F6B",
"bX c #4A7144",
"nX c #466375",
"mX c #53636B",
"MX c #896315",
"NX c #138538",
"BX c #368939",
"VX c #188746",
"CX c #18914E",
"ZX c #218A4A",
"AX c #228954",
"SX c #249956",
"DX c #35884E",
"FX c #319867",
"GX c #21A55B",
"HX c #429442",
"JX c #428C42",
"KX c #658C4C",
"LX c #5DA463",
"PX c #4F6E87",
/* pixels */
"I  .I 1XN.u L K F qXy 3 O ; V # o o 6 ) &.&.7 Q.s g , , # .   . o : D J 1X~ X u ( ] ] 3 f : o 3 ^.o ; ; o * N * y 3X5XL ~ 3 o : ",
"S  .| B.k.y H o.fX> 2 y o : %., : o : T &.*.d Q.: 5 : o # . o . o : 6 B.2XG o 2 ] e.t., n : # 3 * ; ; * o o 6 ^ x.^ ^ 5X; J S 3 ",
"S = 9XvXcX9X~ F = * ! y * : ) : o o = 6 *.*.g d 6 # : # # . o o o $ $.| 2X2X* L 4Xu u K.P.: : , E.; * ; * * : X.W fXj.F < ; * * ",
"=  .$.+.J L y y ; < K ; * = ) ; 3 o o : *.*.5 6 T o $ o $ .   o o # 3 T 2X; L ; E M.T f ] : o , ^.* o ; * * * y x.l.y c.< ; 1 3 ",
"I #.Y $.4XvXo.! ! F K 2 o : %.5 ; o o : 6 d 6 5 5 & e o o o . o o o 6 | N.2 ; 2 _ H.& u e : : : s ; : * * * * <X3X7.F.8.< u * : ",
"#.$.B.@.S A F H < < 2 j.o : V # o o o : 6 T 6 : d 5 , o o o o : o # 3 S O.$.* ; y.vXu ] : 8 : : ^.: : ; * * 1 ! qXS.3XR o.* Y * ",
" .: u S S L > o.y 2 F ! o : V o * o o = : T 6 : 5 V , o o o o # # s U S L ~ ; ; M.jX] u ( : * : d 6 ; 1 * * 2 ; H S.F.R ; ; 3 * ",
": I ] ' o.L.G y fX< F 3 o ; C s = o o o : 6 4 : 4 g # o   ; 3 , u , 3 +.] ~ G ~ 4Xd.f M.r., * ; d 2 : o * * < 5X3XfX9.z.; ~ o u ",
"7 $.E 1Xm.z.F P = l.! p O ; 5 5 o o o o : 6 4 o : $ o . X # : 3 f ) T 3 2X@.G > b.4Xu z , 5 * ; C * : ; * * 2 ! yXW 3X2 G * * * ",
"s $.$.9XI.Q F 2 2 ^ R 5Xo * 5 o o : o = : s : o : $ o . : ; , , : s J 3 2XL * o ] u ) 3 , g * , ; s , ; * * # R ^ fXR H O.X X G ",
"$.6X~ 4X4X0.H R 3.2 H F = = %.; o o $ 5 : f : : : = o . , u ) U ( f $.+.$.u o o ( _ jXJ f s : ; 3 s ; ; * * ; > 3Xl y H o X +.* ",
"3 3 1XE 8.z.o.> R < F 2 * 4 LX: O o 3 zX3 u 3 : : O o 3 * U , s Y.Y ~ ; G G X 3 M.M.U o 3 s : ; V * * * * * i y 9.7.w c.o , o * ",
"&.f [ @.L./ 2 2 > R i o * : KXbX4 = 1 ` u 3 3 : O O o , ' ' [ [ r.U J 3 L 3 S ' B.w.u n.3 s u ; * 6 > * * * o x.S.fXF., u o ; ; ",
"6 $.B.( u u J i j.H R ^ = : KX&X~.= Y.w.Y.S 3 o o , p U U u I &.B.W.#.$.2X+.X u @.r.n.3 : U ) * %.3 : ; * o <Xv.9.gX2 c.* o o ; ",
"{ ,XU u 3 p J o.qX, 9.x.= : bX~.zX= &XR.!.G : o !.u p B.U U [ u 1 ; +.G $.u o 3 4Xp f u 1 ) M ; f 3 : : * * x.S.V.D.3Xy > * o G ",
"I 9X7Xn.u J wXy ; K '.> > * bX~.M 3 ;XR.!.3 * j 2 # u t P.L ~.7X[ ] Y 2X1X1Xo ~ B.U U.3 1 d 3 3 , : * * * ! j.x Z.qX> ; # , u ; ",
"I s p / L.wXy * ; H H ; s ; %.!.C W.JXT.Y.1 r.!.> > J ] ( P.P.J 3 U S ; N.1 J L e.u u P.; s 3 : : 3  .3 * ! v.R S.y i ; ; * o o ",
", 9X9X9X4.2 A ; * X.F 3X%., = ~.E.Y.E.T.M , t n w p w e U M.!.!.] B.Y J 1X3 # 3 u H.T 1.; 1 G %.6 * 3 3 ; y 2 3XR ^ l ; w * o > ",
"6XW.( p = 2 y R ^ F y gX&Xs 5 ;XR.n ~.a a , 0 u u 8.z > _ > 3 r.b.n.e.| J +.; 3 4XK., Z ; 3 I ) , ; # ; o <X% 3XV.9.l o i # ; o ",
"&.[ U 4XhXtXH ; ; 2 H > &XR.) KX<.a T.` ` ` @ e t r 4.U.e.E P.e.u u J Y ~ ~ 2 % %XlXK.I 3 U u u s U S ; 1 2 ! y Z.yXi 8.o @.3 w ",
"6XT.( S 3 < k.; 2 F S.j.M n M ) %.a !.Y.t R.n | Q Q -.j E d.K.H.M.t.b.N.E J o # U.lXp u t R.t ' s , , 3 3 2 R S.yX'.7.> u w o > ",
"f u , S J 3 4.l # F H x.!.a 0 N b <.T.M a M ` | Q E J ; P.E z k.J J 3 y 2X@.G J ] H.T [ :X:XY J u 3 u S ..X.2 D.'.s.w > u o > p ",
"3 B.e.' J G > k.F.A y S.&X0 0 0 ;Xb B a 0 >.Y T L p 8.0.d.m.U.jX-.e.u # 2 L > # 7XM ) KXE.:XG O.u u * P } H 2 qX'.W y y o # J ; ",
"W._ e.t.e.J 2 2 ; S.3XH M B @ @ t @ + 0 % a #.: #.r j p E G.g.jXG.P.m.Q p F o o p f 4XE.1.-XR.L 3 3 : +.} > j.3Xi l y / o o # ; ",
"6X] zXB.4.u ; > < W # > >.b B . @ + . & % Y T 3 E 4.r E Q > ; L / Q 8.4.z y ; 2 y > > n -XE.>.S * ..T S @.o H R 7.i 7.o X   k.> ",
"W.!.7XG.0.; A.3.> > j.cX3 b a . . & a + . e $ . -.J.rX8.Q 4.m.|.Q y % 8.k.k.p E i w y y a Y.M D I S } 1 $.! H '.3.w W # E > * w ",
"W.) P.0.E wXw W W ^ < ^ 3 +.>.&   t w.. . . o r c r h 0.[.+XtXm.|.|.G.4.8.m.Q E / i y y % ( 3 I Y D ..Y $.y x.5.W Z.2 > X X ; 2 ",
"7X7X7XP.J p 2 ; fXy y j.M 1 1 , .   #   # p Q Q 4.J y z f.8.-./ y L ~ E 2 y 2 # y H 2 2 > * ; : 1 $ 1 0X| X.3X9.].> R o ; o > > ",
"6 , u u u G J E 9.9.gXi <.& # % . . % % t w # w 8.8.0.I.8.}.J.sX).0.L.F J E 0.~ H y y y y ; 2 A 1 3 S 1 F ! i gXr qX3.w o o > # ",
"W.W.u u / E F.8.; R 2 > E.f % w % e e t t z j r r i / E k.J.eXAX.XJ.eX XC.0.z.0.l i y y > > ; # o I : : ; y qX9.W > w 8.w 8.k./ ",
"n n t ( p 8.z ; ; l.> S.<.# % w w w w z h h 4.4.z 4.Q y > 2 8.0.iXwXJ.~ / y % y H E H i y > > 2 > ; 1 1 F H 9.s.y i ; o y w # o ",
"W.` n u ] I.; * ; i % '.<.. # % w w w p r k 6.6.r i 0.Q 0.J.J.0.> ~ i H Q i Q 8.i Q l / l R i i y > 3 1 P j.7.i 7.w > o # o # E ",
"W.y.u _ I.y > * o H x ^ # o o # % r t -.Q I.`.rXm.-.8.0./ sXI.wXL.J.p.hXC.p.Q 4./ 8.l c Q i i y y > > 3 > R R W s.x # w o o y o ",
"p Y.7X] , G * F z.y gX<X# # > # % p t r 6.-.h.iXsXAXsX+X}.eXJ. XiXAXG.[.J.C.8.0./ / / / Q Q i H i y i % } y D.Z.(.l x > o > # # ",
"zX[ ( , p > E > ; R j.qX# > ; > z r h c h -.q 9 d.6.f.#X[.NX_.sXAXAXsXG.G.[.aX/ H 2 ; 2 > y 2 > w y w w > H V.qX(.l # o z.w # # ",
"` s ] ] e.~ * > y l.# gX# y p % % w r 6.-.-.4.-.r l Q 4.wXFXXXSXAX}.L.o.o.k./ H > y ; H F > > > y i i 9 2 S.3.'.s.y > w r o l R ",
"f r.jXH.i Q % > 2 H X.R % w > w > c 4.0.a.;.;.f.[.z z / i > ~ N.y % L ~ y % p.8.8.w o y ; * > H 2 y w w ; y D.5.=.r r x o % w o ",
"Y.f , 3 u L.i * ; w gX> + > w w > w y r * * F 4.Q 6.c ).i.).OX6.0.8.A.N.o.z.[.VXH > ~ z./ 8.i r ^ w i > o ^ l w r i W o # 0.r # ",
"s u n p > * > i F.j.! l.> y w y p l Q m.d.wX}.Q J.}.}.[.aX{. XoX Xp./.z.C.A.eXeXXX[.p.4.p.x R H l i l w y 7.l x 7.x . o o # # =.",
"` ) H.u 3 * > y W > l.l.% > r i Q 4X4.Q 0.}.f.[.0.G.eX X[.XXf.pXpXf._.z.z.p.}.VXCXuX0.4.p.p.i y R w i H o 7.5.3.r Z.o o X i > % ",
"r.m q.-.0 ; > > y ^ 3.7.w w w y > > E 0.J.G.C.G.I.z.aXXX XeXZXsXpX{.[.sXCX XsXeXVX{.uX{.p.A.p.4.4.i l y K 7.h x 3.% % i # o ; 0.",
"7XzXq.e., p x 2 i ; Z.y % 9 r r w > > i 8.Q J.4.8.8.pX XJ.+XA. X XeXuXsXOX[.[.wXA.XX4.i 4.l l l w w > R H 7.qXV.> % # o # # # 9.",
"zXH.>.u  Xc y ; 7.> 7.i % > > i r i r r / > c.O.; ; 2 y Q [.Q lXlXVXI./ H 2 w > w H 2 y i i i i W Q i l o l.i 9 x i o # # > x # ",
"T.%Xm _ l ; ; wX> D.w l w w z Q 0.l c z 8.z.x w > ; % E ; > 2 2 H ~ F y y y 2 y l w ; y R a.p.C.].4.x 3.K l 9.7.h =.. o o w > r ",
"m -.K.p , , E l R l.3.'.i c 4.c z 8.Q z R Q 4.G.6.J.Q / aXI.G.0.4.2 i 4.Q i R R 0.4.l x 6.p.C.8.6.p.6.x ! x w 9 % r w 9 # 9 % l.",
"w.!.z e u u p.# F > # qXi 4.-.k =.6.0.0.l Q J.8.4.p.0.f.i.d.}. Xf.4.8./ i l Q ! W -.0.C.A.p.C.4.l 6.`./.; 9 7.3.r # # > V.W w i ",
"a & , p u m.> > 3.% V.^ w 8.r h =.p.J.6.i l i / 4.0.0.0.aXwXG.wXtXI.J.wXp.a.CXVXA.[.`.eX:.i.-.4.0./.i.i.y l 5.9.r > o > r w # W ",
": e 0 ~ e.Q > 8.i h S.z i i Q l p.uXeX}.z.G.8.Q Q p.0.C.aX).VX{.J.[.iXoXI.wXNX[.p.0.uXp.A.a.C.4.4.-.p.C.9.9.Z.=.w # % # # o w # ",
"a e _ , J.; o ; ; l 9.l l a.h 6.}.{.[.XXsXsXSXaXVXeXVXiXI.f.pXf. X XpX}.J.I.6.OXNXdX XC.C./ 8.E E H ^ W l 3.5.=.# :.r x # r % + ",
"T.e p K.p o o / 2 yX> Q 4.r -.p.=.i.i.i.sXpXpXpX{.@XNX{.OXVXXXpXVXSXVXsXI.eXC.0./.uX}.z.8.R y ; o > > > > h =.=.;.# o # l # i # ",
"M e y.H., ; F.2 2 7.l 4.x x l -.-.-.h q q c f.c k =.-.aXAXSXNXCXGXrXI.tXI.8.4X/ 4X/ E w w w > w > > R ^ H 7.s.,.% # % Z.# % % 5.",
"w.!.0 p , z ; > W w l i 8.J.C.-.i.6.4.8.-.a.c l Q Q 4.R i i p A.L.E y i z J y 2 y z./ i 0.W w / ; R y > y # r > w w =.k # k k l ",
"T.m e e m.# > y / H y R l 4.p.i.(.i.2.2.i.XX Xa.Q p I.A.p.-./ z.i w F 4.p.i Q C.i.(.#X/.C.E R c.k.z.Q l z.R % w r x # # x :.# + ",
"0Xe b.M.nX> > < y > > Q 4.W x 8.G.> 2 2 l }.0.p.i.;.;.#Xi.{./.NX`.a.XX Xi.k.0.A.}.uXXX`.2 y y k.z.i.=.0.p.l 9 w ,.. 9 o % > # . ",
"W.PXmX0X&., = ; w y y y i y i Q y * ; ; F E z a.p.}._.OXNX{.CXCXAXSX@X/.i._.@X X8.H 4.Q W p.0.Q l OXa.p.x W 5.s.r   o o # > w x ",
"xX#.6XnX0X6X6.A.w > > > i Q 8.z.z.8.k.F / R C. X[.}.uX XiX{.oXoXVX+X).{._.z.I.[.uXeXA.XX X`.}.i.6./.a.6.x l h % % # o # 5.% > 5.",
"mX,XPXxXPX6X4.i i H H y E 0./ E eX6. XsX).J. X[.z.I.wXoX X.XpXSXZXSXiXI.I. X[.VXpXCXCXOX Xp.6.Q `.`.XX`.h i w % % 9 r # # > 5.s.",
",X>XnX&.,X,Xy ~ i E E 8.L.I.0.0.4.0.G.J.d.G.}.}.z.rXaX+XiXtXSXZXiXkX+XDX`.AXAXoXiXAX+XGXXXOXa.{.dX`.`./.a.6.x 5.x # o o # > s.% ",
",XPX,X..&.,Xw i i R w w i 4.8.z.G.I.}.G.rXI.G.G.B.|.oX.XoXZX.X.XiX%XkXpXsXAXVXpXoXrXrX{.[. XsX`.uXA._./.;.:.=.# # # % % % x x o ",
">X0X,X..#.8Xi i i i w y y > 2 > E p t.r G.8.8.4./ P.kXJ.m.oX.Xg.FXFXZXlXU.m.] / G.4XL.J.Q i z p 4.r r r -.x r w k % # % r r % r ",
"7 T D ,X8XY w r r E h v > y > w Q E n.E b.4XL ; ; X * J m.~ J E y L J L F y 2 # 2 2 > > y } ; w w z z r J l 4.4.;.r # o % % 9 s.",
"7 5  .>X| % w w w V c -.q.z p t h.c m.P.Q c y % 2 y E 2 3 E p e.t.Q 3 % J E J ~ E i E E > > ; J ! .XJ.d.I.iXiXd.w # 9 (.r h ].x ",
"d X #.,Xp h.*X:XMX-Xg.h.g.y.c q.Q / c -.t.t.K.d.%X%XK.kXFX&X|.U.d.g.U.b.t.J./ u p p 8.J.t.c c 4.e.U.d.t.J.d.J.{.a.t.u.9 % % @ r ",
"%.4 - 2 n 1.=XMXMXDXLX*XBXDXm JXBXHXHXBXh.$Xw.y.h.!.y.K.g.%XkXG.%X%Xt.P.L.m.e.e.m.b.E E ( ( _ u $X$Xh.!.q.q.y.%X*XzX*X.X$Xg.h.p "
};
