/* XPM */
static char *result[] = {
/* columns rows colors chars-per-pixel */
"64 64 256 2 ",
"   c #000800",
".  c #000008",
"X  c #000808",
"o  c gray3",
"O  c black",
"+  c #180800",
"@  c #120806",
"#  c #001000",
"$  c #001008",
"%  c #081008",
"&  c #001808",
"*  c #081808",
"=  c #031800",
"-  c #101008",
";  c #181008",
":  c #101808",
">  c #141804",
",  c #000810",
"<  c #080810",
"1  c #000818",
"2  c #030313",
"3  c #001010",
"4  c #081010",
"5  c #001810",
"6  c #081810",
"7  c #001018",
"8  c #081018",
"9  c #001818",
"0  c #081818",
"q  c #101010",
"w  c #101810",
"e  c #181810",
"r  c #101018",
"t  c #101818",
"y  c #181818",
"u  c #181010",
"i  c #261005",
"p  c #341005",
"a  c #002108",
"s  c #082108",
"d  c #002908",
"f  c #162106",
"g  c #002110",
"h  c #082110",
"j  c #002910",
"k  c #082910",
"l  c #002118",
"z  c #082118",
"x  c #082918",
"c  c #002918",
"v  c #102110",
"b  c #182110",
"n  c #102910",
"m  c #182910",
"M  c #102118",
"N  c #182118",
"B  c #102918",
"V  c #182918",
"C  c #083110",
"Z  c #083118",
"A  c #083915",
"S  c #103110",
"D  c #103118",
"F  c #183118",
"G  c #103918",
"H  c #183918",
"J  c #183110",
"K  c #183108",
"L  c #242408",
"P  c #212110",
"I  c #212910",
"U  c #212118",
"Y  c #212918",
"T  c #292814",
"R  c #362113",
"E  c #293110",
"W  c #213118",
"Q  c #293118",
"!  c #293918",
"~  c #233613",
"^  c #393910",
"/  c #313918",
"(  c #393918",
")  c #363112",
"_  c #001821",
"`  c #081821",
"'  c #051324",
"]  c #101821",
"[  c #181821",
"{  c #082121",
"}  c #082921",
"|  c #082129",
" . c #052726",
".. c #102121",
"X. c #182121",
"o. c #102921",
"O. c #182921",
"+. c #102929",
"@. c #182929",
"#. c #152129",
"$. c #083121",
"%. c #083625",
"&. c #103121",
"*. c #183121",
"=. c #103921",
"-. c #183921",
";. c #103129",
":. c #183129",
">. c #103929",
",. c #183929",
"<. c #052631",
"1. c #182931",
"2. c #122735",
"3. c #183131",
"4. c #183139",
"5. c #123535",
"6. c #083139",
"7. c #212921",
"8. c #212929",
"9. c #232321",
"0. c #213121",
"q. c #213921",
"w. c #293921",
"e. c #213129",
"r. c #213929",
"t. c #293929",
"y. c #293124",
"u. c #313121",
"i. c #353526",
"p. c #212931",
"a. c #292931",
"s. c #213131",
"d. c #213931",
"f. c #293931",
"g. c #213139",
"h. c #213939",
"j. c #293939",
"k. c #293131",
"l. c #343634",
"z. c #312929",
"x. c #421305",
"c. c #4A390E",
"v. c #42392D",
"b. c #164416",
"n. c #084218",
"m. c #214218",
"M. c #274715",
"N. c #394218",
"B. c #344510",
"V. c #395518",
"C. c #184221",
"Z. c #184229",
"A. c #104A29",
"S. c #184A29",
"D. c #124424",
"F. c #185229",
"G. c #105229",
"H. c #184231",
"J. c #164633",
"K. c #185633",
"L. c #084625",
"P. c #214A21",
"I. c #214229",
"U. c #294229",
"Y. c #214A29",
"T. c #274623",
"R. c #394A21",
"E. c #314229",
"W. c #344725",
"Q. c #255629",
"!. c #355625",
"~. c #214231",
"^. c #294231",
"/. c #294A31",
"(. c #294239",
"). c #294A39",
"_. c #214734",
"`. c #394A31",
"'. c #314239",
"]. c #314A39",
"[. c #334633",
"{. c #215231",
"}. c #295231",
"|. c #295A31",
" X c #235837",
".X c #315231",
"XX c #315A31",
"oX c #365636",
"OX c #186336",
"+X c #396B25",
"@X c #266434",
"#X c #396339",
"$X c #356736",
"%X c #317636",
"&X c #397318",
"*X c #424A18",
"=X c #474712",
"-X c #4C4C0E",
";X c #704A0D",
":X c #426B15",
">X c #427B18",
",X c #454927",
"<X c #465726",
"1X c #464935",
"2X c #465431",
"3X c #525231",
"4X c #466638",
"5X c #496D2E",
"6X c #6D7133",
"7X c #173647",
"8X c #143752",
"9X c #102942",
"0X c #233845",
"qX c #21395A",
"wX c #18425A",
"eX c #294242",
"rX c #284749",
"tX c #314A42",
"yX c #334647",
"uX c #395242",
"iX c #355646",
"pX c #264456",
"aX c #344952",
"sX c #355559",
"dX c #295646",
"fX c #376746",
"gX c #387643",
"hX c #39735A",
"jX c #184564",
"kX c #185273",
"lX c #254867",
"zX c #355566",
"xX c #264F70",
"cX c #396363",
"vX c #444A44",
"bX c #465946",
"nX c #455A55",
"mX c #466744",
"MX c #467945",
"NX c #537548",
"BX c #507154",
"VX c #63734A",
"CX c #446379",
"ZX c #4B6F6B",
"AX c #578C29",
"SX c #548A56",
"DX c #488654",
"FX c #658955",
"GX c #638C4A",
"HX c #6B9969",
"JX c #6BA568",
"KX c #528473",
"LX c #255A84",
"PX c #316394",
"IX c #4A7384",
"UX c #ADB584",
/* pixels */
"uXX.(.8.*.O.O.*.O.e.@.@.%Xz z CXaX(.% K., , , , , , , 4 fXt.^.(.r.[.f.[.4X@.M ~.r.).s.tXe.f.O.t O.O.|.e.Y...}.] +XrX+Xd..XAX< 1 ",
"uX'.(.^.7.O.0.0.r.O.@.] F.6 z IXrXyXd.Z.4 , , , , , 3 , O.ZXiXr.(.[.[.O.U.mX:.O.0.tX(.).].e...O.O.r.r...e.@.$ 8 zXcXh.e.+XT., 6 ",
"..e.].).iX~.X.*.O.r.r.A.K.@.sXA.eXZX XrX4 , , , X , 3 , yXI.iXe.t.d.o...].oXuX#.8.] tXuX(.@.~.O.O.q.*.0...z 0 -.sXrXs.rX@.eX3 , ",
"0 N ].8.].].e.O.q.O.I.o.H.4.CXiXK.x H.aX4 , , , , , , , 8.uX,.O.O.r.O.^.O.yXiXtX@.0 0 ].d.(.f.~.*.*.0.r.*.e.e.0XyX+.zX3.h...X , ",
"8 t '.l.[.i.fXk.O.Y.x 4 :.M @.8 dXK.2.+.4 < 4 , , , , , d.].8.X...].O.(.@.t uXtX@.0 < X.f.'.[.~.^.O.O.^.*.e.6 sX4 sX1.3.rXt 4 , ",
"8 8 l.'.,X0 tXuXK.OXK.M *.J.3 3.x o.h.@.4 3 , , , , 3 3 , d.X.8...].o.j.8.#.X.(.'.0 8 X.vXvX,X).(.]...*.:.r...d.8 0Xp.0 h.0 3 4 ",
"8 [ l.1X3X3X1Xh.A.=.x x z x x 6 ..0 sX..t 4 , , , , , 4 , s.yX8...(.X.a.` 3.@.0 yX0 < l.1X3X,X1Xk.eXO.B o.* 6 -.4 M M &.K.&.S.,.",
"8 t vXQ 1X1Xz.} x A.%.@XM z 4 :.#.0 4...3.4 4 , , , 3 3 , 8.p.e.(.h.uX0XaXtX@.X.r 8 8 l.u.Q v.z.N ....r.O.&...O.sX,.8 3.M B o.0 ",
"8 [ i.^ 1X9.: F.x :.:.rX0 o.x s.4 7 ` t eXt 0 , , 3 , , , , s.e.ZXaXa.yXyX0Xk.X.8 8 8 i.i.^ Y v.N @.nXO.:.*.M *.(.4 t ` H q.6 M ",
"8 4 ^ =Xc.y i.A.:.XXw.F.Q.B C.{ 6 3 @.0 rX0.3 , , 4 , , , 0 ..sXZXCXh.[ e.'...e.8 8 < =X-XL ) i.nX(.f.R.`.9.<XR.7.0 w h.M B M X.",
"8 8 V ^ ) y 7.>.2XB 0.r.T.oX@XN.! 0.M 4 (.N % 4 4 , , , , < rXIXsXg.eXO.e.8.t ..y 8 8 0 ^ E -Xk.BXbXE.V Y O.W.W.*XN./ M N ..@.o.",
"8 8 Y ( ) T X iXV A.t.N A.m Y ~ N.N Q 6 s.O.M 4 X , , , 4 , h.h.rX1.eX....f...t t 8 8 0 =XN ^ 7.bX].6 O.E.l.! > Q N.E t W @.] O.",
"8 8 Y r N C.< t V -.b tXZ.V V N.W : q Y @.@.e.0 4 , < , , , ..@.s.g.@.0 0 j.f.0 @.0 8 M N t N v 0 r Q 0.r.e.q w / ! b ! 8 e.0 #.",
"8 t M W Y.D.6 7.q.OXbXU ! Q.b Y `.W.M 4 t j...4 3 3 3 , , 3 0 e.iXt #.0 0 0 f.8 ] 8 0 0 M R.t w.bX7.q.`.`.0.I 0.Y R.R.4 t 4 8 e.",
"8 t 0 <XOXz z M v %Xz % b ! E.3 v w.t uX0 e.O.3 0 4 3 , , , 0 j.l.t ] 0 0 t O.8 4 8 M 0 R.! w.N O.6 0.0.w w E w.0 w W E.t s.8 @.",
"< 0 M : z 4 Y U.*.* 4 % ) t O.w 4 v I M t O.M t 4 4 , 3 , , 4 e...M t 0 0 0 t 0 8 4 0 0 6 V 6 ! : W t 4 w 6 b O.6 w 4 v ! t 4 0 ",
"4 0 0 B 6 W b B A.b w v Y 3 4 4 b w N Q : 3 ..t 4 , 3 , , 3 4 O.M X.0 @...4 t 8 8 4 8 0 ..q.R.m W w 4 w b 6 Y 8 8 M q v b b * 8 ",
"< 8 8 =.z =.D x 4 v , E P 4 4 4 q 4 % P v 0 4 4 X., 3 4 , , , 6 3 , 3 , X , , 4 8 4 8 8 M w.W Y w 3 6 v w v b 0 p.4 w 4 b b 3 3 ",
"0 < 0 6 A.q w q w w 6 W U < y e % t t 0.M X 0 4 4 8 4 , 3 , 4 4 , , , , , , , , 4 8 3 8 t V t - w 4 q w 4 W 4 y R r b t 0.O.w , ",
"..8 %.s F.b t 6 P b y t 8 p.y u , iXoXd.O.t t `., 4 3 3 , , 3 6 , , , , , , , , , ..0 0 4 v I M 4 4 w Q y y 4 yXI 4 Y oXoXd.o.t ",
"t o.x G v 6 4 4 b / U 9.8 4 r P q /.BXtXO.].`.y., 3 0 3 , , , w , , , , , , , , , 0 0 $ 4 v 4 X.w 4 Q Q Y N X.r e m M @.BX~.0 iX",
"w.$.6 q.M 8 N b 6 m 3 8.w q R 4 M iX*._.aXz T.4 4 0 4 , , , , 4 < , 7 4 3 , , , , t t M q.q.8 t Y b Y 4 0 X.X R 4 4 U.iX1 +.aXw.",
"D $ B /.8 8 4 Q 0 t 4 4 b - M O.U.).X.d.iX4 4 M v 3 3 3 , , , 4 4 3 7 0 4 3 4 % % N N *./.t 0 % v Y t q 4 4 - q 4 [.uXO.t.O.uX4 ",
"h $ o.0 8 4 4 N Y W 4 @.e : % t.`.^.O./.iX4 4 4 t 0 3 4 , , , , 4 4 , , , 4 t 0 0 P 4 O.O.8 0 0 Y M *XY 4 s.b q N 0.r.O.r.Z.nX< ",
"4 b z $ X.8 3 t N P w ..T c.o q.[.} U.< /.0 a.q q t < 3 , , , , 4 8 8 , 3 4 M 0 t b ( 0 4 t ..M M t ( q 6 X.L o q./.M ..O.t.).8 ",
"b D Z 8 O.8 X.8 r I e X.U P w M w.3 r.M 4 M t.q w w 4 3 3 , , , 8 3 .., 0 t N * : L % 4 4 t t t N t t w t 8.( w T.W.O.6 V 4 r.4 ",
"- Z x 8 *.t t N 8 M W.y 7.w 4 0.O.3 t.M e O.4 < w., 4 , 3 , , , 8 4 .., % N M t t : L b 4 0 O...t N 8 t N N b q z `.M X.B w b 4 ",
": G.% 8 *.t t 8 8 8 2X0 @.w 4 U.O., U.M - V 4 0 t.M 4 3 3 3 , , 4 3 4 , 4 t N : e : o N 4 8 ..8 t 8 8 ` ,Xt w 4 0 e.4 4 O., o % ",
"6 H 6 8 4 ....8 8 8 y.0 X.w 4 r.0 3 M M 4 4 4 4 ..t , 3 , , , , 4 , 4 , 4 % N v 6 f : 4 4 8 4 t t 8 8 8 ,X0 Y 3 3 0.3 3 q.4 4 4 ",
"w 6 0 4 4 ..4 8 0 8 t t N y.4 0 6 3 3 o.4 q w 6 O.N 6 4 3 , , , , 4 o., 4 0 b v 4 w % , 8 4 ] 0 8 8 8 8 N t t.q 3 M 6 3 6 t 4 w ",
"x 6 0 0 8 8 3 0 3 8 8 N t u.4 7 6 3 3 < 4 % , 3 M 0.4 3 , , , X , 4 0 , 8 4 : M 8 4 4 8 4 0 8 0 3 8 8 8 N t 9.U 7 t 6 3 0 4 0 o ",
"Z 0 { 0 8 3 0 4 ] r 8 N t w.4 4 w X x X 4 4 4 3 t , 3 3 , , , , , , ` , 3 4 3 t 3 6 t 8 8 8 8 0 4 0 ] 8 r t 8.M 4 q I X 4 4 4 3 ",
"4 x D.` 0 8 8 3 r ..8 Y 4 '.0 8 0 , 0 o X 4 4 X < `.4 4 X , , , , 4 3 , , 3 X 0 4 6 , , 8 8 8 8 0 3 ..r 8 U 7.e.8 ..N 4 ; ; X 4 ",
"4 D.8 8 8 8 8 8 8 X.8 N 4 [.0 8 t 4 e.p u 4 < M 4 W.4 3 8 3 , , , , 0 , , 4 X % 4 3 M 8 8 7 8 8 0 7 t ..8 Q w e.8 0 Y 8 x.i X 3 ",
"x < 4 4 , ` 3 0 8 0 8 r 0 7.t , Y 4 U % i 4 X 4 4 *.t 8 3 8 , , , , t , 4 4 4 X X 3 M 4 3 , 8 4 8 0 8 0 8 N 0 t.8 N I : p x.o t ",
"G.4 3 3 , 3 8 8 4 4 ] t t N 0 X 7.X x.; p ; < M 3 W., X.X , 3 , , , $ 3 4 3 t , 4 .., 7 3 4 3 8 4 8 3 8 t N 8 X.0 M X.i @ ; + r ",
"4 4 8 3 3 3 3 4 4 0 8 t T 0 t X e.X + P + 4 < V 3 0.0.4 4 4 , , , , , 3 3 4 4 4 .., 0 7 3 4 3 8 3 8 4 8 t N 8 7.4 X.t @ % ; + 4 ",
"t 0 8 8 4 4 3 3 3 4 4 0 i.% v 3 Q 4 4 4 q @ 4 4 3 W 4 N 4 , 3 , , , , , , 4 4 M 4 t 4 ` 8 3 4 4 , 3 3 8 4 0 t N 0 w M 4 o < 4 4 ",
"< , 4 4 4 4 , , 8 8 4 8 i.t y., N 4 3 , 3 4 4 4 4 t M 4 8 , 3 , , M., , , 3 4 8 , 4 , 3 4 4 4 4 4 3 3 4 8 0 U t w 4 w 0 8 0 3 w ",
"8 3 t 4 , 4 t , 8 8 4 l.Y y i.< w 0 3 8 4 3 4 4 4 N , v 3 , , , , M.X 3 , X t , 3 8 0 ..3 3 4 , , 3 8 8 4 t y.t U 4 w 4 4 *.4 6 ",
"3 4 8 < 3 , 4 4 7 8 0 UXO.E.9.q 3 4 0.4 0 O.0 0 4 , O.4 3 4 , , , AXM.X , , B.0 4 $ HX0 4 4 0 X.-.mX7 8 t y 1XX./ , 3.M 4 z 4 t ",
"4 0 8 | ..0.4 M 3 0 t oXc.,XVXw , 0 M 6 4 t 0 V 3 3 r.4 4 V 0 3 , >X>X, E , -X0 8 fX$XJX` +.O.0 JXMX3 t ( c.T Q f.4 0 xX(.6 4 0 ",
"4 4 } | M M V w 4 4 y 5X6Xc.GX: , 4 M M 4 8 O.M 3 6 , 4 3 +XB % < :XV., E , *X0 X MX%XMX+. .V e F.S.4 4 T c.) E ,XkXiXFX*.4 4 6 ",
"4 3 { VXVXV V.HXr 4 0 mX6X;X`.Y , O.M 6 4 0 M w ..z t 3 3 ` m.! ` :XHXNX:X! *X4 4 |.$XQ.,.o.q.%X|.F.< 8 T -X;XL 2X4 KXMX0 z 3 rX",
"4 8 t FXVXB J 4XoXe ; oX4X6XT.4X4 M 3 b 3 6 4 0 M O.M 6 z 4 ! n ' :XMXfXSX! =X0 0 Y.|.G %X-.$XS.G F.}.L u -X<X-XR.w 4XXXmXLX0 f.",
"0.4 0 oX/.=.S.$X#XM 2X$X#XNXU.oX4 v B m 3 4 N 0 M | 6 o.3 % ` K e 5XV.{.%X$X=X8 }._. X-.oX-.@XS.C.@XgXy HX( -X! R.* NX#XmXPX| :.",
"`.4 GX#XNX@.DX}.Y.XXoXY.U.P.-.U.6 /.U.i q 0 F o.0 ;.o.M.M NXH v * !.c.P.dXS.Y.8 MXZ.S.>.J.v Q. X{.@XfXX.HXJXSX%XSXSX#XXXSXLX0XoX",
"-.y .XZ.4Xb.{.=.D m }.Y.T.D -.G Y.Y.=.0 0 B m.V.` 5.o.: BXo.x b.DX6 Q S.=.C Z O.gX%.Q.x {.%XC.-.S.S +.} fXY.b.|.$ lXXX.XNX1.e.GX",
"4X6X|.H /.C.-.C.C.s %X-.XX*.n -.-.=.o.0 z R.5XV.m.r 8 0 M.,.~.!.c |.V 6  Xk h Z #XD C.k MX{.k k D P.3 P.n MX}.9 _ ` ].oXS., _ 4X",
"E.4X}.S.#XY.S.S n & n k Y.D -.D %.+.0 bX<XM.<X!.b.M.).ZXBX X}._.{.S.C S.-.& s = |.x =.C.@XZ.-.D S.H.S.h B }.fX}.9 0 ).#X].3.`.XX",
"$XH /.}.fX0 0 fXs # # & h h k s #.d.~.P.!.5X!.! { M m % ~ b L E ~ ~.hXS.k s # a * I.n b.Z.G B h A |.v * , 7X8X/._..X~..X).iXBXiX",
"#XI.-.T.Q.8 8 :.#XVXFX# } pXyXt <.0 { 0 &XW.F $ 5 h m 6 k h B.> F : ! b -.=.# # = Y.& s k B s n S s s iX4.8X&.D -.:.*.}.D NX-.! ",
"T.H s n V 4 #X-.#X.X  6 # X CXxX` $ 5 l , | 9 B D.c g h z I v T w V 3 ) T s     # D = # h n & * D X.}.;.9X2.H s a mX*.-..XH r.F ",
"-.=.s -.| n z ,.4 # O x xXjX3 j.eX2 7 ` 0 lXx l l 5 3 & L.5 l X , $ & X $ x *   # =.m   * & 5 B # 0X3 4.7XZ F & & * -.n m.F *.h ",
"S k h s n * 1 2.{ X O z 3.wX7X4.O.4 4 1 0 pX5.O.x 9 Z.|.Y.C.%XC j a b.A A C 6     h Y.  & # 6 2.$ 7X] < z lXV s   # D s s B n B ",
"9 z o.x 0 7 | +. .2.1 5.{ i.-X@.F M M } +.kX5.5 -.rXxXc x x x & =.$ a $ & 5 g h   $ &.  O   $ * * 2.| 7XqXx & & 5 X h v   z $ 2.",
"z 5 H _.{ *.2.J. .9 9 ;X;XN.^ ! x jXc 7X4.jX2., :.pX8Xx >. .x Z x x =.* g k $ j d & & %.& a $ & 5 ` $ 0X{ 3 5 3 <.3 , { 5 $ $ 2.",
"0 *.H -.3 h 5 z p.%.$.Q Y I *XN.6 jX4.:.@.7X).o.4.jX` 9  .Z oXVXI.,.S. Xo.9 9 h k B a 1.pX{ rX@.& g %.A.j X , . 3 X . . , v fX#X",
"5 , _ ' o.>.9 yX0Xp.y.Q : / *XF v l , 7 9 1 9 , 7XjX2 ' 8X9XwXP.iX>. .=.x ,.9 0 < pXpXCXaX7XzXyXA A.x 5 D.;.3 { 3 c 5 5 ..{ -.T.",
"+.< 3.+., 9 ` 4.7XU...o.M O.W.s H 6 9 0 3 < ..bXvX4 +.| 8X6.!.&.,.,.z 0 ..nX,.8 1 j.aXg.zXzXpXsX+.C.%., x J.{ 8 X X &.3 9 z &.x ",
"3.< t 5 H.... 9 >.o.=.6 z z h % x z 0 ` 1.< t T.U.iX3.aXX.$.Z.0 , 5.H.}..Xt 8.p.p.t X.y g.0X@.pX3 x &.X 9 $.:.{ 7 8 t . % 5 Z } ",
", 4 4 G x ~.J.3.;.3 5 5 3 3 $ g g s :., , 4 4 1X8.8 4 +.6.3.z z g 9 } +.I.a.[ 0 7 3 w U 0X4.0X7Xx x l l 5 5 mXd.;.0 F w . 0 0 $.",
"t n o 4 X < 8 { } x z l l 3 3 z oXz _.H.@.h -.t X < 0 { $.>.Z 9 c ' _ +.-.I.q.eXtXX.V T.0 q < y 0 } $.x 5 ' +.&.4 T.b.-.X 9 l $.",
"!..X-.v 3 1 3 x &.;.h x 5 9 7 +.&.&.B l.5X!.M.P.! b.x c x } Z n.A %.D.Z k C G S.4X5X5X4Xm.H 5 0 9 5 $. .5 g %.&.-.Y.|.gXDX X{.K."
};
