/* XPM */
static char *result[] = {
/* columns rows colors chars-per-pixel */
"64 64 255 2 ",
"   c #010404",
".  c #030B04",
"X  c #0C0C04",
"o  c #010509",
"O  c #030A0A",
"+  c #090B0A",
"@  c #0B0400",
"#  c #100C02",
"$  c #1A0800",
"%  c #140808",
"&  c #031104",
"*  c #0C1206",
"=  c #04130A",
"-  c #0A130A",
";  c #03190A",
":  c #0A1A0C",
">  c #0A1D06",
",  c #121305",
"<  c #121C05",
"1  c #11130A",
"2  c #181008",
"3  c #111909",
"4  c #000810",
"5  c #080810",
"6  c #000818",
"7  c #030313",
"8  c #011010",
"9  c #081010",
"0  c #011910",
"q  c #091911",
"w  c #001018",
"e  c #081018",
"r  c #001818",
"t  c #081818",
"y  c #101110",
"u  c #101810",
"i  c #181810",
"p  c #101018",
"a  c #101818",
"s  c #181818",
"d  c #181010",
"f  c #241406",
"g  c #351008",
"h  c #290900",
"j  c #04210A",
"k  c #092109",
"l  c #002908",
"z  c #13200B",
"x  c #1A210B",
"c  c #1A2507",
"v  c #002110",
"b  c #0B2111",
"n  c #082A11",
"m  c #002118",
"M  c #082118",
"N  c #082918",
"B  c #012A14",
"V  c #112212",
"C  c #182110",
"Z  c #122913",
"A  c #182910",
"S  c #102118",
"D  c #182118",
"F  c #112A19",
"G  c #1A2B19",
"H  c #083118",
"J  c #083615",
"K  c #103110",
"L  c #113118",
"P  c #193219",
"I  c #103918",
"U  c #183918",
"Y  c #1B3110",
"T  c #1D360A",
"R  c #212108",
"E  c #232708",
"W  c #212111",
"Q  c #212910",
"!  c #212118",
"~  c #212918",
"^  c #292712",
"/  c #362113",
"(  c #293110",
")  c #213219",
"_  c #293118",
"`  c #293918",
"'  c #233714",
"]  c #393910",
"[  c #313918",
"{  c #393918",
"}  c #373110",
"|  c #20360E",
" . c #091922",
".. c #041524",
"X. c #101821",
"o. c #181821",
"O. c #082121",
"+. c #082921",
"@. c #082129",
"#. c #042725",
"$. c #102121",
"%. c #182121",
"&. c #102921",
"*. c #182921",
"=. c #12222B",
"-. c #182129",
";. c #102929",
":. c #182929",
">. c #083121",
",. c #083921",
"<. c #083429",
"1. c #103121",
"2. c #193221",
"3. c #103921",
"4. c #183921",
"5. c #103129",
"6. c #183129",
"7. c #103929",
"8. c #183929",
"9. c #082834",
"0. c #102131",
"q. c #122A31",
"w. c #182931",
"e. c #112939",
"r. c #182939",
"t. c #103131",
"y. c #183131",
"u. c #183139",
"i. c #143635",
"p. c #083139",
"a. c #212921",
"s. c #212929",
"d. c #232521",
"f. c #213121",
"g. c #2A3221",
"h. c #223A21",
"j. c #293921",
"k. c #213129",
"l. c #213929",
"z. c #293A29",
"x. c #293129",
"c. c #313121",
"v. c #343427",
"b. c #212931",
"n. c #292931",
"m. c #213131",
"M. c #213931",
"N. c #293931",
"B. c #213139",
"V. c #213939",
"C. c #293939",
"Z. c #293131",
"A. c #333633",
"S. c #312929",
"D. c #421408",
"F. c #46390C",
"G. c #42392D",
"H. c #134218",
"J. c #244616",
"K. c #394218",
"L. c #315816",
"P. c #184221",
"I. c #104229",
"U. c #184229",
"Y. c #104A29",
"T. c #154824",
"R. c #185229",
"E. c #105229",
"W. c #184231",
"Q. c #154534",
"!. c #185231",
"~. c #185A35",
"^. c #084A29",
"/. c #2A4222",
"(. c #294A21",
"). c #214229",
"_. c #2A422A",
"`. c #214A29",
"'. c #274726",
"]. c #314221",
"[. c #394A21",
"{. c #314229",
"}. c #364928",
"|. c #265729",
" X c #345727",
".X c #214231",
"XX c #294231",
"oX c #294A31",
"OX c #294239",
"+X c #294A39",
"@X c #214734",
"#X c #314231",
"$X c #334A31",
"%X c #394A31",
"&X c #314239",
"*X c #314A39",
"=X c #394739",
"-X c #295231",
";X c #235734",
":X c #315239",
">X c #345633",
",X c #186336",
"<X c #216731",
"1X c #396339",
"2X c #366334",
"3X c #33712B",
"4X c #424A18",
"5X c #464612",
"6X c #4D4508",
"7X c #454A28",
"8X c #465221",
"9X c #464936",
"0X c #435835",
"qX c #525231",
"wX c #456536",
"eX c #4A6F35",
"rX c #6B581B",
"tX c #18394A",
"yX c #173546",
"uX c #103552",
"iX c #152C41",
"pX c #21394A",
"aX c #253842",
"sX c #21395A",
"dX c #18425A",
"fX c #294242",
"gX c #284748",
"hX c #314242",
"jX c #314A42",
"kX c #314A4A",
"lX c #364647",
"zX c #395242",
"xX c #39524A",
"cX c #355745",
"vX c #264456",
"bX c #344952",
"nX c #355559",
"mX c #29524A",
"MX c #396648",
"NX c #397342",
"BX c #184263",
"VX c #184A67",
"CX c #355566",
"ZX c #24476E",
"AX c #396363",
"SX c #444A44",
"DX c #455847",
"FX c #455A55",
"GX c #4C6F4F",
"HX c #446379",
"JX c #4A6D6D",
"KX c #639431",
"LX c #428C5A",
"PX c #63884E",
"IX c #4A7384",
/* pixels */
"zX%.OXs.2.*.*.2.*.k.:.:.3XM M HXkXOX+ !.4 4 4 4 4 4 4 9 MXz.XXXXl.&XN.#XwXk.$.@Xz.+Xm.jXk.N.*.a *.*.-Xl.`.$.|.X.3XkX3Xl.>XKX5 4 ",
"zX&XOXXXf.*.a.f.l.*.:.$.!.0 M IXkXkXy.U.q 4 4 4 4 4 8 4 G JXcXz.XX&X$X*._.DX6.*.f.jXOX+X*Xk.O.*.*.k.l.$.k.:.4 e CXAXV.k.2XJ.4 8 ",
"$.k.*X+XxX@XO.*.*.l.l.I.~.:.nXT.fXJX;XgX5 4 4 4 O 4 8 4 kX).cXk.z.M.+.$.*X:XzX-.s.X.jXzXOX:..X*.*.h.2.f.$.M t 2.bXgXb.gX:.fX8 4 ",
"t D *Xs.*X*Xk.*.h.*.).&.W.B.HXmX~.+.8.nX9 4 4 4 o 4 4 4 k.zXy.*.*.l.*.XX*.zXxXjX:.t t *XM.XXN..X2.2.f.l.2.k.l.aXkX&.CXy.V.O.O 4 ",
"e a &XA.#XA.MXN.*.).N 9 6.S :.e mX!.q.;.9 5 9 4 4 4 4 4 M.*Xs.o.$.*X*.OX:.a zXjX:.t e %.N.OX#X.XXX*.*.XX2.k.q nXe nXw.y.gXa 9 4 ",
"e e Z.=X7Xa jXzX~.,X~.S 2.Q.8 y.N *.V.:.9 4 4 4 4 4 4 8 4 M.*.s.$.*X&.C.s.$.$.OX=Xt e %.SXSX7XOXOX*XO.2.:.z.$.M.e aXb.t V.t 8 9 ",
"e o.A.9XqX7X9XV.Y.3.N N M N N q $.t nX$.t 9 4 4 4 4 4 9 4 m.hXs.$.OX%.n.$.y.:.a aXt p A.9XqX7X9XZ.fX*.F +.q q 4.9 S S 1.!.1.U.8.",
"e a SX_ 9XqXS.&.N Y.3.<XS M 9 6.$.t u.$.y.9 9 4 4 4 8 8 4 s.m.k.OXV.kXaXbXhX:.$.p e e A.c._ G.v.D $.$.l.*.1.$.*.nX8.9 y.F F &.t ",
"e o.v.] 9X%.i R.N 6.6.jXt &.N m.9 w  .a fXa t 4 4 8 4 4 4 4 m.:.JXbXn.bXlXaXZ.*.e e e v.G.] Q G.D *.FX*.6.2.S 2.XX9 a  .U h.q S ",
"e e ] 6XF.s v.Y.6.>Xj.R.R.F P.O.q 8 :.t jXf.8 4 4 9 4 4 4 t $.nXJXJXV.o.k.&X$.k.e e e F.5XE } v.FXOXN.[.%Xa.8X[.a.e u V.S F S %.",
"e e G ] } s a.7.0XN f.l.'.>X<X4X` f.M 9 OXD 9 9 9 4 4 4 4 9 gXIXnXB.fX$.k.s.a $.s e e t ] ( 6Xx.GXFX{.G ~ *.].}.4XK.[ S D $.:.&.",
"e e ~ { } ^   cXG I.z.D Y.x ~ ) K.D _ q y.*.S 9 o 4 4 4 9 4 V.V.fXw.fX$.$.N.$.a a e e t 4XD ] a.DX=Xq *.#XA.` < ) K.( a ) :.X.*.",
"e e ~ p D P.= a G 4.C jXU.D G K.) u 1 ~ :.-.k.t = 4 5 4 4 4 $.:.N.B.:.t t C.N.t :.t e S D a D V q p ) f.l.k.y u [ ` C ` e k.t :.",
"e a S ) `.I.q a.U ,XDX! ` |.C ~ }.}.S 5 a C.$.9 8 4 8 4 4 8 t k.xXa =.t t t N.e X.e t t S [.a j.DXa.j.=X%Xa.Q f.~ [.}.9 a 5 e k.",
"5 a t 8X,XM M S V 3XS + C ` {.8 V j.a zXt k.*.8 t 9 8 4 4 4 t C.N.a X.t t s *.e 9 e S t [.' j.D *.q f.2.u u ( j.q u ) {.a m.e :.",
"9 t S q M 9 ~ _.2.t = = } a *.u 9 V Q S a *.S t 9 9 4 8 4 4 9 k.$.S a t t t t t e 9 t t q G q ` 3 ) u 9 u q C *.q u = V ` a 5 t ",
"9 e t S q ) C F Y.C u V ~ 8 9 9 C q C _ u 4 $.a 9 4 8 4 4 8 5 *.M *.t :.O.9 a e e 9 e t $.h.[.A ~ u 9 u C q ~ 9 e S y V i C q e ",
"9 e e ,.M 3.L N 9 V 4 ( W 9 9 9 y + - W V t 9 9 %.4 8 9 4 4 4 q 5 4 4 4 + 4 4 9 e 9 e e S j.) ~ 3 8 q V q V C t b.9 u 9 c C 8 8 ",
"e 9 e : Y.y u y u u q ) ! 5 s i - a a f.S 4 t 9 9 e 9 4 8 4 9 9 4 4 4 4 o 4 4 4 9 e 8 e a G u y u 9 5 u 5 ) 5 D / y C a f.*.u 4 ",
"$.e ,.N R.C a : R i s a e b.s d 4 cX:XM.*.a a }.4 9 8 8 4 4 8 q 4 4 4 4 4 4 4 4 4 $.t t 9 k Q a 9 9 u _ s s q lX~ 9 ~ :X:XM.&.a ",
"a &.N I V q 9 9 C [ ! a.e 9 p W y oXGXcX*.*X%Xf.4 8 t 4 4 4 4 q 4 4 4 4 4 4 4 4 4 t t 4 5 b 9 *.u 9 _ _ ~ D %.p i C S *.GXW.t xX",
"j.>.q h.t e D C q A 4 s.u y / 9 S xXP OXbXS /.9 9 t 9 4 4 4 4 9 5 4 w 9 8 4 4 4 4 u a S h.j.e a ~ C ~ 9 t %.. / 9 9 _.cXe ;.bXj.",
"L O F oXe e 9 _ t a 9 9 C 1 S *._.+X%.M.cX9 9 M V = 8 8 4 4 4 9 9 8 w t 9 8 9 9 9 i D 2.oXt t 5 z ~ a y 9 9 1 y 9 $XzX*.l.*.zX9 ",
"j = &.t e - 9 D ~ ) 9 :.1 3 + z.$XXX*.oXcX9 9 9 a t 8 5 4 4 4 4 9 9 4 4 4 9 a t q Q 9 *.*.t t q ~ S 4X~ 9 m.C 5 S f.l.*.l.).FX5 ",
"9 C M 8 %.e 8 a D W u $.^ F.X h.$XO._.9 @Xa Z.y y a 5 8 4 4 4 4 9 e e 4 4 9 S q u C { t 9 a $.S a a { y u %.R + j.oXS O.*.z.+Xe ",
"x H H e *.e %.e p Q i %.! W u S j.4 l.S 9 a x.1 u u 9 8 8 4 4 4 e 8 $.4 t a D q u R 9 9 9 a a a D a a u a s.{ u '.}.*.q G 9 8.9 ",
"1 N N e 2.a a D e S ].D a.u 9 f.*.8 z.S i *.9 5 j.4 9 4 8 4 4 4 e 9 O.4 9 D S u 3 3 R C 9 t *.$.a D e a D D C y M %XS %.S u C 9 ",
"3 E.- e 2.a a e e 5 0Xa :.u 9 _.*.O _.S , G 9 t z.M 9 8 8 4 4 4 9 8 9 4 9 u D u i : 9 C 9 e $.e a e e  .7Xa q 9 t k.- 5 *.o + 1 ",
": U q e 9 O.$.e e e g.t $.u 9 l.t 8 S S 9 9 9 9 $.a 4 4 4 4 4 4 9 5 9 4 9 = C V q c 3 5 9 e 9 a a e e e 7Xt a.O 4 f.8 8 h.9 9 9 ",
"u 0 t 9 9 $.9 e t e a a s g.9 t q 8 8 +.9 y q q *.D q q 8 4 4 4 4 9 +.4 9 q C u 9 u + 4 e 9 X.t e e e e D a z.y 8 S q 8 q a 9 u ",
"N : t t e e 8 t 8 e e D a c.9 w q 8 8 + 9 - 4 8 S f.9 4 4 4 4 O 4 9 t 4 e 9 u S 9 9 9 e 9 t e t 8 e e e D a d.! w a : 8 t 9 t + ",
"H t  .t e 8 t 9 X.p e D a z.9 9 q o M O 9 9 5 8 a 4 8 8 4 4 4 O 4 4  .4 8 9 8 a 8 q t e e e e t 9 t X.e p a s.M 9 1 A O 9 9 9 4 ",
"- B I. .t 4 4 O 5 t e ~ 9 &Xt e t O t X O 9 5 O 9 %X9 9 O 4 4 4 4 9 8 4 4 8 O q 9 q 4 4 e e e e t =  .p e ! a.k.9 $.s 9 2 2 O 9 ",
"9 T.e 4 5 5 5 4 5 q 5 1 + *.5 O 5 + k.g d 9 5 S 9 {.9 8 e 8 4 4 4 4 t 4 4 9 O 5 5 8 M e e w e e t w a $.e _ a k.e t ~ p D.f O 8 ",
"M 5 O + O w O 9 O O o + O + + o 3 O s + f 9 O - 9 2.a e = 6 4 4 4 4 u 4 9 9 9 O O 8 S 9 8 o 5 + 5 0 e t e D t z.e D Q u g D.. a ",
"E.+ O O O O o O   o o     .     a   h % $ % 5 M 8 ].4 %.O 4 8 4 4 4 O 8 9 8 t O 9 $.4 4 O   O o   4 O 5 a D e %.t S %.f @ 2 $ y ",
"9 + 4 O +         o   + X       .   @ X @ + 5 D 8 f.f.5 9 9 4 4 4 4 4 8 4 9 9 9 O.4 + o   o o O O o   5 9 S e a.9 %.t % 1 % $ 9 ",
"9 8 4 5 o   O           X       .           + + 8 ) 9 D 9 4 8 4 4 4 4 4 4 9 9 q O +   O o     .       + + 9 a D t u S 5 o 5 9 9 ",
"o o + O o   o   o       @                     + + t M 9 e 4 8 4 4 J.4 o o O + 5   o   O +   o   o o O   o 8 ! a u 9 u t e t 8 3 ",
"5 O - O     o         + +   @                 O + s O V 4 4 4 4 O Y o O o o - o   O O 5             o o   + 1 9 + + - + O 2.9 q ",
"O O 4 O   o       o   s . X         @     .       o q + O O 4 4 o L.A O o o Y     O _.+   o O 5 a G o     + 1 + 3 o t q O q + a ",
"O 9 5 4 = q   +       - # X 3                       a . + q 9     T |   *   E   o ~ F $XO e : + oXV     # X % : s . O =.:.= + 5 ",
"9 O t 9 = + * o       * 2 X 3               .     .   O O J.=     < *   3   R     D P U 9 = - + : -     X # # < C 0.*._.: O O = ",
"9 O r g.g.* C {.      - 1 # - @                   O + O o O * * O c *.C Q < x     : b V t = : P : ;     @ X f , !   M.) o q O w.",
"9 e + DXg.= * G z   @ - * 3 + *       @         O + + O O   * . o < C M G 3 x o   : : = P : G ; = : : @   X E R i + G Z a.e.O *.",
"f.9 t J.S : M G G O - + - - + X     .           O O . = O @ O . + < 3 : b P f O : - q = D q F : = : V   s , c * x . ) G ) iX .M ",
"%X9 PX1X>X9 z.V V G 3 . + . O .   * . @     @     5 + 3 O ) & .   3 , - q = b O D = = = = + b q : : q . S $X` P ).z.G G z.e.=.j.",
"2.a $XP.wXJ.N ; = = V . + . . . - =       . + * o r + . G = + - F   # = + & = - 4.O : . : P k = : + O + P b q Z   =.F G ) e D 0X",
"wXeX>X' '.P.4.U.k + F q * . . = = +     O * 3 * - o + O < : a * . q . + : . . ; G = = & C F & . . :   k = P G O O 4 D F :   e /.",
"_.eX-X`.1X`.T.K n & > > M - = + = +   * * . * x > * $.*.k.N F : q = . = & . . . F = : q q q : ; ; t F = = G F S O O S P S $.x.h.",
"2XU +X-XMXt t MXk * & & ; O & . 5 t q = : 3 z - O - * . 3 X X 3 * : S = . . . . . q & > b N : ; - U : = o  . .C M S a D s 8.$Xz.",
"2X).U '.|.e t k.1XGXPX& +.vXD . 4 o O   c 3 -   O = 3 = & . < X -   ,   = ;     . V . . > q & Z K ; ; l. . .= = : q : D b %XN G ",
"oXU k Z F 9 1X4.1X-X  q & = HXCX4 O = =   4 O = N 0 ; ; O * = , . -   X X .     . = . . k Z ; : L $.4.M X. .: = . P : V ' Z D P ",
"4.3.k 4.O.Z M 8.- .   B ZXBX4 aXfX7 w  .t tXq 0 0 = O = N O .       O   O q &   . b > . & ; ; N & pX0 r.0.M k & . = S : Z 2.4.b ",
"K n k k Z : 6 e.O.O   M y.dXtXr.*.- q 6 t dXt.S 0 0 N U L F L ; & . j j l j = .   = U.. ; . : 0.& yX=.9 M ZXG k . . H k k N n F ",
"r t &.N t w O.#. .q.w i.O.N.6X*.P S S +.;.ZXe.0 4.gXtXe q 0 k = ; O = . . = = & . = H .   . = ; ; 0.O.iXsXN ; & ; O b z . b . e.",
"M 0 U @X .2.q.Q.#.r r rXrXK.] ' M VXr tXu.BXq.4 y.vXtXN 7.<.N L N N 3.k v n & B l ; ; H ; v 8 ; 0  .9 aXO.8 0 4 9.= o  .0 = = e.",
"t 2.U 4.8 b ; M B.<.<.^ g R 4XK.q VXi.8.:.tX+X&.u.BX .r +.N >XGX).8.W.;X&.r r j n G j :.vX+.kX:.; v ,.^.B O 4 o 4 O o o 4 V MX1X",
"0 4 .. .+.7.m lXaXw.g._ 3 [ 4XU k m 4 w t 6 6 8 yXBXo ..uXuXdX(.cX7.+.3.M 4.r t 4 vXvXHXvXpXCX&XJ Y.N 0 I.<.8 O.= m 0 0 $.O.P (.",
";.5 y.;.4 r  .u.tX'.$.&.S *.].k U q r t = 5 $.DXSX9 ;.@.uXe. X1.8.8.M t $.FXi.e 6 C.bXB.CXCXvXnX;.T.>.O N W.O.9 O O >.8 r M >.N ",
"y.5 t 0 W.O.o r 7.&.3.0 M M b = N M t  .w.5 a (._.zXy.xX$.1.U.t 4 i.W.-X Xa b.b.b.a %.s B.pX:.vX8 N 1.O r >.6. .w e a o - 0 H +.",
"4 5 9 I N .Xi.y.5.4 0 0 8 8 = v j b 6.4 4 9 9 9Xs.e 5 9.p.t.M M m r +.5.).n.o.t w w u ! pXr.pXtXN N m r 0 ; GX8.5.t G q o t t >.",
"t V + 9 O + e O.+.N M m m = O M >XM XXi.:.b 8.u o 4 t O.>.7.H r m ..r @.2.).h.fX*Xo.P J.u y 5 s t >.>.N 0 ..;.1.9 /.J.4.O r r >.",
" X X4.V 8 6 8 N 1.5.b N 0 r w q.1.3.F z.eX XJ.(.' H.H N H #.H H.J I T.H n J I T.eXeXwX0XJ.U 0 t r 0 H #.0 v <.1.3.`.|.NXLX;X;X!."
};
