/* XPM */
static char *result[] = {
/* columns rows colors chars-per-pixel */
"64 64 256 2 ",
"   c #29165A",
".  c #381849",
"X  c #362D57",
"o  c #2A1964",
"O  c #2A186A",
"+  c #31196C",
"@  c #321965",
"#  c #321974",
"$  c #361A78",
"%  c #31216C",
"&  c #352768",
"*  c #373568",
"=  c #332273",
"-  c #39217B",
";  c #3A2A7C",
":  c #382676",
">  c #373678",
",  c #2B276D",
"<  c #463259",
"1  c #443669",
"2  c #43277B",
"3  c #463678",
"4  c #543B78",
"5  c #4F3267",
"6  c #63356F",
"7  c #42185A",
"8  c #30544F",
"9  c #2F6D4F",
"0  c #384579",
"q  c #36536E",
"w  c #377867",
"e  c #366E72",
"r  c #1C4A46",
"t  c #4D5054",
"y  c #56645A",
"u  c #4A6F55",
"i  c #4A427A",
"p  c #484776",
"a  c #52437B",
"s  c #524A7B",
"d  c #5A477A",
"f  c #475779",
"g  c #575479",
"h  c #4F5067",
"j  c #664479",
"k  c #67537A",
"l  c #704F70",
"z  c #48656A",
"x  c #566765",
"c  c #476877",
"v  c #566977",
"b  c #487877",
"n  c #577879",
"m  c #507568",
"M  c #656667",
"N  c #746A67",
"B  c #646679",
"V  c #776978",
"C  c #687977",
"Z  c #777979",
"A  c #6F7768",
"S  c #656658",
"D  c #1C3D3A",
"F  c #877675",
"G  c #825B74",
"H  c #369867",
"J  c #388878",
"K  c #36926F",
"L  c #329B5B",
"P  c #478979",
"I  c #558A7B",
"U  c #479879",
"Y  c #55987B",
"T  c #44956B",
"R  c #778778",
"E  c #688C74",
"W  c #4AA579",
"Q  c #55A77A",
"!  c #54B77A",
"~  c #46AF6E",
"^  c #61AB73",
"/  c #57C67A",
"(  c #6BC67B",
")  c #8A8879",
"_  c #3B2783",
"`  c #3E3281",
"'  c #3E1D80",
"]  c #432A83",
"[  c #442A89",
"{  c #463488",
"}  c #4A3795",
"|  c #53398D",
" . c #6F3988",
".. c #374487",
"X. c #387092",
"o. c #3354B8",
"O. c #2776B8",
"+. c #3777B8",
"@. c #2E6EB1",
"#. c #185AAD",
"$. c #474586",
"%. c #574785",
"&. c #4A5688",
"*. c #585687",
"=. c #574697",
"-. c #505496",
";. c #674B88",
":. c #665589",
">. c #76578A",
",. c #685696",
"<. c #765998",
"1. c #704A8F",
"2. c #566686",
"3. c #487887",
"4. c #587887",
"5. c #566898",
"6. c #547697",
"7. c #496E90",
"8. c #68688A",
"9. c #796688",
"0. c #687687",
"q. c #787A87",
"w. c #67669A",
"e. c #786798",
"r. c #677898",
"t. c #767998",
"y. c #514CA5",
"u. c #7658A7",
"i. c #447ABA",
"p. c #5171AD",
"a. c #6767A8",
"s. c #7769A6",
"d. c #7776A6",
"f. c #6976AD",
"g. c #2E5ACE",
"h. c #377AC7",
"j. c #326FD2",
"k. c #315AF7",
"l. c #457ADA",
"z. c #5076CF",
"x. c #687BD1",
"c. c #5377ED",
"v. c #667AEC",
"b. c #875892",
"n. c #886F8E",
"m. c #8978A9",
"M. c #8F6DAD",
"N. c #A978A5",
"B. c #8656AD",
"V. c #947BC5",
"C. c #8C7BEF",
"Z. c #368B8E",
"A. c #3786A9",
"S. c #3790B2",
"D. c #3BA9AD",
"F. c #498787",
"G. c #568986",
"H. c #479687",
"J. c #589986",
"K. c #578695",
"L. c #589A98",
"P. c #488F95",
"I. c #668687",
"U. c #798689",
"Y. c #659988",
"T. c #668895",
"R. c #679B97",
"E. c #779996",
"W. c #759092",
"Q. c #58A886",
"!. c #54AF8E",
"~. c #65AA89",
"^. c #66B789",
"/. c #69A996",
"(. c #76A99A",
"). c #69B697",
"_. c #78B899",
"`. c #73B28B",
"'. c #5496A6",
"]. c #5699B8",
"[. c #4C8FB1",
"{. c #7093AF",
"}. c #57A9A9",
"|. c #46A8B9",
" X c #43B7B7",
".X c #54B8BB",
"XX c #4DAEAF",
"oX c #65A7AA",
"OX c #77AAA8",
"+X c #67AABA",
"@X c #78A8BA",
"#X c #67B8B7",
"$X c #78B9B7",
"%X c #75B6A9",
"&X c #77C899",
"*X c #6EC88F",
"=X c #55C9B6",
"-X c #79C8BA",
";X c #74D8BA",
":X c #71C9AF",
">X c #55CA9B",
",X c #3787CB",
"<X c #358AD2",
"1X c #34AFF2",
"2X c #4887C9",
"3X c #4998C7",
"4X c #5597CA",
"5X c #4888D6",
"6X c #4895DC",
"7X c #568ED5",
"8X c #7987DC",
"9X c #6E90CF",
"0X c #58B9C7",
"qX c #52ABCD",
"wX c #68BAC6",
"eX c #6AAAD9",
"rX c #74B2D1",
"tX c #508DEB",
"yX c #7092EC",
"uX c #72AEE9",
"iX c #56ABF2",
"pX c #58C9C9",
"aX c #67CAC5",
"sX c #77C9C9",
"dX c #79D8C8",
"fX c #6ED1D2",
"gX c #76DAE5",
"hX c #8D8C92",
"jX c #A79394",
"kX c #88B197",
"lX c #9788AB",
"zX c #9094B5",
"xX c #AB8FB0",
"cX c #8FAFB4",
"vX c #B0B0B5",
"bX c #CAB4AA",
"nX c #88CBB7",
"mX c #8BD4B4",
"MX c #9ADAB5",
"NX c #8699D8",
"BX c #8E91CB",
"VX c #A593C8",
"CX c #89B7D7",
"ZX c #8AA8D6",
"AX c #AFB6CE",
"SX c #8BAFEC",
"DX c #A39FEF",
"FX c #89DCC9",
"GX c #90D1CD",
"HX c #B4D0D1",
"JX c #94EBCE",
"KX c #AFE8CF",
"LX c #90CFE8",
"PX c #BACFE8",
"IX c #C7D9DA",
"UX c #CAC2CA",
/* pixels */
"@ + $ @ i ;.$.* & 1 g :.g k x y y y x h y x y t l h M N N V N 7XSXPXVXPXHXKXKXmXGXCXeXyXeXz.p.y y x g ,.:.g * X s =.;.p @ $ +   ",
": + @   p u.6 * 1 g s p 4.2.C z x t y y S x y y x y S M t N V iXDXPXAXZXKXGXKXmXnXCX9X7X7X7XtXv y 0.p i p s s X h a.;.a + + @ @ ",
"$ = O   3 <.d X * 2 3 4 *.*.t.9 9 T 9 w P R.U ! H Q.!.Q.Q.^.`.1XDXDXPXZXzXrXJXMXFX{.i.c.5XuXyXK.K t.3 %.4 d 1 * p u.d i - - @ o ",
"O - $   3 ,.k r 1 3 d 8.;.8.r.r r e w w w nXK w w 9 W *X&X`.*X1XSXDXPXyXzX@XCXFXGXf.[.eXyXtXiX@.w 8.:.,.,.4 3 7 3 g d a $ $ $   ",
"# ' $   i s j L 1 3 p *.4 9.t.r 8 w w w Z.H.).).e ! ^.>X>X^.Q.1XSXC.PXDX@X9X-XGXFX@X+XeXeXyXyXtXK r.;.%.:.d 3 X 9 ;.%.3 # $ $ O ",
"2 - +   3 ,.d J X 4 a ,.*.2.T.e e e e P I I J.^.Q.Y ~ J.~.^.~.XXiXx.IXPX9XCXKXJXmXp.p.[.7XuXtXl.w r.i :.,.a 3 X v s %.p $ _ + # ",
"+ 2 $ o d ,.%.3.& 3 &.g g v R.e b b e w b I R./.Y W H.*X:XmX-X:XeXuXAXDXrXZXKXnXcX$X{.z.5Xi.z.c.w r.p g g s * X 4 :.;.i 2 2 2 @ ",
"O ' ' @ a ,.=.7.* 4 3 3 /.T.%Xb b I U Y.E P !.L.^.Q ~ ! &X;X;X;XqXuXCXZX8XZXMXmXnX'.$X@.2Xh.h.j.U r.*.*.i p 3 * %.,.,.%.# ' - o ",
"# = =   $.,.%.K.* 3 s *.nX%XE.Y.b 9 Y Q.U J.^ ^ U U H Q *XMXMXmXoX+X9XcX{.ZXGXcXL.+X'.i.h.O.@.o.X.r.*.5.*.$.* X *.=.;.1 # : = O ",
"o # = % 1 <.%.7.1 i 5.a.a.R.cXR.`.9 J w n J T Q ^ Y ! ^.^.;X:XmXL.@XL.OXx.BXHXsX-X-XrX].2Xh.@.o.z.T.*.s.f.g i & g <.:.1 # - O   ",
"o o + o i <.:.h i $.,.a.s.r.t.mXE I ~.mXE J.Q./._.Y ! *X! /.*X_.R.oXp.GX{.9XKXGX%X:XnX$X9X4X+.+.g.t.a.s.a.%.i 1 2.;.%.s o + = O ",
"O # , O 1 ,.*.8 4 4 s.s.{.W.I.^ T E / Q `.I./._.Q W ~ ^ mXY J.(./.eX{.L.9X{.wXFX@XmXnXrX7XeX[.2Xl.r.r.f.s.,.4 4 $.;.p 3 % % + o ",
"O @ # o 1 :.s u a i 8.t.d././.Y ^.H.U K K R.!.:X&X_.P Y.E./.~.).Y.}.Y Q BX{.%XGXrX;XFX;X9XrX6XiXz.p.r.e.t.:.$.3 { %.d p O @ = + ",
"o + $ O 3 g a c i *.w.a.e.T.*X^.U W ~.J ! >XD.#X~.I _.R.^ Y U.^.R.oXP.~ SXcXoXGXGXFXmX-XeXeXl.j.2Xp.2.e.w.*.*.1 3 %.%.p + o $ + ",
"@ $ +   4 3 d {.1 $.2.8.nXW.E.T U T W U /.~ OXcXcX).$X!.! W I.(.Y.[.U _.cXcXrXnXJXFXmXFXsX9X7X5X5X7X*.8.8.a i * ,.a 4 1 + # O + ",
"+ # $ o d ;.4 r 3 $.I.r.kXCXT.Y.~ H U w b U H.^._.%X3.F.4.(.J.(.I Y.rX{./.OXGXGX@XFXdXdX'.[.5Xl.6XtXa.f.r.,.$.* q 4 %.i + @ - o ",
"# $ - o a j %.X f i w.6.w.r.T.e Q.e U F.~ W G.n G.Y ~.b J.(.E.Q.Y ! '.@XNXOXCX@X{.GX#XdXoX].7XqX7XtX5.a.f.a $.* *.3 d 3 # # - o ",
"@ # O   3 %.a n 2.2.Q.R.Y./.%XJ.J H.H.e ~ W J.R.~.Y.Y Y I H.Y.(.Y Q.Z.+XJ.~.LXrX4X-X&XdX+X[.4X4X5XtXp.d.s.-.%.p %. .%.> + # o o ",
"@ % %   1 d 4 4.(.*.E.{./ J.Y.!.Y.P G.b ~ ~ U ^.P `.Y.Q.I /./.).W Y.Z.A.zXrXPXoX{.).).FX+X[.+.i.2Xl.i.s.a.,.%.* =.4 %.4 % = + o ",
"= + +   i %.| kXOXKXnXr.&X^./.^.U b P ^.Y / Z.W Q Y.Y.I Q Q /.T ~.W 5XP.K P SXQ.}.JXGX-X%XoXi.h.h.h.j.&.4.*.p * i d %.1 = = + O ",
"= % , + s :.3 > _.T.FXnX(.^ _.`._.K K / P J.Q P H E I W._.U U P Q.GX,XtXH.Q.U Z.Z.MXJX:XoXoX+.@.O.O.g.5.*.&.* , ;.a %.%.# % % o ",
"_ ; #   i d i * &.%.I.hXzX_.mXP P U Q./.G./.! ! F.~.H Q /.U _.Y `.Q J K BXf.!.x.9XFX$XoX#X'.+.@.h.@.g.w.%.f $.> %.:.s 1 - ; = , ",
"_ _ = o i a %.* * > OX%X(.E._.P I w F.*XI R.K ! *X_.~ `.~.kXP Q &XnXZ.K 8XR.$Xz.rXJXGX|.oX$X@X2Xh.+.g.s $.*.> & =.g 4 3 ' [ : + ",
"[ _ - % a ,.$.* 3 { %.a.W.0.4.nXY.Q.b U Q K.U J Q.H.K T ! H U G.W Q.OX~.( P.~.W '.Q.H.!.:XoXoXwX6X,XO.y.a.3 $.* $.,.%.a ' _ : : ",
"[ [ $ - | ,.4 > * 0 p -.s B cXT.T.K.*X! Q.Q.Y Q K U W K T L L L T ! ~ W }.L.^.).$XR.OXdX#X:XoXrX7XqXl.o.-.%.i X -.u.;.a { [ $ 2 ",
"] } ] 2 1.,.;.> * > y.w.&.I.:X_.R.Q.Q.).R.W ^.OX!.W W cX).H L L /.H !.K K oXL.OX9XrXFXsX#X:X#XaX4X6X6Xl.a.$.> , *.u.1.:.2 } ] : ",
"2 2 2 : d s.;.* > ..g &.f v K./.L.*XJ.&XR.).T ^.W ! ^.:X/.Y ~ ^.H.T Z.Z.W L.oX).@XrXFXFXdX;X;X#XeX2X5X5Xp.p > , *.s.1.g 2 ] 2 : ",
"2 ] ; @ d s.;.=.> 0 $.p 2.4.r.c G.kXF.~.)./.! W T ! !.&X_.`./.^./.Y !.e W L.J $XZXGXgXdXsXdX;X:XqX2X<X6Xz...0 > ,.e.>.%.2 2 ] 7 ",
"2 : - & p >.1.%.> 0 $.5.5.2.T.P 8 (.c G.~./.! `.K R.! Q.!.~ G.H.~.4.U I Z.'.J.yX4XGX].FXsXdX;XaX[.@.h.6Xl.` .., g >.>.s : : $ % ",
"{ 3 ; % a *.:.> > $.p.f.5.0.r.8 r c c G.).L.e ! Q H U _.).H J K Y.Q.Q P J Z.+XyXCXLXrX+XwXwX#X.X+.[.2X6XiX..$.> f :.;.g ] 3 ; % ",
"] ` _ % %.e.%.h $.$.p.a.{.t.4.q q 4.c 3.OXQ ! }.Y.P P )./ ~ W U I.E.~.Y.T A.Y x.uXLX].+X].wX;XdX}.@.,X6XtXy.| > h g %.s ] ` _ = ",
"$ { [ @ a e.*.y 4 %.a.a.t.r.I z c v n c E.*XU K.b n kXI.!.Y Q U ~ OXQ G.U P.9X8XNXLXeX+XqXsX:X;X].[.O.,X5Xy.i 0 g e.=.h - { [ & ",
"[ 3 # > s a.:.A p -.f.8.8.C K.c f 3.q Q.I ! P ^.C 0.( mX*X( (.`.H Q J./.U H.!.z.SXLXGX].fXdX}.:X].[.A.O.h.p.=.> 2.w.1.s [ 2 - : ",
"2 ] _ : d <.%.q.$.$.&.5.v n K.b x v z _.z ~.%XW.U.hXkXR kXOXcX`.I U P *X~ U v.8Xx.SXuXeXsXsX:X}.[.[.O.O.#.g.$.` v ,.,.g { 2 ] : ",
"' [ [ & :.<.<.,.> ..p.5.W.v 6.F.4.P I m I Y _.E R n z E W.cXvXcXI.hXX.F./ H.l.NX8XrX9XqXsXdX[.+XXXA.@.O.O.g...> d.e.<.s - } ] : ",
"2 ` 3 , s s.:.9.> -.5.r.5.4.6.L.K.w w b t x R 9 E x C x R jXjXhXZ U./.L.!.^.tX8Xz.2X9X9XFXdXwX.XXX'.|.,X<Xj.y.* x 1.>.g - ] > & ",
"- ` ; : a e.*.m.` -.p.6.5.4.K.K.R.X.F.3.v C C x u M Z E x U.q.U.R U.T.Y./.).7X8Xv.z.i.2XwXdXsX#XXX}.XX3X<X@.o.q B :.*.g - ; ; % ",
"& ; - = a w.*.VX&.-.5.f.t.0.4.oX}.L.L.G.G.n y u t S A R R C A Z Z F E.mX(.mXwXx.NXl.4X7X4XdXsXaX=X}.'.2X<Xl.g...q.1.p s % ; ; % ",
"> + ; = * k i * &...f.f.2.n 4.e e oX+X:X$X{.{.E.Z C z S R M N F Z y I E.I m G.v.NXSXuX9X4XfXwX0X.X=X.X4XqX6Xj.* k %.:.i , = ; : ",
"= : ; = s d :.c > ..7.v 2.n c F.}.'.L.Z.[.wXn.E.W.E.hXR Z Z U.Z Z F R U.W.{.OXyXv.yXLX].2XFXsXdX;X=X=XqX2Xj.6X0 4.%.j p = = ; % ",
"# : ; = 3 k d 8 , ..7.2.f c 4.F.F.L.L.P.pXiX9.n.R q.lXjXF m.hXhXV V n.V q.n.jXv.yXSXSXuX9X0XdX#XaX=XXXqX6X<X6X, k a j i # : : : ",
"$ ; - # a ,.1.A ` &.q f 7.z 3.X.p.X.'.J qXrXV n.F ) jXjX) hXjXjX) V Z n.N hXjXtXv.DXSXJXrXwXdXfX0X;X=XD.A.<X<X..g 4 1.p - 2 - : ",
": ; - , a ,.:.q.` ..0 p f z K.p.p.3X].H.F.}.9.Z F A F F F A R ) N N N S N F ) f.c.SXSX6XwXrX].[.0X.XD.|.O.h.tXh.v 1.%.s 2 ; ; + ",
"; ] ] : a j ;.U.....g 5.g B P.X.X.@.[.i.X.[.9.n.m.F HXHXHXAXZXNXNXNXNXNXZXCXZ 9.k.yXx.uXfXfX].}.0X|.=XpXS.,X<Xj.U.1.:.p $ - ] , ",
": ; # , p ,.j u > ..q &.f n 3.X...e X.X.A.P.b.N.jX) IXHXPXHXAXZXVXNXNXNXNXZXV 9.z.v.x.v.gXwX[.qXaX.X.X|.Z.O.,Xj.M k d a ; ] = % ",
"& > = O p :.a q , > &.&.f z F.e e X.3.e e 4.V m.n.F IXKXHXHXHXIXAXDXBXNXNXzXl F x.v.uXuXgXJX3X3XaXaX'.}.D.@.O.j.u d :.3 & ; : % ",
"> { = = g 9.4 u > ..&.c v c P.&.e F.6.3.e b e.e.F ) KXHXHXIXAXUXAXZXBXBX9XcXk >.B.v.yX9XLXgX0X3XaX:XXX XS.O.h.#.E :.:.a > > > = ",
"; ; ; # s a h 0 > 0 q 0 c n K.2.3.e e c c 4.d.b.n.F HXKXHXUXUXkXcXhXAXBXVXBXM 9.b.z.8Xz.uXgX3XqXpX.XXXZ.D.#.O.#.5.:.a %._ ; = - ",
"{ { ; % *.1.g * 0 ..-.7.4.b '.r c 8 F.e v I.9.m.n.9.KXUXIXvXHXAXVXV.V.V.BXVX9.N.M.v.c.9X4X4X4X3XfXaX.XD.D.S.,X<X@.w.*.a { { ; % ",
"{ } > = g w.;.0 ....5.6.6.4.4.0 q X.b n v I.:.9.1.l vXHXvXHXvXxXVXAXVXV.V.xXn.M.M.c.v.z.2X].2X2XaXaX0XD.D.S.S.,Xo.u.1.s { } ` : ",
"} } { : ,.u.>.0 ..$.7.6.T.0.P f &.8 c v 0.U.>.>.b.k vXHXvXAXAXVXVXM.VXVXV.xX<.M.m.p.c.yXz.[.i.2X|.fX0XXXD. XS.S.z.s.1.d } } { _ ",
"=.} 2 2 1.s.>.p $.i f.r.0.n P.*.g f f c v U.>.e.b.l vXvXvXUXvXvXxXAXxXcXBXvX9.n.<.f.c.yXuX3X2X2X0XfXqXD. XD. X<Xi.s.>.g | } ] 2 ",
"} y.[ { k M.k q ..-.6.K.n n F.f g 2.q c q.hXk >.1.k vXkX-XcXcXVXZXUXcXzXZXvXb.M.M.hXc.z.uXuX[.2Xh.aXpXD. X XD.<Xi.d.b.k | y.[ [ ",
"] | | ] :.s.>.w.0 $.c 4.n n P.p B z c z C R >.>.u.>.kXkXMXvXvXvXxXvXvXzXxXlXB.B.b.hX5.tXuXuX].4X3X0XpXpX=X=XD.<Xi.>.>.*.3 | | 3 ",
"{ | { 3 g e.;.5.q &.6.7.I.b 3.f h c v v M ) n.b.B.B.vXbXxXvXvXxXm.lXlXlXlXlX1.<.>.q.g tXuXuXdXaXfXqXpXqX|.=X XO.i.V <.k 3 } { 2 ",
"3 3 [ & g >.:.g a.p.3.p.4.4.Z.t t e z x R E b.M.M.B.bXbXxXvXkXN.zXxXxXlXm.lX1.>.>.e.Z c.uXSXgXsXrXqX|.[.|. X XS.+.k >.%.2 3 3 2 ",
"i | { : s e.;.9X0.f.V.yXE C Y E 9 E t S S ) n.e.b. .bXbXxXvXjXlXlXlXxXm.m.m.6 b.1.Z N c.yXuXiX,XfXpXD.A.<XS.D.S.z.8.:.g %.| { : ",
"{ { { 3 :.d.>.4.c 7.x.x.0.9XcXZX8 9 u t t S b.9.B.B.N.N.xXu.lXM.m.lXlXd.s.d. .s.<.V t v.c.iXiX0XpX,X[.,XS.D. XA.[.,.:.g } { { > ",
"` } } & *.e.:.P T.x.6.rXv c r.p < t t t S u n.b.M.B.jXN.N.b.N.M.n.B.W.m.<.s. .>.>.V 6 z.7XuXl.qXgXpX,X X X XD.D.@.e.1.g { } } ; ",
"} =.{ > :.s.9.f {.5.p.{.4.n K.r.{.E E 6 l F F M.B.1.jXn.xXn.F n.0.q.d.s.{.U.4 e.m.n.G f.z.yXiXeXgXpX3X X0X XA.D.i.e.e.*.} | ] > ",
"| =.[ ` :.s.9.t 9X6.@X4.n E E R ~.CXhXq.Z q.E R VXzXZ R 9XzX) nXcXzXuXAX{.AXcXPX_.mXcX{.z.oX3XeXgXfX|.qX0XXXD.D.@.<.e.>.=.| { { ",
"; =.} 3 ,.m.w.g g h E %XY E u m B g 0.u y M 9.e.Z R lXt.n.M E E R hXT.lXn.V m.9.Z A v V G q.A A !.}.uX6XwXZ.S.A.X.<.e.h 2 =.=.3 ",
"` =.} > d e.:.p.p X < < I T.m v h 5 ,.h d 6 j j <.<.j j 6 >.n.R v V k ;. .6 e.j 6 1.M.j j 6 8Xk b x v a d 5 < g 6 :.*.g [ y.{ 3 ",
"` { $.{ g -.&.t {.X z < 7 X X m B 6 p 5 5 ,.C.f.k t d.r.8.6 l 5 h B 9.h %.b.6 6 ,.;.*.B U.8 b t t < 8 7 < h D < . & %.g ` =.` ; "
};
