/* XPM */
static char *result[] = {
/* columns rows colors chars-per-pixel */
"64 64 256 2 ",
"   c #2A633A",
".  c #2D5335",
"X  c #42573B",
"o  c #180851",
"O  c #281346",
"+  c #22095B",
"@  c #240B54",
"#  c #271257",
"$  c #341459",
"%  c #2F0F4D",
"&  c #373559",
"*  c #302E52",
"=  c #250A64",
"-  c #2A126B",
";  c #271467",
":  c #351466",
">  c #2A1173",
",  c #2A107B",
"<  c #2D1B72",
"1  c #331578",
"2  c #352568",
"3  c #363667",
"4  c #372679",
"5  c #363477",
"6  c #2B296C",
"7  c #47375A",
"8  c #492F56",
"9  c #451769",
"0  c #471874",
"q  c #561878",
"w  c #521863",
"e  c #432667",
"r  c #46376A",
"t  c #452A78",
"y  c #552478",
"u  c #463779",
"i  c #553773",
"p  c #553168",
"a  c #653177",
"s  c #44175B",
"d  c #274949",
"f  c #285644",
"g  c #324A5A",
"h  c #345755",
"j  c #2E4F4F",
"k  c #19784A",
"l  c #286444",
"z  c #336648",
"x  c #366656",
"c  c #2A7159",
"v  c #3A4669",
"b  c #37506A",
"n  c #346768",
"m  c #31736C",
"M  c #135B60",
"N  c #574659",
"B  c #445558",
"V  c #575859",
"C  c #474B4D",
"Z  c #66515A",
"A  c #426757",
"S  c #447457",
"D  c #55674E",
"F  c #6B7353",
"G  c #4A4A6C",
"H  c #444569",
"J  c #55496B",
"K  c #465767",
"L  c #55576B",
"P  c #484776",
"I  c #544A77",
"U  c #495477",
"Y  c #525273",
"T  c #585878",
"R  c #6B5071",
"E  c #486563",
"W  c #576769",
"Q  c #55776A",
"!  c #5A6473",
"~  c #4B776F",
"^  c #646568",
"/  c #676778",
"(  c #697577",
")  c #71776C",
"_  c #210839",
"`  c #845A6F",
"'  c #198C4F",
"]  c #269759",
"[  c #37995B",
"{  c #2C8E56",
"}  c #31AF56",
"|  c #368768",
" . c #359967",
".. c #2C9370",
"X. c #36A965",
"o. c #3AB666",
"O. c #39A676",
"+. c #34B273",
"@. c #488C5C",
"#. c #43AE5A",
"$. c #488964",
"%. c #548667",
"&. c #479969",
"*. c #56956B",
"=. c #588974",
"-. c #469976",
";. c #589974",
":. c #428C73",
">. c #659776",
",. c #6C8A74",
"<. c #46AA67",
"1. c #45B76A",
"2. c #46A979",
"3. c #47B977",
"4. c #55BA78",
"5. c #55AB6E",
"6. c #66BA79",
"7. c #64A675",
"8. c #748C58",
"9. c #3AC85E",
"0. c #55C878",
"q. c #4BC76B",
"w. c #69CF7B",
"e. c #58E06E",
"r. c #909169",
"t. c #A4A96B",
"y. c #341787",
"u. c #361894",
"i. c #2B1484",
"p. c #3A2785",
"a. c #3B2B8D",
"s. c #571C83",
"d. c #442B86",
"f. c #4B328C",
"g. c #463887",
"h. c #54378B",
"j. c #4A3696",
"k. c #543698",
"l. c #442994",
"z. c #683289",
"x. c #5436A4",
"c. c #462BA7",
"v. c #622593",
"b. c #38478B",
"n. c #1E76B8",
"m. c #4A4686",
"M. c #564789",
"N. c #4B5687",
"B. c #555789",
"V. c #574797",
"C. c #595696",
"Z. c #494695",
"A. c #644A8B",
"S. c #655888",
"D. c #645798",
"F. c #715494",
"G. c #576588",
"H. c #596598",
"J. c #4F738A",
"K. c #666688",
"L. c #746786",
"P. c #6B7589",
"I. c #747885",
"U. c #676798",
"Y. c #717098",
"T. c #5949A5",
"R. c #5855A7",
"E. c #6657A5",
"W. c #6850AB",
"Q. c #576AA5",
"!. c #6667A6",
"~. c #7270AC",
"^. c #2572C8",
"/. c #4F6CCF",
"(. c #6F72CE",
"). c #5C74E6",
"_. c #896A94",
"`. c #8877A8",
"'. c #805F8E",
"]. c #837BC9",
"[. c #2F9489",
"{. c #3190AC",
"}. c #2FB3B8",
"|. c #1B9CA6",
" X c #4F928D",
".X c #6E918C",
"XX c #56B988",
"oX c #50AD8E",
"OX c #68B996",
"+X c #77B898",
"@X c #6CAC8E",
"#X c #5393AC",
"$X c #6E92AC",
"%X c #54AFAC",
"&X c #7AA9A8",
"*X c #77BAA7",
"=X c #6DB1B1",
"-X c #38CBB9",
";X c #39CE9C",
":X c #55C785",
">X c #66C985",
",X c #68C797",
"<X c #74D593",
"1X c #4FCAB4",
"2X c #7ACAA7",
"3X c #6FCCB0",
"4X c #71EBB8",
"5X c #6DEA9C",
"6X c #1193CF",
"7X c #18B0CD",
"8X c #25B7CF",
"9X c #2A9FE8",
"0X c #4D92CE",
"qX c #748FCF",
"wX c #6EABCD",
"eX c #6B8DE9",
"rX c #5EA7E1",
"tX c #29CCDD",
"yX c #5ECAD5",
"uX c #889799",
"iX c #918C94",
"pX c #A4949B",
"aX c #89A598",
"sX c #95A697",
"dX c #A5A599",
"fX c #989CA6",
"gX c #8B94AF",
"hX c #A496A4",
"jX c #88A9A8",
"kX c #98A4A8",
"lX c #88B7B7",
"zX c #96BCB8",
"xX c #8CB2B0",
"cX c #A4A4A8",
"vX c #ABB0B7",
"bX c #87E990",
"nX c #89DAB6",
"mX c #92CFB1",
"MX c #AAD3B4",
"NX c #92EBB3",
"BX c #AAEDB6",
"VX c #8BD296",
"CX c #CFCCB8",
"ZX c #8F91D3",
"AX c #93B7C8",
"SX c #ADB3D1",
"DX c #9090E8",
"FX c #AFABED",
"GX c #A799E1",
"HX c #C6BDD2",
"JX c #94CDC9",
"KX c #B0CFCE",
"LX c #AEEFF2",
"PX c #9ADDE2",
"IX c #CDCED2",
"UX c #D1E4E2",
/* pixels */
"d.x.c.4 x.- = = # * 3 6 3 3 3 v 3 r m.P P U U m.N.I B.S.S.R L.L.L.S.S.S.S.S.B.N.N.U U U U v H b v g g g g d g d o o ; x.x.p.k.x.",
"d.f.h.9 k.: @ + * 6 6 3 6 v 3 v r r P I P N.U M.N.N.N.S.S.A.K.L.L./ L.S.S.T B.I N.U U U v U K v h g g g d d d * d ; @ j.f.9 f.d.",
"4 f.h.f.x.; = + 2 6 3 3 3 3 5 H v P P I P B.I B.N.B.B.B.K.K.L.L.L.L.L.D.G.B.B.N.N.N.U N.U H K B b g g h d f d d o = o x.k.f.f.f.",
"d.f.k.t k.; + + * * 6 3 3 3 3 H u P P I I N.N.U B.B.B.G.K.S.L.L.L.L.R K.G.G.B.B.N.! U U U K K b h h g j d d d d d = ; x.k.d.f.f.",
"d.z.j.e k.# o @ 6 2 & 3 3 3 3 H r P I M.I Y Y U ! U B.G.K.K.L.I.L.L.K.K.G.B.B.! T K ! ! K K K K h h j d d f d f * - $ k.f.t h.h.",
"d.x.x.g.x.# o @ 6 & * & * 3 3 H P P I I I I Y Y Y K L / ^ L.L./ L.L.P.! ^ T Y K K K K K K L n B x h h d j . . f # = = x.k.l.x.x.",
"l.x.x.f.x.; o o 2 & & & & 3 G P P H G I I G Y J Y Y L T / / K.L.L.I.L.^ W ! K L A L E L E E B x x h h f f f f j # @ = x.k.f.x.x.",
"f.h.j.y k.$ + o < & 7 g & 3 r v H P H I Y Y U G Y T L W W / / I.( P./ ( L L W E K K E K A A B x h h z f z .   j @ + $ x.k.d.h.h.",
"f.h.j.t j.; o o $ 3 7 & v 3 H H H G G G G Y Y K Y Y T L ^ R / I.I.L.( L W W W D %.>.Q B A K A z A z h f z f l d @ @ # x.g.4 k.k.",
"g.V.j.u j.< + o : y 3 & H r H G G P J G G J Y Y L L T Y L g / / / / ) * W ^ *.5.w.7.w.%.A A A A x z z z   l l * % o = j.g.u M.V.",
"p.g.a.3 m.; + = @ 0 3 v P r H r G G I I I Y Y Y Y L ! / ^ ^ / I..XI.) Q @.Q W w.Q 6.2.%.A A S z z A z z z   l 9 # = @ m.g.5 g.j.",
"g.g.v 2 g.; o + $ : 3 & v & r H G H I I Y Y Y Y T T ! ^ / / I.I.( I.) ^ Q Q %.S S >X%.A A S @.z z z . z     f 9 % = + a.u 3 h.g.",
"u m.u 2 a.# + + $ 9 7 r 7 C 3 G P Y I T B.I T L ! L / / / I.I.I._.,.( w.^ 5.5.bXw.W bXVX*.%.A S x z X       # 9 : + ; g.g.2 m.m.",
"4 h.g.3 m.; o + $ 9 3 & H & r G G Y Y T S./ ! T T ! K./ / I.I.I.I.I.I.;.>.#.~ 4.;.6.w.@Xw.D A S z z z z   l 9 0 % = @ a.u 5 g.g.",
"5 a.5 3 Z.- + o $ y : H H H v G I G S.T J S.K.K.G.K.P.K.P.Y.I.,._.I.I.,.5.;.1.e.1.bX7.<Xw.w.S A S     z l l w d.O + ; T.5 3 g.g.",
"g.j.k.e j.< + o 9 q s g H G H G G Y Y T T T K.K.G.+XVXP.L..X+XaX>.bX@XVX( =.=.9.0.<.>.bX7.S S S z z c z f f 9 s.# + = j.k.t h.j.",
"u g.c.4 k.- ; o 9 s.% s H G P G U Y Y T T S.K.K.T K.,X.XP.P.I..XuX.X.XI.>.3.&.} q.<.) Q *.6.S S @.z z z l * $ s.$ + + j.j.p.h.h.",
"h.V.h.t V.- > + q s._ % 7 G P v G G T T T / ( @X@X+X.X.X( ( >.e.( >.) >.<X7.*.<.w.#.1.q.*.S w.0.0.z x z f + 0 9 ; ; # h.x.u V.V.",
"t h.A.u T.< > + q q $ $ G U b P G U Y T T / / K.I./ .XbXbX7.6.6.5.*.>.>.7.;.q.5.w.%.@.1.6.%.S $.| n x x & ; q 0 $ > ; T.i h.h.j.",
"h.h.W.h.T.1 , + 9 q 9 % b U b v b K K T B./ / K./ / ,.( @Xw.4.#.o.#.%.<.) 8.%.@.4.@.*.q.5.@.w.5.h 5.M x * : q q = , ; T.V.V.h.k.",
"I M.M.r V.1 1 > 9 s.$ % H K K v b K L ! ! T K./ / ! / Q =. .3.1.) | .X*.%.^ 4.@.} @.9.*.&.6.x q.| c c f # : q 0 : > > W.V.r A.M.",
"M.A.h.y D.< 1 = 9 9 : : r b K K K K ! ! ! / / / / ,.=./ Q -.I.,.5.*.&.<.X.*.@.*.q.Q *.5.[ &.$.9.[ c x M # 1 q 9 : i.: A.h.i A.A.",
"h.M.I r M.: = = 9 w $ $ - H K h B B L W W L R ^ ! =.R <X4.%.5.Q Q 9.Q W V *.o.#.2.<.S q.q.#.[ [ } x h h % 0 q $ : i.- M.I r M.h.",
"h.M.h.r A.1 : = 0 0 $ # : B K B h B E W .XW ! ! ( >.,.^ Q  .<.>.>.5.} W @.@.@.X.<.<.X.X.X.[ <.o.| [ | [ -.2 w s $ - : M.M.i M.V.",
"M.V.Z.g.Z.< ; - q w $ $ O K h K B E E Q &X,.W W ^ @X^ W W ^ #.X.;.5.9.$.1.#.8.>.@.[ [ 4.o.1.c &. .0.+.n x $ q s $ > ; V.Z.h.M.V.",
"V.x.M.i V.< 1 = 9 w O % O g.g.5 v E ! Q =.7.>.%.E $.~ *.Q Q ( *.) *.=.} [ | o.q.q.[ } o.X.[ o.c O.J. .k & $ y p $ > < M.m.u T.T.",
"h.V.N.r M.< 1 = 9 w O % O m.h.3 3 E ~ 7.OX6.XX3.W W ~ ;.! ( ) 4.>.=.4.o.| $.o.o.} ] } } 1. .} [ &.H.H.l g = y w $ > ; V.m.u V.V.",
"V.T.m.t V.1 > > y p * 8 O a.m.5 4 M M m | .. .| &.A 2.2.Q W .X,X) ,.&.} { c ..0.} } { } { } M m }  .J._ @ > q p : , ; T.m.i T.T.",
"V.T.M.u T.4 , > y a s 8 # h.j.d.4 ; M M c ....| }  .| m oXJ.XX,XOX*. X*.&.S $.4.o.{ | X. .] g m ] ~ J.o # 1 a a e , : k.V.g.T.T.",
"h.Z.M.p D.1 , = p I s 8 O h.V.u 4 6 o.3.3.+.,X@X4.oX9.X. .AXqX<X3.1.yX6X[.[ ] o.] | W Q ~ X.} ..J...J.@ $ 0 z.i e 1 < W.M.i M.V.",
"M.T.C.b.E.p.- > p A.p 8 * i M.u p.6 NXoX:X4.,XXXXX<X .;XtX<.*X$XJX:X%XtX{.O.1.' ] z b.oX&.o.n m +.N.J.n $ 0 z.p e y.- T.C.b.D.T.",
"M.B.M.r C.< 1 1 a R 8 8 7 M.A.i 4 6 0.,XO.:X2Xe.<X3.+.+.}.1.AXq.2XnXNXtX7X6.1.} ' n G.0.| +.m 5 ] 9.} 3 : q R R r 1 : T.M.i B.B.",
"m.M.V.M.R.< > , p R N 8 & C.M.P 2 5 (.#X=X3XoXoX{ } 9.:XtXFXAXKX X2XO...|.[.} } k ' b ..' k m ' ] m | = 9 $ R R 8 i.: E.D.M.M.M.",
"M.A.C.M.E.6 = ; p Z N C 7 V.k.m.4 5 =X,XAXAX*X=XoXq.OXoXoXwXAXKX&X%XO.O.+.+.] ' k { } {  .] ' m | J.J.# $ e R Z 8 , 1 !.V.M.D.C.",
"B.A.C.r C.< = > N R Z N X V.V.u 4 5 OX<XnXwX=X%X,X3XOXoXO.rX@XXX$XXX..o.O...] ' 3.~  X+.n m c k Q.H.G.: 9 w Z Z * - - E.B.u A.B.",
"V.E.E.M.E.2 = ; p ` C Z * T.T.M.p.3 :X2X3XwXwX=X=X%X[.oX%X X#X[.O. .{ +.[.' X.k c nXX.+.n  Xm b P.G.D.2 y q Z R 7 : < W.E.M.E.R.",
"V.D.D.M.E.4 > > R ` Z Z C V.Z.i u 5 &X X,X,XOX%X3XlX+X,XoXyX%XoXZXlXXX:XoX] ' +.J.] ] ] n ] ] a.G.G.H.$ y z.8 Z * - < E.D.M.E.R.",
"C.M.C.r C.2 ; > Z R D V V V.M.h.a.5 0.XXO. XO.XX0XwX%XXXAX X[.#X] 2.XXO.] [.|. X' ..| c c ..J.v C.C.H.O t V.Z Z r # < E.Z.P M.D.",
"B.C.C.u C.1 < - J ` C V B C.C.M.p.5 2.0.[.4.XX2XoXwXqXqX%XmXeXeX X . .O. .n...[. Xc k m n m m 5 H.R.R.: t z.N ^ & - < D.V.P D.C.",
"B.B.D.P C.4 - - p Z C D R A.D.M.5 4 &X4.3.XX5XXX=XFXFXeXDXFXZX X X XoX] ] ....{.m m n c k !.C.u !.Q.!.< 2 R R Z r , < C.B.I B.C.",
"m.B.U v U 4 , > N ) C j G D.D.V.p.3  XO.O.w.OXOX5.:X=X3X0X#XrXGXUXvXKXOX,XoX}.] n ' R.b.b C.H.b.!.H.R.6 2 i Z Z & ; < P N.b C.N.",
"B.B.P v N.< , , V ) C C & D.B.M.4 6 ,X:X0.+.oXoXoX3.*XjX@X0XrXFXFXSXAXmX3X4X8X7XJ.M ] 6 P Q.R.a.!.H.H.: 4 i V D j , ; N.N.v B.C.",
"N.B.N.v N.6 - + Z F X X C B.B.I 5 5 XX.X@X,XoXoXoX<XxX2XNXBX0XFXFXIXIXzXnX4XyX8XQ.Y.C.U I !.!.a.~.H.C.2 3 7 Z r.7 - < N.N.v B.C.",
"m.N.N.H N.6 > ; D F D X C B.N.P 5 5 ,X:XzXaX,XXX2.oX3X>X2X.X0XrXDXFXAXjX3X4X%X6X9XG.K.G Y Q.Q.p.!.H.U.2 r J ) F C < ; M.U H B.N.",
"N.N.N.v C.4 < > V r.F D V N.B.P 3 b.=X1X3.*X4.5X5.xXoXxXxXjXqXeXGXFXUXxX=X3X1X}.tXH.K.U.K C.C.4 !.!.!.4 7 g 8.,.N - i.!.N.v N.N.",
"M.V.V.P V.p., ; V r.D . L C.V.P p.5 KX0.e.,X@X,.0.xX>Xe.JXMX2X9X(.ZXSX$XBXmX4X{.tX$X`.!.U.H.Z.4 Q.Q.C.k.J b r.r.A , - V.V.u C.C.",
"B.B.T.a.C.i.i.> D r.F X V V.B.V.a.d.2X0.oXjX.X$XOX2X+X<XUXIXXX9X/.DXcXAXBXBX4X1X6XqXZX`.S.H.j.4 Q.Q.U.a.J K F r.B i.: V.V.g.B.B.",
"A.D.V.v C.p.u., 8.t.8.F ^ B.D.B.j.d.0.,X0X X@X X0.SX<Xo.PXvXMXyXDX/.qX~.MXmXoX1Xn.^..X`.~.U.M.d.N.G.C.k.N W r.t.V u.< V.C.P D.D.",
"M.A.U.M.D.a.u.i.) t.D C ) S.U.I j.g.,XVX%X%X@XXXXXVXOX2X,XBXKXzX).(.ZXZXmXMX3X%X{.6XQ.$X`.G.m.d.J.N.J.a.N ) r.t.G y.1 !.B.B.D.S.",
"I S.U.B.!.l.u.1 ` t.F D ` U.F.L h.m.=X=X{.oXXX X>XXX<X#X2XMXvXIXeXGXSX`.kXBX4X%X}.7X^.uXY.H.U 5 G.H.C.5 J / r.8.J u.1 ~.D.B.S.A.",
"T K.S.J U.p.u.: r.t.F F ^ U.D.C.5 5 :X.X2X+X$.2.oX<X+X&X+XKXSXHXeXZXFXCXgXBXnX=X1X7X6XZX`.Q.Z.a.R.C.H.a.L iXt.r.J c.y.!.S.J Y./ ",
"F.U.S.I L.1 l.y.r.t.8.D D U.C.I a.p.@XBX4X.X@X4.:X<X$X>XVXLXKXKX9XDXFXKXIXMXBX3X1XtX6XqXgXQ.Q.a.C.C.B.b.K r.t.r.V u.1 L.G.J F.U.",
"C.K.K.L / 4 y.y.) r.^ ^ W Y.Y.K.j.a.mXkX&X*XjX<X=XJXBXJX.XAXAXvX).eXGXSXKXMXMX*X4X-X6X~.~.~.~.j.~.$XY.L ( / r.) T u.1 K.L L K.D.",
"C.U.C.I U.4 y., uXfXfXiXcXcXdX_.g.j.*XJXJXzX=X*X$X&XKXJX+XPXLXLXqXeX].GXIXmX+X*X1X1X6X9XZX~.E.j.U.cXhXcXcXiXpXfXY.i.4 C.S.B.C.U.",
"U.C.H.B.C.4 y., iXuXhXcXcXvXkX_.h.b.=XmX#XmXJXmXJXzXnXBXJX=XLXLXAXeXeXSXIXCXlX#X1X1X}.6XqXH.A.f.Y.cXcXSXcXcXsXaXK.y.1 D.H.B.B.U.",
"D.E.H.Y H.p.y.u.( iXfXcXiXcXkX_.f.b.<X.XxXKX@X-.=.@XnXmXmX+XLXUXvXqXDX].SXHXlXmXNX4X8X6X$XY.!.g.L.fXfXcXfXcXdXiXU.a.p.H.C.I !.!.",
"U.U.H.G N.a.u.i.I.uXfXfXkXsXsX_.h.k.+X$X=XmX&X=XlXmXXXOXzXmXJXJXvXwXDX(.ZXvXxXMX4X#X1X6XJ.Q.R.g._.sXdXuXkXfXfXuXG.u.2 C.N.I U.U.",
"C.E.H.J U.p.u.i.gXfXjXgXuXaXaXL.'.x.&X*XJX*XmXPXPXAXAXJX*XJXmXvXxXjX).(.$X$XgXxXmX%X%X6X^.~.F.h.F.aXjXsX.XgXfXgXY.u.1 !.H.L !.!.",
"D.D.U.N.E.l.l.y.gXfXfXhXuXuXuXI.'.F.=X$X3X@X3XJX3XPXyXNX+XPXjXKXSX$X/.(.(.&X$XjXBX3X%X}.n.H.T.D.Y.uX.XsXkXfXfXfX~.l.p.E.U.B.E.U.",
"D.C.K.J U.l.y.y.iXgXvXvXvXiXfXF._.`.wX#XwX=X%X&X0XPXFX&X$XjXvXKXkXZX/.].GXSXfXjXBX3X1X;X6XQ.m._.U.iXfXcXSXvXiXfXY.u.p.!.Y.J H.D.",
"B.U.U.Y ~.a.y.y.`.pXcXdXcXiXfXF.'._.=X#X#XwXwXyX1X4.yXLXPXrX$XZXwX&X/.(.ZXSXvXuXmXnX=X}.7X6XS._.F.hXfXhXcXdXpXiXF.c.6 !.U.U U.U.",
"C.P.K.J U.p.u.i.iXpXdXdXcXiXhXF.F._.=X#X#X#XwXwX#X#XrXqXqX#XgXJXxX$X0XDXGXHXCXCXmXnX3X-X}.6X_._.F.vXpXhXdXdXpXpXL.p.4 !.K.R G.K.",
"B.C.C.B.!.5 y.1 iXsXiXkXfXsXpXS.F.Y..X%X#X X X#X#X=XwXxXlX XaXjXlX&X$XqXZXSXvXMXxXjX$X1X-X6X_.Y.W.iXiXiXkXfXaXsXY.p.4 !.!.B.G.C.",
"S.K.U.T ~.t V.3 7 T T Y L K./ P.I i A.p P G.W.W.~.z.R L.A.R L./ / L.` R a R R R V.A.R a I C 7 7 i K.G./ / G J J N /.T.qX~.G.P.Y."
};
