/* XPM */
static char *result[] = {
/* columns rows colors chars-per-pixel */
"64 64 256 2 ",
"   c #32366A",
".  c #23354A",
"X  c #483767",
"o  c #45365A",
"O  c #167151",
"+  c #327050",
"@  c #304F6F",
"#  c #16756D",
"$  c #2D7371",
"%  c #235367",
"&  c #494467",
"*  c #575568",
"=  c #535171",
"-  c #655974",
";  c #635A6B",
":  c #4D6D72",
">  c #676776",
",  c #6A7578",
"<  c #747978",
"1  c #6B6B6E",
"2  c #5B6B5A",
"3  c #168B5A",
"4  c #18926F",
"5  c #278A69",
"6  c #268878",
"7  c #289879",
"8  c #2B926F",
"9  c #27A977",
"0  c #27B779",
"q  c #2BAE70",
"w  c #1DA463",
"e  c #79867A",
"r  c #73846E",
"t  c #4A8B72",
"y  c #2CCC79",
"u  c #1CCD7B",
"i  c #84847B",
"p  c #2A329C",
"a  c #542FA7",
"s  c #325190",
"d  c #267698",
"f  c #2F6F8F",
"g  c #3657B8",
"h  c #3150B1",
"j  c #3C76B8",
"k  c #3270AE",
"l  c #196E9F",
"z  c #505490",
"x  c #695092",
"c  c #46699B",
"v  c #477897",
"b  c #4E7190",
"n  c #6E6F90",
"m  c #4F54B2",
"M  c #6E58A8",
"N  c #4766A6",
"B  c #4877A9",
"V  c #5877A9",
"C  c #4668BB",
"Z  c #5272B6",
"A  c #6867A8",
"S  c #6A67B9",
"D  c #7172B1",
"F  c #5011D2",
"G  c #6D16DB",
"H  c #532FD1",
"J  c #6827DC",
"K  c #6937DB",
"L  c #7736DC",
"P  c #6D2DCE",
"I  c #7738EA",
"U  c #6F2AE8",
"Y  c #631DE9",
"T  c #3354C9",
"R  c #336DCD",
"E  c #3963E7",
"W  c #5756DA",
"Q  c #4F4DCF",
"!  c #6646D9",
"~  c #7746DB",
"^  c #6654D9",
"/  c #7555DA",
"(  c #6E4EC9",
")  c #4777C9",
"_  c #4677D7",
"`  c #5675DC",
"'  c #4D6AD1",
"]  c #6569CB",
"[  c #7567D9",
"{  c #7678D9",
"}  c #6C71D0",
"|  c #7644E9",
" . c #7858E9",
".. c #6D4EEB",
"X. c #506DE7",
"o. c #7868E8",
"O. c #6E73E7",
"+. c #4B53E8",
"@. c #3921C6",
"#. c #8874B5",
"$. c #886FA1",
"%. c #8C34DC",
"&. c #8734EC",
"*. c #8F34F2",
"=. c #942BE3",
"-. c #8B4FDA",
";. c #8878D9",
":. c #8F70D6",
">. c #8848EC",
",. c #8958EA",
"<. c #9757EB",
"1. c #934BF5",
"2. c #A757ED",
"3. c #A859F9",
"4. c #B757FC",
"5. c #AE51EE",
"6. c #8766EA",
"7. c #9767EB",
"8. c #8A78EB",
"9. c #9679EB",
"0. c #946BF6",
"q. c #A766EE",
"w. c #A77AEB",
"e. c #AF6FF6",
"r. c #A46ED8",
"t. c #C667FA",
"y. c #199288",
"u. c #348987",
"i. c #289989",
"p. c #339888",
"a. c #388A97",
"s. c #369697",
"d. c #298F91",
"f. c #1BA88D",
"g. c #27A788",
"h. c #34A988",
"j. c #28B584",
"k. c #32B987",
"l. c #27A898",
"z. c #35AA98",
"x. c #37B996",
"c. c #28B796",
"v. c #328FB2",
"b. c #24A6AB",
"n. c #35BAA9",
"m. c #2FAFB1",
"M. c #1A9DAA",
"N. c #4A8F94",
"B. c #798586",
"V. c #738E94",
"C. c #44B899",
"Z. c #4DAD99",
"A. c #568AA9",
"S. c #4888B9",
"D. c #5688B8",
"F. c #4A96BA",
"G. c #4D93AD",
"H. c #6888B7",
"J. c #7588B8",
"K. c #6D90AF",
"L. c #4DB0B0",
"P. c #68B0B5",
"I. c #34C88E",
"U. c #34CBB0",
"Y. c #39E0BD",
"T. c #48CC94",
"R. c #48D0AE",
"E. c #6FCDB5",
"W. c #5CDFA7",
"Q. c #318DCC",
"!. c #2FB1C9",
"~. c #1EA9CC",
"^. c #4788C8",
"/. c #4896CB",
"(. c #5498C9",
"). c #5190D5",
"_. c #7888D9",
"`. c #6D90D1",
"'. c #57A9CA",
"]. c #56AADA",
"[. c #4EAFCF",
"{. c #71ACD0",
"}. c #5292EC",
"|. c #7687E8",
" X c #7896EA",
".X c #6E8FF2",
"XX c #58A7E8",
"oX c #4FB1EE",
"OX c #71B0F0",
"+X c #36D8C4",
"@X c #45CFCB",
"#X c #72C6C9",
"$X c #6CD1EE",
"%X c #868E88",
"&X c #8787B5",
"*X c #8F93B2",
"=X c #8DAEB6",
"-X c #9FA3B1",
";X c #86CFBB",
":X c #8589DA",
">X c #9987DA",
",X c #8897DA",
"<X c #9699DB",
"1X c #918DC8",
"2X c #A894DA",
"3X c #97A9D9",
"4X c #8EAFD1",
"5X c #ACADD2",
"6X c #8788EA",
"7X c #9788E9",
"8X c #8799E9",
"9X c #9698E9",
"0X c #9294F4",
"qX c #A789EA",
"wX c #B78AEE",
"eX c #A897EA",
"rX c #B697ED",
"tX c #AA88F6",
"yX c #B889FB",
"uX c #B899F6",
"iX c #AB96F7",
"pX c #98A8EA",
"aX c #91AFEF",
"sX c #A8A8EB",
"dX c #B9A8EC",
"fX c #AAB9ED",
"gX c #B8B9EB",
"hX c #A6AAF5",
"jX c #B9A8F6",
"kX c #B9B8F8",
"lX c #A8B9F7",
"zX c #C792F7",
"xX c #CCA7EE",
"cX c #C7A8F9",
"vX c #CBBAF3",
"bX c #99CDD6",
"nX c #8DD1CE",
"mX c #ABCCDA",
"MX c #97C8F2",
"NX c #BAC6E9",
"BX c #BAD4EC",
"VX c #BBC7F7",
"CX c #B4CCF5",
"ZX c #A6E6DF",
"AX c #C7C9EE",
"SX c #CAD8ED",
"DX c #C9CAF8",
"FX c #CCD6F7",
"GX c #DDDDF7",
"HX c #D8D9F9",
"JX c #D7CBF3",
"KX c #E7D8F8",
"LX c #DBE8FA",
"PX c #CDE5F2",
"IX c #E9EAFC",
"UX c #F2F2FC",
/* pixels */
"y.l k Q.p A.b $ ' Q S S X o & & = * - - - - 1 1 1 < < < B.%X%X%X%X%X%XB.n r n , > > - - - - = & X o $.x S W Z A.A.N R h l y.3 O ",
"f.k h h ).(.: A.h m x z X X X * * = - - - > x < n n B.B.%XB.%X%Xe i < B.B.n , b b > n * = = = = & X M x M h ) + A.) T l Q.f.3 # ",
"y.~.l E h D.2 ].' Q x x X X X & = * - > - 1 < $., r e B.B.r e %X%Xi < e r , > : > > > - = = = & o   z z z Q _ t 2 ].T R ~.M.# f.",
"4 M.Q.T C V v (.h ] = z X X & & = * - ; < n < > , < r e e < e r r r < < , 1 1 1 > - : = = = = & X   = z z N ).H.b ).g R M.f.y.f.",
"4 M.v.T h z V v f m M M X z o $ p.: - > - < < < , 1 , r e B.B.e e B.e n , 2 1 * ; - * * * = p.: o z z M z f ^.).c ).h Q.M.f.9 c.",
"f.M.~._ h z S.A.B C A #.M v & $ $ * * > - 1 1 1 1 < < , < e , < B.e , , 1 * 2 * 2 * = & & & $ $ $ f X $.b N (.b D.m R Q.M.4 9 U.",
"9 y.~.) ' N v Z v b A - 6 A $ 5 $ 8 : ; 1 1 ; 1 1 1 2 > , 3X7XpXfXDXFXGXLXGXSX-X*XV n : & q @ 8 $ c @ - H.v ^.A.v m R M.f.f.y.b.",
"c.m.M.Q.h = (.^.j A.A M u.v % N.+ 8 5 : V.V.; 2 %XAXvXvXhX9XfXIXgXNXIXIXLXPXfXNX,X8XK.: 5 5 + N.z v $ M A B R (.D.N R ~.b.f.U.U.",
"j.b.!.Q.R @ D.^.f Z M M u.i.u.0 z $ q h.Z.P.*XGXVXVXgX0X{ hX3XgXsXAXIXHXHXGXmXSX-X{.N.8 8 5 v h.f g.: - D B Z (.B C Q.~.b.c.+Xm.",
"c.y.v.Q.g B Z (.B  XM x u.v 6 v l.7 $ : p.6XGXZ.C.kXpX|.O.O.pXpXVXAXHXFXSXSX{.Z.FX8XN.: $ g.g.v v v z a D ^.S.).N C R v.y.4 b.m.",
"M.y.d.k ^.].B B (.{ ;.$.y.9 4 6 6 a.C.p.N.;XP.bXmX9X9X6X0X9X8XNXNXAXIXHXSXSXmXnXZ.;Xh.k.R.u.$ 5 j.9 p.#.1X`.k ^.S.S.k f # d.d.+X",
"m.d.5 f ].].].^..X:X;.2Xs.G.4 w w s.Z.B d.P.T.mXGXhX:XO._.kXkXCXLXLXGXDXAXSXNXAXE.Z.k.p.N.7 # 4 j.z.u.qX;.` j ).XX].v.6 m.U.b.+X",
"U.n.6 a.].oXXX@ X.S 1Xr.V u s.z.w w h.Z.T.mX;XSXKXlX0XiXhX9XVXLXLXIXIXGXGXLXSXSXnXBXT.z.h.q w z.d.I.c r.1X' j XXXX].a.i.n.U.m.+X",
"+Xm.s.# [.F.XX(._ D ;.eXG.c.6 } I.0 f k.C.E.E.BXKXkX6XO.` { :XfXAXDXIXFXIXFXIXSX;X;XI.9 f.0 4 ] g.l.0 qXA Z h '.S.f d.s.n.U.Y.+X",
"@XU.5 $ a.f (.^.z ,XD zXa N.T P i.h.I.s.'.I.T.ZXlXDXO.` |.aXhXCXIXIXHXVXLXLXGXZXT.T.L.a.I.7 d.M d N.z wXA A s S./.f # a.n.U.@Xn.",
"# d.w % s v.D.k c K.D r.p.p.D.c C.z.f L.C.bXbXbXbXhX0X X X8XlXLXSXLXHXSXIXBXmXbXbXZXC.L.f h.x.m S.7 V r.A c Z ^.F.O % f s.6 7 m.",
"g.# d.6 $ S.S.  c V.;.>Xu 8 k f b s.0 '.C.C.E.W.BXiXO.X.` |._.BXHXLXIXPXGXFXPXT.E.k.P.A.0 m z l.a.u L.>XA z k N F.F.6 f # i.U.z.",
"k.9 d 6 f z./.@ @ K.M :.V w m.R.k.9 y `.Z.bXE.KX#XhX}.' |.8XsXlXIXIXFXHXIXNXPXAXE.nXP.} y 0 j.L.k 7 7 r.z @ c ).'.s.6 i.q 7 @Xm.",
"g.x.6 p.a.a.R _ A.K.A r.z 6 D.( Z 0 N.x.;XnXE.W.#XnXO.X.).` ,XVXFXGXAXSXsXBXLXW.bXnXbXy a.y S { a.u.b #.s `.B   k p.N.d x.k.U.m.",
"x.z.k.% # v.B s H.{ D 1Xf 7 z.N.S N N C.T.4XBXT.P.#X.XT E `.lXLXIXIXGXLXgXGXHXSXMXnXk.0 a.c C v a.q z 1Xm `.Z s v.s.O u.x.7 @XY.",
"0 O 9 $ $ G.).s O. X} } z.b.s.z Q m $ T.E.#XBXfXiXE.X.E .XaXpXfXAXDXGXHXmXSXNXfXBXE.;XI.6 m ( z s.l.m S ] O.m h ].].$ # O k.U.Y.",
"I.q 8 a.[.XX).g X.0X#.{ P.L.s.S `.k N.W.vXbXAX9X6XO.X.}.R O._.fXUXIXJXfX4XBXvX3X XnXDXW.N.s ).A G.'.i.{ A .XR }.Q.[.N.z.q k.U.I.",
"R.8 5 a./.Q.j }..X.X>X] _.L.I._.` ] m #XbXDXAXjX0X^ X.R }. XlXLXJXAXFXFXpX4X3X{.MXDXbX#Xm ^ O.{ I.'.f ] } .X' }.R ].a.$ 7 I.n.U.",
"l.p.$ f s oXk }.}.|.1XV } _.G.b Q g } 4X{.vXdXrXw. .X.}..XaX8X5XSXAXIXsXpX4X<X9X4XmX{.4XS T T V L.{ C D 1X}._ k j /.f % h.g.I.I.",
"# d.s f @ XXD.XXX.,XD J.S } f s m +.:X5XsXjXjX7XtXo.T E X.aXhXVXHXIXFXfX3X{.`.`.Z.;X9X5X8XW m Z N _.m :XD .XX.v oXb   @ l l w 0 ",
"4 l s @ . [.'.OXX.>X#.J.] .Xs V ] T <X9X6X7XtX[  .E X.}.).|.8XNXJXgXCX8X{.`.] ,XL.T.6X9X,XQ ] A.B |.) J.n O.}.XXL.b % s d # j.w ",
"O v.k s   A.+ (.6X*Xn Z aXO.B Z c z 3X_.0X` .X9.9.+.+.` O._.gXIXUXIXGXkX} `.].P.{.T.8X,X3X@ z Z ).|.' V x ,X_ S.+ B s h v.4 3 3 ",
"O d v.p   N.D.) S $.n D  XO.$ ) m N 8X_.lXW .XX.W T .X XaXpX5XvXAX<XvXgXpX#XW.C.P.Z.4X:X_.c m }.B _.N J.n A `.(.G.c p Z l # w O ",
"y.l j ^.s ].N.^.A n &XJ..X|.h .Xs Z A 3XlX|.O.E X.+.` m Q :XJXUXIXUXKXJXO.m ' L.h.L.C.,XA c g  XC |.`.V #.M `.$ G.S.Q.g l i.3 O ",
"g.v.l h ' (.t }.J.x *XV |.`.}.O.j } _.fXiX|.` +.X.} O.0X6XjXHXGXgXAXxXxXsX9X;.S.Z.I.y sX,X} g X.^.`.] V &X&XC F.N.Z g k v.f.3 O ",
"f.b.v.' C A.N.^.z V.&XA.] A._ m `._._.pX6XO.Q E +.X.^ m :XvXIXKXIXJXKXKXxX6XQ W L.C.0 0 _._.`.m j D.N A.#.A d G.: [.R k m.f.3 8 ",
"4 M.v.g m f XX(.K.3X$.A.x V X.m B {.8X0XO.6X+.W Q 6XiXkXcXdXdXAX9XsXJXJXJXeXE.8.G.L.nX7 8X{.B m C V n A.#.K.D./.}.D.h R b.f.8 0 ",
"x.m.Q.T C @ ].^.K.5Xn b S @ ` a J.A.aXeXO.o.' W Q Q [ dXjXdXJXgXFXHXJXJXvXr.P.x.k L.L.q 0XK.`.S _ @ H.z x *Xu.A.].s R R l.g.w q ",
"4 n.v.Q.m S.F.'.P.V.M n A $ Q } {.H.8X:XQ +.+.o.O.|.9.tXiXdX<X>XAXgX<XrXw.qXqXP.} C C.P.L.A.{.} C : H.n 1XK.N.S.D.s R v.m.5 q y ",
"q i.v.R _ (.S.F.H.*X#.$.V : ^ ] `.8X8X;.^ T H W o.[ [ >XxXKXGXDXIXkXKXJXxXxXw.( / G.v.{.W.`.`.] k v z n $.J.A.}.G.N T v.i.9 5 I.",
"9 n.d.j T B D.a.J.D M &XV Z.m D } MX6X:.! h Q 6.8.jXxX2X} ;.AXIXAXgXeX2XxXzXw.o.w.{ C {.#X0 _.D N N.b *X:.1XN.].S.k j v.n.9 0 z.",
"k.l.!.Q.T f ).G.4X5X7X,X`.4XN D aXMX0X6.! Q Q Q ( wXxXcXvXvXjXsXLXJXJXvXxX8.9.w.:.H @.X.OX[.aXD H.{.V  Xr.5XD.oX).) R !.l.0 k.R.",
"j.i.M.R h k /.'.*X-X6X XK.hXb ,XaXaXpX6.6./ 6.9.8.] ;.o.{ eXNXNXFXvXdXxX>X:.[ 6.;.-./ ( |.MXMX,XK.hXJ. XxX*X{.G.^.Q.R Q.y.7 9 U.",
"C.i.u.Q.[.]./.}.3X&X9X XNXMXN.MXpX X7X7.:.,.7.wXzXzXqXqXrXJXJXsX<XlXsXvXxXxXzXw.e.e.<.( o.aXaX{.A.hXA `.2X1X} d XXXXv.# # g.p.L.",
"n.h.7 !.oXoXXX) &X*X&X`.1X9XK.{.aX|.tX,.<.7.,.6.7X:.[ :.7XJXFXHXkXkXJXvXxXrXw.-.:.<.q.>. .}  XMXP.9X' `.2X*XN A.oXoX[.# l.x.s.R.",
"U.n.7 v.oXoXoXk *X&X*XJ.<X&XD.MXpX_.qX,.q.,.w.zXxXcXzX9X] ;.gXNX:X:X;.2XxX2Xw.7.7.q.t.<.>.] `.MXH.3Xz N.gX&XV S.oXoXm.p.L.U.R.R.",
"R.L.6 [.[.d F.s D 5XK.4X;.lXMXMXO.} -.7.( ! Q / :.uXcXkXdXVXhXfXAXDXDXvXrX9.8.w.6.~ M a H ..^ }.aXhXz *X5X&XV G.Q.d m.6 C.R.R.R.",
"R.C.O d f u.XXN K.gX#.3XCXsXOX X9X] / <.w.t.w.;.:.8.o.[ { { sXAXgX<X:.9X;.[ [ 6.7.:.<.-.<.%. ..XMXsX1X4X#.*X: (.[.d.d u.L.R.R.R.",
"R.l.8 % f !.S.D.*Xb #.%XVX2XOXfX8X[ ..,.2.q.w.9.qX7XeX9XdXDXgX3XsXpXeXvX2XrXwXwXw.7.q.%.%.P | O.aX2XD *X&XK.b v Q.[.d $ z.7 h.R.",
"5 6 d.O i.z.^.G.K.n 2X5XgXpX X`.;.[ 7.>.<.:.7./ [ S >XcXgXHXVXFXVXkXJXvXcXqX7./ / ~ -.5.5.%.&.W 8XpX*X5X1XJ.N.= ].!.# % u.6 9 N.",
"I.k.d d.b./.C {.`.V bX*XeX`._ `.^ ..<.-.<.w.qXzXzXcX9X[ } 9XkXaX9X<X2XeXdXqX9.7.0.q.w.2.5.5.*.H O.,X1X*XmX`.K.D.C v.d.s.k.7 R.T.",
"j.x.d.f i.d B #X Xz =X-X3X_.` ' W / 7.( L [ :.wXzXcXjXhXeXhX8XCXAXDXvXvX7X6Xw.9.9.q.q.%.P a @.H ..pXD -X=X`.K.) v.m.# u.k.I.R.C.",
"T.U.9 7 d.[.) `.8X&X=X;X{.3X6X6X! Q 5.2.q.6.o.m Q m W ] >XHXLXLXDXVXdXeX8.:.^ W ^ ^ / ! %.%.%.=.H O.D =X-X3XOXN ^.s.i.7 n.x.z.L.",
"0 9 8 d.@XoX^.}.aX-X=X%XaXaX7X9./ K 2.<.2.7.w.w.qX7X7X9XhXkXsX<XhXhXdXsXeXqXtXw.wX7.7.-.%.P P P H H aXV.=X3XOXg ).oXv.u.9 0 T.W.",
"q 8 7 @XoXQ.XX` pXJX&X%X0XaX7X6.<.-.-.~ ~ ( ! [ :.rXiXvXDXFXDXCXDXhXkXvXdXzXwXtX<.Q H K ( <.%.I J H .X%XJ.sXOX`.oXoX@Xp.4 k.x.R.",
"U.h.5 s Q.Q.}.R *XJX-XM 0X0X7X2.| P I >.,.q.w.yXtX8.O.^ } :X8X_.|._.6X7XcXeXtXo.6.6.e.q.2.5.5.%.%.H  XA NX4XOXOXQ.oXl 6 9 U.C.I.",
"R.l.% f k oX]..X&X5X&X:X8X8.9./ | I P ~ ,.<.w.tXtXiXqX7X6X0XsXkXkXvXVXvXkX9X8.w.9.8.w.<.<.>.P H F F ! { 3X$.|.OX'.[.d f u.j.I.W.",
"y.f s . . oX$X.Xi 5X:X_.X.0.,.! &.%.L K W ! a H Q ^ O.;.eX;.9XrX7X1XiXeXeXiX{ Q W ..Q ! ! ! K K L J ! _. X%X3XOXXX/.. s d 7 j.I.",
"4 l s % . O G.Z < 5X`.6X9.0.<.L =.*.1.<.1.o.6.7.6.6.9.iXjXcXcXcXiXeXqXiXjXuXiXtXtX9.e.o.7.2.2.>.P P U 1.C %X#.).N.!.% s d y.I.w ",
"# v.s s   t '.} -X$.pX_.8.-.1.%.&.%.L K ! 7.q.:.:.8.tXuXuXtXcXcXiXiXuXcXjXuXyXiXtXiXtX ...H a H P J P H 7X-X$.`.Z.].@ h v.6 3 w ",
"# d Q.p s a.A.`.-X-X9X6X6.| U %.U &.U I I  .,./ ! ^ Q ~ 6.9.6.o.0.9.7.tX9.tXuXtX8...o.6. .0.0.3.1.*.*.&.^ 5Xn ) N.oXp Q.l 4 3 3 ",
"f.l R R k L.].J.5X$.pXo.,.>.J G J J L | 1.<.q.0.0.0.7.0.tX0.yXzXyXtXyXyXyXyX6.o.0.0.0.0X0.0.q.1.>.I J J ..-XV.S.].XXQ.T l y.4 O ",
"4 l l T }.t $XH.-X$.6XW ! I J G H F Y L >.,.,.<.,.0.q.yXyXzXzXzXw.yXzXyXe.q.6.0. . . .....~ ..H H @.@.F Y -X=XP.[.oXT R k f.w O ",
"f.~.Q.E oXoX'.K.-X1X:.H I Y Y G G Y Y H H H K I K ..,.e.e.e.w.e.0.0.,.7.0. ...,. .............! H | I I J *XP.P.#XS.R R ~.c.w O ",
"c.~.h h XXF.'.N.%X#./ H I G G =.U U U U H I I | >.3.e.t.e.t.t.e.e.2.e.2.3.q.q.e.3.0.1.,.6.6... .| >.L L &.A =XZ.[.f T R ~.c.5 q ",
"c.!.Q.h }.[.'.K.&X] Q H F G G G =.Y G &.%.L L 2.3.>.2.t.e.e.q.-.q.<.e.q.3.q.e.3.3.3.3.....H K K H H a H F D 4XP.'.s T Q.m.f.7 T.",
"4 b.M.E ` F.L.P.5X8.H K J F G G F Y U Y I *.*.*.I K L | &.1.<.3.3.e.4.3.3.3.4.-.1.I K I I ..I | 1.1.1.1.I >XmXZ.L.B E Q.M.y.w 0 ",
"0 b.Q.E _ ].F.bX2X:.Q L G F F Y F Y Y *.*.*.*.*.*.*.I >.1.1.e.4.4.5.3.3.3.3.1.>.| 1.| 1.1.1.1.1.1.1.*.1.*.>XmX{.L.j R Q.b.7 q 0 ",
"0 !.~.R Q.$X$X-X5XX = z F F m F G Y =.=.=.*.*.1.*.*.5.4.4.4.t.4.4.5.4.4.4.5.2.I I *.I *.| *.*.*.*.*.U &.U *XSX#X$Xf R ~.!.g.q C."
};
