/* XPM */
static char *result[] = {
/* columns rows colors chars-per-pixel */
"64 64 256 2 ",
"   c #174A6B",
".  c #2D5172",
"X  c #117175",
"o  c #2E6B76",
"O  c #255B59",
"+  c #4D5D6E",
"@  c #52296B",
"#  c #8C7B77",
"$  c #2B8975",
"%  c #108C7B",
"&  c #4E9173",
"*  c #D1A576",
"=  c #87926D",
"-  c #30528F",
";  c #17728F",
":  c #2F6F91",
">  c #2E55AF",
",  c #3170B1",
"<  c #17559F",
"1  c #4D5490",
"2  c #4D7193",
"3  c #4D52B0",
"4  c #4577A8",
"5  c #4468B8",
"6  c #4578B8",
"7  c #5472B2",
"8  c #6773B0",
"9  c #675D9B",
"0  c #3173D2",
"q  c #3677EF",
"w  c #2667D7",
"e  c #4A58D7",
"r  c #4778C9",
"t  c #4866DA",
"y  c #467AD9",
"u  c #5777DB",
"i  c #506ECE",
"p  c #6579DA",
"a  c #6F75CE",
"s  c #556AE8",
"d  c #4778EA",
"f  c #5777E9",
"g  c #496CED",
"h  c #677AE7",
"j  c #6B73F4",
"k  c #6258DA",
"l  c #5A31BD",
"z  c #916B95",
"x  c #8D73D5",
"c  c #9B78E2",
"v  c #E77BC6",
"b  c #368799",
"n  c #2F8E8E",
"m  c #36A898",
"M  c #1292B2",
"N  c #3588A9",
"B  c #3799A9",
"V  c #3589B8",
"C  c #3698BA",
"Z  c #268FAE",
"A  c #0BB2B7",
"S  c #37A7AA",
"D  c #35B9B9",
"F  c #2FADB5",
"G  c #13918A",
"H  c #4D8F95",
"J  c #6D8F99",
"K  c #50AD96",
"L  c #67AC97",
"P  c #4787A9",
"I  c #5699AC",
"U  c #4688B8",
"Y  c #5788B9",
"T  c #4798B8",
"R  c #5292B0",
"E  c #668AB9",
"W  c #6B94B4",
"Q  c #46A9BA",
"!  c #55A8B9",
"~  c #4DB3B1",
"^  c #6DAEB5",
"/  c #08CFB7",
"(  c #37C4B9",
")  c #1FD5AB",
"_  c #52C9B4",
"`  c #70C7AB",
"'  c #1491D3",
"]  c #3588C8",
"[  c #3799CA",
"{  c #3488DA",
"}  c #3599D8",
"|  c #2790D0",
" . c #15A9CB",
".. c #05B9CA",
"X. c #12B9CB",
"o. c #14BBD9",
"O. c #10AFD8",
"+. c #25AACB",
"@. c #35B8C9",
"#. c #24ABDA",
"$. c #36AADD",
"%. c #26B8DA",
"&. c #34B7DA",
"*. c #30AFCC",
"=. c #3888EA",
"-. c #3798EB",
";. c #3192F5",
":. c #35A9EA",
">. c #35B9EA",
",. c #2CB3F4",
"<. c #18A1EA",
"1. c #4889C9",
"2. c #5689CA",
"3. c #4898C8",
"4. c #5597C9",
"5. c #4789D8",
"6. c #5689D9",
"7. c #4899DB",
"8. c #5698DA",
"9. c #6689CA",
"0. c #6897CA",
"q. c #688ADB",
"w. c #7689DA",
"e. c #6897DA",
"r. c #7799DA",
"t. c #748ECB",
"y. c #46A9CA",
"u. c #56A8C8",
"i. c #49BAC9",
"p. c #56B8C9",
"a. c #45A9D9",
"s. c #58A8DA",
"d. c #46B7D9",
"f. c #58B7DA",
"g. c #67A8CA",
"h. c #75A9CA",
"j. c #67B8CA",
"k. c #66A8D9",
"l. c #77A9DB",
"z. c #69B9DA",
"x. c #77B8DA",
"c. c #76B7CA",
"v. c #5789EA",
"b. c #4698E9",
"n. c #5699EA",
"m. c #4689FB",
"M. c #4998FC",
"N. c #5799FB",
"B. c #5189F3",
"V. c #6688E9",
"C. c #7587E8",
"Z. c #6799EA",
"A. c #7698EB",
"S. c #6889FB",
"D. c #6798FB",
"F. c #7698FB",
"G. c #768AF8",
"H. c #47AAE9",
"J. c #56A8EA",
"K. c #46B9EA",
"L. c #56B7EA",
"P. c #46A8FB",
"I. c #58A8FC",
"U. c #45BAFC",
"Y. c #57B8FB",
"T. c #66A8EA",
"R. c #76A9EA",
"E. c #67B9E9",
"W. c #79B8E9",
"Q. c #6AA9FA",
"!. c #78AAFC",
"~. c #67B5FB",
"^. c #75B7FB",
"/. c #14CADA",
"(. c #14D7DC",
"). c #09CECE",
"_. c #34C8DD",
"`. c #26CAD1",
"'. c #08EFD9",
"]. c #15D8EB",
"[. c #13D1F0",
"{. c #25C9EA",
"}. c #26CBFD",
"|. c #25DDFB",
" X c #33CFF2",
".X c #08EEF4",
"XX c #2DE7F3",
"oX c #48C8C9",
"OX c #57C9CA",
"+X c #57C8D8",
"@X c #4FD4D5",
"#X c #68C9DA",
"$X c #77C7DB",
"%X c #69D3D2",
"&X c #57C8EA",
"*X c #49C6FD",
"=X c #4DD1F3",
"-X c #67C8EB",
";X c #76C9EA",
":X c #68DAEB",
">X c #75D6E8",
",X c #66C9F9",
"<X c #77C9FB",
"1X c #68D8F8",
"2X c #75D9F8",
"3X c #4AE9F0",
"4X c #72E8EE",
"5X c #60E9D9",
"6X c #8D8EB2",
"7X c #A1A3A2",
"8X c #DB9FA6",
"9X c #889ADA",
"0X c #8C8ED5",
"qX c #87A8DB",
"wX c #8CB1D4",
"eX c #B1B7D7",
"rX c #8799E9",
"tX c #979AEA",
"yX c #8597F6",
"uX c #908EF1",
"iX c #A89AEE",
"pX c #86A7E9",
"aX c #99A9EC",
"sX c #87B9EB",
"dX c #98B8EC",
"fX c #88A9FC",
"gX c #96AAFB",
"hX c #88B8FC",
"jX c #96B9FC",
"kX c #A8A8EE",
"lX c #AABAEE",
"zX c #A7B9FD",
"xX c #B2B3F2",
"cX c #A590D6",
"vX c #84C9DB",
"bX c #8FD0D6",
"nX c #89C8EB",
"mX c #97CAEB",
"MX c #89DAEA",
"NX c #94D8EE",
"BX c #87C6FC",
"VX c #98C8FC",
"CX c #95D8FD",
"ZX c #A6C8EE",
"AX c #A8D9EE",
"SX c #A9C9FC",
"DX c #AAD7FD",
"FX c #B8D8FF",
"GX c #B8CEF6",
"HX c #90E8F0",
"JX c #B0E7F3",
"KX c #A4C7DA",
"LX c #C9D8FF",
"PX c #C5CAF2",
"IX c #D3E7FA",
"UX c #84C6BD",
/* pixels */
"g g g v.S.!.S.I.a iXuXkXuXG 8.iXn.0 x aXxX0Xt.kXlXlXlXGXl.J.n., I ~.AXV.y ;Xl.T.A -.{ [ } N.J.i Z.T.:.:.H.b.>.:./.|.<.<.;.;.{ q ",
"d g s h G.D.N.Y.iXuX}.[ c r.iXM < uX6.xX8 uXV.x xXV b T , Q , K hX<.:.5 :.A.:.sXZ } } :.$.} { 8.b.6.#.n.m.:.{ {.}.{.|.q ;.0 =.t ",
"w t s S.yXv.Z.Y.c :.n.iXn *.+.  iX' : iXA.uXu 9.kXW.! 0.Q n : I ,.:.I.~.' y #.4.4 l.n.e N.H.,.:.Z :.o.>.,.#.:.O.|.`.|.' | 0 0 0 ",
"g e e yX!.F.S.I.D.tXiX- X Z tX, V.c A.kX2.n r.ZXwXc.qXk.3.p.: Q rX<X XP.b...r  .R.sXP 0 ] #., [ n.$.$.7.J.P. X' X.o.' w | | w g ",
"g g g s C.yXD.J.J.aX2.X E t.N iXw w O.i 0XX   uXx X 3.z.! oXn m dX-XH 7.> +.' .. .. . 0 ,.| [ V v.J.s -.| O.O. .{.O.q <.;.| w g ",
"g e e t F.!.S.0 T.[ L.X 0.R uX8 > w ' ..X 2 0.GXlX- K.B nXz.x.>X>X&.+.A <.+X7.[ A M ,.,.| -.U <.7.>.%.J.*.o.| ..' O.<.w ;.$.0 g ",
"g e e S.A.fXS.B.=.u.$.[ 3.0X2.N > uX' X.G O   iXlXxXlXlXlXAX$Xx.,.K O.+.A A A  .M O Y > , +.+.V %.:.H.o.n.' O.#. .{.$. X-.:.0 f ",
"e e g G.fX!.D.I.;.L.a.; [ R k.&.] h < M eXeXJ tXuX3.kX0XuX$Xx.nX&X&.n ..A 7.*.Z @XM : H.> 8.U U J.] =.+./ H.X.o.X.{. X,.U.J.5.f ",
"u e j yXyXF.Q.N.;.T 4.R.k.l.z.y.*.w e.tXiX% % N   g.h.$X- W.b.u.}.#. XM A G A @.M `.o.C Z E.8.*., :.{.:.&.%.>.{.*.XX3X,.:.{ T.f ",
"p s S.G.hXB.S.Y.P.=.#.y.E.0.h.E.a.> h.r.X h.kX0X- U : I S < #X,.$.U.+ T M +X/ k.F A A A _.$.: H.b. .{.H.o.}.[./.{._. X*X*XY.T.w.",
"V.yXuXS.fXD.g N.;.:.%.0 2 l.0XN : H l.k.T % aXPXlXR Z oXY D  .F L.E.{.K :  .A : A / A #.o.@.7.y H.`. X{.}./.%./._._. X*X*XP.^.A.",
"t.yXV.j gX!.D.I.m.;.,.w 2.wX3.y.: b P aXxX[ b V sXy.V a.+.y.&...Y.}.}.,., ; ^ #.@.A M A A  .o./.o.{._.(.{.:.-.{._. X3X*X;.=.5.V.",
"A.fXC.p gX!.D.N.P.,.*.+XH.n.; H.] : $ 4.k.k.kXu.dXp.| -.;...)._... ...../.X.B A C *....... X).o.{._.[./././.:.[.{.3X=XP.M.M.Q.q.",
"rXfXh h C.hX^.N.N.p.a.5.2.u.7.L.d.X n S kXK.K.PXY : %.}.-.}.<...o.).O._.`.+.../.&.K.o.(.../.../.X././.>.(.>.]./.XX X3XP.Y.Y.^.!.",
"N.D.p p C.A.v.B.Y.&Xd.E.4.2 lXaXlXI n N : 4.3.K.D - <.,.<.,.o.[.{.).`.`._./ y.)...&X+.A C )...O.0 /./.[.]._. X].3X3X@.0 m.m.Q.fX",
"!.j u 9Xh h f m.P.H.p.T dX1 ^ I , : N y.qXH.6 V Z 0 }.,.}.:.*X}. .2 X.`.B ZX[.%...#.)./ X.).K.q (.X.X.]. X:.].(.3X3X&.{ m.m.^.^.",
"jXfXu p V.v.g m.U.K.&.ZX. k.W.Q 4.b 0 : B rX5 L., <  .:.O. XoX>X XK.X.*.AXK.F `...).X.:...).(. X[.(.].].}.`.[.].3X=X=.=.P.~.!.hX",
"fXF.C.i j f q B.m.*XW.x.8 . 7.s., - b b N k.3.Y.- < ; }.S #.@.}.>.F [.}.#Xy.).).).).).o.).A < ,.[.O.].].`.|.].(.>. X=X:.I.~.F.fX",
"F.V.V.f f g q N.Y.U.a.z.vX7 T.T : : X L.L.s.n.%XMXQ H.C n n , |.N fXCX+X|.[.]./.}.%.:.:.)./ [.[.[._. .(.] (.].%.3X X} *Xb.B.F.F.",
"yXs v.S.S.hXS.q =.q n.lX1 u.4.N Q.o n L.a.n.J.Y.7 L.: f. .Z V : PXkX Xt.&X`.X.(./././ '.< | (./.#.A (.].w { .X_.3X=X| =.{ J.N.j ",
"S.h f f S.hXF.Q.I.-.AXpXr o Q.R.~.4.: VXw.A.B.3 I., : J.- 3.> 0XZX&XL.|.2X .].). .].#...).`./ #.M #.)./.].].XX=X3X=X:.;.I.1.V.S.",
"s s S.yXVXfX!.~.N.-.E.$X, E ^.R.VX0 : ; Y 4.v.B.5 6.: J., | 0 0.MXnX[.1X*X{./.; ).z.6.:./ mXZ #.).<././.'.(.'._.3XL.:.=.B.0 Z.V.",
"s s S.gXgXfXA.Q.N.H.B g.$Xc.9.w.> d { n s.pXQ.~.i 7.U k., Y.Y.] mX_ z.#Xy =X+XD /.].).H.).X.w.|., .X .O.H.'. X .=X&.0 0 =.5.y u ",
"s s C.rXVXgXZ.Q.P.7.@.OX! 3XA.9 e g { b T T VXZ.vXT p.k.2.S Q nXJXz.B B.q NX=XM (./ A ,.w { ]  X{..X+.`.b.f._.d.d.a.=.w b.0 > t ",
"t h s G.aXVXR.i s.-.+Xu.p.9.J 8 j d b.: I H Z.t.pXqX9XbXvXbXIXLXa.OXj.P D $.[ B ).A `.'.q - , .X .|., r E.L.i.&.&X+.=.0 =.0 0 e ",
"s s u C.fXjXF.d { b.@Xg.k.J k.+ k g b.[ JXZXE 3 , 4 Y U s.g.X ~ 3.%X~ C NX-.] M `.).) M , ] Y.|.Z < 5.3.E.u.] [ | ] =.{ =.5.i t ",
"h i h C.jXjX!.^.N.-.:.P Y ^ W.8 e s b.ZX! JX. - 6.o 4.n o $ y.oX%XD _ j.i R.H.M M A / / _.&XT.2.;   , n.z.f.d.} [ =XL.N.D.T.6.i ",
"k t G.jXSXjXF.Q.M.=.:.P e.p.%XI k t i.sXK 2 JXlXh.u.V ~ 1.vXMX>XK `.P &Xe ;.L.X.$ A '. X'._ - ;XQ., H.1.E.s.@X=X$.f.1X^.J.B.1.i ",
"p t G.xXSXfX!.Q.I.-.} u.z.5XH %XT S c.AXJXO 4 mXGXE.S ~ OXp.Q ( %X& L 8.e oXV Q i.F ; .XVX;X6   J.W.n.1.E.&X&Xa.d.+X-XY.Q.r e.qX",
"q.u G.fXjXS.5.^.Y.-.:.4.$X! K j.4 e n.: E : H vXMX_.;XH N >X~ ! %X& f.Q f.%X#XB @.D ].a.: A.- < { L.D H.#XL.+XH.+XL.I.S.~.v.fXpX",
"p rXtXrXzXT.F.D.m.P. X2.sXj.L l.! y.3.V X $ p.#XaXk.+XOXl.>Xp.f.HXoX_ H 2.z.a.N R j.>XV ,   : - L.V.1.n.z.a.a.H.:XK.-X<X^.D.jX9X",
"a zXuXgXSXjXhXI.M.P.U.x.$X>X%XdXR.nX4.u x.$Xg.wXJ H $XnXMXMXT.1X>X5X+XK 4 $X0 #XQ e.E.1.N 4 4.b.T.0 7.7.s.a.&X=X+X&X,XQ.^.N.R.sX",
"9XyXA.rXSXVXhX!.M.b.K.6.NXMXR.C.9.sXnXOXsX<X4 qXNXvXT g.HXnX#X~ j.%X2Xc.$X$X5XMXCXmXNXy.*.e.} -.0 T.7.6.#Xf.&X-X&X:X1XD.D.N.6.A.",
"dXxXA.rXgXVXhXQ.,XP.U.nXnXs.$X;X#XY -XMXMXsXW x.x.E 4.I.AXaXQ &Xm ~ @Xi.%X$XnXR.E.k.3.E.;XL.n.;.d > n.6.z.#XL.&X1X4X<XD.S.D.6.dX",
"R.fXq.rXw.pXV.D.~.Y.*X%Xe.x.R.#X#X: H #XnX<XR.w.~.4 n.k.JXrXf.p.1Xp.+XNXAXy.+X+X#XE.+XT z.J.;.5.t 0 5 r #X:X7.&X&X#XT.N.S.!.T.hX",
"hXV.w.w.9Xq.D.N.Q.U.*XE.$Xt.W.$XH Y g.MXx.wXsXsXR.5 T.mXvX8.s.6 ! z.#X%XMXe.i.+X;XL.=Xf.-Xk.k.Z.I.J.b.7 Y f.H.&X4X1Xu.y S.B.!.VX",
"jXF.a rXA.A.f N.I.*X*XJ mXE MXI f.l.r mXq.Z.A.nX<Xx.hX$Xs.p.Y Y r.JX>X:X#XR.sXNXL.b.V.e.W.v.b.r n.1.- i 2.V b.&X2X1XI.5.S.v.jXfX",
"SXpXw.w.A.V.d Q.I.*X*X9X8 W wXu.W.: P nXE.W.t.9XsX- [ R ! OXo k.ZXmXOXQ sXe.B u.f.8.J.q.T.y b.3.s.d N 2.T 3.J.L.&X,Xb.v.D.!.hXzX",
"pXsXrXq.F.S.m.^.M.m.:.9 9X9 R.I x.l.g.NX<XfXW.HX>Xj.>XQ o : s.MXx.$XAXsXT n j.T E.L.V.T.;X: 3.s.K.[ &.7 U [ s.H.-X,X-XT.!.VXjXgX",
"gXR.pXV.yXVX^.^.,X=.U.t.h.g.qXl.sX$ j.W.e.!.A.MXp.j.#X~ H y.R #X#X>XAXe.B n #XR.;X~.E.> E.] C v.J.> V 5 6.0 H.s.4X2X1.!.v.!.!.fX",
"uXC.F.F.fXSXBXhX,Xn.*XY c.h.qXpXVXH g.E.0.hXr.nX4.R #X5XD C S nXOXOX~ 1X! OX-Xl.J.Y.L., ] , L.J.J.,   r { #X>X-X2X2X5.5.v.A.A.pX",
"A.C.G.yXD.zXCX!.Z.P.*XS u.0.pXVXhX4 n p.2.hXW.HXW.P h.%X%X4XQ HXMX+Xi.1XOX+Xx.u.J.B.5 Y.0 o a.n.Y.~.0 2.5.#X>Xk.2X<XE.B.S.n.p Z.",
"h C.F.gXSXjXsXhXQ.J.*Xu.T ~ @XR.w.R.B B vX$XW.R.A.wXNXNX4X:X%Xi.~ OXoXoXoXu.S Q Y.~.&X> y.s.f.r J.5.8.6.k.j.;X4.;Xk.n.d S.V.2.q.",
"p C.A.GXFXSXBXsX~.J.*XwXc.h.sXqX_.T.nXj.x.;XBXZ.z.E z.E.%X#X+X~ 5XOX[ f.*Xi.@X_.,X1X;Xv.E.L.7.1.} H.8.2.z.z.$X4.;Xz.R.t v.v.6.6.",
"h h gXlXFXDXdX6.8.5.K.I ! u.c.W D B.#Xp.! $Xl.a R.H #Xi.@X_ _ 5XoX@X~ n.:XoX+X+XD Y.1.-XC 3.T.5.B 1.: 4.c.j.g.$Xz.8.V.t y 6.6 r ",
"u j V.dXSXDXyXZ.n.b.H.H h.E W R S Q z.p.s.! ;XHXz.m j.~ @X@X`.@.( ` 7 D &XoXp.5X_ 2.@.J.C , E.E.2.T y.q.$X>X0.s.W.k.5.0 d { 0 r ",
"p h C.pXSXDXBXfXI.P.7.^ W I wX8 r ] s.nXnX^ 1 @X&XoX_ ( _ ( ( @X_ $X7 s [ u.u.D M Z C -X;Xs.N N s.$.Z 6 j.$Xz.8.5.4.d d 5.1.6.i ",
"p h aX9XFXDXfXBX~.P.a.h.UXW ZX0Xl f ;XmX4 W.R :X@XS b S m D ~ 5XL & l.t a.%X@.X o P - 6.T.1.4.$.&X%.b 5 4.x.$Xs.s.BXR.V.D.<Xk.a ",
"p u zXGXLXDXVXBXI.H.H.h.wXKX= ZXa k 5.p.I O W sXE ! K : 4.K @XK %XI :XH.q | @.% O : Y - ;X: b k.q.P 5.9.g.$XW.T.4.W.pXhXA.BX2.9.",
"p k uXzXFXjX!.BX^.Y.a.x.p.J 7XwXkXk 5 B H + ^ 8 g.2 o H t b :X5X4X_ S H.@X[ D n O H s.- E.2.. 9.> N r e.z.j.;X;Xc.x.nXfX!.hXT.q.",
"h h gXLXdXfX!.!.I.Y.L.8 qXeXg.wX+ k r n e.& ^ o nXH + 8 s.1.@X4X` ` _ @X,X,XoXm $ OX! : u.8 . - i i 6 7 x.k.W.8.W.sXVXyXR.hXpXlX",
"0XrXzXxXFXDXCX^.~.I.K.9XlXwX= UX@ l 5 N c.K K W h.+ ^ 0.8.=X5X%X& _ 2 >XU d._ _ $ K R , 2 7 2 5 > , 8.2.z.g.W.Q.MXR.BXfXjXCXmXAX",
"kXPXiXLXLXjXVX^.~.J.=XI ZXwXGX7X+ 9 8 : ~ k.& H g.+ vXa L.3X3X4X_ _ 5X~ 5 V N ( ~ n 2 P O 2 9.3 r y e.0.l.x.W.k.nXW.aXVXVXQ.VXFX",
"PXkXA.LXLXGXDXBXBX,X=X0.wXJ ^ FX9   L UXNXwX8 C +XJ ;X,X] -X1X_ _ 4Xz.&X$ _ _ -X2Xo x.4 + 6 V.6.Q q.6.2.c.vXW.W.sXnXVXfXS.D.n.k.",
"GXkXA.aXFXFXsXBX^.1X1Xt.0XLX8 SXGXAXL ` NXAX^ %XnXk.<XI.} V ;XE.HXJ.s.:Xm m _ #X>Xz.Q g.. 5.n.s.i.> 9.9.0.vXl.W.nXNXjXgXjX!.!.VX",
"zXLX9XtXqXqXR.!.~.2X=X0X9 9 wXGXL o I H nXJXJXUXg.8.<XL.L.8.R.;X-XHX;X! m m ~ :X2X;X! g.- v.8.q.1.3 - 1 Y h.R.sXnXMXVXgXgXF.R.GX",
"DXA.qX9X0X9XA.!.<X1X1XpXx 9 KXL H wXg.wXCXjX6XHXh.1.^.[ R.8 &X3X_.MX5Xm _ _ _ 4X;XW Z.!   r 6., 7 1 1 1 Y 9.Z.nXNXNXpXA.S.!.Q.mX",
"SXr.kX0XdXR.B.hX~.Y.,Xg.^ ^ eXwXwXc.` ` qXwX6XwX2., <X& 5XK I @X@X+X( _ ~ m ` $Xe.2 x.6 r., Y o W 2 1 8 W g.Z.W.VXVXt.q.V.fX^.FX",
"IXaXt.aXpX6.D.Q.Q.I.Y.1.9 I bXr.H . J H J e.mXW : 2 bX_ H L ^ 2X4XF _ $ *.S n ^ 0.x.^ 4 - 9.I P 2 H @ O 6.r l.sXR.BXA.A.fXfXSXDX",
"GXjXaXyXF.hXQ.CXBXI.,X: g.8 r.^ 1 x.c.dXJXSXnX1 P 5._ K . W.;X+ S ~ n F S oX-XHXnXW.9 - . R K h.. 2 9.8 r l.Z.Z.nX^.R.e.hXhXFXGX",
"lXmXpXyXzXGXSXgXA.Q.~., 6XeXlX7 KXE UXmX{ 5.5.a 4 t.0.Y C.9.z.L Q I b H ~ ^ OX$XW.r.8 Y e.R.UXr.9.t.H w.6Xr.R.A.^.R.6.8.e.BXSXjX",
"pXA.fXzXgXxXxXgXR.G.S.8 7 9.GXlXGXJ t.y i i tXt.E 2 ^ 1 + 2 o E P o E W ^ R ! ! l.9.x.- 0Xa 0X9 2 - + W c 0Xk.r ~.Z.Z.u v.hXt.dX",
"C.tXfXxXLXPXxXa yXh s p w.< tX9XcX- > 1 9 i 9 aX3 1 2 8 8 8 9 . : g.^ H o - 9 2 E 8 8 E 8 + x l 2 9 6 + x c 7 5.8.6.D.s D.u 2.A.",
"C.C.kXGXIXLXzXs uXj uXl 9 x 3 @ # 9 6X6X8X8Xv * * * z 8X7X7X. o 8X8XeX8Xz # 7X# 7X* 8X= z z 1 x x k x 3 1 c j 6.b.y f 0 q r ] 1."
};
