/* XPM */
static char *result[] = {
/* columns rows colors chars-per-pixel */
"64 64 256 2 ",
"   c #2B585A",
".  c #2C6657",
"X  c #174A6B",
"o  c #2D5072",
"O  c #117175",
"+  c #2D6C77",
"@  c #14535A",
"#  c #4B6D79",
"$  c #525465",
"%  c #2B8A76",
"&  c #108C7B",
"*  c #4D8B74",
"=  c #52A573",
"-  c #87906B",
";  c #2F5290",
":  c #17728F",
">  c #2F7091",
",  c #2F54AF",
"<  c #3170B1",
"1  c #17559F",
"2  c #4E538F",
"3  c #4C7393",
"4  c #4A55B3",
"5  c #4578A7",
"6  c #4468B8",
"7  c #4577B8",
"8  c #5474B2",
"9  c #6876AF",
"0  c #696398",
"q  c #3173D2",
"w  c #3677EE",
"e  c #2667D7",
"r  c #4B58D7",
"t  c #6958D4",
"y  c #476AC8",
"u  c #4779C9",
"i  c #4865DA",
"p  c #467AD9",
"a  c #5777DB",
"s  c #5671D0",
"d  c #6579DB",
"f  c #6E76CD",
"g  c #556AE8",
"h  c #4778EA",
"j  c #5877E9",
"k  c #496CED",
"l  c #677AE7",
"z  c #6B73F4",
"x  c #495AF1",
"c  c #5A31BD",
"v  c #907AE1",
"b  c #8C73B5",
"n  c #368899",
"m  c #2F8D8E",
"M  c #35A898",
"N  c #1292B2",
"B  c #3588A9",
"V  c #379AA9",
"C  c #3589B7",
"Z  c #3698BA",
"A  c #268FAE",
"S  c #0BB2B7",
"D  c #37A7AA",
"F  c #35B9BA",
"G  c #2FAEB5",
"H  c #13918A",
"J  c #4D8F95",
"K  c #719299",
"L  c #50AE97",
"P  c #66AD97",
"I  c #5686AA",
"U  c #5799AD",
"Y  c #4688B8",
"T  c #5688B9",
"R  c #4798B8",
"E  c #5798B8",
"W  c #478DAA",
"Q  c #6992B5",
"!  c #46A9BA",
"~  c #56A9B9",
"^  c #4DB3B1",
"/  c #6FAFB7",
"(  c #08CFB7",
")  c #37C4B9",
"_  c #1FD5AB",
"`  c #53C9B4",
"'  c #71C9A8",
"]  c #1491D3",
"[  c #3588C8",
"{  c #3798CA",
"}  c #3488DA",
"|  c #3599D8",
" . c #2791D0",
".. c #15A9CB",
"X. c #05B9CA",
"o. c #12B9CB",
"O. c #15AADA",
"+. c #14BBD9",
"@. c #08B5D3",
"#. c #25AACB",
"$. c #35B8C9",
"%. c #24ABDA",
"&. c #36AADD",
"*. c #26B8DA",
"=. c #34B7D9",
"-. c #30B0CB",
";. c #3888EA",
":. c #3798EB",
">. c #3192F5",
",. c #35A9EA",
"<. c #35B9EA",
"1. c #2CB3F4",
"2. c #18A1EA",
"3. c #4889C9",
"4. c #5689CA",
"5. c #4898C8",
"6. c #5697C9",
"7. c #4689D7",
"8. c #5688D9",
"9. c #4899DB",
"0. c #5698DA",
"q. c #6688CB",
"w. c #6897CA",
"e. c #688ADB",
"r. c #7689DB",
"t. c #6897DA",
"y. c #7799DA",
"u. c #748FCB",
"i. c #46A9CA",
"p. c #56A8C8",
"a. c #4ABAC9",
"s. c #57B8C9",
"d. c #45A9D9",
"f. c #58A8DA",
"g. c #46B7D9",
"h. c #58B7DA",
"j. c #67A8CA",
"k. c #75AACA",
"l. c #67B8CA",
"z. c #66A8D9",
"x. c #78AADB",
"c. c #69B9D9",
"v. c #77B8DA",
"b. c #76B7CA",
"n. c #5789EA",
"m. c #4698E9",
"M. c #5699EA",
"N. c #4689FB",
"B. c #4998FC",
"V. c #5799FB",
"C. c #5189F3",
"Z. c #6688E9",
"A. c #7587E8",
"S. c #6799EA",
"D. c #7698EA",
"F. c #6889FB",
"G. c #6798FB",
"H. c #7698FB",
"J. c #768AF8",
"K. c #47AAE8",
"L. c #56A8EA",
"P. c #46B9EA",
"I. c #57B8EA",
"U. c #46A8FB",
"Y. c #58A8FC",
"T. c #45BAFC",
"R. c #57B8FB",
"E. c #66A8E9",
"W. c #76AAEA",
"Q. c #67BAEA",
"!. c #79B8E9",
"~. c #6AA9FA",
"^. c #78AAFC",
"/. c #67B5FB",
"(. c #75B7FB",
"). c #14CADA",
"_. c #14D7DC",
"`. c #09CECE",
"'. c #23C8D9",
"]. c #34C8DD",
"[. c #29CCC9",
"{. c #08EFD9",
"}. c #15D8EB",
"|. c #13D1F0",
" X c #25C9EA",
".X c #26CBFD",
"XX c #25DDFB",
"oX c #33CFF2",
"OX c #08EEF4",
"+X c #2DE7F3",
"@X c #48C8C9",
"#X c #57C9CA",
"$X c #57C8D8",
"%X c #4FD4D5",
"&X c #68C9DA",
"*X c #78C7DB",
"=X c #69D4D2",
"-X c #48CBE9",
";X c #57C8EA",
":X c #49C6FD",
">X c #4FD3F6",
",X c #68C8EB",
"<X c #76C9EA",
"1X c #68D9EB",
"2X c #75D6E8",
"3X c #66C9F9",
"4X c #77C9FB",
"5X c #68D7F8",
"6X c #75D9F8",
"7X c #4AE9F0",
"8X c #70E8EE",
"9X c #64E8D8",
"0X c #929EA2",
"qX c #889ADA",
"wX c #8D8CD3",
"eX c #87A8DB",
"rX c #8BB1D3",
"tX c #8799E9",
"yX c #8597F6",
"uX c #9392EF",
"iX c #A89AEE",
"pX c #86A7E9",
"aX c #99A8EB",
"sX c #86B9EB",
"dX c #98B8EC",
"fX c #88A9FC",
"gX c #96AAFB",
"hX c #88B8FC",
"jX c #96B9FC",
"kX c #A8A8EE",
"lX c #AAB9EE",
"zX c #A7B9FD",
"xX c #B2B3F2",
"cX c #ACB4D8",
"vX c #84C9DB",
"bX c #8CD2D6",
"nX c #89C8EB",
"mX c #97CBEB",
"MX c #89DAEA",
"NX c #94D8EE",
"BX c #87C6FC",
"VX c #98C8FC",
"CX c #95D8FD",
"ZX c #A6C7EE",
"AX c #A8D9EE",
"SX c #A9CAFC",
"DX c #AAD7FD",
"FX c #B8D8FF",
"GX c #B8CFF5",
"HX c #90E8F0",
"JX c #B0E7F3",
"KX c #A3C5D8",
"LX c #C9D8FF",
"PX c #C5CAF2",
"IX c #D3E7FA",
"UX c #84C6BD",
/* pixels */
"k k k n.F.^.F.Y.f iXuXkXuXH f.iXn.q v cXxXv u.kXlXZXlXGXD.f.m.< U /.AXZ.p <Xx.E.S 2.} { %.S.L.y G.~.,.&.K.U.<.%.).XX2.2.>.} } h ",
"h k g l J.G.V.R.iXuX.X{ v r.iX] 1 uX4.xX8 yXe.v lX< n R 5 ! < L hX2.,.6 ,.D.,.sXC &.9.:.K. .} f.9.8.%.M.C.,.} 1..X XXX>.>.e N.w ",
"e i g F.yXn.S.R.v ,.M.kXm #.G X iX] > iXD.uXa t.kXv.E j.! M > U 1.,.Y./.] p %.0.3 W.Z.y V.K.1.:.A K.+.<.1.%.1.O.XX).XXe  .q q q ",
"x r r yX^.H.F.Y.J.uXiX; O A uX< Z.v D.iX4.m y.xXsXb.eXz.{ ~ > ! tX4XoXU.m.X.7 ..~.!.I q [ %.< { M.&.%.9.K.K.oX] o.*. .] ]  .e i ",
"w x x j A.yX~.M.L.kX4.O Q u.W iXe e S s wX+ @ uXv X 5.c.~ $.m M dX,XJ &.< #.] @.#.+ o q 1. .| C n.L.g :.#.O.....).O.w ] >. .q i ",
"k x r i H.^.F.q z.{ I.O q.W uX9 e e ] X.O 3 t.xXlX+ -XZ nXv.c.MX2X=.-.S ] ;X7.{ S N 2.1. .:.Y %.m.<.O.Y.#.+.} X.] O.2.w >.,.q x ",
"g r r Z.D.^.F.C.;.p.&.{ 5.wX4.B , uX] o.H @ X iXkXxXlXkXlXAX*Xv.1.L O.#...S X.N N @ T , < #.#.C -.K.m.+.M.] O.O...oX&.oX:.,.q j ",
"i r k H.fXfXG.Y.>.R.d.: { Y h.=.[ l 1 A cXKXK uXuX5.lXwXuX*Xv.nX-Xg.m S S 9.[.A $XN > K., 9.Y Y L. .| #.( L.o.+.o. XoX1.T.L.7.j ",
"l r z yXyXH.~.Y.>.R 6.W.z.eXQ.p.-.e t.uXiXH H A o j.k.vX; !.m.p.1.%.oX..S S S F N [.O.Z A (.0.#.< <. X&.*.*. X1.o.+X7X1.1.} L.j ",
"s g F.J.fXF.C.Y.U.;.%.i.E.~ k.Q.9., k.k.@ k.xXb o Y > U D 1 &X1.<.<.. R N $XS / G S S S ].-.> K.m.O.*.P.+..X X).oX].oXT.3XY.E.e.",
"A.H.yXZ.fXG.k V.>.,.*.q 3 z.qXB n J x.z.5.& aXGXlXT A [.E F ..G I.,XoXU + ] S 3 G ( S +.+.$.M.u K.].oX X.X_.+.).].].oX:X3XU.(.D.",
"r.yXl z jX^.G.Y.N.>.1.e 4.rX5.i.> > W aXGX{ n C sXi.C g. .i.=.X.R.1..XU.C : ~ O.-.S N S S #.@.).o. X<._. X,.:. X].oX7X:X>.;.p S.",
"D.gXl d jXfXG.V.B.1.-.$XL.M.: K.[ > & 6.z.x.iXs.dXh. .:.>.X.`. XX...X.X.).o.V S Z *.`.X.X.<.`.@. X].|.).[.|.%. X X7XoXU.B.B.Y.e.",
"pXfXA.d l hX^.Y.B.l.g.} 4.6.9.I.g.+ m D kXP.P.PXT > +..X:.1.O.@.@.`.@.].$.*.o.).=.<.+.).@.).@.).o.).).<.}.<.}.).oX7X7XU.R.R.(.^.",
"~.F.d d A.D.n.C.R.;Xg.Q.4.3 lXcXlXU m A > 6.{ P.F 1 2.1.2.1. X|. X`.'.[.].( &.`.X.;X#.S G `.@.@.q ).).|.}.].].XX7X7X$.q N.B.~.fX",
"^.j s tXd j j N.Y.P.s.E jX2 / V < > B i.eXd.5 Y C q oX1..Xm.oX.X..3 o.[.V ZX|.*.X.%.`.( o.`.P.w |.o.o.}.oX,.}._.+X7X=.} N.N.^.(.",
"gXfXa d Z.n.g h U.P.=.ZXo z.!.Z p.B q > V tX6 I.< 1 O.,.O..X@X2XoXP.o.$.AX].G [.X.`.o.,.X.`._.oX|._.}.}. X X}._.7X>X>.;.Y./.^.hX",
"fXH.Z.s F.a w V.B.:X!.v.9   9.p.< o m n B z.9.R.; 1 ; |.G #.-.oX<.G |..X&X9.`.`.`.`.`.o.`.S 1 1.|.@.}._.).XX}._.<.oX-X,.Y./.H.fX",
"H.Z.Z.j j k w N.Y.:Xd.c.nXI E.5.> > > I.I.f.M.=XbXa.K.Z M H < XXB fXCX$XoX|.|.)..X*.:.<.( `.|.XX|.].O._.3._.}.*.7XoX| :Xm.M.H.F.",
"yXg n.F.F.hXF.w >.w M.lX2 6.0.B ~.+ m K.d.n.L.I.8 I.> h...B C > PXaXoXu.;X'.o.).).).( {.1  .`.).%.S _.).e } OX].7X>X .;.;.L.F.F.",
"F.l h l G.hXH./.R.>.AXeXu + ~.E./.6.> VXy.D.C.4 /.< > K.; 5.1 wXZX;XI.XX4Xo.).{...}.%.X.`.[.`.O.N %.`.).}.}.+X-X7X>X,.>.M.6.n.F.",
"g g F.yXjXfX^.~.C.m.Q.*X< Q (.^.VXq > : T 6.n.n.4 8.> L.< } q w.MXnXXX5X:X X X: o.&X8.,.( mXA %.).O.).)._.{.{.=.>XP.U.;.N.q S.l ",
"g g J.fXgXhXD.~.B.K.D j.*Xb.q.u., h } m p.fX~./.q 0.Y z.6 R.R.[ CX^ h.&X7.-X$XG '.{.`.U.`.o.r.XX< OX..O.K.{.oX..>X].[ e w u p a ",
"g g A.tXjXgXS.~.Y.9.$.#XE 7XD.0 r h } n R R jXS.vXR s.z.6.D ! nXJX&Xn C.h MX:X..).S ( ,.e } [ oX.XOXG ).m.h.].-Xg.d.;.e 9.q q y ",
"a g g H.aXjXW.s d.;.$Xs.s.w.9 9 z h m.: U J S.u.pXeXqXvXvXbXIXLXi.=Xl.5 ) &.{ V _.S ).{.w ; < OX..XX< u E.I.a.g.g.-.:.e ;.q q r ",
"g g a A.fXVXH.h } K.$Xj.x.I k.$ t k C.{ AXZXQ 4 < 5 E W z.j.O ^ 9.#X^ Z NX:.[ N _ `.( N , 5.R.XXA 1 7.5.Q.p.[ #.[ { ;.} | 7.s r ",
"l r l A.gXjX^.(.B.:.,.I I / !.9 r k K.ZXs.GXo ; 8.+ 6.m + % g.@X=XF ` s.i ^.K.N N S {.S ].;XE.4.1 O A n.c.h.a.| { >XI.V.G.E.n.y ",
"s i J.zXSXVXH.~.B.:.:.W t.s.=X~ t r a.dXL 3 JXZXk.p.Y ! 3.*XMX,XL ) W 3Xr ;.;Xo.m H {.oX{.#X+ !.W.< K.3.Q.f.;X-X&.h.3X/.M.M.u a ",
"d i z xXSXfX^.~.Y.:.%.6.c.9XJ #X{ D b.AXAX  3 mXAXQ.M D =Xa.! ^ #X= L 0.r @XC ! s.G > OXNX!.< X 0./.M.3.<X;X;Xd.g.$X,XR./.u t.eX",
"f g J.fXjXG.p (.R.:.,.6.vX~ P l.3 r f.< Q > J nXmX].nXW W 2X` ! &XL c.E s.=X&XV $.G _.=.> W.; ; 7.I.-.f.c.I.-Xd.$XP.Y.F./.n.gXpX",
"r.uXuXtXzXW.H.G.N.U.<.4.sXl.P x.s.i.5.C O m ~ &XaXl.&X#Xz.2Xh.s.bX#X` J 4.c.f.B W &X1XC < X > , f.n.5.9.c.d.&.K.1XI.,X4X(.G.jXqX",
"q.zXuXfXSXjXhXY.B.U.:Xv.*X2X=XsXx.sX6.a v.l.l.rXI J *XnXbXHXS.5X2X9X=XM 5 *Xq $X! t.c.6.< 7 6.9.E.w 9.0.z.d.-X>X$X;X3X~.(.V.W.sX",
"qXyXS.tXSXVXhX^.B.m.P.8.NXnXeXS.q.sXnX#XdX4X5 eXmXvXT z.AXMX&X^ l.=X6Xb.*X*X9XMXCXmXNX{ -.E.| m.q /.9.8.,Xh.;X;X;X2X5XG.G.V.8.D.",
"dXxXD.uXgXVXhX~.3XU.T.nXnXp.2X<X&XT ,XMX2XsXE !.c.w.5.L.HXaXR ;XM ^ #Xa.=X2XnXW.Q.z.5.Q.<Xc.M.>.h 1 S.8.c.$X,X;X5X8X4XH.F.G.8.sX",
"W.fXe.tXr.pXZ.~./.R.:X=Xt.v.W.&X&X> J &XnXBXW.u.Q.5 M.z.JXtXc.a.1Xa.$XNXDXi.$X$X&XQ.#XR Q.L.:.7.i q 6 y &X&X9.5X;X&XL.V.V.~.S.jX",
"hXZ.r.r.qXe.F.V.~.T.T.<Xv.t.!.!.J E j.MXv.rXsXsXW.6 E.mXvX0.f.7 ! !.&X=XMXj.a.h.<Xh.:XI.,X0.z.S.Y.L.8.u 4.s.K.;X8X5Xp.p F.F.^.VX",
"jXJ.r.qXD.D.j V.Y.:X>X3 dX9 MXU f.x.u mXe.D.D.nXBXv.hX*Xf.~ E Y y.JX2X8X$XsXsXmXT.9.S.t.<Xn.C.u M.3.; 7 4.R m.;X5X5XL.7.F.n.gXfX",
"SXpXr.r.D.Z.h ~.Y.:X>XaXQ Q rXs.!.> 5 mXQ.!.u.qXsX; 5.R p.` 3 j.ZXmXs.i.pXt.n s.f.f.E.e.E.q m.R L.7.< q.R 5.K.I.3X3Xm.n.H.^.jXVX",
"pXsXtXd ^.F.N.~.B.B.:.0 qX0 W.U rXt.l.NX4X^.v.NX1Xl.2XD + > f.NXv.*XAXeXT M l.5.Q.E.Z.E.<X> 5.L.=.&.i.7 3.{ f.L.,X,X3XE.^.VXgXhX",
"gXW.pXZ.yXVX^.(.4X;.T.q.k.j.eXx.nX% b.Q.y.^.D.MXs.l.&Xs.n i.E &X=X2XNXz.V m &XE.<XR.Q., Q.3.Z n.L., C y u q K.f.8X6X3.^.Z.~.fXfX",
"yXr.H.H.fXSXhXBX4XM.:XT c.k.eXpXBXJ z.,Xw.hXt.nX6.T &X9XF V V <X#X#X^ 5XU #X1Xz.L.R.I.< [ < h.L.Y.< X u } &X2X<X6X6X7.8.n.S.W.yX",
"D.A.H.J.H.jXVX^.S.U.:XD p.w.tXVXBX5 m f.T hX!.HX!.U / 1X1X2X^ HXMX$Xa.5X=X$Xv.p.L.C.6 R.[ ; d.M.I.L.p 4.7.&X2Xz.6X4XE.C.F.M.d t.",
"l A.H.kXSXjXnXhX~.K.:X~ R ~ %XW.A.E.V M vXvX!.W.D.eXNXNX8X8X=Xs.^ #X@X@X@Xp.D i.R./.;X, 5.h.f.7 L.7.t.7.f.c.2X6.6XE.S.j n.Z.4.r.",
"l A.D.GXFXVXVXsX/.L.:XrXb.k.vXeX@X~.nXj.v.!.BXS.c.Q l.E.#X&X$X^ 9X#X{ h.T.a.%X].3X5X<Xn.I.I.f.3.| K.M.4.l.c.v.6.Q.l.W.q n.8.8.n.",
"l l gXSXFXDXdX8.0.7.P.U ~ j.b.Q F C.c.s.~ *Xx.d !.J &X@X%X@X` 9X@X%X^ M.1X@X$X$XF R.7.,XZ 5.L.7.V 3.> 6./ &Xj.&Xc.t.Z.q 7.8.u y ",
"l z d aXSXDXyXS.M.m.K.J j.T / I D ! Q.#Xf.^ <XHXh.M l.! %X%X[.$.) ' 8 F -X@X#X%X` 4.$.L.{ > Q.<X4.R i.e.*X2Xw.f.E.z.7.h h } u u ",
"a l e.pXSXDXjX(.Y.U.,./ Q K rX9 u [ z.nXnX/ 2 $X1Xa.) ` ` ) ) %X` *X8 g 9.~ i.) N A Z Q.<X9.B C f.-.A y l.*Xv.9.6.0.h p 7.7.8.s ",
"d l kXqXFXDXfXBX/.U.d./ rXQ ZXwXc j Q.vXI !.U 1X%XD n D M G D 9XP * x.i i.&X$.+ + W ; 8.Q.4.6.&.I.=.n 7 6.v.v.f.f.BXW.Z.G.(.z.s ",
"d s kXGXLXDXVXBXY.L.K.k.rXKX- ZXt g 7.s.E   Q sXI U L > 6.L =X' =X^ 8Xd.w  .$.%   > 8 ; Q.> J z.t.B 4.q.j.*X!.L.p.!.pXdXH.BX4.q.",
"d d uXzXFXjX^.BX/.R.d.v.s.K 0XrXiXt y V J . / 9 j.3 + I y B 1X%X8X` V L.%X{ G m . W z.> Q.4.o 6., C u t.c.l.<XnXc.eXsXfX^.hXE.q.",
"A.d gXPXdXfX^.^.Y.R.P.9 qXUXb.rX2 c u m D.* / # v.* # 9 z.3.%X8X' L ` %X3X5X%XM % #Xp.> p.8 o 2 y y 7 s v.z.!.0.*XnXVX^.W.(.sXlX",
"wXuXzXzXFXDXCX(./.Y.I.qXlXrX- KX$ 0 4 B rXL L U b.# / u.f.-X7X=X= ` 3 <XY =.) ` % J W 5 3 8 3 4 , < 0.T c.j.!.E.nXW.hXfXjXCXSXZX",
"iXGXiXLXLXjXVX(.~.K.;XE ZXcXAXcX$ 0 8 > ^ k.* I j.# vXf I.%X%X8X` ` 9X~ 6 C B ) ` m 3 5   3 Q 4 u p t.u.c.v.W.E.nXsXpXVXSX~.VXFX",
"PXkXD.LXLXGXDXBXCX3X>Xt.rXK K ZX0 X / UXmXrX8 V l.I <X4X .5X5X#X#X8Xc.;X% ` ` ,X1X+ !.5 ; 5 Z.8.! r.a 4.k.bX!.!.sXnXVXgXF.G.M.z.",
"GXkXD.kXFXFXsXBX/.3X5XQ v LX9 DXGXAXP ' MXAXk.=XnXz.4XY.| C <XQ.HXL.f.6XM M ` &X1Xc.^ j.o 7.M.f.a., q.q.w.vXx.!.nXNXjXfXgX^.~.VX",
"zXLXqXqXeXeXW.^./.6X>XwX0 0 rXAXP + U J nXJXHXrXj.0.4XI.I.0.W.<Xc.HX<X~ M M ^ 6X2X<X~ j.; n.0.t.3.6 ; 2 Q j.W.sXnXMXVXgXgX^.W.GX",
"DXtXeXqXqXqXD.^.4X5X5XpXb 0 KXP * W.k.rXHXjX0XMXk.3.(.{ D.I -X9X].HX#XL ` ` ` 9X<XQ G.E o u n.< t 2 2 o T q.M.nXNXNXW.D.F.^.W.VX",
"SXy.kXwXdXD.C.BX(.R.>Xz.rX~ cXrXrXrXP bXeXrX0XrX4.< 4X* 9XL U %X-X$X@XM F L ` 2Xj.3 b.7 y.< 4.  Q 3 2 9 Q w.S.!.VXVXu.t.Z.fX(.FX",
"IXpXy.pXpX8.G.~./.Y.R.3.0 E cXx.* o J I K y.mX/ > 3 2X` J P / 2X8XA ` M F D J / w.!.Q I ; T U W 3 J $ o 4.u !.sXW.VXD.D.fXfXVXFX",
"DXzXaXuXH.hXG.CXBXL.3X> Q 9 t./ 3 v.rXmXCXSXnX2 I 7.' L o !.*X# D ` % ) D @X,XMXnXv.0 ; o E L k.o 3 q.9 u x.t.D.sX(.W.t.hXhXFXGX",
"lXmXpXyXzXGXSXgXW.~./.k.rXP SXwXc j Q.NXI x.E 1X%XD n ^ V ) D 9XP # z.i d.=X$.+ + 5 ; a E.4.6.d.Q.-.n < p.v.E.S.BXW.8.t.t.BXSXjX",
"tXtXgXjXgXxXxXgXD.H.n.k.rXKX- lXt r 7.s.Q   Q sXI 6.L > 5.L =X` 9X^ 8XK.w  .[.% . > 4.; ,X> m z.e.W 0.q.j.*XW.u /.M.S.a n.hXu.dX",
"A.uXfXGXIXPXxXd yXl g x.^ 0X0XqXiXt 7 V J . / I j.# + J y B =X9X8X` V f.-X{ F n . n 0.> Q.4.o 4., C u t.c.j.4 7.0.8.G.i G.a 4.D.",
"A.A.aXGXIXLXzXt yXz uX9 eXrX/ rX2 t u m S.* / # *X3 3 9 z.Z %X8X' P a.%X3X3X@XM % &X~ 3 p.8 $ ; y 6 5 s *XW.f n.m.p j q w 3.q 3."
};
