/* XPM */
static char *result[] = {
/* columns rows colors chars-per-pixel */
"64 64 256 2 ",
"   c #2B585A",
".  c #2C6657",
"X  c #174A6B",
"o  c #2D5072",
"O  c #117175",
"+  c #2D6C77",
"@  c #14535A",
"#  c #4B6D79",
"$  c #525465",
"%  c #288B75",
"&  c #108C7B",
"*  c #4D8B74",
"=  c #52A573",
"-  c #909C6D",
";  c #E5E275",
":  c #D2B27A",
">  c #2F5290",
",  c #17728F",
"<  c #2F7091",
"1  c #2F54AF",
"2  c #3170B1",
"3  c #17559F",
"4  c #4E538F",
"5  c #4C7393",
"6  c #4A55B3",
"7  c #4468B8",
"8  c #4577B8",
"9  c #4E75AD",
"0  c #6875B0",
"q  c #696398",
"w  c #3173D2",
"e  c #3677EE",
"r  c #2667D7",
"t  c #4B58D7",
"y  c #6958D4",
"u  c #476AC8",
"i  c #4779C9",
"p  c #4865DA",
"a  c #467AD9",
"s  c #5777DB",
"d  c #5671D0",
"f  c #6579DB",
"g  c #6E76CD",
"h  c #556AE8",
"j  c #4778EA",
"k  c #5877E9",
"l  c #496CED",
"z  c #677AE7",
"x  c #6B73F4",
"c  c #495AF1",
"v  c #5A31BD",
"b  c #907AE1",
"n  c #8C73B5",
"m  c #368899",
"M  c #2F8D8E",
"N  c #35A898",
"B  c #1292B2",
"V  c #3588A9",
"C  c #379AA9",
"Z  c #3589B7",
"A  c #3698BA",
"S  c #268FAE",
"D  c #0BB2B7",
"F  c #37A7AA",
"G  c #35B9BA",
"H  c #2FAFB5",
"J  c #13918A",
"K  c #4D8F95",
"L  c #719299",
"P  c #50AE97",
"I  c #6AAF97",
"U  c #5686AA",
"Y  c #5699AD",
"T  c #4688B8",
"R  c #5688B9",
"E  c #4698B9",
"W  c #5798B8",
"Q  c #468EAA",
"!  c #6A92B6",
"~  c #4DAFB4",
"^  c #6FB0B7",
"/  c #08CFB7",
"(  c #37C4B9",
")  c #1FD5AB",
"_  c #53C9B4",
"`  c #71C9A8",
"'  c #1491D3",
"]  c #3798CA",
"[  c #3488DA",
"{  c #3599D8",
"}  c #2B8ECE",
"|  c #15A9CB",
" . c #05B9CA",
".. c #12B9CB",
"X. c #14BBD9",
"o. c #10AFD8",
"O. c #25AACB",
"+. c #34B8CA",
"@. c #24ABDA",
"#. c #36AADD",
"$. c #26B8DA",
"%. c #34B7D9",
"&. c #30B0CB",
"*. c #3888EA",
"=. c #3798EB",
"-. c #3192F5",
";. c #35A9EA",
":. c #35B9EA",
">. c #2CB3F4",
",. c #18A1EA",
"<. c #478AC9",
"1. c #5689CA",
"2. c #4898C8",
"3. c #5697C9",
"4. c #4689D7",
"5. c #5688D9",
"6. c #4899DB",
"7. c #5698DA",
"8. c #6797C9",
"9. c #688ADB",
"0. c #7689DB",
"q. c #6897DA",
"w. c #7799DA",
"e. c #6B8BCB",
"r. c #46A9CA",
"t. c #56A7C8",
"y. c #4ABAC9",
"u. c #57B8C9",
"i. c #45A9D9",
"p. c #58A8DA",
"a. c #46B7D9",
"s. c #58B7DA",
"d. c #67A8CA",
"f. c #76A9CB",
"g. c #66B9CB",
"h. c #66A8D9",
"j. c #78AADB",
"k. c #69B9D9",
"l. c #77B9DA",
"z. c #75B7C9",
"x. c #5789EA",
"c. c #4698E9",
"v. c #5699EA",
"b. c #4689FB",
"n. c #4998FC",
"m. c #5799FB",
"M. c #5189F3",
"N. c #6688E9",
"B. c #7587E8",
"V. c #6799EA",
"C. c #7698EA",
"Z. c #6889FB",
"A. c #6798FB",
"S. c #7698FB",
"D. c #768AF8",
"F. c #47AAE8",
"G. c #56A8EA",
"H. c #46B9EA",
"J. c #57B8EA",
"K. c #46A8FB",
"L. c #58A8FC",
"P. c #45BAFC",
"I. c #57B8FB",
"U. c #66A8E9",
"Y. c #76A9EA",
"T. c #67BAEA",
"R. c #79B8E9",
"E. c #6AA9FA",
"W. c #78AAFC",
"Q. c #67B5FB",
"!. c #75B7FB",
"~. c #14CADA",
"^. c #14D7DC",
"/. c #09CECE",
"(. c #23C8D9",
"). c #34C8DD",
"_. c #29CCC9",
"`. c #08EFD9",
"'. c #15D8EB",
"]. c #13D1F0",
"[. c #25C9EA",
"{. c #26CBFD",
"}. c #25DDFB",
"|. c #33CFF2",
" X c #08EEF4",
".X c #2DE7F3",
"XX c #57C9CA",
"oX c #57C8D8",
"OX c #4DD2D2",
"+X c #68C9DA",
"@X c #78C7DB",
"#X c #69D4D2",
"$X c #57C8EA",
"%X c #49C6FD",
"&X c #4DD1F2",
"*X c #68C8EB",
"=X c #76C9EA",
"-X c #68DAEA",
";X c #75D6E8",
":X c #66C9F9",
">X c #77C9FB",
",X c #68D7F8",
"<X c #75D9F8",
"1X c #4AE9F0",
"2X c #70E8EE",
"3X c #64E8D8",
"4X c #929EA2",
"5X c #E7B09F",
"6X c #A1CCA3",
"7X c #EDF18C",
"8X c #F3CDAC",
"9X c #EDEFAA",
"0X c #E1D490",
"qX c #889ADA",
"wX c #8F8BD2",
"eX c #86A8DB",
"rX c #8CB1D3",
"tX c #8597F6",
"yX c #8F94ED",
"uX c #A89AEE",
"iX c #B49AE2",
"pX c #87A7E9",
"aX c #99A8EB",
"sX c #87B9EB",
"dX c #98B8EC",
"fX c #88A9FC",
"gX c #96AAFB",
"hX c #88B8FC",
"jX c #96B9FC",
"kX c #A8A8EE",
"lX c #AAB9EE",
"zX c #A7B9FD",
"xX c #B2B3F2",
"cX c #ACB4D8",
"vX c #E1A8D5",
"bX c #84C9DB",
"nX c #8ED3D5",
"mX c #AECED1",
"MX c #89C8EB",
"NX c #98CBEB",
"BX c #89DAEB",
"VX c #94D8EE",
"CX c #87C6FC",
"ZX c #98C8FC",
"AX c #95D8FD",
"SX c #A6C7EE",
"DX c #A8D9EE",
"FX c #A9CAFC",
"GX c #AAD7FD",
"HX c #B8D8FF",
"JX c #B8CFF5",
"KX c #90E8F0",
"LX c #B0E7F3",
"PX c #C9D8FF",
"IX c #C5CAF2",
"UX c #DFD8D9",
/* pixels */
"l l l x.Z.W.Z.L.g iXyXkXyXJ 7.uXx.w b aXcXwX! kXxXlXlXJXU.G.v.2 Y !.DXN.a *XeXU.D ;.[ ] @.A.G.i V.U.;.;.F.F.>.@.'.}.,.,.-.-.[ j ",
"j l h z D.A.m.I.uXyX{.] b C.uXB 3 yX1.xX0 tXN.b xXZ < E 9 F 2 N !.>.;.7 i.C.;.sXZ { { =.F.} [ 7.c.5.@.v.n.;.[ >.[.[.}.e -.w b.w ",
"r p h Z.tXx.V.I.b =.v.uXM O.O.X uX' 2 uXD.tXs 8.kXl.d.d.~ M < Y >.;.L.Q.' w ,.t.5 U.V.t n.F.>.=.S ;.$.:.;.@.;.o.}.(.}.' } ' w w ",
"c t t tXW.S.Z.L.Z.aXuX> O S yX8 9.b C.kX1.M w.xXsXl.f.h.2.t.< ~ yX>X>.P.G.| i | Y.R.U w } @.8 A v.#.@.6.F.K.|.' X.$.' r ' w w c ",
"e c c k B.tXE.v.G.aX1.O ! e.Q uXr r o.d wXO X yXb X 2.k.~ y.M N NX*XK #.2 | ' X.O.> o w >.} { Z N.F.h c.} o.| | [.o.e ,.-.} w p ",
"l c t p S.W.Z.w U.] J.O e.Q yX0 3 r ' o.O 5 8.JXlX+ H.H MXl.+X;X=X%.&.D ' $X{ ] D B X.>.} { Z ;.c.:.X.G.O.X.[  .' o.,.r -.#.w c ",
"h t t N.C.W.Z.M.*.t.#.] 2.wX1.V 1 yX' | J @ X uXkXkXlXkXlXDX@XR.>.P o.O.B D D } B @ R 1 2 @.O.S &.F.F.X.v.| | o.| [.#.|.=.;.w k ",
"p t l S.fXfXA.L.b.J.i., ] T k.%.} z 1 S mXcXL yXuX2.lXwXyX@Xj.MXOXi.M D  .6._.S OXB < F.1 7.8 Q G.} [ @./.F.o.X.D [.|.>.P.L.4.k ",
"k t x tXtXS.E.L.-.E 3.Y.p.j.k.t.&.r q.uXyX& O C o d.f.@X> R.c.3.{.@.|.' D D D G B _.X.A 2 =Xp.$.2 ;.[.#.$.$.>.$.&..X1X>.-.[ U.k ",
"d h Z.D.fXM.Z.I.K.=.$.a.T.8.f.T.6.3 f.j.O rXkXwXo T < Q F 3 +X>.;.:.. E B oXD d.H D D D [.&.> H.c.| [.H.$.{.'.~..X|.|.P.:XP.U.9.",
"B.tXtXN.fXS.l n.-.=.:.r 5 h.qXV m K j.h.T & aXIXlXR S OXW G | H J.*X|.Y + ' D 5 H / D @.~.+.5.a F.).|.[.{.^.>.~.).).|.%X:XK.!.C.",
"0.tXz x jXW.Z.L.-.-.>.1 5.rX2.r.> m Q aXxXA S C sXr.Z i.O.r.%. .I.>.{.P.Z , Y X.&.D B D D | X.~.X.[.:.^.[.;.;.[.).).1X%X-.e 4.V.",
"C.fXz f jXW.A.L.n.>.] oXG.7., H.] < + 3.h.h.iXu.dXu.} ;.-. ./.)./.| /. .X. .C D H @. . . .|./.o.(.).].[._.~.@.].[.1X|.n.n.n.L.q.",
"pXfXB.f B.fXW.m.m.XXy.[ 1.3.6.J.a.O M F kXH.H.IXU 2 o.{.=.{.,. .X. .o.).+.$...~.%.:.X.~. .~. .~. .~.~.$.^.:.'.~.|.1X1XP.P.I.!.fX",
"m.A.f z B.C.x.M.I.$Xa.T.W < lXaXSXY M V < 3.] H.G > ,.>.,.>.X.].[./.(._.)./ #./. .$XO.D A /. .X.w ~.~.].'.|.).}.1X1X+.w b.n.E.fX",
"W.x d qXz z k b.L.:.u.E lX4 rXQ 2 < V r.eXF.8 T S w {.>.{.c.|.{.| 5 D _.C SX].$. .@././ /./.F.e '.....'.:.:.'.^..X1X;.[ b.*.!.fX",
"jXfXs f B.x.p b.L.H.%.SXo k.R.E t.m w < A qX7 J.2 3 o.=.o.|.XX;X{.H./.&.DX).H _. ./...;. ./.^.|.].^.'.'.[.(.].(.1X1X-.*.K.Q.W.hX",
"fXS.N.d x k e b.-.%XR.l.9 o c.t.2 > M m V h.6.P.> > , ].H @.+.{.:.H ].{.+X6./././././.X./.D 3 >.].o.'.^.~.}.'.^.>.|.&X;.G.Q.S.fX",
"S.N.N.k x l l n.Q.P.r.k.MX9 k.E < < + J.J.p.v.#XBXt.a.A M M 2 }.m fXGXoX|.].].^.{.$.;.:././ ].].].).o.^.] ^.[.(.1X&X{ I.c.M.S.S.",
"tXh x.Z.Z.hXm.e -.e v.lX4 8.7.V E.+ M F.i.7.G.Q.8 G.< s.O.S S < IXkX|.e.$X(...^.~.~./ /.3 @./.~.@.D ^.~.r *. X$.1X&X' *.[ G.m.x ",
"Z.z j z A.hXS.Q.L.=.DXeX8 + E.U.E.3.< ZX0.C.M.6 I.2 < G.3 <.1 wXSX$XJ.}.<X..]./.| '.@. ./._./.@.' X./.~. X~..X&X1X&X;.-.L.<.N.Z.",
"h h Z.tXjXfXW.E.c.n.Q.@X2 ! W.E.ZXw < , R 3.x.M.6 v.< G.8 } w ! BXMX].,X:X~.~., ..+X5.;./ NXS @.~.@.~.(.`.'.`.).1XJ.;.*.M.w V.N.",
"h z D.fXgXfXC.E.n.F.F d.=Xz.e.wX1 j =.M t.pXE.Q.u 6.T h.7 I.P.} VX~ k.+Xe $XXX+.~.^./.K./...w.{.,  X@.o.F.`.|.| &X:.w w *.4.a s ",
"h p B.yXjXhXV.E.L.6.+.XXY 1Xj.6 t j [ m E E jXV.bXQ u.h.3.F ~ MXPXk.C M.j VX&XB ^./.D $.w w } |.>. XH ~.c.s.).a.a.i.*.r c.w 1 p ",
"h k h D.gXjXY.d p.*.OXt.u.8.L 0 x j c., Y K S.e.pXrXqXbXbXnXLXPX+.#Xg.T G #.} F ^.D (.`.w > 2  X| }.2 i U.s.r.a.a.&.=.r *.w u t ",
"h h s B.fXZXS.a *.;.OXf.f.U w.$ y l M.] DXSX! 6 2 9 W T h.d.+ ~ 2.XX~ A nXc.} S ) ^./ B 2 <.I.}.S 3 4.2.T.t.] O.} ] [ *.[ c.u p ",
"h d z B.gXjXW.!.m.=.;.9 R ^ sX9 t l F.SX~ DXo > 5.+ 3.M + % i.OX-XG _ u.h Y.F.B B D / D ).$XU.1.3 O 2 c.k.J.y.{ #.&XJ.m.A.U.x.u ",
"d p D.jXFXZXS.E.n.=.;.Q q.u.#XW t t y.dXP 5 LXlXf.t.V ~ <.@XBX*XP ( Q $Xt -.J...% D `.|. X_ > =XY.2 a.<.T.p.$X&X] s.:X!.m.c.1.d ",
"z t D.zXFXfXW.E.L.=.@.t.k.3XP XXE F z.DXDX  U NXJXT.N ~ _ u.~ _ +X= P 7.t XXZ F y.H <  XAXR.2 X 7.T.M.<.T.$X$Xi.a.oX*XI.E.8 q.eX",
"g f D.pXjXZ.a !.I.=.=.3.sX~ L g.5 t 7.2 ! + K bXVX_.sXC V ;X~ ~ +X= k.E u.#X+XC +.H ^.#.< U.> > 4.I.H s.T.s.OXF.oXJ.L.Z.Q.x.hXpX",
"B.tXyXtXzXY.S.A.b.K.:.1.sX^ I l.u.r.2.A J M ^ +XaXg.+XXXY.-Xg.s.BXOX_ K 1.k.F.V Q +X;XZ 2 X < 1 p.x.3.c.k.i.F.F.-XJ.*X>XE.E.jXwX",
"g zXyXaXFXjXhXL.n.K.%Xl.@X;XOXdXpXsX3.s j.g.t.eXU U @XMXnXKXv.,X#X#X#XF 5 @Xw +Xr.q.k.<.V 9 3.6.U.e 7.6.h.a.H.&XOX$X:XE.!.m.W.sX",
"qXtXN.pXFXZXhXW.m.=.H.7.VXVXj.C.e.sXMX#XdX>X9 j.VXbXR h.LXCX+X~ #X#X2Xz.@XbX-XBXAXNXVXr.&.q.{ *.w Q.7.5.@Xs.$X$X$X;X,XA.A.Z.4.C.",
"dXxXC.yXgXZXhXE.Q.K.P.NXCXt.@X;Xk.3.+XKX;XsXW l.l.! 2.G.VXaXF $XN ~ OXt.+X#XMXj.T.h.2.T.=XJ.v.-.j 3 v.1.T.oX$X$X,X2X,XS.D.m.v.dX",
"Y.fX9.yX0.pXN.E.Q.I.%X#Xq.8X; @X+X< K 8XMX>XY.wXQ.7 7.U.LXpXk.u.,Xy.oXVXLXr.oXoX+XT.oXE k.G.=.4.p w 7 u *X#X6.*X$X+XU.M.A.W.V.hX",
"hXN.0.0.qX9.Z.m.L.P.&X9X9X8.R.NXUX; vXmXl.rXsXsXY.9 U.NXbX7.s.2 ~ l.*X#X=Xq.y.oX*XJ.$Xs.*Xq.h.E.L.G.6.d R s.F.$X2X,Xt.a Z.M.E.FX",
"jXD.0.qXC.C.k m.I.%X%XUXvX! UX8XmX9X7XBXB.V.C.MX=Xz.hX@Xp.t.R R w.LX-X-X#XpXsXVXI.6.V.q.R.x.M.i v.<.> i 1.Z c.$X,X,XL.4.Z.x.gXfX",
"SXfX0.0.C.V.j E.E.%X:XiX8XUX7Xk.mX7X! BXT.R.e.qXsX1 2.Q ~ _ 5 d.SXNXg.~ sXq.C t.u.v.G.N.h.[ c.2.G.4.V e.R 2.F.J.:X*Xc.M.S.W.jXZX",
"pXhXqXf S.Z.b.!.n.-.=.0X8XUX8X4X8X8X0X9X>XW.R.KX+Xg.;XG + < 3.VXl.@XDXsXQ C d.E T.U.N.U.=X< 2.p.;.] i.8 <.] p.F.*X*X*XU.W.jXgXhX",
"gXY.pXN.tXZXW.!.!.-.P.5X8XcX5XbXUX#XUXsX9XmXC.BXu.g.=X~ Q r.E +X+X-XDXh.V M +XT.=XJ.T.1 T.4.A x.G.2 2 8 <.w F.p.<X<X<.W.V.E.fXfX",
"yXB.S.S.fXZXCXCX>Xv.%X9 nX^ : 9XCX8XUXmX@XsXw.MX3.Y +X3XG A C BXXXXX~ -XY #X*Xh.G.I.J.2 w 9 s.G.G.2 X i 4.+X=X*X2X<X[ s 5.C.C.Y.",
"C.B.D.tXA.zXZXW.V.K.%X0Xg.vX` ; mX9XM t.R hXR.KXR.U d.#X3X;X~ KXBXoXXX,XXX+Xl.t.G.M.7 I.} > i.c.J.L.a 1.[ +X;Xh.,X>XT.M.A.v.s C.",
"z B.S.gXFXjXdXCXE.F.I.; vX6XXXz.C.mXQ C bX@XR.Y.w.sXVXVXBX2X#Xy.F XX_.XX).~ F 2.:XL.:X1 r.u.s.i L.4.7.5.h.+X;X3.=XU.V.k Z.x.e.9.",
"f B.C.JXHXFXZXR.Q.G.I.z.5X; 5X: vX0XbXg.l.R.CXV.h.! k.T.OX+XoX~ 2XXX2.s.P.~ 1XOX:X:X=X7.J.J.6.<.{ i.7.1.g.k.l.3.=Xh.T.p x.x.5.5.",
"z z gXSXHXGXdX5.p.4.F.0X6X5XvXW 7X; +Xu.~ =Xj.g R.K +Xy.OXXX_ 3X_ OX~ 7.-XOXOXoXG I.4.$XA 2.G.5.C T m 1.^ +Xd.=Xk.q.V.w a 1.i i ",
"s x z dXFXFXtXV.v.c.K.0X8X5X^ Q 0X^ U.XXh.~ =XKXk.N u.~ OX)._.OX) g.9 G :.XXXXOXG 1.G G.2.< T.T.1.<.r.9.@X;X8.t.T.q.4.j j [ w u ",
"f z B.pXFXGXCXfXL.K.=.4X9X9X7XU : 8Xs.sXMX^ 4 OX$Xy._ ( _ ( ( OX` @X9 h i.W t.G H J ] *X*Xi.V Z t.#.S 8 g.@Xl.7.3.6.j p 4.5.1.d ",
"f z aXqXHXGXfXCXQ.K.F.6X8X7X: wXv Z.T.MXU j.W -XOXF M ~ N H N 3XI * Y.p i.+X_.+ + 9 > N.U.1.3.i.J.%.V 2 3.l.l.G.t.CXY.N.A.!.h.1.",
"f d kXJXPXGXjXCXL.F.;.f.rXmX- dXy c i u.Y   ! sXU W P m 3.P #X_ #XP -XF.e } _.% . < i > =X< m h.q.Q 1.e.d.bXR.U.3.R.pXsXS.CX1.e.",
"f f tXzXHXhXW.CX!.I.i.l.u.L 4XqXuXy 8 E K . ^ ! d.# . U p m -XOX2X_ F J.OX] H m . K d.> T.1.o 3.1 Z w 9.g.k.=X=Xk.l.sXfXW.hXU.e.",
"B.z gXIXlXfXW.W.L.I.J.0 pXrXz.rX4 y <.< C.* ^ # @X5 5 0 p.<.OX2X` P ~ OX:X:XOXN % oXt.< t.0 o 4 u u 9 d l.h.R.7.l.MXCXfXpX!.Y.lX",
"wXyXzXxXHXGXAX!.Q.I.J.qXlXrX- 6X$ 4 6 V rXP K Y ^ # ^ e.7.&X3X#X= _ K @X<.a.( _ % K Q 5 5 8 5 6 1 2 7.W k.t.R.E.NXY.jXfXjXAXGXSX",
"uXJXuXPXPXjXZX!.Q.F.&XY NXcXDX6X$ q 0 < ~ f.* U f.# bXg J.1X1X2X#X_ OX~ 7 V V G _ K < 9   9 ! 6 a d q.8.h.l.R.h.bXsXgXZXZXE.ZXHX",
"IXkXC.PXPXJXGXCXCX:X,X8.eXL ! FXq X I @XNXrXU Q g.U =X>Xw *X,X_ XX2Xl.$X% _ _ -X,X+ +X9 o 8 N.s ~ q.d 1.f.nXR.R.sXMXZXhXZ.A.v.h.",
"JXkXC.kXHXHXsXCX!.,X,Xe.b PX0 FXJXDXI ` BXDXf.-XbXh.>XL.#.Z =XT.KXG.p.-XN N _ +X;Xk.~ 8.o 4.V.p.r.1 e.e.8.MXj.R.CXVXjXtXgXW.E.ZX",
"zXPXqXqXeXeXY.W.Q.<X&XwXq q rXJXI + Y K MXLXKX` d.7.>XJ.J.3.Y.=XT.KX=X~ N N ~ ;X<X=X~ d.< 5.7.x.<.7 > 4 ! d.Y.sXMXBXFXgXgXW.Y.JX",
"FXpXqXeXqXqXD.W.>X,X,XpXn q mXI K rX! f.DXCX4XKXf.<.>X<.Y.0 &X2XOX<XOXN _ ` _ ;XMX! V.Y o w 5.2 6 4 4 > R e.V.MXVXVXeXC.Z.W.U.FX",
"FXq.kXwXdXpXx.>XQ.I.%Xh.rX^ cXf.rX^ ` nXeXeXn rX<.2 >X* 3XP Q OXoXoX_ _ ~ ) _ ;Xd.5 l.8 j.2 1.. ! 5 4 0 8.8.q.R.AXZXe.9.N.gX!.HX",
"PXaX9.aXY.5.A.E.E.L.I.<.q W nXC.K o K U L w.NX^ < 5 ;X_ * P ^ 2X2XH _ % H C K Y 8.R.! 9 > R Y U 5 5   $ 1.i Y.sXY.CXC.C.hXfXZXGX",
"DXFXaXyXS.jXE.AXCXG.:X< d.0 Y.L 5 l.rXNXGXFXMX4 8 1._ I o R.@X# H ~ % G F OX*XKXMXl.q > o R P f.$ 5 e.0 d h.U.V.sXR.Y.V.hXhXHXIX",
"lXNXpXtXzXHXFXgXS.E.Q.z.rXY SXn v x T.NXU j.W -XOXF m ~ C G N #XI * h.p p.#X_.+ + 9 > 5.U.1.3.i.$X%.m 2 t.l.Y.C.!.R.1.q.q.CXZXjX",
"yXC.hXzXkXxXxXgXC.S.x.f.rXmX- SXy h 4.u.Y   ! =XR W P m 3.P 3X_ #X~ 2X6.e } +.% . < <.> =X< M h.N.Q 1.e.d.@XU.8 !.V.x.k x.fX8.dX",
"B.yXfXxXPXPXxXf fXz k j.~ 4X4XqXuXt 8 F K . ^ 0 ^ 5 + K u V #X3X2X_ C s.&X} G M . m t.4 Q.1.o 1.1 Z w w.g.h.6 4.7.x.E.p A.s 1.C.",
"B.B.kXJXPXPXgXy yXx b 0 eXrXz.rX$ y a < C.* ^ # l.5 # 0 p.2.OX2X` P y.OX:X:XOXN % #Xt.< t.9 $ > u 8 9 i @Xj.z 5.c.a k r e i <.1."
};
