/* XPM */
static char *result[] = {
/* columns rows colors chars-per-pixel */
"173 100 64 1 ",
"  c #050505",
". c #030A04",
"X c #040308",
"o c #09030B",
"O c #0A0A0A",
"+ c #120E0D",
"@ c #0C140B",
"# c #0A1809",
"$ c #11120F",
"% c #111F08",
"& c #140212",
"* c #120E13",
"= c #17001C",
"- c #19031A",
"; c #1A0D1B",
": c #0B1315",
"> c #0F1813",
", c #0E1118",
"< c #141414",
"1 c #141A14",
"2 c #191A16",
"3 c #161418",
"4 c #1C141B",
"5 c #1A1A1A",
"6 c #20121F",
"7 c #192211",
"8 c #1B0023",
"9 c #1D0B21",
"0 c #260C29",
"q c #251329",
"w c #290035",
"e c #232323",
"r c #2B2B2B",
"t c #333333",
"y c #3C3C3C",
"u c #490054",
"i c #4A0C55",
"p c #471C52",
"a c #53105D",
"s c #434343",
"d c #4C4C4C",
"f c #545454",
"g c #5C5C5C",
"h c #646464",
"j c #6C6C6C",
"k c #737373",
"l c #7A7A7A",
"z c #9F2EB1",
"x c #A52AB9",
"c c #9C50AA",
"v c #9B6BA9",
"b c #AF67B9",
"n c #BC74C8",
"m c #CF75D9",
"M c #CA7ED9",
"N c #838383",
"B c gray55",
"V c #949494",
"C c #9B9B9B",
"Z c #A4A4A4",
"A c #ADADAD",
"S c #B3B3B3",
"D c #BE8CC7",
"F c None",
/* pixels */
"FFFFFFFFFFFFFFFFFFFFFFFFFFFFFFFFFFFFFFFFFFFFFFFFFFFFFFFFFFFFFFFFFVjjhj3 <OFFFFFFFFFFFFFFFFFFFFFFFFFFFFFFFFFFFFFFFFFFFFFFFFFFFFFFFFFFFFFFFFFFFFFFFtytrrsyseer53see6e2O<<<2+OO ",
"FFFFFFFFFFFFFFFFFFFFFFFFFFFFFFFFFFFFFFFFFFFFFFFFFFFFFFFFFFFFZkkjhdt2 OO OFFFFFFFFFFFFFFFFFFFFFFFFFFFFFFFFFFFFFFFFFFFFFFFFFFFFFFFFFFFFFFFFFFFNdkFFsreee3yyeer3O22*:<12$<OOX   ",
"FFFFFFFFFFFFFFFFFFFFFFFFFFFFFFFFFFFFFFFFFFFFFFFFFFFFFFFFNhlhgy2XOOOOOOO eFFFFFFFFFFFFFFFFFFFFFFFFFFFFFFFFFFFFFFFFFFFFFFFFFFFFFFFFFFFFFFFFFytre55eseete<yr552O:O<<<<O    X  O ",
"FFFFFFFFFFFFFFFFFFFFFFFFFFFFFFFFFFFFFFFFFFFFFFFFFFFVllhhd5O OOO +OOOOOOOSFFFFFFFFFFFFFFFFFFFFFFFFFFFFFFFFFFFFFFFFFFFFFFFFFFFFFFFFFFFFFjFFFyeerr+ts25e52O++<O31<O    O     O O",
"FFFFFFFFFFFFFFFFFFFFFFFFFFFFFljghFFFFFFFFFFFAlljjhghhOOOOO+OOOOOOOOO:OOdFFFFFFFFFFFFFFFFFFFFFFFFFFFFFFFFFFFFFFFFFFFFFFFFFFFFFFFFFFFsyrer2rye5re@O3**32<:<OO         OO  O O  ",
"FFFFFFFFFFFFFFFFFFFFFFFFFlghhlkjhjFFFFFFNlhllhlhdeO  OOOOOOOOOOOOOOO+OO$FFFFFFFFFFFFFFFFFFFFFFFFFFFFFFFFFFFFFFFFFFFFFFFFFFFFFFFFFFlt5rre3ttee53<<@<2<OO  OO  O   OO  O OOO O ",
"FFFFFFFFFFFFFFFFFFFFFFFFFjghhkljkhkAljljjkjfeO OOO< <OOOO<OOOOOOOOOOOOO,FFFFFFFFFFFFFFFFFFFFFFFFFFFFFFFFFFFFFFFFFFFFFFFFFFFFFlsssOyyeer5OO2+<O<<+*O        OO    OOOO O O O  ",
"FFFFFFFFFFFFFFFFFFFFFFFFFhffggkljjkhkjgy3OOOOOOOOOOOOOOOOOOOOOOOO+OOOOOOFFFFFFFFFFFFFFFFFFFFFFFFFFFFFFFFFFFFFFFFFFFFFFFFFFFFyyeee<sseee2<<<<3:+O     O    O  OO  O O     OO O",
"FFFFFFFFFFFFFFFFFFFFFFFFhdjgfhljlllhhh25O  OOOOOOOOOOOOOOOOOOOOOOOOOOOO2fFFFFFFFFFFFFFFFFFFFFFFFFFFFFFFFFFFFFFFFFFFFFFFFBFteyeere<O3:<<<2$OO  O  O    OO   OOO  XO  O      el",
"FFFFFFFFFFFFFFFFFFFFFFFFfhhjfggjhlhjlglhghjt  OOOOO<O O<OOOOO $OOOOOOOOOOFFFFFFFFFFFFFFFFFFFFFFFFFFFFFFFFFFFFFFFFFFFFFyssy<rseee5<2+<<$O X         OOO     O OO  OO   O 1NFFF",
"FFFFFFFFFFFFFFFFFFFFFFFfgjjhhgghhkllkkgljjllhhhks3r2  O+OOO O #.OOOOOOO OFFFFFFFFFFFFFFFFFFFFFFFFFFFFFFFFFFFFFFFFFFFdyr2re2rs65<$2<<OO XXO O O OOO OO O   O OOOO    2flFFFFFF",
"FFFFFFFFFFFFFFFFFFFFFFhhhfkhhjgghkkljjkgrjdhhkkjkllglh5d2e O@O #OOOOOOO OOFFFFFFFFFFFFFFFFFFFFFFFFFFFFFFFFFFFFFFFFFgtrrrreO<<:*2<3O          OOO     O    O  O O eCFFFFFFFFFF",
"FFFFFFFFFFFFFFFFFFFFFghjfdhjjhhlfhlhkljhhO OO OO rOtsghhhjllhhvhljhdgtsr2O<FFFFFFFFFFFFFFFFFFFFFFFFFFFFFFFFFFFFhsft3yye5e22O$@<      O   O  O O O    OO OO eNFFFFFFFFFFFFFFFF",
"FFFFFFFFFFFFFFFFFFFFNghhe dgjhjhffgkjljjlh OOOOOOOOO OO X< tOdejgshjlhkjhhghFFFFFFFFFFFFFFFFFFFFFFFFFFFFFFFFFVds555<ty52<23<<O    O   OOOO     OO   O OrBFFFFFFFFFFFFFFFFFFFF",
"FFFFFFFFFFFFFFFFFFFFhgjg   sfjjhkgfhhklkklh OOOOOO:+OOOOOOOOOO@OO+OOO OO OFFFFFFFFFFFFFFFFFFFFFFFFFFFFFFFFFFFyrerr5<*<<3<<<O    O  O   OO     OOO  eBFFFFFFFFFFFFFFFFFFFFFFFF",
"FFFFFFFFFFFFFFFFFFFjhhhO    ffjhhjhfhkkljkhgOOOOOOOOOOOOOOOOOOOOOOOOOOO FFFFFFFFFFFFFFFFFFFFFFFFFFFFFFFFFFNr2rerer52@<<3O        OOO  O O O  OO2fFFFFFFFFFFFFFFFFFFFFFFFFFFFF",
"FFFFFFFFFFFFFFFFFFhhffO      egghhjjfhljllkhhOOO+OOOOOOO+OOOOOOOO+OOO5lFFFFFFFFFFFFFFFFFFFFFFrVFFFFFFFFkdyer$sr6e:<<<<O    O     O  O OO OOlFFFFFFFFFFFFFFFFFFFFFFFFFFFFFFFFF",
"FFFFFFFFFFFFFFFFFChgg5        tfkhjjffhhljkhhhO OO+OOOOOOOOOOOOOOO XrFFFFFFFFFFFFFFFFFFFFFFt<<<3hsFFFFryr5r5<:7<33<<O    O OO   OO O OO tFFFFFFFFFFFFFFFFFFFFFFFFFFFFFFFFFFFF",
"FFFFFFFFFFFFFFFFFdhfg          ggjjhghfhhklkhgh OOOOO<OOOOOOO<<OOO<2FFFFFFFFFFFFFFFFFFFFFF1O53rdyyAFFsyreer5<<*<2<$    O O O  O OO O OsFFFFFFFFFFFFFFFFFFFFFFFFFFFFFFFFFFFFFF",
"FFFFFFFFFFFFFFFFhhgg            hfkhhkhgjjllkhhh   OOOOOO:OOOOOO,OsFFFFFFFFFFFFFFFFFFFFFr5223yster<d53yteer22+<<*  OO   O O   OOOO OFFFFFFFFFFFFFFFFFFFFFFFFFFFFFFFFFFFFFFFFF",
"FFFFFFFFFFFFFFFCdhfr             dfhhhhhgjlkllkgh OOOOOOOOOOOOOO<OFFFFFFFFFF35<5VFFFFl++3Oryst5rer52<<yte5325<O   O O   O OOOO$ 2AFFFFFFFFFFFFFFFFFFFFFFFFFFFFFFFFFFFFFFFFFFF",
"FFFFFFFFFFFFFFFhhhs               fdljhlfghhkkkjlgOOOOOO+OOOOOOOOVFFFFFFFFFC533<<O5g2<53Okhreerrr55<23+<+3,<$  O  OOO  O O   OlFFFFFFFFFFFFFFFFFFFFFFFFFFFFFFFFFFFFFFFFFFFFFF",
"FFFFFFFFFFFFFFfdjg                 gfjjhhhghjllkkhgOOO<OOOOOO<OOeFFFFFFFFFF+12322+,<>532<gyerrrre552<232<<<  O    OOO   O  OOqBFFFFFFFFFFFFFFFFFFFFFFFFFFFFFFFFFFFFFFFFFFFFFF",
"FFFFFFFFFFFFFhhhhO                  gflhjjggghjljjhh OOOOOO<OOOOhFFFFFFFFFF32522<:3522333d5rrer5e5<<23<3<<<@O O  OO  O     X7<22FFFFFFFFFFFFFFFFFFFFFFFFFFFFFFFFFFFFFFFFFFFFF",
"FFFFFFFFFFFFhhfh               O rNFFgdhhhhhfjhjlkkhh  OOOOOOOOrFFFFFFFFFF5q323<<<yst233:f5rree3331331322323:< OO  OO O OO  22<X NFFFFFFFFFFFFFFFFFFFFFFFFFFFFFFFFFFFFFFFFFFF",
"FFFFFFFFFFFFhhfd              5fFFFFFFhhjkjkgfhgjljjlg OOOOOO<OFFFFFFFFFFF51<23<tssqe5323sere2<22232233232<<O           O O:23  O FFFFFFFFFFFFFFFFFFFFFFFFFFFFFFFFFFFFFFFFFFF",
"FFFFFFFFFFFshhh            2dFFFFFFFFFFhhkhjhhfjhklkkjg OOOOOO3FFFFFFFFFFe<@2<tsse7te532$see<32233213232<O<  OO        OO O22< OOO FFFFFFFFFFFFFFFFFFFFFFFFFFFFFFFFFFFFFFFFFF",
"FFFFFFFFFFhhhh<        O<rFFFFFFFFFFFFFFfhkhjkgfgkkljjhfOOOOO<2FFFFFFFFS322<edsr5erte1322<$<3233233333<<<O        OO OO OO  3       FFFFFFFFFFFFFFFFFFFFFFFFFFFFFFFFFFFFFFFFF",
"FFFFFFFFFhjhgO       yFFFFFFFFFFFFFFFFFFFghkjhhhfjljlkkghO OOO FFFFFFt<O<2:hj5rerreee331<352325333223<O. O OO   OO O OOOO        O :ONFFFOsFFFFFFFFFFFFFFFFFFFFFFFFFFFFFFFFFF",
"FFFFFFFFhghhe      OFFFFFFFFFFFFFFFFFFFFFFggkhhjgfhhkkjjkdOO:++jFFFj<32333+dsrrrrr5ee@33223123<<123<O  OO O O OOO  OO OO O      O    OFF3O+25FFFFFFFFFFFFFFFFFFFFFFFFFFFFFFFF",
"FFFFFFFFgghg    O5FFFFFFFFFFFFFFFFFFFFFFFFFfjkjhhhfhhklkkjf O+$rFl*<:52<32<drrreee53+123<2<333123<OO  OOOOOO OO  OOOOOO  O       OOO OO2O<<:O35FFFFFFFFFFFFFFFFFFFFFFFFFFFFFF",
"FFFFFFFhfkhO    FFFFFFFFFFFFFFFFFFFFFFFFFFFFffkhjkhfhjklhhgf <OrO2222se5<1<dttrre2<2333232333<<@:     OOO O  O OO  O OOOOO        XO<+<23<2<2<<2sFFFFFFFFFFFFFFFFFFFFFFFFFFFF",
"FFFFFFffhgO  hFFFFFFFFFFFFFFFFFFFFFFFFFFFFFFFfghkhhhfjhfdytyO$O<:5tsde5323<str5<33<2<552<223<2   OOO 2<OOXO  OOO O OO O  <CF5<  o3<<<<<<332<313$<<OFFFFFFFFFFFFFFFFFFFFFFFFFF",
"FFFFFFgfgr  FFFFFFFFFFFFFFFFFFFFFFFFFFFFFFFFFFldhhjkfstysdyy:1<3ysseere335<et32222353<<<332<O  OO O O523<+OOO OOO  OO  rFFFFFF <<<3<212<2<3333<:O 52eFFFFFFFFFFFFFFFFFFFFFFFF",
"FFFFFFSfe  fFFFFFFFFFFFFFFFFFFFFFFFFFFFFFFFFFFFBgkhhfyysfy5255syyreeere3233<33132<3<<51<:2O  O O OOO255532@OOOOOOO   yFFFFFFy2<O<<<2<<<2<<3<2+O   2tstdFFFFFFFFFFFFFFFFFFFFFF",
"FFFFFFFg OyFFFFFFFFFFFFFFFFFFFFFFFFFFFFFFFFFFFFFBhlhfydr3352@hhq6eerre7333221<3333<<2<<<O  OOOOOO  O5255352<:OOOOOOOVFlhhSO<+322<2<233<132<@O  OOOysg<OFFFFFFFFFFFFFFFFFFFFFF",
"FFFFFFFFFFFFFFFFFFFFFFFFFFFFFFFFFFFFFFFFFFFFFFFFFNghhO+223222srrrrrree23<<121312231<<*      OOO  O 5555555332+  OOOO<OkgOOOOOOOOOOOOOOOOOOOO OO2sfdO   OfFFFFFFFFFFFFFFFFFFFF",
"FFFFFFFFFFFFFFFFFFFFFFFFFFFFFFFFFFFFFFFFFFFFFFFFFFhy:3313235<drrrrr7e13213333323<3:2<    OOO O OOOO255252353<    OOOOtkg2XOOOOOOOOOOOOOOOOOOO rjjhr  X  OFFFFFFFFFFFFFFFFFFFF",
"FFFFFFFFFFFFFFFFFFFFFFFFFFFFFFFFFFFFFFFFFFFFFFFFFFO3223<23213fetrre53<23331223232<O   O O O   OOO <35555222<<XOOOOOO3jjgOOOOOOOOOO:OOOOOOO O<gjggf    O   FFFFFFFFFFFFFFFFFFF",
"FFFFFFFFFFFFFFFFFFFFFFFFFFFFFFFFFFFFFFFFFFFFFFFFFy@*<223323:<srre5322332<+rr2<O3+O O   OO OOO OO  53555532<<O OOOOO ehkyOOOOOOOOOOOOOOOOOOXfhkgsfe    OO OOFFFFFFFFFFFFFFFFFF",
"FFFFFFFFFFFFFFFFFFFFFFFFFFFFFFFFFFFFFFFFFFFFFFFFFyO<+:23<2<51rrq<33<12<<3hfjjkjhdqO.     O OO O OOOOOOOOOOOOO:OOOOO+thktOOOOOOOOOOOOOOOO tjhggf2 O      OO OFFFFFFFFFFFFFFFFF",
"FFFFFFFFFFFFFFFFFFFFFFFFFFFFFFFFFFFFFFFFFFFFFFFFFsO2<*O<<<32221131322<Oyhkjllhjkjhhjhs7< O OO<OOOOOOOOOOOOOO+OOOOOOXyjgr , OOOOOOO+OOOOOhkggsfO  OO     O  O FFFFFFFFFFFFFFFF",
"FFFFFFFFFFFFFFFFFFFFFFFFFFFFFFFFFFFFFFFFFFFFFFFFFsO<<<O+++<23233233133<ggggghgkkjkkjhjjghgy3O OO OOOOOO O OOOOOOOOO+ghh5OOOOOO OOOOOOOyhhhddr O          OO OOFFFFFFFFFFFFFFF",
"FFFFFFFFFFFFFFFFFFFFFFFFFFFFFFFFFFFFFFFFFFFFFFFFFy<<<<<<:,O:23<2323<223ggjgggghhjjjjjkkjjjlkkkst3 OO OOOOOOOOOOOOO 2jjfOOOOOO OOOOO+Xdjhhsy   OOOO        OO   FFFFFFFFFFFFFF",
"FFFFFFFFFFFFFFFFFFFFFFFFFFFFFFFFFFFFFFFFFFFFFFFFFy<<$<<<<<<<+:<<33223<Ohhlkjlkggggggghhggkjkkkjjjhhhgy:  +$ OO OOOOejhheOOOOOOOOO dgjhgdd         OO       O    kFFFFFFFFFFFF",
"FFFFFFFFFFFFFFFFFFFFFFFFFFFFFFFFFFFFFFFFFFFFFFFFFy<<<<<<<<<+2O+<3<+<:  ghhjklljjhhhjjgggggghjljkljjkjjkjjhy3O  OOOOehlh2OOOO OOO2gglghft     OO  O   OO    OOO  FFFFFFFFFFFFF",
"FFFFFFFFFFFFFFFFFFFFFFFFFFFFFFFFFFFFFFFFFFFFFFFFFsO<<*:<O<2<<*<O@+OOO  hljjljjjjlkllljljjhhgggggghjjjlkkjhjgjkdrOX thjhs OO O  tjlggffO       O OO O OFd     * FFFFFFFFFFFFFF",
"FFFFFFFFFFFFFFFFFFFFFFFFFFFFFFFFFFFFFFFFFFFFFFFFFyO$<<3+2<<*<<<@<: O   jljljljlkjkkjjhllkljkfhhggghhhhhkkjlhkjhkkhfggjgf <OOO gjlhgdd O     O  O   O OBFFd    tFFFFFFFFFFFFFF",
"FFFFFFFFFFFFFFFFFFFFFFFFFFFFFFFFFFFFFFFFFFFFFFFFFsO2<2*2<1<<<<<3+O OO  jggfjkjkljkljkkkhkjkkklljjlgghgfgghhhhhjkkkkjjhhghdOOfhjhghdy OO O  OO    OO O yFFFFZOeFFFFFFFFFFFFFFF",
"FFFFFFFFFFFFFFFFFFFFFFFFFFFFFFFFFFFFFFFFFFFFFFFFFyO<<Oysr<2<<<<<<O OO   :dhhhgggghjkjlljkkjjkhhjlljkllhgghgggghhjjhkkjkhteejjlfhfgd<     O    O O     rFFFFFFFFFFFFFFFFFFFFFF",
"FFFFFFFFFFFFFFFFFFFFFFFFFFFFFFFFFFFFFFFFFFFFFFFFFy+:<ddrq@2<O<<<2O OOOO  OO Ordghgghlkkjlljkkkjlhjjjklkllhgllhhgggghhgderehkhggfdf O   OO O  O O   O OOFFFFFFFFFFFFFFFFFFFFFF",
"FFFFFFFFFFFFFFFFFFFFFFFFFFFFFFFFFFFFFFFFFFFFFFFFFs5sjf5te2<:2<*<<<   O  O O OOOO <thgghhhhlkkllkljljkhlhhlkllhhhfgggggerrrlfhggde    OO   O  O   O O  OFFFFFFFFFFFFFFFFFFFFFF",
"FFFFFFFFFFFFFFFFFFFFFFFFFFFFFFFFFFFFFFFFFFFFFFFFFs1eftee535<<<<<<+   O OO  OOO$<<O<O<<OOedghhhggghjljlkkjkkjhkjjkllhhhrttddfgdr O   O   O O  O OO   O   FFFFFFFFFFFFFFFFFFFFF",
"FFFFFFFFFFFFFFFFFFFFFFFFFFFFFFFFFFFFFFFFFFFFFFFFZ37qsee5<553O<<<3+ OO OOO<2<<<<+<OOO        2FlhhghfhghljllhljjkkjjkhhryfsfhssO        OO      O   O    FFFFFFFFFFFFFFFFFFFFF",
"FFFFFFFFFFFFFFFFFFFFFFFFFFFFFFFFFFFFFFFFFFFFFFFdsr22se53322 X<<2>+X.O O<<OO$OO            OFFFFFFFZhjgfggghhkljlkkkkjgthgdfffg    O         O     O  OO  FFFFFFFFFFFFFFFFFFFF",
"FFFFFFFFFFFFFFFFFFFFFFFFFFFFFFFFFFFFFFFFFFFFFjssee*5@3322O   22O<+XXO O3<< X     OOOO  O   dFFFFFFFFFFFAkhgggfghjkkklgthhfgdgffe O   O                 OyFFFFFFFFFFFFFFFFFFFF",
"FFFFFFFFFFFFFFFFFFFFFFFFFFFFFFFFFFFFFFFFFFFFgld2rr33<2<<O O  <<<<:  OO+5<   O OOOOOO  O     <FFFFFFFFFFFFFFFVghhgjjhhh5jghdgfgggd       O        O  OO   FFFFFFFFFFFFFFFFFFFF",
"FFFFFFFFFFFFFFFFFFFFFFFFFFFFFFFFFFFFFFFFFFF<ydrre5322<<  O O <*<<< O  <22  OO  O O O O   OO   FFFSFFFFFFFFFFFFFFFNhfhh2hggfddffgft  OOO   O O     O    O yFFFFFFFFFFFFFFFFFFF",
"FFFFFFFFFFFFFFFFFFFFFFFFFFFFFFFFFFFFFFFFFdt3tdere332<<    OO <*2<+ O  133 OOO  OO  OO OX OOO   s<<<AFFFFFFFFFFFFFFFFFSFjlhfdhsfhghfOO OO O O O O  O O  O  FFFFFFFFFFFFFFFFFFF",
"FFFFFFFFFFFFFFFFFFFFFFFFFFFFFFFFFFFFFFFFydr3rd553155O  O O   <<<<OXOOO33< O OO  O     O     O    <2<<AFFFFFFFFFFFFFFFFFFhkhggfyfffggyOO    O  O O  O  O OOtFFFFFFFFFFFFFFFFFF",
"FFFFFFFFFFFFFFFFFFFFFFFFFFFFFFFFFFFFFFkh7rr123<2<<OOO  OOO   3<:<O OOO2<2 O   X   O  OSVO O OO O  O< 2 FFFFFFFFFFFFFFFFFBjjhffs sggfhdf       O    O  O OOOFFFFFFFFFFFFFFFFFF",
"FFFFFFFFFFFFFFFFFFFFFFFFFFFFFFFFFFFFC<dsree52<:33  O O   OOO <<<<< OO O<<OO  lOO<O<O OAFF     O  O OOO FFFFFFFFFFFFFFFFFFhkhfff Otffggfe  O O  OOO  O O O OlFFFFFFFFFFFFFFFFF",
"FFFFFFFFFFFFFFFFFFFFFFFFFFFFFFFFFFFg5<serq5<323+. O  O   OO @<*+2O  OO  O OlFFOO2O<O OFFFFr     OO OO  FFFFFFFFFFFFFFFFFFVlhgdfyO tddgfhfOOOO    OO     O   FFFFFFFFFFFFFFFFF",
"FFFFFFFFFFFFFFFFFFFFFFFFFFFFFFFFFhsy2+str31513     OOO   Xe<<<<2<< O OO  NFFFF<O*O2O OFFFFFC    O  O   FFFFFFFFFFFFFFFFFFFhkjgfdOOO<ssgghgsO  OO    OO O   OOFFFFFFFFFFFFFFFF",
"FFFFFFFFFFFFFFFFFFFFFFFFFFFFFFFZls5r52*<232<     O OOO  OFFFF+2O*OO   2FFFFFFFF22 2  XFFFFFFFV     O  XFFFFFFFFFFFFFFFFFFFShjhsgd O   ydgfhdr  OX O OO  O    <FFFFFFFFFFFFFFF",
"FFFFFFFFFFFFFFFFFFBFFFFFFFFFFFstfrre5$+<2<O OO    O   OgFFFFFFC<O<O <FFFFFFFFFFFFO<XO<FFFFFFFFF    < O FFFFFFFFFFFFFFFFFFFFhlkddf2   O Odfggff2X       O  O   ZFFFFFFFFFFFFFF",
"FFFFFFFFFFFFFFFFgyyrFFFFFFFCys5tyrr553<:<  O O      OOFFFFFFFFFFV< BFFFFFFFFFFFFFFVejFFFFFFFFFFO  O<   FFFFFFFFFFFFFFFFFFFFFhhhdgd       sfhgfde    OO O O O  OFFFFFFFFFFFFFF",
"FFFFFFFFFFFFFFZhde55sFFFFBdsee2rye53222<    O      O<FFFFFFFFFFFFFFFFFFFFFFFFFFFFFFFFFFFFFFFFFF<O<O2   FFFFFFFFFFFFFFFFFFFFFhlhgsf     O Oddfghdy2O      O     ZFFFFFFFFFFFFF",
"FFFFFFFFFFFFFFgdreer232dfhterr12<,1<2      O O    OFFFFFFFFFFFFFFFFFFFFFFFFFFFFFFFFFFFFFFFFFFFF<O<O+   FFFFFFFFFFFFFFFFFFFFFFhjgsfyOO      Xeydggfd2  O   OOO   FFFFFFFFFFFFF",
"FFFFFFFFFFFFVOdyte53edsy5s2rqe1<+3<*X  O   OO   OjFFFFFFFFFFFFFFFFFFFFFFFFFFFFFFFFFFFFFFFFFFFFF<O<O<   FFFFFFFFFFFFFFFFFFFFFFlhjgdf O    OO   2dfhffs   O      OgFFFFFFFFFFFF",
"FFFFFFFFFFFe*<ssr122jg5rr2<52<:2$OO OO   OO O   lFFFFFFFFFFFFFFFFFFFFFFFFFFFFFFFFFFFFFFFFFFFFFF2O<O<   FFFFFFFFFFFFFFFFFFFFFFFhkhfhy    OO   O <dgfgfgeOO OO OO OFFFFFFFFFFFF",
"FFFFFFFFZe<<<<Oe<333ftree332<<2<O   O OO OXOO <FFFFFFFFFFFFFFFFFFFFFFFFFFFFFFFFFFFFFFFFFFFFFFFZ5 :O2   FFFFFFFFFFFFFFFFFFFFFFFghjgggO      O     rOddfhde OOO   OyFFFFFFFFFFF",
"FFFFFFFF+25O53$22<33dere2322O O O  OO O     kFFFFFFFFFFFFFFFFFFFFFFFFFFFFFFFFFFFFFFFFFFFFFFFFFFd OO2   FFFFFFFFFFFFFFFFFFFFFFFFhkgdgs        OO  X  5sghfft    OO OFFFFFFFFFF",
"FFFFFFFF<2O<;$<2<213d75OO2+XOXO O  O OOO  OFFFFFFFFFFFFFFFFFFFFFFFFFFFFFFFFFFFFFFFFFFFFFFFFFFFFFFdOO  2FFFFFFFFFFFFFFFFFFFFFFFFhgkfgd5    OO   O O    rgdgftsO   O FFFFFFFFFF",
"FFFFFFFFO+12*:<<3233,<3<O     OO    O  O hFFFFFFFFFFFFFFFFFFFFFFFFFFFFFFFFFFFFFFFFFFFFFFFFFFFFFFFFFrOAFFFFFFFFFFFFFFFFFFFFFFFFFFghhdgfO  O  O      O O < rggdgts2 XrFFFFFFFFF",
"FFFFFFFF+;;@#+*<<3252+<O   O   OO   O   rFFFFFFFFFFFFFFFFFFFFFFFFFFFFFFFFFFFFFFFFFFFFFFFFFFFFFFFFFFFFFFFFFFFFFFFFFFFFFFFFFFFFFFFfgjdfd    O O O OO   O    etfddfss<2FFFFFFFFF",
"FFFFFFFFoDa=#<*<O<<*<    O OO      O OsFFFFFFFFFFFFFFFFFFFFFFFFFFFFFFFFFFFFFFFFFFFFFFFFFFFFFFFFFFFFFFFFFFFFFFFFFFFFFFFFFFFFFFFFFFhlhdfrX     O   O  O O    O   <<rsdjFFFFFFFF",
"FFFFFFFFoMzm2:<122O X O O  O  OOO   5FFFFFFFFFFFFFFFFFFFFFFFFFFFFFFFFFFFFFFFFFFFFFFFFFFFFFFFFFFFFFFFFFFFFFFFFFFFFFFFFFFFFFFFFFFFFkkhggf        O  O  O    OO  O  O FAFFFFFFFF",
"FFFFFFFF2=ic&<25 %: O OO   OO OO   BFFFFFFFFFFFFFFFFFFFFFFFFFFFFFFFFFFFFFFFFFFFFFFFFFFFFFFFFFFFFFFFFFFFFFFFFFFFFFFFFFFFFFFFFFFFFFFjghddrOO   OO OO    OO  OO  OeFFFFFFFFFFFFF",
"FFFFFFFF<@q8+@4pw;@     O O  X   rFFFFFFFFFFFFFFFFFFFFFFFFFFFFFFFFFFFFFFFFFFFFFFFFFFFFFFFFFFFFFFFFFFFFFFFFFFFFFFFFFFFFFFFFFFFFFFFFhjgfhg           OO   O     ZFFFFFFFFFFFFFF",
"FFFh3t:2<<377,9nxb2     O  O O kFFFFFFFFFFFFFFFFFFFFFFFFFFFFFFFFFFFFFFFFFFFFFFFFFFFFFFFFFFFFFFFFFFFFFFFFFFFFFFFFFFFFFFFFFFFFFFFFFFCjghfgs      OO  O OO  O OFFFFFFFFFFFFFFFFF",
"FF<2OO23242>53>0uv; O     OO  FFFFFFFFFFFFFFFFFFFFFFFFFFFFFFFFFFFFFFFFFFFFFFFFFFFFFFFFFFFFFFFFFFFFFFFFFFFFFFFFFFFFFFFFFFFFFFFFFFFFFhlgfggOO       O    OO  FFFFFFFFFFFFFFFFFF",
"Fk2X O3324<141:5@,<    OOO   OFFFFFFFFFFFFFFFFFFFFFFFFFFFFFFFFFFFFFFFFFFFFFFFFFFFFFFFFFFFFFFFFFFFFFFFFFFFFFFFFFFFFFFFFFFFFFFFFFFFFFZhggdgs   O O OO O     OFFFFFFFFFFFFFFFFFF",
"<<<O21<3<*<<23*<O * O O    OO FFFFFFFFFFFFFFFFFFFFFFFFFFFFFFFFFFFFFFFFFFFFFFFFFFFFFFFFFFFFFFFFFFFFFFFFFFFFFFFFFFFFFFFFFFFFFFFFFFFFFFhkgfdf   O  O   O O OeFFFFFFFFFFFFFFFFFFF",
"O<<<22<+@  O<+XXOO+  OOO  OO  FFFFFFFFFFFFFFFFFFFFFFFFFFFFFFFFFFFFFFFFFFFFFFFFFFFFFFFFFFFFFFFFFFFFFFFFFFFFFFFFFFFFFFFFFFFFFFFFFFFFFFFgjhdfyO      O   O NFFFFFFFFFFFFFFFFFFFF",
"2O+O<32OO  <    OO, O   OOOO eFFFFFFFFFFFFFFFFFFFFFFFFFFFFFFFFFFFFFFFFFFFFFFFFFFFFFFFFFFFFFFFFFFFFFFFFFFFFFFFFFFFFFFFFFFFFFFFFFFFFFFFhhhfff       O O O FFFFFFFFFFFFFFFFFFFFF",
"2<3<++32<*O    O O< O OO  1OFFFFFFFFFFFFFFFFFFFFFFFFFFFFFFFFFFFFFFFFFFFFFFFFFFFFFFFFFFFFFFFFFFFFFFFFFFFFFFFFFFFFFFFFFFFFFFFFFFFFFFFFFFjlgdgt  O       OFFFFFFFFFFFFFFFFFFFFFF",
"<O:<3<O:   O  O +@*  OO  5FFFFFFFFFFFFFFFFFFFFFFFFFFFFFFFFFFFFFFFFFFFFFFFFFFFFFFFFFFFFFFFFFFFFFFFFFFFFFFFFFFFFFFFFFFFFFFFFFFFFFFFFFFFFhkhggf2  OOO O   FFFFFFFFFFFFFFFFFFFFFF",
"FB,+$<:+   O  O<  O<   dFFFFFFFFFFFFFFFFFFFFFFFFFFFFFFFFFFFFFFFFFFFFFFFFFFFFFFFFFFFFFFFFFFFFFFFFFFFFFFFFFFFFFFFFFFFFFFFFFFFFFFFFFFFFFFShjhfgf     O < FFFFFFFFFFFFFFFFFFFFFFF",
"NOO+<<*<O   O<O O <  dFFFFFFFFFFFFFFFFFFFFFFFFFFFFFFFFFFFFFFFFFFFFFFFFFFFFFFFFFFFFFFFFFFFFFFFFFFFFFFFFFFFFFFFFFFFFFFFFFFFFFFFFFFFFFFFFFhjgdghyO   OOOtFFFFFFFFFFFFFFFFFFFFFFF",
"25+OOO<O O O2O OOtt5FFFFFFFFFFFFFFFFFFFFFFFFFFFFFFFFFFFFFFFFFFFFFFFFFFFFFFFFFFFFFFFFFFFFFFFFFFFFFFFFFFFFFFFFFFFFFFFFFFFFFFFFFFFFFFFFFFFZjhjdfd XO OO2FFFFFFFFFFFFFFFFFFFFFFFF",
"O <2OOO<OOO<O  OlFFFFFFFFFFFFFFFFFFFFFFFFFFFFFFFFFFFFFFFFFFFFFFFFFFFFFFFFFFFFFFFFFFFFFFFFFFFFFFFFFFFFFFFFFFFFFFFFFFFFFFFFFFFFFFFFFFFFFFFgghfghyOO  OdFFFFFFFFFFFFFFFFFFFFFFFF",
"+O:O,3OOO2O O OFFFFFFFFFFFFFFFFFFFFFFFFFFFFFFFFFFFFFFFFFFFFFFFFFFFFFFFFFFFFFFFFFFFFFFFFFFFFFFFFFFFFFFFFFFFFFFFFFFFFFFFFFFFFFFFFFFFFFFFFFFgjhdgf     ZFFFFFFFFFFFFFFFFFFFFFFFF",
"FrO<+O@<<O O sFFFFFFFFFFFFFFFFFFFFFFFFFFFFFFFFFFFFFFFFFFFFFFFFFFFFFFFFFFFFFFFFFFFFFFFFFFFFFFFFFFFFFFFFFFFFFFFFFFFFFFFFFFFFFFFFFFFFFFFFFFFlkjhdf5    SFFFFFFFFFFFFFFFFFFFFFFFF",
"FFk ++O@   OrFFFFFFFFFFFFFFFFFFFFFFFFFFFFFFFFFFFFFFFFFFFFFFFFFFFFFFFFFFFFFFFFFFFFFFFFFFFFFFFFFFFFFFFFFFFFFFFFFFFFFFFFFFFFFFFFFFFFFFFFFFFFFjjhdgd   rFFFFFFFFFFFFFFFFFFFFFFFFF",
"FFFFrO*OX  rFFFFFFFFFFFFFFFFFFFFFFFFFFFFFFFFFFFFFFFFFFFFFFFFFFFFFFFFFFFFFFFFFFFFFFFFFFFFFFFFFFFFFFFFFFFFFFFFFFFFFFFFFFFFFFFFFFFFFFFFFFFFFFhhjhgf<OO5FFFFFFFFFFFFFFFFFFFFFFFFF",
"FFFFFFA2< FFFFFFFFFFFFFFFFFFFFFFFFFFFFFFFFFFFFFFFFFFFFFFFFFFFFFFFFFFFFFFFFFFFFFFFFFFFFFFFFFFFFFFFFFFFFFFFFFFFFFFFFFFFFFFFFFFFFFFFFFFFFFFFFBkhhdgf  5FFFFFFFFFFFFFFFFFFFFFFFFF",
"FFFFFFFFFFFFFFFFFFFFFFFFFFFFFFFFFFFFFFFFFFFFFFFFFFFFFFFFFFFFFFFFFFFFFFFFFFFFFFFFFFFFFFFFFFFFFFFFFFFFFFFFFFFFFFFFFFFFFFFFFFFFFFFFFFFFFFFFFFFhlghfseOhFFFFFFFFFFFFFFFFFFFFFFFFF",
"FFFFFFFFFFFFFFFFFFFFFFFFFFFFFFFFFFFFFFFFFFFFFFFFFFFFFFFFFFFFFFFFFFFFFFFFFFFFFFFFFFFFFFFFFFFFFFFFFFFFFFFFFFFFFFFFFFFFFFFFFFFFFFFFFFFFFFFFFFFVhjhdfd FFFFFFFFFFFFFFFFFFFFFFFFFF",
"FFFFFFFFFFFFFFFFFFFFFFFFFFFFFFFFFFFFFFFFFFFFFFFFFFFFFFFFFFFFFFFFFFFFFFFFFFFFFFFFFFFFFFFFFFFFFFFFFFFFFFFFFFFFFFFFFFFFFFFFFFFFFFFFFFFFFFFFFFFFgkfgfgrFFFFFFFFFFFFFFFFFFFFFFFFFF"
};
