/* XPM */
static char *result[] = {
/* columns rows colors chars-per-pixel */
"46 96 252 2 ",
"   c black",
".  c #080008",
"X  c #100008",
"o  c #080818",
"O  c #100010",
"+  c #100810",
"@  c #180810",
"#  c #100818",
"$  c #180818",
"%  c #181018",
"&  c #181818",
"*  c #200818",
"=  c #100820",
"-  c #081828",
";  c #101020",
":  c #181020",
">  c #181820",
",  c #101828",
"<  c #181828",
"1  c #081830",
"2  c #101830",
"3  c #181830",
"4  c #201020",
"5  c #281020",
"6  c #201820",
"7  c #281820",
"8  c #301828",
"9  c #201830",
"0  c #082038",
"q  c #082838",
"w  c #102030",
"e  c #182030",
"r  c #182830",
"t  c #102038",
"y  c #182038",
"u  c #182838",
"i  c #202020",
"p  c #282028",
"a  c #302020",
"s  c #302820",
"d  c #382820",
"f  c #382828",
"g  c #283028",
"h  c #283828",
"j  c #202030",
"k  c #202038",
"l  c #282038",
"z  c #202838",
"x  c #282838",
"c  c #302030",
"v  c #382030",
"b  c #302830",
"n  c #382830",
"m  c #382838",
"M  c #383830",
"N  c #383038",
"B  c #501818",
"V  c #702010",
"C  c #782818",
"Z  c #403028",
"A  c #402838",
"S  c #482838",
"D  c #403830",
"F  c #483830",
"G  c #503830",
"H  c #583830",
"J  c #683828",
"K  c #004028",
"L  c #084028",
"P  c #004828",
"I  c #084030",
"U  c #004830",
"Y  c #084830",
"T  c #005030",
"R  c #105038",
"E  c #204830",
"W  c #284838",
"Q  c #384030",
"!  c #304838",
"~  c #285038",
"^  c #006038",
"/  c #484030",
"(  c #404038",
")  c #484038",
"_  c #404838",
"`  c #484838",
"'  c #504030",
"]  c #584030",
"[  c #504038",
"{  c #584838",
"}  c #604838",
"|  c #082840",
" . c #102840",
".. c #182840",
"X. c #083040",
"o. c #103040",
"O. c #183840",
"+. c #183048",
"@. c #183850",
"#. c #302840",
"$. c #302848",
"%. c #283040",
"&. c #283840",
"*. c #283848",
"=. c #383040",
"-. c #303840",
";. c #303048",
":. c #383048",
">. c #283850",
",. c #283858",
"<. c #303050",
"1. c #303858",
"2. c #483040",
"3. c #483840",
"4. c #503848",
"5. c #583848",
"6. c #403850",
"7. c #403858",
"8. c #403860",
"9. c #184850",
"0. c #184058",
"q. c #285840",
"w. c #385040",
"e. c #305840",
"r. c #385840",
"t. c #284058",
"y. c #304058",
"u. c #205058",
"i. c #106040",
"p. c #187048",
"a. c #286048",
"s. c #386040",
"d. c #306050",
"f. c #284860",
"g. c #384060",
"h. c #305060",
"j. c #305860",
"k. c #305068",
"l. c #385068",
"z. c gray25",
"x. c #504840",
"c. c #584840",
"v. c #504048",
"b. c #584048",
"n. c #485040",
"m. c #485840",
"M. c #585040",
"N. c #585840",
"B. c #404850",
"V. c #584050",
"C. c #485058",
"Z. c #605040",
"A. c #685840",
"S. c #604850",
"D. c #604858",
"F. c #684858",
"G. c #685850",
"H. c #685058",
"J. c #586048",
"K. c #407048",
"L. c #507848",
"P. c #606048",
"I. c #686848",
"U. c #706848",
"Y. c #786848",
"T. c #787048",
"R. c #706850",
"E. c #687050",
"W. c #707050",
"Q. c #787050",
"!. c #787850",
"~. c #404060",
"^. c #484060",
"/. c #404868",
"(. c #484868",
"). c #504868",
"_. c #485068",
"`. c #505068",
"'. c #504870",
"]. c #585870",
"[. c #705060",
"{. c #406068",
"}. c #486068",
"|. c #406078",
" X c #606870",
".X c #606078",
"XX c #686878",
"oX c #786878",
"OX c #807050",
"+X c #807850",
"@X c #807858",
"#X c #887858",
"$X c #B87058",
"%X c #688058",
"&X c #808058",
"*X c #888058",
"=X c #888860",
"-X c #888068",
";X c #908860",
":X c #889060",
">X c #909060",
",X c #909068",
"<X c #989868",
"1X c #989070",
"2X c #989870",
"3X c #A09870",
"4X c #A09878",
"5X c #A0A070",
"6X c #A8A878",
"7X c #F08048",
"8X c #506880",
"9X c #686880",
"0X c #687080",
"qX c #707888",
"wX c #608080",
"eX c SlateGray",
"rX c #788890",
"tX c #609098",
"yX c #789090",
"uX c #789898",
"iX c #68A8A8",
"pX c #78A8A0",
"aX c #70B0B0",
"sX c #A8A088",
"dX c #B0A880",
"fX c #B0B080",
"gX c #B0B880",
"hX c #B8B888",
"jX c #88A0A0",
"kX c #88A8A8",
"lX c #90B0B0",
"zX c #90B8B0",
"xX c #98B8B0",
"cX c #B8C088",
"vX c #88C0B8",
"bX c #98C0B8",
"nX c #A0C0B8",
"mX c #C0C088",
"MX c #C0C090",
"NX c #C0C890",
"BX c #C8C890",
"VX c #C8D090",
"CX c #D0D098",
"ZX c #D8D898",
"AX c #A0C8C0",
"SX c #A8D0C0",
"DX c #A8D8C8",
"FX c #B0D0C8",
"GX c #B0D8C8",
"HX c #B0D8D0",
"JX c #B0E0D0",
"KX c None",
/* pixels */
"KXKXKXKXKXKXKXKXKXKXKXKXKX7 7 7 KXKXKXKXKXKXKXKXKXKXKXKXKXKX7 7 7 KXKXKXKXKXKXKXKXKXKXKXKXKX",
"KXKXKXKXKXKXKXKXKXKXKXKX7 X 7 KXKXKXKXKXKXKXKXKXKXKXKXKXKXKXKX7 . 7 KXKXKXKXKXKXKXKXKXKXKXKX",
"KXKXKXKXKXKXKXKXKXKXKX7 X 7 KXKXKXKXKXKXKXKXKXKXKXKXKXKXKXKXKXKX7   7 KXKXKXKXKXKXKXKXKXKXKX",
"KXKXKX7 KXKXKXKXKXKX7 * @ 7 KXKXKXKXKXKXKXKXKXKXKXKXKXKXKXKXKXKX7 % X 7 KXKXKXKXKXKX7 KXKXKX",
"KXKXKX7 7 KXKXKXKX7 m * 7 KXKXKXKXKXKXKXKXKXKXKXKXKXKXKXKXKXKXKXKX8 X n 7 KXKXKXKX7 7 KXKXKX",
"KXKXKX7 7 KXKXKXKX7 2.@ 7 KXKXKXKXKXKXKXKXKXKXKXKXKXKXKXKXKXKXKXKXv . A 7 KXKXKXKX7 7 KXKXKX",
"KXKX7 2.7 KXKXKX7 2.2.5 KXKXKXKXKXKXKXKXKXKXKXKXKXKXKXKXKXKXKXKXKXKXn c n 7 KXKXKX7 n 7 KXKX",
"KX7 3.2.7 KXKXKX7 2.A 5 KXKXKXKXKXKXKXKXKXKXKXKXKXKXKXKXKXKXKXKXKXKXn v n 5 KXKXKX7 8 2.7 KX",
"KX7 2.. 7 KXKXKX5 A 2.7 KXKXKXKXKXKXKXKXKXKXKXKXKXKXKXKXKXKXKXKXKXKXn A A % KXKXKX7 * v 7 KX",
"7 v.$ . KXKXKXKX$ A 3.  KXKXKXKXKXKXKXKXKXKXKXKXKXKXKXKXKXKXKXKXKXKX  2.A O KXKXKXKX8 v 2.7 ",
"7 v.$ 8 KXKXKXKXO A 3.2.v KXKXKXKXKXKXKXKXKXKXKXKXKXKXKXKXKXKXKXKXn A 4.A O KXKXKXKXv 8 S 5 ",
"7 v.7 v KXKXKXKXKXO S 5.2.n n KXKXKXKXKXKXKXKXKXKXKXKXKXKXKXKXn n 2.4.2.O KXKXKXKXKXn v 4.4 ",
"5 v.A n KXKXKXKXKXO A 4.5.A p KXKXKXKXKXKXKXKXKXKXKXKXKXKXKXKXn b 4.5.A O KXKXKXKXKXn S 5.@ ",
"$ v.v.A n KXKXKXKXKXO 2.V.A p KXKXKXKXKXKXKXKXKXKXKXKXKXKXKXKXn b V.S O KXKXKXKXKXn 2.4.4.O ",
"O v.v.5.n KXKXKXKXKXO 4.4.A p KXKXKXn n KXKXKXKXKXv v KXKXKXKXn V.V.b O KXKXKXKXKXn 4.2.A O ",
"O v.n v.5.n KXKXKXKXKX$ A V.p KXKXKXn n KXKXKXKXKXn v KXKXKXKXn 3.5 O KXKXKXKXKXn 4.V.n a O ",
"KXO v A S.5.n n KXKXKX@ A V.c KXKXKXn n n KXKXKXKXn V.v KXKXKXn 2.+ O KXKXKXn n 4.D.v.4 O KX",
"KXO . 4 3.F.V.4.n n KXKX@ A 2.n KXKXn b.n KXKXKXKXn V.v KXKXn A 4.  KXKXn n 4.V.S.F.c $ O KX",
"KXKXO + @ 4.H.F.b.H.v KX@ p b.n KXKXn b.v KXKXKXKXn 4.7 KXKXn b.v.5 KX8 5.5.F.F.D.n . O KXKX",
"KXKXKXO . . n V.H.F.S.8 $ p F.V.v v 5.2.8 KXKXKXKXn S V.7 8 S.D.V.4 5 V.H.F.v.m 4 6 O KXKXKX",
"KXKXKXKXO O 6 @ A H.S.4.b v.H.S.S.D.V.5.7 KXKXKXKXv 4.V.D.S.S.H.S.m 2.S.S.n O $ O + KXKXKXKX",
"KXKXKXKXKXKXO O 6 c F.H.4.m F.F.S.D.5.% KXKXKXKXKXKX7 2.F.S.F.F.S.m H.H.7 % O + KXKXKXKXKXKX",
"KXKXKXKXKXKXKXKX@ N n H.F.S.F.H.F.V.m % KXKXKXKXKXKX7 b 2.H.H.F.S.S.[.A c O KXKXKXKXKXKXKXKX",
"KXKXKX4 KXKXKXKXKX5 % V.[.H.H.F.4.p % KXKXKXKXKXKXKXKXa p c F.H.F.H.F.4 O KXKXKXKXKX7 KXKXKX",
"KXKXKX5 5 KX5 KXKX5 N 2.F.H.F.4.p & KXKXKXKXKXKXKXKXKXKXf p m H.H.[.S.n * KXKX5 KX8 7 KXKXKX",
"KXKXKX4 V.5 V.5 KX7 z.4.F.H.H.7 & KXZ.Z.KXKXZ.Z.KXZ.Z.KXKXa 7 S.[.[.F.v.5 KX5 V.5 V.7 KXKXKX",
"KXKXKX@ A 3.V.V.5 H.4.H.H.[.v.7 / / gXgXZ.Z.2X2XZ.;XsXZ.{ KX7 4.[.H.H.S.7 8 V.V.b.4.7 KXKXKX",
"KXKXKXKXO 7 b 3.v.V.H.H.H.[.4.7 -X-XNXNXgXgXhXBX2XcXMX3XOXZ A 4.[.F.H.[.V.4.4.4.v 7 KXKXKXKX",
"KXKXKXKXKXO O O @ b v.[.S.S.D.A fXhXNXNXNXBXVXNXVXNXVXmX4X6XA S.H.D.[.4.p 7 @ @ @ KXKXKXKXKX",
"KXKXKXKXKXKXKXKXKX% c v.V.3.D.S.A CXBXNXNXNXNXNXNXNXNXNXCXA G.H.V.V.2.b a KXKXKXKXKXKXKXKXKX",
"KXKXKXKXKXKXKXKXZ ;XfXc c A 4.D.A NXBX*XNXNXNXNXNXNXmXNXVXA D.V.2.A R.6XdXF KXKXKXKXKXKXKXKX",
"KXKXKXKXKXKXKXZ.4X>XfXBX&Xc c V.S.A NX6X*X#X5XNXNX*XgXVXA D.V.c A R.BXCXmX1X} KXKXKXKXKXKXKX",
"KXKXKXKXKXZ.Z.hXhXBXmXBXhXQ.n c D.S.M.M.*XQ.#X6X*X;XM.M.H.V.p n R.fXCXMXhX=XR.Z.Z.KXKXKXKXKX",
"KXKXKXKXKXKXZ.hXNXNXNXBXVXVXgX` A A DXDXM.' +X*XM.M.DXDXA 8 ( dXVXVXBXMXNXNXgXZ.KXKXKXKXKXKX",
"KXKXKXKXKXZ.5XfXmXNXBXBXBXBXZX5XN yXHXDXDXN.M.M.-XxXDXDXjXN >XZXBXBXBXBXMXhX5X5XZ.Z.KXKXKXKX",
"KXKXKXKXZ.=X&X5XcXNXVX~.^.BXBXBX0XzXzXGXJXDXDXDXbXGXHXbXbXeX1XBXBX~.(.BXMXhX3XT.T.Z.KXKXKXKX",
"KXKXKXKXKXZ.Z.cXNXNXBX~.~.~.~..X.X7.B.lXDXbXDXJXGXDXAX X-.].~.~.~.~.(.BXMXhXgXfX>X>XZ.KXKXKX",
"KXKXKXKXZ.=XdXMXcXMXBXhX'.).'.(.:.# : (.(.qXuXGXnX(.(.#.O l ~.(.(.(.dXVXcXgXfXdX>X>X] KXKXKX",
"KXKXKXKXKX' Z.5XgXMXMXMXMXc.=.p a d 7 7.'.(.jXDX(.'.~.p d s p b 2.BXfXmXhXfX5X;XT.' KXKXKXKX",
"KXKXKXKXZ.=X=X5XcXMXMXfX5X;X@XY.M.J $XoX^.(.bXFX(.~.XX$XJ F Z.Q.=X2XdXgXhXfX5X;XA.G./ KXKXKX",
"KXKXKXKXKXf Z.6XgXcXMXMXMXMXcXhX1XJ 7X$X7.(.nXSX(.$.OX7XJ N.;X6XmXNXMXcXhXdX5X;XA.F KXKXKXKX",
"KXKXKXKXKXd +X<XfXcXmXmXmXcXgX3X@XZ.C B ;.(.uXlX`.<.B V H R.,XdXcXmXmXhXfX5X<X#XZ.Z KXKXKXKX",
"KXKXKXKXKXKXd *X5XfXcXmXMXMXMXfX1XQ.D + 6.`.0XqX'.~.# D =XfXhXcXMXMXcXgX6X1X=XY.] ] Z KXKXKX",
"KXKXKXKXKXd G.Y.;X5XgXcXmXMXmXhXdX6X5XP.#.).0X0X).;.x.gXVXNXmXmXMXmXhXfX5X;XT.A.F d KXKXKXKX",
"KXKXKXKXKXKXd Z.OX<X6XfXcXMXMXMXBXBXZXfXN 8.0X0X~.N 3XZXMXMXMXMXMXhXfX5X<X*XA.G d KXKXKXKXKX",
"KXKXKXKXKXKXKXd A.+X1X6XgXhXmXmXmXmXMXVXP.$.0XqX:.M.NXNXmXmXmXmXcXgX6X1X#XY.{ c.d KXKXKXKXKX",
"KXKXKXKXKXKXKXd d Z.#X>X5XgXcXmXmXmXmXCX=XB.kXzXC.!.CXmXmXmXmXcXgX6X3X*XU.{ 3.d KXKXKXKXKXKX",
"KXKXKXKXKXKXKXKX6 a A.OX>X5XfXhXcXmXmXVX2X XSXHXeX;XVXmXmXmXcXgX6X3X*XY.Z.c.s KXKXKXKXKXKXKX",
"KXKXKXKXKXKXKXKX#.4 ' A.T.*X5XdXgXhXcXNXdXz.yXzX X3XVXmXmXcXgXfX<X*XY.A.a i KXKXKXKXKXKXKXKX",
"KXKXKXKXKXKXKXKX;.%.6 / Z.Y.*X3X5XfXgXcXmXz.9 z.z.fXNXmXhXgX6X5X;XY.A.F + x KXKXKXKXKXKXKXKX",
"KXKXKXKXKXKXKXKX;.}.:.b Z } U.#X;X3X5XfXhX2Xz.z.=XNXmXcXfXdX5X;X+XZ.f 6 #.;.KXKXKXKXKXKXKXKX",
"KXKXKXKXKXKXKXKX;.0X(.8.=.p Z { U.+X;X<X6XfXdXfXhXhXgXfX6X3X>XOX} s j :. X;.KXKXKXKXKXKXKXKX",
"KXKXKXKXKXKXKXKX;.eX.X(.(.;.> 7 D [ Z.U.#X;X5X5X3X5X<X1X=X+XA./ p #.(.).yX;.KXKXKXKXKXKXKXKX",
"KXKXKXKXKXKXKXKX;.rXqX^.`.`.;.i d D G G ' A.Q.@XOXU.A.x.D F a : #.^.`.`.uX;.KXKXKXKXKXKXKXKX",
"KXKXKXKXKXKXKXKXKX;.rX^.).`.7.Z I.<X>X=Xx.Z / ) D / [ x.c.D f b ^.).).`.uX$.KXKXKXKXKXKXKXKX",
"KXKXKXKXKXKXKXKXKX;.uX`.(.).6.M.dXNX<X=X;XD Z / D W.4XfX6X-Xc.b ).`.^..XkX< KXKXKXKXKXKXKXKX",
"KXKXKXKXKXKXKXKXKX;.uX9X^.`.7.N.fXcXfX1X=X&X>X3X;X-X;XfXhX6X*X3.).).^.yXyX< < KXKXKXKXKXKXKX",
"KXKXKXKXKXKXKXKXKX$.yXuX).).6.M.<XfXhXgX=X6X5X,X>X5X3XdXfXP.!.x.(.^..XkXC.: 9 e KXKXKXKXKXKX",
"KXKXKXKXKXKXKXKXKX$.&.uXqX^.^.x.P.=X2XmX6XgXcXcXcXcXhXdX,XN.` 6.(.).uXwX9 9 < e KXKXKXKXKXKX",
"KXKXKXKXKXKXKXKXKX$.&.}.kX.X^.=.` W.<XcXhXcXcXcXcXcXgX6X=X` ( 6.(.qXuX&.9 l 9 e e KXKXKXKXKX",
"KXKXKXKXKXKXKX9 < ; B.}.pXjX).7.( N.:X6XhXgXhXhXcXhXfX3XI.n.N ~.9XlX}.9 l l j 9 e KXKXKXKXKX",
"KXKXKXKX9 9 9 < < o j eXpXbX0X(.:.( W.<XdX5X5XfXgXfX5X=Xm.` #.`.kXzX{.9 l l k 3 e KXKXKXKXKX",
"KXKXKX9 k < < ; ; = # .XzXbXlX].7.N J.N.P.=X*X3X6X,X&X!.` x 8.rXAXkXC.< l k k 9 9 e KXKXKXKX",
"KXKX9 k k k k < > < > 7.eXbXSXrX^.=.M ` P.P.I.&X&XE.I.P.( ;.9XnXxX9Xx < k k k 9 e e KXKXKXKX",
"KX9 k k l j 9 KXKXKXKX#.7.jXSXxX.X7.i Q m.J.J.N.J.J.m.Q =.).kXSXeX8.j 3 k k k 9 e e KXKXKXKX",
"KX< k #.9 KXKXKXKXKXKX;.:.].zXSXyX(.#.i Q n.m.m.n.n.Q < 7.qXSXlX`.7.j 3 k k k 9 e e KXKXKXKX",
"&.^.k l KXKXKXKXKXKXKXKX;.:.qXSXlX].7.j g s h _ Q M i $.(.uXSXqX(.7.9 e j k k k e e KXKXKXKX",
"! ~.n.-.KXKXKXKXKXKXKXKX;.7.`.lXbX.X^.;.! Q g g g g e 1.`.kXxX`.).6.< e j k k j e e KXKXKXKX",
"! C.W.-.KXKXKXKXKXKXKXKX;.^.~.uXAX9X^.7.W r.w.! w.! z ~.`.lXlX).).:., e e k k e e e KXKXKXKX",
"KXE E.=X! KXKXKXKXKXKXKXKX;.8.eXAX0X^.^.&.~ e.e.e.W %.~.).jXbX].^.;., e y k k e e e KXKXKXKX",
"KXE r.:X,XE KXKXKXKXKXKXKX;.7.qXAX0X^.(.x q.q.~ q.~ -.(.^.eXSXuX(.x w y y k z e e e KXKXKXKX",
"KXKXE s.:X1XE KXKXKXKXKXKX;.~.yXAX.X~.(.#.e q.q.q.~ -.(.(.].vXDXyXz 2 y y u z e e e KXKXKXKX",
"KXKXKXE r.L.%XE E KXKXKXKXKX;.kXlX_./._.%.3 r q.~ q.%.~._.~.eXDXpXe , y u u u e e KXKXKXKXKX",
"KXKXKXKXE E a.K.K.E E KXKXKXx uXeX/.(._.#.u y y u e k ~._./._.0XqX: < 2 u u u e e KXKXKXKXKX",
"KXKXKXKXKXKX~ E d.K K L KXKXKX;.g./._.~.*.u u ......y 1._./.g.1.1.KXKX0 w z ..e e KXKXKXKXKX",
"KXKXKXKXKXKXKXKXE E I K K KXKXKX,.,._.y.*.u u ......y ;.(.g.>.1.*.KXKX0 w ....e e KXKXKXKXKX",
"KXKXKXKXKXKXKXKXKXKXL K d.T KXKX,.,./.y.*.j u u ......z g.y.%.1.*.KXKXKX0 t ..e e KXKXKXKXKX",
"KXKXKXKXKXKXKXKXKXKXKXP d.Y KXKX,.}.l.1.*.KXk u u +...u y./.g.*.KXKXKXKX0 t ..0 e KXKXKXKXKX",
"KXKXKXKXKXKXKXKXKXKXKXU R Y KXKXKX,.uXh.*.KXKXe u +.+.u >.8XvX*.KXKXKXKX0 t ..0 e KXKXKXKXKX",
"KXKXKXKXKXKXKXKXKXKXU a.a.U KXKXKX,.aXiX*.KXKXe u u +.t j.vX*.KXKXKXKXKXKX0  .0 e KXKXKXKXKX",
"KXKXKXKXKXKXKXKXKXU i.^ U KXKXKXKX*.h.tX*.KXKXKX1 u  .u tXaX*.KXKXKXKXKXKX0  .q +.0 KXKXKXKX",
"KXKXKXKXKXKXKXKXU T p.^ U KXKXKXKXKX*.f.*.KXKXKXKX1 u u wX|.*.KXKXKXKXKXKXKX0 |  .0 KXKXKXKX",
"KXKXKXKXKXKXKXKXU T i.T U KXKXKXKXKX*.@.*.KXKXKXKX1 u u h.k.*.KXKXKXKXKXKXKX0 0 o.0 KXKXKXKX",
"KXKXKXKXKXKXKXKXP ^ U U KXKXKXKXKXKX*.t.l.*.KXKXKXKX1 1 y.k.*.KXKXKXKXKXKXKX0 0 o.0 KXKXKXKX",
"KXKXKXKXKXKXKXKXKXP U KXKXKXKXKXKXKX*.f.f.*.KXKXKXKX1 - t.k.*.KXKXKXKXKXKXKX0 0 o.0 KXKXKXKX",
"KXKXKXKXKXKXKXKXKXKXKXKXKXKXKXKXKXKXKX*.t.*.KXKXKXKX1 - h.k.*.KXKXKXKXKXKXKX0 q 0 KXKXKXKXKX",
"KXKXKXKXKXKXKXKXKXKXKXKXKXKXKXKXKXKXKX*.f.*.KXKXKXKX1 - 1 k.*.KXKXKXKXKXKXKX0 | 0 KXKXKXKXKX",
"KXKXKXKXKXKXKXKXKXKXKXKXKXKXKXKXKXKXKX*.t.*.KXKXKX1 1 1 1 k.*.KXKXKXKXKXKXKX0 | 0 KXKXKXKXKX",
"KXKXKXKXKXKXKXKXKXKXKXKXKXKXKXKXKXKXKX*.0.*.KXKXKX1 1 KX*.k.*.KXKXKXKXKXKXKX0 q O.0 KXKXKXKX",
"KXKXKXKXKXKXKXKXKXKXKXKXKXKXKXKXKXKXKX*.0.*.KXKXKX1 1 KX*.k.*.KXKXKXKXKXKXKX0 0 O.0 KXKXKXKX",
"KXKXKXKXKXKXKXKXKXKXKXKXKXKXKXKXKXKXKX*.0.*.KXKXKX1 1 KX*.k.k.*.KXKXKXKXKXKX0 - O.0 KXKXKXKX",
"KXKXKXKXKXKXKXKXKXKXKXKXKXKXKXKXKXKX*.h.0.*.KXKXKXKXKXKX*.k.k.*.KXKXKXKXKXKXKX0 0 KXKXKXKXKX",
"KXKXKXKXKXKXKXKXKXKXKXKXKXKXKXKXKXKX*.h.9.*.KXKXKXKXKXKX*.9.k.*.KXKXKXKXKXKXKXKXKXKXKXKXKXKX",
"KXKXKXKXKXKXKXKXKXKXKXKXKXKXKXKXKXKX*.h.9.*.KXKXKXKXKXKX*.u.j.*.KXKXKXKXKXKXKXKXKXKXKXKXKXKX",
"KXKXKXKXKXKXKXKXKXKXKXKXKXKXKXKXKXKX*.{.X.*.KXKXKXKXKXKX*.9.u.*.KXKXKXKXKXKXKXKXKXKXKXKXKXKX",
"KXKXKXKXKXKXKXKXKXKXKXKXKXKXKXKXKXKXKX*.*.KXKXKXKXKXKXKXKX*.*.KXKXKXKXKXKXKXKXKXKXKXKXKXKXKX"
};
