/* XPM */
static char *result[] = {
/* columns rows colors chars-per-pixel */
"64 64 246 2 ",
"   c #081018",
".  c #101818",
"X  c #101018",
"o  c #000818",
"O  c #081021",
"+  c #081029",
"@  c #081829",
"#  c #041423",
"$  c #101021",
"%  c #101821",
"&  c #181821",
"*  c #101829",
"=  c #141429",
"-  c #081031",
";  c #081831",
":  c #081839",
">  c #031135",
",  c #101831",
"<  c #101839",
"1  c #182121",
"2  c #102129",
"3  c #182129",
"4  c #182929",
"5  c #142521",
"6  c #102131",
"7  c #182131",
"8  c #182931",
"9  c #102139",
"0  c #182139",
"q  c #182939",
"w  c #183139",
"e  c #212929",
"r  c #212721",
"t  c #293129",
"y  c #213129",
"u  c #212931",
"i  c #212939",
"p  c #213131",
"a  c #293131",
"s  c #293931",
"d  c #213139",
"f  c #293139",
"g  c #293939",
"h  c #213939",
"j  c #313939",
"k  c #313931",
"l  c #182118",
"z  c #314239",
"x  c #394A39",
"c  c #354837",
"v  c #2C4234",
"b  c #081842",
"n  c #08184A",
"m  c #051342",
"M  c #10184A",
"N  c #081852",
"B  c #08185A",
"V  c #08214A",
"C  c #102142",
"Z  c #182142",
"A  c #182942",
"S  c #10214A",
"D  c #18214A",
"F  c #18294A",
"G  c #102942",
"H  c #18314A",
"J  c #183142",
"K  c #082152",
"L  c #08215A",
"P  c #08295A",
"I  c #102152",
"U  c #182952",
"Y  c #10295A",
"T  c #132955",
"R  c #183152",
"E  c #10315A",
"W  c #18315A",
"Q  c #143556",
"!  c #212942",
"~  c #21294A",
"^  c #213142",
"/  c #293142",
"(  c #213942",
")  c #293942",
"_  c #21314A",
"`  c #21394A",
"'  c #29394A",
"]  c #29314A",
"[  c #313942",
"{  c #31394A",
"}  c #213152",
"|  c #213952",
" . c #293952",
".. c #21395A",
"X. c #29395A",
"o. c #233158",
"O. c #082163",
"+. c #08216B",
"@. c #08296B",
"#. c #082963",
"$. c #112967",
"%. c #153368",
"&. c #082973",
"*. c #08297B",
"=. c #082175",
"-. c #102876",
";. c #083173",
":. c #08317B",
">. c #08397B",
",. c #10317B",
"<. c #10397B",
"1. c #163577",
"2. c #213963",
"3. c #243666",
"4. c #213976",
"5. c #21297B",
"6. c #19185F",
"7. c #42317B",
"8. c #294242",
"9. c #29424A",
"0. c #314242",
"q. c #31424A",
"w. c #314A4A",
"e. c #394A4A",
"r. c #364844",
"t. c #39524A",
"y. c #294252",
"u. c #29425A",
"i. c #27485A",
"p. c #314252",
"a. c #314A52",
"s. c #394A52",
"d. c #314A5A",
"f. c #394A5A",
"g. c #31425A",
"h. c #395252",
"j. c #31525A",
"k. c #39525A",
"l. c #395A5A",
"z. c #08427B",
"x. c #10427B",
"c. c #184277",
"v. c #294263",
"b. c #294A63",
"n. c #254569",
"m. c #314A63",
"M. c #324868",
"N. c #315263",
"B. c #395263",
"V. c #395A63",
"C. c #31526B",
"Z. c #395A6B",
"A. c #37546B",
"S. c #264777",
"D. c #315273",
"F. c #395A73",
"G. c #345879",
"H. c #2E4D76",
"J. c #39637B",
"K. c #396373",
"L. c #39636B",
"P. c #425A52",
"I. c #425A5A",
"U. c #435357",
"Y. c #425448",
"T. c #42635A",
"R. c #496759",
"E. c #425A63",
"W. c #425869",
"Q. c #425A73",
"!. c #426363",
"~. c #4A6B63",
"^. c #42636B",
"/. c #4A6B6B",
"(. c #476667",
"). c #4A736B",
"_. c #4A7363",
"`. c #527569",
"'. c #4A6B73",
"]. c #426B7B",
"[. c #436677",
"{. c #4A7373",
"}. c #4A737B",
"|. c #4A7B7B",
" X c #477876",
".X c #527B7B",
"XX c #537774",
"oX c #526B66",
"OX c #5A847B",
"+X c #083184",
"@X c #083984",
"#X c #08318C",
"$X c #08398C",
"%X c #103984",
"&X c #10398C",
"*X c #133189",
"=X c #103794",
"-X c #082D8B",
";X c #25318C",
":X c #282E8B",
">X c #462D88",
",X c #084284",
"<X c #08428C",
"1X c #084A8C",
"2X c #084A84",
"3X c #104284",
"4X c #10428C",
"5X c #104A8C",
"6X c #164A89",
"7X c #10528C",
"8X c #105789",
"9X c #084294",
"0X c #084A94",
"qX c #084A9C",
"wX c #104294",
"eX c #104A94",
"rX c #104A9C",
"tX c #10429C",
"yX c #085294",
"uX c #08529C",
"iX c #105294",
"pX c #10529C",
"aX c #105A9C",
"sX c #145895",
"dX c #085289",
"fX c #234886",
"gX c #27578D",
"hX c #33638A",
"jX c #1257A5",
"kX c #104AA5",
"lX c #2D52B1",
"zX c #1863A5",
"xX c #2163A5",
"cX c #10639C",
"vX c #426984",
"bX c #487687",
"nX c #527B84",
"mX c #567B88",
"MX c #477894",
"NX c #527B97",
"BX c #5A848C",
"VX c #548588",
"CX c #598997",
"ZX c #5A949C",
"AX c #5688BD",
"SX c #63848C",
/* pixels */
";.&.&.L ;.n , , Z Z 0 2 } _ 3 i i 8 u e ' p u r.k.e.U.t.e.p.!.}.mX~.T.P.z e g e { }.[.a.B.B.y./ ' i q * ! 7 * * O , M L ,.:.:.*.",
",X&.+.:.;.:.O * 0 0 6 2 } } % 8 i q d e ' p 4 ) V.h.W.x s.9.!.}.nX~.T.P.z 1 e s }.].[.p.a.B.u i ^ i 7 * ! 7 * O   Z : N <.&.&.:.",
"2X@X3X,.L L = , Z 9 0 * ! ! i & ^ 8 i 8 9.vXk.f [.e.t.a /.}.}.VXVX).).(.T.h.}.MXmX^.B.G.d.F.3 ' 8 u % 1 ! 7 7 % 6 , b O.&.O.&.1X",
"2X5X5X:.O.L b C 9 0 A 0 7 _ ^ q i e 8 i ) B.[.m.) ].^.}.P.|.'.nXVX{.^.!.!.}.}.}.[.E.J.a.e  .C.f 7 3 i ` } 7 * 6 , C < +.N @X,X,X",
"dX1X5Xz.@.O.F $ 9 7 6 % 8 X.u.u.. * d d ' d.q.q.a.].}.U.XXCXCXCXVX|./.R.T.}./.L.E.[.) { )  .hX' 1 3 v.C.! @ 0 F F * - - #.iX,Xx.",
"1X1X5X<.3X3XF F * 9 * A * 8  . .' . i d ) u g g 0.k.^.x .XmXVX|..X X/.'.^.}.}.'.[.u f f q.p.m. . .^ 7 7 2 A A * % , S <.gX>.:.1X",
"2X,X5X5X;.>.F F F * A @ 7 7 v. .M.] & ' d d e ) f E.(.NXCX.XCXVX|.|.{.}.{.^.!.bX[.^.[.f.f.) ) ' ' _ 3.7 * } A * , 6 R fXgX5X7X1X",
"7X5X>.5X@.z., U Z F F A 7 3 M.H.y.y.' u p.p.q.q.) w.q.^.e. X~.|. X|.T.).}.I.^.s.0.q.B.A.J.G.D.y.' u._ q } } * * F * T >.6XiX7X1X",
"1X<X@Xx.%X>.* 9 A 0 A ! } | C.b.u.y.d.C.u u p f.e 0.j j !.U.P.{.OX).~.T.T.I.h.q.r.f 0.) 3 3 ' i i 7 i 0 _ _ A F Z 6 %.:.8X,X,X1X",
"1X,X1X,.5X>.* 9 * F Z ! | | u.y.y.d.H.D.' e q.f.r 0.g e t Y.I.{. X).T.P.t.'.z a 0.g ) ) 4 4 d d 3 * 3 7 _ _ A A U W I *.1X,X,X1X",
"1X1X,.3X4X&.* * * F o.~ | ..`  .' d.D.C.d.p.f.f.f & f.j k P.T.{..X{.T.t.t.XXx 0.k.f 0.p.' i u ^ 8 3 & _ } Z } A W F Y @.5X4X3X<X",
"<X$X>.&.>.:.O * F R } ! } | | u.u.y.g.d.d.d.l.V.0.a g k Y.~.T.).|./.h.e.U./.U.k.h.g p ) e p u ^ e 3 3 } } 7 A A Z * K +.>.:.%X1X",
"4X4X;.:.@.,.9 U U q 7 7 q 8 q /  .G.X.) ' B.Z.k.s.u r e.'..X/.).}.|.L.t.z t U.N.w.j f.].u 8 8 / i 3 d ! ! * * Z 9 % I @.,.@.+X,X",
":.4X&.&.@.&.Z F D * % * , q i ^ ^ v.m.d.d q.k.k.h.g e a XX.X.X.XnX{.|.bX/.~.nXk.g ^.vXN.8 u u ^ 1 i y.! ! ~ A A Z O I $.@.*.:.<X",
"$X:.:.P ,.B , 9 6 * 6 2 7 A d u u ' i ^ ' / p.s.l.E.l.[ R.{..XVXmXCXCXCX~.I.NXbXB.vXK.q.' u u u u  . .` % 0 0 0 9 D S K @.%X:.<X",
"$X@X*.<.@.,.= $ , 6 6 6 7 i d u / e p./ d d.s.k.^.'.{.r.t.|.{..XVXZXZXBXXXP.I.q.q.) ) ) ' u u & y.y.| * q % 0 0 X F $.K N *.:.+X",
":.:.@.@.,.#.D $ * 6 6 2 3 q d d d 4 p./ ) a.k.V.V.(.^.!.s |.|..XVXBXVXVXmXT.W.U.) ) f d d f 8 i y.' v.* = 7 6 9 Z F I b N &.&.&.",
":.:.:.&.+.$.C   = * 6 * 3 i  .' u.' G.d.q.9.G.f.s.E.!.^.~.~..X.X.XBXBX.X.XmXE.E.s.p 4 d ' d d g.m.v.| q 2 2 * A F U b B N @.@.*.",
"sX0X%XO.N O.* D R * 7 * 3 8 7  .m.' i ' ) { p.].k.E.}.}.{.XXXX.XnX~. X~.z }.0.0.k.) f.d.p.e ' y.D.H.y.7 0 ~ } A F 9 : 3X7X5X<X5X",
"gX<XB L &.n , F q U A 7 7 3 ` y.d.u.u d u u F.[.vXf.}.}.}._.OX|.VXR.P.I.r.h.0.s a.q.p p d.F.p.d.m.D.y.X.~ ~ Z U 9 * Y %X6XsXsXgX",
"gX9X&.&.@.<., W U J q 6 ..n.H.b.u.' u ) ) vXMX].bXNX'.'.}..XmX.XnX~.P.w.e.z j a q.k.u p.A.G.m.y.) y. .} ~ ~ o.F * * E >.3X5XsXsX",
"iX0XiXO.L 3X* R 4.| S.S.} u._ ! i u.' m.) f z ) V.NXbX}.}.nX.XCXVXR.R.P.x t q.j h.l.k.k.N.j.d.y. . . .v._ } ..R * $ E >.+X5X7XyX",
"yX1X4XK <.7X* R 4.2.S.n...u._ 7 i 3 ^ N.3 4 a a j E.AX|./..XXXSXVXR.)._.v r a s E.^.k.j.j.a.d.y.b.u._  .! } } R Z O K 3X%X5XdXiX",
"yXiX&.%X:.<.U W 4.3.v...| | v.| u.d u ) 8 u p g a f [.nXnXBXmXnXCX_..X.X~.g e e f.[.A.a.) ) G.M.9.i d ^ 7 7 0 R U D $.:.*.eXeX0X",
"1X%XeX+.+.%X%.4.4.2.| d _ _ 8 _  .^ p.3 u p d a 8.g s '.{.nX.X.XBXOX.X`.P.s r I.k.k.f.' 9.N.m. .d ^ i q 7 % * 0 A D Y 1.*.,X9XpX",
"0X4X>.*.+XB %.S.%.H } d ~ 7 _ 8 ^ 8 / m.u u p e ) z j }.}.{./.).VXXX.X~.oXg (.(.k.s.{ / ' d y.d a d _ 0 7 2 7 0 9 * I @.&.1XaX0X",
"<X:.@X%X+.L * O Z q ..^ ^ v.d 4 ) d d m.p d Z.q.0.e.[ r E.{.{.{.OX.X.X{.c ~.'.L.E.I.j.a./ { 4 g ^ p _ 7 7 6 6 6 6 C V ,.>.4X5XsX",
"<X+X%XO.&.N F $ * A ..S.o.| i i ' ^ y.a.9.) k.) g a j '.^.!.~.{.|.|.).~.~. X/.!.E.B.B.j.N.j.9.3 p.'  .3 * 6 2 * * F M :.O.eXiX0X",
"+X$X$X@.N O.F C O 6 ^ H ..X.v. .^ ( ' d.d.e B.g f 1 e.a k.~.~.XX|.BX{.XX).'.^.I.k.F.a.q.d.j.' d.9.' ' 7 * 2 0 R F * K @.L eX$X0X",
"+X*.:.%X#.N Z F * * * 3 _ v.y.9.9.g g N.p.1 p.g a p.E.e 0.{.~.{..X|.XX|. X}.}.E.].) [ f m.) y.m.J.d d q 3 7 6 R R * M $.L %XwX&X",
"+X+X*.+.&.,.C , Z 0 * * _  .d 9.d.9.) a.d.9.u a a.E.^.E.E.~.P./..X.X`.OX|.}.'.bX[.vXu 4 ) e d.y.D.' u.3 7 A o.q A U M N *.$X*.wX",
":.,.&.,.4X@.@ F %.A A o.& 7 y.) u 9.9.g N.Z.vXf.k.q.0.j z !.(.R..XBXVX.X|.'.'.NXnXhXbXZ.N.) ' C.u.b.H.v.J q J R R 6 b ,.@.&.$X+X",
":.&.@X:.O.O.+ O @ F A 0 |  .q q 4 e d.d.K.g.) d g g f j U.E.(.E..X.XOX.X}..XAXI.e.r.( ) B.a.d.^ 8 _ u.| v.fXv.} 4.X Z -.+.+.=.$X",
"iXwXiXeXO.@.+ O O A 6 R | `  . .i.m.N.d.].m.r f f f g j z T.T.R..XVXVXXX.XmXB.h.g s d u 9.N.u ( ` ^ ^ u.' n.n.c.2.A + - m +X<X0X",
"0X0XiX<X&XiXO * % } F 2.M.v.` u.b.' 3 q.Z.d.a ) f p [ h.0.~.T.~..XBXBX|.{.nXf.0.t a f p 3 u d C.b.| q | u | n.} S.%.3.3X6XjXiX+X",
"iXyXeX%Xz.3X+ $ F F o.H.b.W  . .u.D.N.N.[.B.1 e 0.0.0.a 0.T.P.XX.XXX`.OX}.^.c g e p p p 3 C.u q 7 i q ^ ( ^ ..%.&X4.c.fXhX4X:.0X",
"yX9XpXiX>.3X* F Z Z F | 3 2 7 ^ v.g.a.J.L.J.a.a a a e h.r.U.P.~..X.X.X/.(.k U.z 0.h.f q.9.9./ i ^ 1 ' ^ ^ u 7 q U D Y x.6XpX0XqX",
"yX,XeXiX>.3X* F U 6 A _ % 3 7 d M.y.a.J.L.bXd.p s a f w.z U.T.~..XXXXXR.I.t e.z [ (.) ) F.9.) ^ ( 4 v.u.i | q q 9 O %.x.6XpXpXqX",
"yXeX<X8X4X%XC O O @ 2 A _ q 0 i ^ y.y.C.N.V.bXw.p g g e t I.(.~..XXX~.L.l.s.0.s ) k.w.p F.a./ ) ^  .` } 2.u.H 0 * F $.:.5XeXaXpX",
"yXpXrX<.%X-.O 6 O % 0 A q % q i i 8 ' C.i.F.V.mX].g u s I.~./.~.OX_.).(.r.w.0.e g a.j.) d.N.g g ' u.b.} 2.^ q % % F Y -.eX@X<XuX",
"yX<X@X@XwX<.* 9 6 * 0 2 % 7 3 u  .0 C.y.C.J.h.bXVXbX}.!.!.~.{.`.|.oXR.~.r.8.W.U.y g 1 d.d.y.8.a.d.9.g M.7 % % , Z F $.*.@XwXiX0X",
"qX=X$X,.,.<.C   C 0 % * u._ q q 3 G.Z.u y.p.F.Z.J.'.|.V.T.(./.~..X~.~.P.h.I./.k.k.g.g a.a.v 8.) d.9.' _ * q F U U F S @.,.:.$XpX",
"9X:.:.<.,.-.$ , U 6 6 * v.v.| 3 ' hXb.u ) f F.B.].}.nX/.T.~.{.)..XoXR.U.z e.z s.V.].Z.Z.a a 9.p ) g ' 7 ^ A A 3.%., V *.&.+X<XqX",
"0X4X:.&.L ;.O O * A A % * 7 q _ _  .C.q.g.f e V.].[.|.'.(.{./.XX.X(.(.E.a 0.j 0.g ) p.A.K.k.) 1 3 q d u._ A ..$ $ 9 b L &.*.+X<X",
"+XeX+X@.,.,.@ 6 6 0 } _   !  .X.y.' / ) d.f.Z.Q.].^.!.^.}.{.{..XmXR.oXT.t z g g f a h.V.^.9.f.N.m.u.u.` 2.q A 6 * O K &.:.:.+X0X",
"9X@X*.5X+.O., F , % } } 8 0 v.v.u.m.D.hXF.F.s.s.E.[.h.E.}.~.XX/..X~.oXI.r.e.0.l 8.a a.V.^.s d i.m.u. .S.S.o.H W * * - n N &.#XuX",
"$X9X&.*.,.,., F U 0 q ..A q i ^ ^ b.( u 3 q.g g g s.E.!.T.R.XX~.XXR.R.U.s 1 r.0.f & a.V.B.Z.D.m.y.u.` ` H.S.~ F 9 O - B n &.*.+X",
"+X&.*.*.B @.U F F F ~ .._ % 2 2 8 ^ u i d g g p V.k x P.r.P.{.~..XR.U.P.I.v e a s q.W.}.].K.d.y.u.i 7 % ^ _ A 0 F , b rX:.+.=.:.",
"+XpX@XN *.K 9 9 F R A 7 _ A 7 8 i 8 u d ' ) g 8.L.g r.'.e.s./.XX.XR.~.P.g r.[ z s V.MXK.V.Z.p.m.^ 8 q i q 7 * * F C 1.<X8XpX9X>.",
"xXrXO.:.@.x.O * 0 Z 6 2 } | 5 8 d q d e ' p 4 ) V.k.!.x s.e.~..XmXoXR.P.x 1 e s }.}.].a.k.B.d d ( i 7 * ! 7 * O   Z E @XpXpXxXsX",
"xX<XB &.L 5XO * 0 9 * * _ | , 8 ^ q d u 9.) u f [.V.x z P.e.)..XmX`.~.T.t.1 g V.NX[.[.B.a.Z.8 d i i 7 % ~ 0 2 O % , %.3X5XpXxXxX",
"zX$X<XB *.aX, 9 Z A F q ! ! _ & ^ 7 u u h MXZ.) V.V.E.e.!.}.{.BXSX`.XX).T.!.}.MXnXV.f.J.h N.( / 8 4 . d 7 0 6 6 9 D K ,X4XuXjXjX",
"sXpX4XL &.%XF % 9 0 0 3 3 | | ` 8 a 7 i ) a.MXF.w.bX[./.{.BXmXVXSXXX/.~.(.bX|. X[.V.Z.) u ) J.y.1 w X.d | % 6 F O C $.@X&XrXiXuX",
"lXaX*.@X+.4XF % $ Z * 2 2 ..u.y.7 3 ^ d ' ) ) ) { E.[.!..XCXZXBXSXXXXX/./.|.).'.[.z g g { p.hX9.' 3 ^ ^ 7 7 A 9 Z O * <.#XrXpXpX",
">XkXkX;.#XN %.U U * A A * 2 u.y.' * u d d d f g ) E.[.nXCX.XBXOX.X.X`..X}.|./.I.^.k.f u / { 9.' u. .^ % 2 A F * * 9 O &.,.0XpXuX",
"6.>X;X*X%XL Z Z A 6 7 % 2 O C.v.C.] . p 5 4 q.) g E.E.}.{..XVX.X|..X)..X|.!.!.MXE.].vXF.vXC.d.'  .] } q 7 } q * , 6 @ <.,.eXtXjX",
"7.>X4X&X&.O., F R A } ! _ ^ C.D.9.i.d.) d.d.d k.p [ 0.s./.E.T.].[.].(.!./.l.K.s.c d q.q.d.d.C.y. .' _ i | _ 3 0 F % 9 &X*.wXjXaX",
":X:X&X&.B O.* 9 2 F A ! | | b.u.y.u.C.D.d e ) d.3 ) ) p ( 9.w.K.J.Z.N.a.w.Z.8.p 8.f ) 8.e 4 d d ^ q ^ i | _ A F A * C O.&.wXeXcX",
":X:X,.@XN n * * % ..F ~ ` | y.y.' d.G.D.d.3 y.g.4 ) u 3 ' ' j.D.F.D.N.9.8.J.g 3 u.d ' ) d u d ^ 1 * 3 q _ ^ _ A W W 9 &.+.=XjXqX",
"5.:X=X%X:.%X@ % 9 R 2._ ..v.| _ u.y.b.i.b.u.i.b.% q | 4 p y.y.S.gXb.Q ` R G.( | i.^ ^ | q 8 0 q i 8 3 } ..q o.H F 9 9 B ,.wX9XrX",
"5.:X*.:.&X,.* Z U F A A _ _ A ..S.| } | | | b.%.A 6 6 A | n...n.H.%.Q F W H b.R Q 6 * A 7 0 6 F 2 2 0 } D 2 7 A 9 % O &X4X=X#X#X",
"5.:X+.:.B O.Z U W , * * 6 ; 9 C G 1.1.M C %.%.E E @ @ C 1.c.%.1.>.<.1.E T ; T P C R %.1.; ; , S 9 O F Z * ; 9 G 9 O , @.-.*.tX#X",
"1.*X:.&.O.%.M : : @ + + ; : : : ; V V K b V L P L K - + 1.;.@X+X$X@.:.:.#.&.=X@.: @.#XK - - ; : o b I Y b b b b : ; S : N &.*.-X",
"*X*.kX9X&.iX: : : + - + - : : ; ; n : b b n N L L O.m > +.&.+X#X-X#X-X-X#.@.-X-XL #X*.n > > > - - K K K + > : < > n n m b &.*.#X"
};
