/* XPM */
static char *result[] = {
/* columns rows colors chars-per-pixel */
"64 64 256 2 ",
"   c black",
".  c #000008",
"X  c #080008",
"o  c #080404",
"O  c #000010",
"+  c #080810",
"@  c #000018",
"#  c #050716",
"$  c #120812",
"%  c #131018",
"&  c #100808",
"*  c #000021",
"=  c #000821",
"-  c #000029",
";  c #000829",
":  c #080829",
">  c #080821",
",  c #081029",
"<  c #041021",
"1  c #101029",
"2  c #161425",
"3  c #000031",
"4  c #000831",
"5  c #000039",
"6  c #000839",
"7  c #080436",
"8  c #001031",
"9  c #081031",
"0  c #001039",
"q  c #081039",
"w  c #071837",
"e  c #101031",
"r  c #101831",
"t  c #101839",
"y  c #181839",
"u  c #141435",
"i  c #100435",
"p  c #211826",
"a  c #172238",
"s  c #002139",
"d  c #212139",
"f  c #262535",
"g  c #2F2731",
"h  c #000042",
"j  c #000842",
"k  c #00004A",
"l  c #00084A",
"z  c #080646",
"x  c #001042",
"c  c #001842",
"v  c #00104A",
"b  c #00184A",
"n  c #081247",
"m  c #141745",
"M  c #000852",
"N  c #00085A",
"B  c #040455",
"V  c #001052",
"C  c #001852",
"Z  c #00105A",
"A  c #00185A",
"S  c #081456",
"D  c #100842",
"F  c #182142",
"G  c #142348",
"H  c #00215A",
"J  c #052456",
"K  c #122652",
"L  c #08254C",
"P  c #212142",
"I  c #29294A",
"U  c #242845",
"Y  c #283249",
"T  c #31314A",
"R  c #353346",
"E  c #363653",
"W  c #2A2F4D",
"Q  c #010568",
"!  c #001063",
"~  c #081063",
"^  c #001863",
"/  c #00186B",
"(  c #051469",
")  c #010677",
"_  c #081873",
"`  c #00187B",
"'  c #08187B",
"]  c #031275",
"[  c #10106B",
"{  c #002163",
"}  c #00216B",
"|  c #042766",
" . c #11286A",
".. c #053468",
"X. c #123367",
"o. c #002173",
"O. c #00217B",
"+. c #00297B",
"@. c #08297B",
"#. c #062575",
"$. c #102879",
"%. c #00317B",
"&. c #053577",
"*. c #123679",
"=. c #241B55",
"-. c #423954",
";. c #423447",
":. c #2D425A",
">. c #144378",
",. c #10476E",
"<. c #294F6E",
"1. c #296373",
"2. c #464458",
"3. c #524C58",
"4. c #585566",
"5. c #4D4964",
"6. c #635A69",
"7. c #6B6B71",
"8. c #000786",
"9. c #001884",
"0. c #08188C",
"q. c #061487",
"w. c #051698",
"e. c #0D128C",
"r. c #002184",
"t. c #082184",
"y. c #082984",
"u. c #00218C",
"i. c #08298C",
"p. c #032689",
"a. c #122589",
"s. c #003184",
"d. c #003984",
"f. c #08318C",
"g. c #08398C",
"h. c #043588",
"j. c #133688",
"k. c #08219C",
"l. c #00299C",
"z. c #08299C",
"x. c #042496",
"c. c #10289A",
"v. c #003194",
"b. c #08319C",
"n. c #00399C",
"m. c #08399C",
"M. c #043596",
"N. c #133598",
"B. c #0614A5",
"V. c #0527A8",
"C. c #0839A5",
"Z. c #0039AD",
"A. c #0434A9",
"S. c #1537A9",
"D. c #0839B5",
"F. c #0334B7",
"G. c #1236B8",
"H. c #1025A5",
"J. c #233199",
"K. c #04448B",
"L. c #124588",
"P. c #084294",
"I. c #034799",
"U. c #134796",
"Y. c #055398",
"T. c #125599",
"R. c #0F5589",
"E. c #244E99",
"W. c #15649C",
"Q. c #08639C",
"!. c #0042A5",
"~. c #0842A5",
"^. c #004AA5",
"/. c #084AA5",
"(. c #0042AD",
"). c #0842AD",
"_. c #004AAD",
"`. c #084AAD",
"'. c #1646AA",
"]. c #0556AA",
"[. c #1255AA",
"{. c #0842B5",
"}. c #004AB5",
"|. c #084AB5",
" X c #004ABD",
".X c #084ABD",
"XX c #0242BA",
"oX c #1448B7",
"OX c #0052B5",
"+X c #0852B5",
"@X c #0052BD",
"#X c #005ABD",
"$X c #0758B8",
"%X c #1357B8",
"&X c #2145AB",
"*X c #2352AB",
"=X c #2356B9",
"-X c #2D51B8",
";X c #0464AA",
":X c #1667A9",
">X c #1675AA",
",X c #086BBD",
"<X c #0366B8",
"1X c #1063BD",
"2X c #1469BA",
"3X c #0873BD",
"4X c #0677BA",
"5X c #1475BA",
"6X c #2464AC",
"7X c #2276AC",
"8X c #2566B9",
"9X c #3365BA",
"0X c #3678BB",
"qX c #3072AE",
"wX c #2D6794",
"eX c #4678BA",
"rX c #4771B8",
"tX c #655DA5",
"yX c #0448C8",
"uX c #0555C9",
"iX c #0F4DCB",
"pX c #086BC6",
"aX c #0368C8",
"sX c #1566C8",
"dX c #0577C8",
"fX c #1577C9",
"gX c #0579D7",
"hX c #0D6ED6",
"jX c #2772CA",
"kX c #215AC6",
"lX c #4576C9",
"zX c #1031CE",
"xX c #BA6BAD",
"cX c #0889BA",
"vX c #1289BB",
"bX c #0884AD",
"nX c #2C8CBB",
"mX c #4E8EB7",
"MX c #0685C8",
"NX c #1487CA",
"BX c #0588DA",
"VX c #0E91D9",
"CX c #2488CA",
"ZX c #2A93D0",
"AX c #29ABD1",
"SX c #0891E8",
"DX c #1999EB",
"FX c #4C92CD",
"GX c #55B5D3",
"HX c #70AED2",
"JX c #559AE7",
"KX c #15DBFF",
"LX c #4ACEE7",
"PX c #52D1E1",
"IX c #949DE3",
"UX c #94C9E1",
/* pixels */
"O.b H @ W.2XsXt :.9X:.G q | :X*.*.J.L.I.I.| Y.K.;XQ.NX;X].bXcXcX3XpXpX`.~.i.m.| @./ v o.sXD.C.i.M.! A S I.].8 4 4 * * { H ,XgXdX",
"C ^ x O fX,X[.y Y lXE.>.X...;X*.j.U.L.g.%.g.Y.R.>XvXcX:X4XvXbXcX[.f.~.I.`.|.f.f.b.J ^ A oX).Z.n.j.' v M.{ c 0 C 4 * @ H { %.^.$X",
"s.o.6 O # 1XK w Y jX*.*X[...T.*.L.E.U.#.^ I.Y.T.R.Y.,XdX<X4XcX/.Y./.~.f.g.h.a..X@.y.@.x.^ |.).b.f.Z - _.@ @ x M.* * @ C <XA J J ",
"/ C 0 O . #.K m a [.j.X.X.| Y.X.j.j.T.y.h.P.Q.T.= J &.h.h.m.[.,XP.~.D./.iX#.@.#.y.! s.M._ D.C.b.` ~ +.V ... x C - * @ R.cX4XJ c ",
"@ l 4 O O N.G t a >.*XX.j...K.X.a.U.*.#.%.I.5X9 &.d.d.<X/.<X,X$X`.+X+X~.m.y.f.b.@.A z.} t.{.).m.` ] V A | O b 6 - * @ vXvX4X| c ",
"I.6 0.@ @ dXb m a *.L.X.K ,.K.X.j.U.j.$.d.I.H L %.].d.].[.,X3X3X].).~..X$Xy.P..X@.^ C.9.i.).).m.r.M Z @ v O J v - 3 ..{ I.VXK.c ",
"s.x.%XK @ BXK.m a >.>.X.X...Y.X.j.j.N.h.s.Y.{ | H &.I.I.;X4XdX4X[.<X|.+.C.D.).A.#.` b.b.{./ ~.P.t.V V 8 - O C v 6 5 6 } | dX>X..",
"M.} %X6 @ H S m K j.R.L.X...]...j.*XN.Y.&.{ { &.d.&.^.4X3X4X4X4XpX+X~.g.).m.{.|.uXiXD.i.i.D.m.b.y.~ 3 j * O b { 6 3 j { %.s.Q.cX",
"~.} oXS.@ x n m L.m.L.U.....oX&.j.=X=Xg.K...b ..K.K.I.4X<X3X4X4XdX3X|.y.+.yXC.+X|.C.m.C.{.C./.b.i.( x 5  .@ c 6 j | 4 o.h.d.&.!.",
"n.oXN.( @ j S #.9 S.R.L.....=X..$.-X'.P.@.s.0 ..Y.d.4X<X<X3XMXMX,X$XpX_.o.^ m.|.~.).).z.{.M.f.m.i.S j ^ E.@ w 6  ...; j.I.Y.H 0 ",
"(.b.j.D.@ A A N.A F.L.K.....oX.. .kXS.P.| %.| | %.M.;X;X<XMXMXNXMXOXv.A } v.v } / r.i.~.{.~.b.P.i.N l %XC @ 0 x +.b 5X:Xs.[.C 0 ",
")./ z.z.# S.J &Xy.A.T.T.J N.=Xg.$.%XU.R.#.b @.&.Y.^.;X<XcXMX3X,X+X`.`.m.v.v.s.p.r.x.v .X+X`.C.P.#.( ~ d.j @ c x A C nXZX5XK.v c ",
"Z.b D.S.S.A.A oXS c.*.[.K %X,X&.$.%XU.g.{ %.oX;XI.;X<XI.h.(.^.!.!.}.A.(.|.A.` {.b.u.O.{.).|.A.i.f.( &.v 4 @ b v V &.5 T.>X>X| J ",
"z.+.D.z.j.D.{ %X'.N.jX2X .=X$XN.*.C.K.( &.'.I.K.%.H %.!.<X}.@X(._..XC.A.n.s.C.yXn./ ' b.$XC.~.i.i._ Z ; 4 = b C v @.j SXd.>XvX&.",
"n.Y.i.^ S.S.S.'.'.%X2XE.j.fX<XS.'.g.L.| b M.{ C ^ A h.n.^.OX<X#X#XC.C. X}.A.A.XXz.A._ t.uX`.I.i.y._ Z 0 K.; C A l | pXI.%.&.:XnX",
"v.g.C C S._ oX%X2X%X*.%XjX[.[.'.oXL.j.&.+XY.H +.y.h.I.!.<X<X<X#XuX XuXA.F.F.yXD.F.z.t.D.|.`.U.f.( ( Z v } b J x l 6 jXd.} | 8XG.",
"aX[.A A G.A ~.%X.XoXK.'.2XL 4XD.N.L.*.@.| C ~.@.!.I.!.}.#X#XuX<X<X XuX@XXXuXiXD.A.z.z.i.^ ]./.h._ _ A g.hX4 { %.j l pX<Xh.+.} &.",
"OX|.$XD.c o.v..XsXiX/.&XP.g.uXV.S.>.&.|...} %Xv.+XOXOX<X@X#XOX<XOXuXuX(.uXyXyX{.{.iXV.D.i.%X/.g._ _ @.BXV 0 4X/ K.l } $X+X+.O.qX",
"M.d._..Xf..X_.1XsX`.%X%X&.H iXd.pX&.y.#.&.f.+.h.OXY.}.n.!.#X;X<XuXF.uXl.p./ O.XXiX{.S.z.S.y.I.m._ 6 ( gXaX{ BXZ BXaXI.%XaXI.O.;X",
"A.%Xh.1XhX.X1X1XfXn.%XsXsXuXsX&.&.sX@XjXT.f.P.uX+X|.@Xv.n.A. XZ._.F.Z.l.v.V.x.` u.~ A a.S.z./.gX$X#.v.$XuXaXyXXXOXuXI.JX<XBX$XKX",
"|.).%XNXpXh.pX2XsX1X5XsX2X|.fX| #.%X*.NXU.N.g.@./ p.(.Z.Z.@X X XXXF.u.Z V.v.9.k.r.' S Z j t.].].@XI.2XZ.yXF.Z.A.F.yXC dXaXgX`.MX",
"+X`.$XfXNX( fXOXfXNXkX1X,XU.fX_ _ T.&.[.N.S 6 i.r.l.Z.(.@X@XyX XyXyXZ.r.l.u.` ( V.t._ ~ B S |.1Xv.I.n.F.l.V.8.B._.8.yX].^.,XaXY.",
"%X].+XdXfX/ $XlXNXfX!.1Xy.P.NX~ %Xd.@.N.0 _ t.z.D.C..X$X@X@XyX XuXV.yXl.V.l./ 9.( 9.t._ N B ,X3X+.XXb.0.A.) %.V.|.k.V.^._.#X^.PX",
"_.pXsX^.1X].o.3X5XfXgX1XI.I.CXi.].*.<Xn S ~ _ i.{.{..XyX X#XhXuXyXyX9.x.V.u.` x.k.[ V.V ~ : 2XW.`.A.p.` Z N o.z.V.D.l.!.}.Y.PXK.",
"sX_.$X/ /.NXr.+X,XfX2XpX2XSXjX,X..K.5X( t.' t.z.D.D..X|.(.uXuXaXXXx.A.9.! V.k.9.H.w.0.S _ B U.1XP.) w.N.c.9.s.f.e.8.w._.}.NX(.tX",
"aX+XA.^.s.5Xo.f.^._.2X[.5X$X4X3X&.[.T.~ x.' H.V.D.D.D.yXyXuXiXF.F.yX9.! ` ` q.D.w.V.q.q.0.[ ~ Z.n.0Xt.` M / / * ) 8.0.l.yX(.gXtX",
"aXuX|.1Xy.1X;XM.].[.sXfXfX2X,XsXs.~.S x.$.w.H.V.D.{.iXiXXXF.l.5 ) _ k.k.! 0.` V.F.V.H._ ~ [ q._.A.+.b.! ! V 3 @ ) Q Q w.Z.A.uXBX",
"5XP.].P.g.$X>XNX`.2X$X[.NX^.SX>Xs.$.0.' ' B.D.F.F.G.G.V.V.B h h / k 7 z ( M 9.[ k.V.k.w.w.e.w.p.N.h.y.k M u.l k h 5 h w.n.) J.LX",
"_.].i.2XO.o.P.5X>X:X>X%X'.%XSX;Xf.z 0.a.H.c.F.G.G.k.q.N / Z | M / z S M B B ^ N N H.w.0.e.H.' e.t.S.] k v Z 9.] < s q.x.u.) w.ZX",
"<X{.Y.<X/.o.} >X;X].T.:XrX2X:XT.b.' c.0.H.V.G.w.] M k k A M b E n :.E m j l v k M Q B B.q.w.H.q.0.X. .^ +.} +.` +.3 @.` 9.l.8.A.",
"gXl.s.[.%X[.I.T.bXK.8X2X2X:X[.L.0.0.e.B.w.^ k S m D m m 3 W 2.7.2.n 6 ; ; P 8 0 m E S h N N q.e.N.a.Q e.N Z 6 ) / l ' [ -XQ q.yX",
"aXC.K.:X~.'.<XW.7X:X6X2XjX2X%XT.] B.w.e.k } k m 5.D E -.u 5.E tX4.n 0 ; ; y ; w E m D k k k N e.'.a.y.) ) l 5 Q C 6 ' G.kXFXk.|.",
"%X6XL.1XT.%X%X8XP.>X>X>XJXZX6Xf.B 7 i j 6 q 4 w W P -.5.x 5.P 6.Y Y ; F F r y 2.K T -.t k V l j - 1.*.` a.k A h.l - S ` t.'.fXJX",
"qX2XU.T.[.:X*Xc.^.9X:XW.KXT.qX0.M 7 v m - d ; t -.E P I 0 G 4.2.E E ; y 5.t W 3.E -.2.6.- x J | 3 N [.8.q.~ M ] Q Q S w.$.FXCXhX",
"wXE.M.).'.oXE.*XN.fXW.W.jXqXE./ | n E @ * T r r 5.E W % . e p 5.4.P @ 8 E a E 5.U U 7.4 t E L 6 j N ,Xt._ J wXQ N N ~ c.' uX7XXX",
"mXmXqX6X[.*XS.N.z.jXeX8X8X0XN.5 A t 2.4 ; e T I 3.u T $ X 2.. 2 . f   . f # 2 f 1 4.T q I 3.T 2.S A Z L.L.Q $.<. .#.9XN 8.8.aXb.",
"HXGXrXHXqXS.-XfX=Xa.rXrXeXeXk h J 8 6.9 ; 2.-.2 p 2.1 X ;.X       O + X .   2 2 R g # = Y -.3.w K q 5 P.C.G.b.:.a.9XjXN.a.$.'.{.",
"I.rXHXUXmXFX=XL.*X-XJ.lXrXrX5 S 2.r 7.y y r R $ % X g g               + . 2 . % g   o O y I R T Y 6 7 M Y.L.{.pXe.) -Xa. .[.F.F.",
"tXR.wXUXrX$.E.9Xx.[.'.J.S.k l b :.a 4.r I @ O . g   .                   . .   X & X p ;.;.3.3.y f K n 7 gXP.[.fXc.' a.U.uX=X9XiX",
"xXxXwXwXS.&X&XwX8X2XfX2XrXZ h v E E 3.d f O . O +                               % o   f o E f 9 4 = n 7 o.v./.M.S.c.[ -XaXuXuX) ",
"IXIXHXlXS.HXrXmXqXL 0 ,.j h z W E 6.R 2.. 2 + .   .                                     p 2., d ; = # m 5 m.ZXDX6X0X/.U.'.yXzX) ",
"IXHX2XUXFXmXFXHXrXR.,.R.h h 6 2.a 4.E 6.X                                               p 3.d > ; ; * 6 k y.>.>.L.1.oXS.J.F.8.y.",
"j.7X7X0X6XqXeXnX>X'.U.k D 7 , T ;.3.R -.                                                $ O f 1 , = * * - N :X>XR.W.dX4XN.yXB.F.",
"FXHXfXT.T.T.;XC.qXZX6 5 =.T ; t U R % p                                                   g . , d R f y 4 l I.nX>X7XY.].}.uXG.zX",
"FX6XCXU.U.:X:X>X7XP.n 7 I 4.t = X X +                                                     + . # d R 1 @ * 4 j NXY.VXMXdXgXB.B.w.",
"| U.AXK.:X..;XqXnXh m t I I T . + 2                                                           f u f , d , 4 v R.Y.ZXgXAXgXyXV.(.",
"R.h.GXI.U.I.2XnXL.v I y y e 2.. %                                                           + . . a d , r t i 5 NXCXvX4XMXY.].uX",
"T.+.LXM.v.j.nXZX5 4 t U P e E   p                                                             .   X R T T a I 5 [.iXd.MX].].uX#X",
"/.6XPX2Xg.I.ZX@.- 4 9 T I r r $ g                                                             + % % I R d r 9 i k dXcXSXMXaXpX@X",
"Y.[.ZX2X:X>X8Xl 8 = t 9 E a . 2 .                                                                 r d , y I y 7 5 z 4XSXMXBXDXBX",
"..,X$X5X$XCXV 3 4 * y , I y X .                                                                   # # 1 , y T u 5 h I.gXBXVXAXAX",
":X2XsX%XT.nX5 4 = : P e + .                                                                       2 2 I T I 2.y 7 5 A uXgXSXdXSX",
"dX4X+Xl jX6 6 * > , I E @   .                                                                     % X   # : r P 5 5 5 <XVXNXVXDX",
"(.aXXX` ZX6 n @ * t I I .   +                                                                     + $ . . ; ; ; * j Z K.].I.uX&.",
"5XuXm.].- j m * * t m , 1 . . .                                                                       $   @ : e 3 6 5 z ZXI.>XAX",
"}.O.lX6 3 v , - * e ; . . .                                                                           . d > F P y 6 b 5 z <XaXDX",
"NXfX-XV n t ; ; = @ . 1 .                                                                                 a P e a F 6 v 3 NXfXZX",
"ZXBXk v l q 9 9 9 e O   .                                                                                 + U 9 I t 9 j 3 6 ].}.",
"GXW.5 v t 6 9 : F e # #                                                                                 . r y I W K P : 3 3 PXJX",
"sX- 5 q 9 9 a y t r                                                                                       t y 1 t u : F v 5 j.dX",
"B - j P F t m y a y +                                                                                     X P t F I ; = q v l ZX",
"5 z 6 q t 9 , m # .                                                                                         + , : 9 m q ; j - jX",
"l 6 6 t F G : t #       . O O O * * * - * * * * O * = * O @ @ O @ @ @ O = = * @ * * - * * * * @ O O . .       < : = t t m 6 DXJX",
"l 3 3 C C J X.5 j v v 6 * ; x v b 4 - 4 4 ; ; ; ; ; ; * @ = * @ * = = * * ; ; ; 4 ; ; 0 4 4 0 b 6 x 4 * j v 6 5 J X.J H 6 M rXnX"
};
