/* XPM */
static char *result[] = {
/* columns rows colors chars-per-pixel */
"64 64 256 2 ",
"   c #000829",
".  c #000324",
"X  c #001023",
"o  c #000831",
"O  c #000839",
"+  c #010136",
"@  c #001039",
"#  c #021435",
"$  c #566F29",
"%  c #000842",
"&  c #00084A",
"*  c #020246",
"=  c #001042",
"-  c #001842",
";  c #00104A",
":  c #00184A",
">  c #08184A",
",  c #081346",
"<  c #000756",
"1  c #001052",
"2  c #081052",
"3  c #001852",
"4  c #00105A",
"5  c #08105A",
"6  c #00185A",
"7  c #08185A",
"8  c #081852",
"9  c #10184E",
"0  c #00214A",
"q  c #02294A",
"w  c #002152",
"e  c #00215A",
"r  c #08215A",
"t  c #00295A",
"y  c #062754",
"u  c #132657",
"i  c #063357",
"p  c #122C4D",
"a  c #001063",
"s  c #081063",
"d  c #001863",
"f  c #00186B",
"g  c #08186B",
"h  c #061467",
"j  c #001873",
"k  c #081873",
"l  c #06177A",
"z  c #000863",
"x  c #002163",
"c  c #082163",
"v  c #002963",
"b  c #082963",
"n  c #00216B",
"m  c #08216B",
"M  c #00296B",
"N  c #08296B",
"B  c #112664",
"V  c #083163",
"C  c #00316B",
"Z  c #08316B",
"A  c #053767",
"S  c #133368",
"D  c #002173",
"F  c #082173",
"G  c #002973",
"H  c #082973",
"J  c #00217B",
"K  c #08217B",
"L  c #00297B",
"P  c #08297B",
"I  c #003173",
"U  c #083173",
"Y  c #083973",
"T  c #00317B",
"R  c #08317B",
"E  c #00397B",
"W  c #08397B",
"Q  c #003973",
"!  c #143576",
"~  c #102973",
"^  c #253869",
"/  c #223877",
"(  c #293152",
")  c #10456A",
"_  c #08427B",
"`  c #074779",
"'  c #134777",
"]  c #0D4A70",
"[  c #334669",
"{  c #334774",
"}  c #375279",
"|  c #264972",
" . c #10777B",
".. c #425779",
"X. c #46426F",
"o. c #427773",
"O. c #6F8829",
"+. c #081885",
"@. c #082184",
"#. c #002984",
"$. c #082984",
"%. c #08218C",
"&. c #00298C",
"*. c #08298C",
"=. c #002184",
"-. c #003184",
";. c #083184",
":. c #003984",
">. c #083984",
",. c #00318C",
"<. c #08318C",
"1. c #00398C",
"2. c #08398C",
"3. c #123686",
"4. c #082994",
"5. c #08299C",
"6. c #082197",
"7. c #083194",
"8. c #083994",
"9. c #08319C",
"0. c #08399C",
"q. c #003597",
"w. c #133497",
"e. c #15288B",
"r. c #28368F",
"t. c #0831A5",
"y. c #0839A5",
"u. c #0639AB",
"i. c #1039A5",
"p. c #1237AA",
"a. c #0829A5",
"s. c #084284",
"d. c #00428C",
"f. c #08428C",
"g. c #084A8C",
"h. c #044785",
"j. c #104284",
"k. c #10428C",
"l. c #104A8C",
"z. c #164886",
"x. c #13568A",
"c. c #004294",
"v. c #084294",
"b. c #004A94",
"n. c #084A94",
"m. c #08429C",
"M. c #084A9C",
"N. c #00469C",
"B. c #104A94",
"V. c #104A9C",
"C. c #134598",
"Z. c #08529C",
"A. c #045498",
"S. c #105294",
"D. c #10529C",
"F. c #105A9C",
"G. c #175798",
"H. c #055287",
"J. c #23538B",
"K. c #255698",
"L. c #2B498E",
"P. c #15649A",
"I. c #116B90",
"U. c #236798",
"Y. c #287092",
"T. c #0842A5",
"R. c #084AA5",
"E. c #0842AD",
"W. c #084AAD",
"Q. c #0047A6",
"!. c #104AA5",
"~. c #1042AD",
"^. c #104AAD",
"/. c #1543A9",
"(. c #0852A5",
"). c #005AA5",
"_. c #0852AD",
"`. c #0457A7",
"'. c #1052A5",
"]. c #105AA5",
"[. c #185AA5",
"{. c #1052AD",
"}. c #105AAD",
"|. c #1854A8",
" X c #0549B6",
".X c #104AB5",
"XX c #1146B9",
"oX c #0458B6",
"OX c #1052B5",
"+X c #105AB5",
"@X c #1052BD",
"#X c #1459BC",
"$X c #2451AB",
"%X c #0264AC",
"&X c #1063A5",
"*X c #1063AD",
"=X c #1767A9",
"-X c #0367B8",
";X c #1063B5",
":X c #1468B9",
">X c #0474BC",
",X c #1673BA",
"<X c #1476A9",
"1X c #2369A8",
"2X c #2676AA",
"3X c #2269B8",
"4X c #2477BA",
"5X c #3779B5",
"6X c #4D568A",
"7X c #4A6A8F",
"8X c #6F7097",
"9X c #5069B2",
"0X c #6B6BAA",
"qX c #665A97",
"wX c #0A58CA",
"eX c #2A52C9",
"rX c #1368C7",
"tX c #0378CA",
"yX c #1575CA",
"uX c #1070D5",
"iX c #2278C9",
"pX c #2772D4",
"aX c #1D77E7",
"sX c #7578D3",
"dX c #5265D7",
"fX c #947894",
"gX c #9C7BAD",
"hX c #1289BB",
"jX c #2686BA",
"kX c #308BB4",
"lX c #2199A1",
"zX c #518A9F",
"xX c #1487D9",
"cX c #0A8CD1",
"vX c #2688CB",
"bX c #3189C9",
"nX c #3497C8",
"mX c #278ADA",
"MX c #2594D9",
"NX c #3191D6",
"BX c #34A8DB",
"VX c #0098ED",
"CX c #0A93EE",
"ZX c #2894EA",
"AX c #10AAF4",
"SX c #34AFF2",
"DX c #4690D4",
"FX c #44ABD3",
"GX c #5191EC",
"HX c #50B8EC",
"JX c #6F9FDD",
"KX c #5CCEED",
"LX c #A597B0",
"PX c #ABAFB7",
"IX c #968E9E",
"UX c #9BA1CE",
/* pixels */
"9.eX/.p.tX-X).b.I b r.[ 6X..} [ zX6Xr.qX8 & ; 7 ;.=X1.3.J.L.^ [ , r : : : 0 -X0.$.F @.1 % + + / oXT n ; # % @ .   = g %.XXE.#XOX",
"@.g K p.tX%X).b.C r ! ^ 7X....{ 7X{ r...& , ; u M.'.k.! 3.{ ( { x : M W g.I c.Q.$.1 K g 4 O + d.).+ Z.@ ; 1 @   # ; h +.t..XOX;X",
"t.@., e.>X%X).:.T r S ^ ..} { J.6X6X! 6X# ; x f OXn.;.R 3.{ ^ ^ N ! 3 ; V.Z. Xq.@.@.*.g 1 + & d.C + b.= 1 J @   : ; 6.@.@X@X#X;X",
".Xw.*.2 E >XA.T v x u ^ ..7XX.$X} ..B ~ 2 4 Z G.,.G ! R u ^ ^ ' c > s.].s.H oXW.$.0.*.K m + f M + o O j 1 1 : X q % %.5.@X0.:X;X",
"OX~.4.O H %X).G G v u / { } [ K...6XS c c c c 1X-.I :.G 3./ r.B.3.y 1 Q '.R -X`.m.2.$.e.8 % f + E . D J 1 6 = X > * 6.w.u. X:XT.",
":XXXK k g %X).G M K B ! | } J.J.^ } g d m T z.5X7.:.(.f 7 / z.b |.W f.f.v : oX_.8.f ; %   & 6 & M X :.d d 1 @ # t 2 w.$X@X@XR.R.",
".Xp.p.O +.-Xb.T x G b S ^ ..K./ u } S r c R B.G.-.-.w.O y ! 3.Z u f.=X}.v.n -X`.*.K g 1 & % & T o X = O =.1 @ O I 1 p.w.4.9.OXm.",
"rXXXt.h 5 ).d.:.G n B S p [ U.^ B { B 7 N x 1XN x -.z.D 4 V.B.v.V.E x x x P (.q.F K 5 ; 1 & 1 w % X `.0.&.1 = @ v 6 w.o y.9.9.W.",
"wX.Xu.g s A.d.:.1.M Q U u [ 1X^ B ^ ^ 2 f.A G.x c.1.H & x c u H G.xXrX<.<.P W.y.D g F 4 d % f = % X ).8.#.6 1 = v 6 O l p.~.:X~.",
"+X.XwXK %.b.h.b.T d E u p ^ 4X{ B / B 8 s._ z.T M.M.3 L G N R U 3.ZX#.{.;.$.oXE.F $.F 1 ; 4 ; 6 & X oX>XL n 1 ; M d 5 K ~.OX}.E.",
"3XOXXXa.5.).E b.T n G p p / 1XJ.r S S : b N H :.oXG.d x 6 2.j.R H s :.-.c ; -X+X$.@.*.F 6 d = d = ; oX,.#.D = 3 G f g t.y.@X;X+X",
":X#X.X7.%.-XE b.L G v , 9 J.<XS.B B B , 4 U x oXJ.& D ;.x H U =XS.yXyXyXm.<.tXoX$.7 @.F f 6 e : & oXcXAXq.L # 6 M f K *..X+X+X;X",
"i.#XXX5.t.-X:.b.L T e > S 6XvXZ.6 B u 9 e :.d -XV.d d G d V.V.b }.F.F.rXG 2.:X-XK 4 a = O > d , f cXd VX-XL : 6 n a @.5.@X:X-X:X",
"T.8..Xy.9.%Xd.A.:.E x > / 8XMXS.c B S y h.G :.,X}.% 3 n x 2.R 2.6 x M C :.G  Xq.$.K k 4 4 , > 4 -Xc., T -X#.4 d x d %.u.@X:XrX+X",
"W.@.$.E.5.tX%X).d.W Y b 6XzXBXG.W H u r W ,.d.[.B.6 6 L ;.>.M D.D.:XoXyX2.G  XQ.P K K = 4 # p ! R.x 2 P b.&.e d f s $.@XOX;X;XE.",
".XXX*.K =.CXtX%X`.' L.S 6X8X=X_ z.v u b C _.`.Z H 6 n M x ; Y *XiXZXaX(.rXT.Q.Q.<.d k 4 d , d K.,.&.G eXx 8.f f f g 4.E.@XrX:X2.",
"OXOX9.2 s -XtX-X-Xr.qXr.L.fXV./ J.N 9 e M `.Z.= 3 2.x n I 6 M x iXyX>.A T T 6 OX7.K j d 4 8 -.,.; D #.sXF 0.f f D k t.@X#X3X,X#X",
"+XT.4.s 5 2.-X>X3XqX8X6XqX9Xk.r.K.! ! y -.v.R 6 6 x M : 3 W Z = n x :.d 6 x = 0.0.J f f 7 K.q.6 6 f 6.dX$.0.f f D 6.5..X3XrX:X^.",
"+XOXt.5.5 K -XcX9XfXIX7XeX#X>.| [.x.P | ].D.3 T x M C f.W l.>.:X<X[.iX=X^.f.m.#.&.L g 2 X.fX<XM 4 a r.dXD J f f D *.XX.X~.E.0.P ",
"*XOXy.K @.l tXyX0XfXIX8XrX-Xj.J.9XH.zXY }.>.U n n w n W M t *XiXyXiXyX+X;.G 2.L L O &   { IX4XT x 4 r.eX&.&.f f D y.p.9.E.y.W.7.",
"+XOXwXw.K s VXiXsXgXLX9X#X:Xh.J.g.L.zXv.*Xw 6 ; 6 x 2.G B.I : n.yXY v I 3 G G -.x 1 & % L.JX1XG x 6 D P J &.f j D 9.K 9.9.E.8.9.",
";XOX0.p.5.5.CXDXgXPXIXdXOXMXZ.K.W z.lX=X_.: = x 3 n I f.I v.C Z >.M.g.'.G n.v.8.;.; ; . 9X#X}.L f 6 D P f q.j J f 5 k 9.E.y.^.7.",
"+X^.^.XXt.6.CXdXIXPX8XsXZXyXA.F.H o.$X1XI 6 4 8.>.>.s.s.C >.[.rX&X*X:XrXx G n.2.d 4 4 . HXaXQ.G n 6 D n 4 q.D L f 5 4.9.OX{.m.m.",
"*XOXW.!.0.%.VXsXLXPX9XiXSXcX>XS.Y.>.pX3.w D 6 v e : ; v g.n.:XP.SXMXpX:XrXM.T n 8.8.=.4 CXKX1.R n n f f , l J D j 2 *.y.{.OXf.R.",
"}.}.m.XXp.w.uXIXPXPXkXZXAXuX>X&XlX;X|.7XL P 3 M M 4 3 = 0 : @ x.mXf.#.].M.-.e 3 % o 1 4 k.xXv.3.n m x J , f #.D s g t./.+X}.w.R.",
"*X*XT.XX$Xr.wXLXUXPX4XtXwXMXZ.:.N.BXu Y.- DXM Z W >.W s.v M Y 6 : - e I Z.s.v = ;.L d 1 j ZXb.l.P x d J f 6 J J s K 4.!.*X+X#X{.",
"3.*X{.t.s e./.GXUXUXGXcXtXrX<XF.cX2.sXF ! zX2.j.n.[.[.D.*X}.}.>.Z.E &X=X}.OXf.M x n L 6 f '.=X5X>.m x n =.x f L 6.%.t..X{.].!.&X",
"T.0.5.9.g + 2 HXUXsXyXZXuXtXcXkXeXu 8 w.: A.e : v S.3XF.g.S G.,X=XZX4X3X|.'.>.;.x 1 6 J % j >XiXz.r 6 D v.f m -.%.5.E.W.{.*X;X*X",
"v.E.^.i.*.5 * GXPXdXvXMX4XyXuX,XeXC.eXr.d z.f.W G - O n.iXiXmXMXiX=X=XR.I I >.v.m.G D d f 4 #.DXJ.N u d.d.-.;.d.%.5.W..X+X*XR.}.",
"8.^.~.T.9.@.k GXUXdXNXQ.yXyXm.xXpXaX: : U R T >.Y t >.> # t ].mXx.Y f.@ x n M 8.<.6 6 &.D % % n.1Xr 8 ).b.B.l.2.i.i.t.OX}.}.`.}.",
"!._.OXt.4.@.s ZXsXpXyX-Xs.uXx.hXaX+Xn n n M 2.W R +XM >.A.1 W 1 U U g.Z.G M.V.M.2.P 7.D d < < s.*Xu u d.j.x.1XC.w.$X9.T.&X+X}.;X",
"^.+X_.^.i.k h GXGXrX+XoXd.W.>X: MXd S.A.I.N R A d }.=Xg.;X*XA.Q MXxX=X>.M.>.T f.2.R 1 6 4 & % 7 ,XD n N.3 U.[./.e.*.W.{.*X_.8.2.",
"^.{.}..Xi.@.g GX9X:X'.;X;.W.uX, MX,XjX<XI.V.B.[.].=X,XS.,X,XvXmXiXS.yXQ I W D.s.M U x L f ; 4 O {.1.s.G g U.4X_.o 7 K }.2.;.2.r ",
"+X&X*X Xy.8.f pXyX:XC.h.M t & rXmX3 y Y 8.b : 3 O w G.mX:X2X3XjXvXbXf.S.[.G.2.M d x R G d 1 4 1 f L W ).1XmXmXJXg K t.9.8.m.H 2.",
"*X=XrXW.T.%.k pXoXOX>.T e : , wXpXeXz.G %XG.; i t O : F.3Xf.] jXNXP.n.T f.W U e e : O   1 1 1 4 4 x I x.=X4XUXKXl 4.9.{.^.7.C.2.",
"*X*X:X_.W.9.@.#X-X2.h.:.w n uXpXiXY.>.U.V.H _ v M v m P d 1 6 ; w = i h.v S.S._ Z : ;.P P d ; 4 a < b.Y _.U.HXHXK 4.T._.T.T.T m ",
"8.1X:X.XE.5.4.}.xXv.b.h.: u.I.=XzXo.O.7XDXyXC 3 % t O O 4 y Q ,XA.,Xh.F.e - S b y e f.M n G 6 D d % & 8.:.>.K.[.k 9.W.+XT.0.P c ",
">.,X3X3X.Xi.y.rXrXm.:.3 : uX . .$ O.7X7X[ M 2.>.M.f.[._ ` >.n.g.=XP.Q f.1XG.}.B.G.l.w 6 M 3 6 6 f 1 & >XoXg.M 3.@.9.{.}.'.0.!.b ",
"{.;X^.^..XT.t.E.,Xh.b : -XrX<XyX$ $ O.[ k.{.[.:XiX=XiXNX2Xx.H.jXjX<XBXvXkXU.G.V.z.F.>.U U : 3 6 o O & #.VX:.g.g y.4..X].{.!.8.b ",
"C.7.T.<.P F 4.N :Xb.w : Q.rX*X5X' ) Y ] |.'.C.' G.x.S ' z.] J.MXjXU.nXjXnX2X4XG.F.Z U Z U w x 6 d O 1 4 tX-X%Xg @.T.{.&X:X'.v.].",
"P 9.0.4.*.k 5 2 xXC : : oX#XG.i Y e G j.S.=X3XiXvXiXiXnXBXbXI.HXjXY.I.lXbXbXG.x._ C F.U f.0 3 d 1 ; ; % % tXVX+.@.E.#X:X*X>.N 2.",
"<.R.0.E.y.K l k >X0 : = E.u ( G k.6 ;.R 6 o 0 O = 0 i S t =Xg.W ` A : O O A Y V Z C V v Z U 3 6 ; n d % % xXVX*.t.E.;X1X'.M.!.v.",
"<.V.^.W.8.P g s `.> = 3 d P 8.;.v.m.!.W v R 3.v U v t Y 7 q g.6 % > Y h.q ] P.` Z A x.s.W j.Z N P N d % % & AX0.y.^.3X3Xv.v.r V.",
"8.M.{.0..X4.l k d.: = d g x P $.G 2.>.t W M b E 0 s.l.G.].G.&XP.G.I.BXSXHXhXP.) z.P.Y U N Z W w x @ 3 O 1 O SX*.T.^.{.;X{., P D.",
"m.{.{.`.{.i.*.+.t : ; O n 4 h ;.8.^.>.>.C.B.'.h.` ` ` ,Xz.,XnXI.jXkXY.jXP.jX<Xx.` A V l.Y ' Z : @ o 3 = % . r 2 h K T.0.!.H H b ",
"f.}.F.].W.9.i.@.x % n D n f M H ;.;.Y w x I F.P.1X1XI.2XkXnXnXkXnXKXFXlX2XjXP.) _ Y l.' _ v e U V : x 1 = % % 2 k 7.m.0.H ;.7 N ",
"R.(.Z.(.'.y.E.@.d : D f d f L ;.W C.G.G.G.=X:X1X4XbX=X5XU.Y.Y.Y.FXKXKXFXBXnXx.kXkX2XU.x._ e 6 Z ! R c = O   & , *.9.E.T.R ;.H R ",
"2.'.}._.{.y.i.w.K D 8.>.>.3.z.C.G.V.D.[.G.n.n.j.G.2X4XkX4X,XkXkXkXFXnXnX] H.J.Y.5X2XW Y y Z : : y e : 3 : % 1 g K 0.W.C.<.V.C.W ",
"`.}.=XR.!.%./.r.w.4 D K y @ o 3 ; ; @ p 6 : O y = O # 0 i q q V ] I.BX2Xq ` ] q ) t Y - O 0 t @ . . . O @ = k l *..X(.V.;.R N f.",
"}.}.(.].(.W./.% = 1 x x n n 7 r e e c b C Z ' l.x.y ) Z Y x t c r t : : - i t ` x.x.x.) ) ' 0   y i b b 6 ; +.l i.!.{.'.2.U s.S.",
"8.}.].&X(.7.h s , $.w.8.R W 7 7 n n : 3 Y _ Y r 0 V Y ; : t t y _ hXI.<Xx.x.` A P.A # q . # @ @ ' b 0 @ : : +.*.7.^.].m.8.R W U ",
"].}.(.F.].K K @.s 4 d d P H V.B.k.j.W l._ Y C r : N Z ) ] ] ' g._ S.A.P.&X` ` =X] x.Y.1X] A t ' ' V w b w w @.w./.R.].(.2.(.n.U ",
"n.R.P 8.4.7.*.2 2 $.C.w.3.|.>.B.B.l.Z Y P W S.l.x.:X,X5X=Xg.g.P.yXvXI.&X&X=X2X1XI.U.` I.2XY.' q 0 3 w 0 @ : e.w.T.R.].].m.{.f.f.",
"2 H 3.0.0.7.i.K s N x c 0 w w v W R l.s.D.1X=X,X4X1XP.4XbX2Xg.F.<X4XNX,XNXBXkXkXU.U.G.' ' G.' | ' i V y u t e.r.4.R._.(.f.].R '.",
"H k.m.0.{.m.9.k s m C./.V.V.C.!.G.G.$X|.G.W W V ' x.x.S ! 2.S ' vXyX,XP.kXhXjXvXbX4X2XP.P.' ) S r y y # : > % K y.Z.].(.Z.v.M.n.",
"2.2.8.Z.{.'.y.4.2 8.k.C.C.>.>.P W j.G.3XiXiXpXiXvX:X=XyXvXyXjX,XSXNXP.I.x.I.=X=X4X=XY b Q i S.V A N v ' v y % k T.(.`.(.}.n.V.s.",
"r ;.8.M.R.R.T.%.k N H P x >.M 4 M Z Y l.S.l.].:X;XyXyXiXZXD.E M _.CXxXvXH.x.&X,X:Xx.A t t W b t w : v w p - k K K F.S.(.M.P.S.n.",
"m 0.8.(.]._.T.%.k >.n x = G x x ;.3       w i 0 V A Y g.d.M.Z.:.;.; t 0 O = t @ t e # # e y x v w v Z N M : 2 4.4.*.;.2.'.n.D.g.",
"P P '.(.P._.R.9.K 4 f d 8.2.n 1 n :.v.6 1 4 3 % = = O % e e ,.,.#.d 6 n n x x 6 I :.I T f.= A : e e v M =   g K 0.T.8.;.;.r F.J.",
"U 2.'.*X&X{.!.0.*.l f d 8.T.,.0.T.E.n 6 L -.:.,.P e e G d % M 3   = 3 I Z.M.:.Q s.g.n.M v I f.v.W M M U e e k 9.T.R.2.8.c U > y ",
">.H ;.;X3X=X^.y.4.#.t.q.0.8.T L ;.<.4 & 1 -.G 3 J -.c.1.M.1.1.d.R._.1.M.yXuXyXyX-XR.:.M x f.d.:.>.I I R D 6 K 9.|.!.8.$.f.N U c ",
";.R R (.1X[.~.0.A.b.q.8.%XhX).0.-.D c.d q.T L J j g.v T I 1.N.c.6 6 `.oX-XwXtX-Xb.M d a < a j * * * < & & * < 9.(.(.m.7.U >.Y # ",
"s.r _.Z.=X0.P ).).#.N.M.&.`.N.#.n L :.1.:.L z c.A.b.-.d.a a f J f < G E f d * * n L #.f a f d 4 f a n T 4 < < a W.'.2.2.r c R Z ",
"v.R > }.>.H.A.c.b.-.1.c.).-.%XhXI.H.c.c.T b.%XA.A.N.b.d.E a z a D n < < g.L &.n.* & + < z z a a < f f j #.=.* * f Z.<.R H r r r "
};
