/* XPM */
static char *result[] = {
/* columns rows colors chars-per-pixel */
"64 64 256 2 ",
"   c #000010",
".  c #000018",
"X  c #000818",
"o  c #000008",
"O  c #000021",
"+  c #000822",
"@  c #000029",
"#  c #000829",
"$  c #001029",
"%  c #001021",
"&  c #000031",
"*  c #000832",
"=  c #000139",
"-  c #000939",
";  c #080831",
":  c #001031",
">  c #00103A",
",  c #001839",
"<  c #041736",
"1  c #000842",
"2  c #00084A",
"3  c #010441",
"4  c #001042",
"5  c #001842",
"6  c #00114A",
"7  c #00184A",
"8  c #081548",
"9  c #001153",
"0  c #001852",
"q  c #00195A",
"w  c #031559",
"e  c #070C53",
"r  c #00214A",
"t  c #08214A",
"y  c #002152",
"u  c #00225A",
"i  c #00295A",
"p  c #072657",
"a  c #00315A",
"s  c #02375A",
"d  c #132956",
"f  c #001A63",
"g  c #00196B",
"h  c #041368",
"j  c #011977",
"k  c #040C65",
"l  c #002263",
"z  c #002A63",
"x  c #00236B",
"c  c #002A6B",
"v  c #082867",
"b  c #003163",
"n  c #003963",
"m  c #00316B",
"M  c #08326B",
"N  c #00396B",
"B  c #093766",
"V  c #113669",
"C  c #002173",
"Z  c #002A73",
"A  c #00227B",
"S  c #002B7B",
"D  c #092773",
"F  c #003273",
"G  c #093273",
"H  c #003973",
"J  c #01327C",
"K  c #013A7B",
"L  c #083A7C",
"P  c #093678",
"I  c #123A76",
"U  c #112C6E",
"Y  c #2D3377",
"T  c #2C1263",
"R  c #59246F",
"E  c #00426B",
"W  c #004768",
"Q  c #004273",
"!  c #004A73",
"~  c #01427B",
"^  c #05467B",
"/  c #13467B",
"(  c #005577",
")  c #105074",
"_  c #195173",
"`  c #566373",
"'  c #9F2F63",
"]  c #9D5873",
"[  c #C24770",
"{  c #A8D85C",
"}  c #D4ED3B",
"|  c #081983",
" . c #002A84",
".. c #002D8C",
"X. c #032489",
"o. c #003284",
"O. c #013984",
"+. c #093A84",
"@. c #00338B",
"#. c #013B8B",
"$. c #093589",
"%. c #143886",
"&. c #032B95",
"*. c #003B94",
"=. c #00339B",
"-. c #003A9B",
";. c #033495",
":. c #14359B",
">. c #10218C",
",. c #2F318D",
"<. c #0137A8",
"1. c #033AB4",
"2. c #012EA9",
"3. c #4E3A92",
"4. c #004283",
"5. c #084284",
"6. c #014B84",
"7. c #01428C",
"8. c #09428C",
"9. c #074B8A",
"0. c #104A84",
"q. c #114A8C",
"w. c #144588",
"e. c #055389",
"r. c #15558B",
"t. c #014293",
"y. c #014B95",
"u. c #00439B",
"i. c #074899",
"p. c #124897",
"a. c #075598",
"s. c #105A9C",
"d. c #145598",
"f. c #285094",
"g. c #16659B",
"h. c #126E95",
"j. c #226699",
"k. c #28739A",
"l. c #0144A3",
"z. c #024CA4",
"x. c #014BAC",
"c. c #084AAD",
"v. c #0643A9",
"b. c #1348A7",
"n. c #0556A8",
"m. c #1259A8",
"M. c #0247B8",
"N. c #0153B4",
"B. c #0153BC",
"V. c #0658B8",
"C. c #1259B8",
"Z. c #134EB9",
"A. c #2159A7",
"S. c #2A57B1",
"D. c #0764AB",
"F. c #1567A9",
"G. c #1676AB",
"H. c #0263BC",
"J. c #0668B8",
"K. c #1568B8",
"L. c #0375BC",
"P. c #1777B7",
"I. c #216AA6",
"U. c #3567A7",
"Y. c #2578A9",
"T. c #2368B6",
"R. c #2476B8",
"E. c #3473B3",
"W. c #506EB0",
"Q. c #6B76A8",
"!. c #625A9A",
"~. c #035AC6",
"^. c #034FCC",
"/. c #0668C8",
"(. c #156AC7",
"). c #0873CE",
"_. c #097BCE",
"`. c #0477C7",
"'. c #1379C8",
"]. c #0878D5",
"[. c #1579D9",
"{. c #0667D7",
"}. c #276AC8",
"|. c #2678C7",
" X c #2D7ACF",
".X c #246DDE",
"XX c #4B77CC",
"oX c #5662DC",
"OX c #A46A9E",
"+X c #1888B9",
"@X c #1997BA",
"#X c #0C86B4",
"$X c #2288BA",
"%X c #2397BB",
"&X c #318CB2",
"*X c #1BA6BB",
"=X c #27A8BD",
"-X c #31A0BB",
";X c #1F829E",
":X c #4F90B4",
">X c #50AFB1",
",X c #2BDFBD",
"<X c #6CE09C",
"1X c #0987CB",
"2X c #1787CB",
"3X c #1797CA",
"4X c #0A8BD7",
"5X c #1485D7",
"6X c #0592DA",
"7X c #169AD6",
"8X c #0593CB",
"9X c #2689C8",
"0X c #3687C9",
"qX c #249AC9",
"wX c #3796C9",
"eX c #2789D8",
"rX c #2496D8",
"tX c #368ED6",
"yX c #09A3D7",
"uX c #13ABD8",
"iX c #16ADCF",
"pX c #23A8C7",
"aX c #28B7CB",
"sX c #30ADD5",
"dX c #1092EA",
"fX c #2C93EB",
"gX c #16A9FA",
"hX c #0DAAF5",
"jX c #2DAEF1",
"kX c #4D92CF",
"lX c #43A6C9",
"zX c #4CB3D3",
"xX c #69A5D8",
"cX c #4C96E6",
"vX c #4DB0F2",
"bX c #6EB2F3",
"nX c #739DDF",
"mX c #1CC6DC",
"MX c #32D4DC",
"NX c #2DCED1",
"BX c #2DC8EF",
"VX c #36F3EF",
"CX c #1DDDED",
"ZX c #47D3D4",
"AX c #51CFF4",
"SX c #6DD2FB",
"DX c #50E9F6",
"FX c #6EEFFA",
"GX c #5EE0D0",
"HX c #B1A39F",
"JX c #CCB5A3",
"KX c #E6D0AC",
"LX c #90B2D8",
"PX c #90B7E6",
"IX c #94DAEB",
"UX c #86CD88",
/* pixels */
"*.#.n.K.V #   ; f.O 7 F 1 * / a.DXz fX, # 5 / V > 5 4 9.x.O.J.n.@.x.1.~./.~.1. .=.0 y 5 s a u 7 b N b F O.7.9.s.G.#X@X#XP.d q q ",
"-.d.u.w.y   @ 8 f.1 J 9 - . E.P.5 u y.o.n.7 5.v p , > l F l -.u.j &.l.V.x.N.2.x.<.9.r 5 F.^ n b N m i c #.L 9.g.#X@X%XP.G.p.y.t.",
"& O n.%.z a.  . :.- 1 4 . 0.6.0 0 a.q F.0.7.7.^ / u - g c m l &.&.=.1.)././.~.1.;.A i 5 y s s i a N z c J #.L 5.+Xg.$X+XG.9.t.O.",
"a.G @ %.O   P.O o @ # # y 7.0 * y Z e.9Xm.r N vXfXr X g 0 2 * -.X...B.`._./.B.2.A Z r , W s s N z z u l J 0 P ^ / F.@X@Xm.i.@.S ",
"- & = c 7 5 J.    . . z @ - 7 0 gXK V.f.jXB V.IXxXd m 0 i 9 O ;.g &.M.1X_.).M.=. .c 7 a n n n b m u 7 q u 4.v H F.g.=X+XD.8.c J ",
"6 1 1 0 y.y.B o O   - 4 6 y z 6 F.5XgXBXm.0.u B ^ m.y.i.5 1 O C 9 g 2././.~.^.&.C 0 : a n n n z l u 4 0 O.z L v / m.G.F.0.D J J ",
"1 2 5.4.n.u a.o   . - 7 m 5.kX7./.AXIXDXm.Y.r.: X 4.g 0 - 4 0 -.@.u.2.N.^.M.1. .j f , i s W n l y > > 4 Z u 8.w.:.F.G.P.w.D O.Z ",
"0 1 1 6 0 M . .   1 2 0 4 4 4 2XgX1XFXIXzXzXz z X 0 7 4 > y o.j @.u.N.J.`.{.M.A g j a i n b n u 5 y u l 7 5 p L d./ d.m.5.7 Z S ",
"q 2 2 1 . .     * 7 f q F Z y 5Xn.4X9XSX&Xs B $ . q 4 1 > > 4 g *.<.).8X8X`.l.x f -.y y b n N y N N z m 4.z L t 0.$X$Xg./ 5.q x ",
"0 1 & - .       @ 7 `.J.C j c m , B : B < # X   # z 5 5 > * O 2 A 1.).8X1X1Xv.2.@.j 5 a i i i E H m F F 4.$.p v 0.r.=X-XP.8.J q ",
"1 & 2 1 .     * t.n.J C C $.K # $ , + , # . .   : z z Z : : + ..f ..N.8X/./.1.x.C q 5 u a b E W Q z y u J +.L M 0.$XqX=XP.a.t.c ",
"4 1 2 &     m n.O.x O.D l $.F % $ , $ u.: . .   * l 0 u * # + *.g ..B.].N.M.1.<.g S : y E W E N N z 1 0 l ^ +.5.F.F.aX%XD.L a.Z ",
"2 = @ - @ c 0.K c Z x * 7 0 u 4.a , $ r , .   O # l 7 * # # # Z = g <.B.V.H.-...f f $ a ! W N F c u 7 > u M L d./ I.pX@XP.v z.q ",
"1 = = 1 Z F l l q 5 # * C l.#.7.: $ * * : .   y # l 7 - # # $ Z j 9 <.L.u.#. ...q 0 y n W Q Q m m u 0 0 u r v G G.m.%X@Xa.L O.o.",
"1 & = 0 c i b 0 O . X o.H.+.# a.X # - @ : O   7 * z q 1 : # # 9 l t.=.D.H./.z.*.g x 7 n W E W m b 0 7 z J v 9.p.p.F.%X%Xm.v m x ",
"& O 1 1 6 q 4 . @ O n.J x 7 7 < . > 6 * * @ . O . q q 7 4 : : - l o.-.x.L.L.z. .u z r b N E N N u 4 - 7 y v p./ F.F.F.G.m.p Z Z ",
"= = 1 1 6 0 O . . v w - f . F . . 7 2 c # O . O O q q 0 7 , 5 l j @.y.x.n.L.z.g f z y a N N l y 5 + 5 K b r D K I d.m.F.q.v z S ",
"= 1 3 6 q *   . O @ = v . $.4     7 - z @ @   . O u u q q 7 5 0 w 9 N.N.D.t.&.O.j Z 1 z N u u u m N m ~ 6.e.r.G.$XG.Y.*XV D l x ",
"1 = 1 2 - . O O & & 7 . G - *     y 1 4 @ @ . . O u f q z y y y q f u.#XH.n.n.#.@.Z 5 z E W H ~ H m H F 4.a.6.m.+X=XpX@X9Xq.F.u.",
"1 & = 1 . . O O @ - O h - @ >     , Z 1 @ & O O @ c l m F u y 0 2 0 a.H.8X`.z.o.C o.4 W W W b Q Q m m o.7.^ d.G.+X%XpX+X+XI.a.#.",
"7 = & @ O > . O 6 - h k h 2 #   . , V.l y @ O M O c c m K b y u = 2 *.).1X/.1. .A j - E E E E m H c q Z 7.8.i.q.+XG.pX3XG.a.8.*.",
"1 = & . - X . @ - 1 j j h W.,.. . , y.q q & q O O Z c #.O.z u 0 6 6 *.~.~./.<.o.m w n E W Q Q H z u q S O.p P / d.@XpX@XF.a.i.#.",
"6 3 @ * 7 .   O 9 w e | S.<.9 . . 5 2 = 1 & M & . S F J O.c 0 1 x l. .N.V.V...K w 6 b W W Q N c z , 7 u c y.p 0.d.F.qX@XF.+.$.@.",
"6 1 & 4 : . . O | j | | | w q . . , - - w 9 0 & @ o.o.o.9.l 7 * Z #.H.J.M.M.H.f q q z E ! ! b u 4 > : q Z G 5./ d.g.@X+Xq.G G Z ",
"q 1 1 - # . . C g x.&.>.* g @ . . , 4 1 9 c & & P @.z.Z a.B 5 0 S z.H.yX3XiX#.f 7 2 7 N W H m u - 0 0 7 G 0 d.d.p.I.$X+Xd.B $.o.",
"f 1 1 # . - & Z L.X.A h - X.> + . 5 2 6 7 m.= & i.[.J p.9.q 5 7 x #.V.1XyX).V.u f q i z m c u z ! H 4.O.c 8 p w.q.g.R.P.q.8 q Z ",
"0 k 1 - @ 3.;.`.y.D :.:.q 1 5 + + y q 6 0 l l - c c.*.a.Z 2 4 z * Z a.`.`.`.t.A 7 0 y z c z H Q H m O.H 9.p P p g.Y.m.G.8.F.l f ",
"q D & * w Y J.&.0 ;.:.:.9 C u w + l 4 7 2 l y.1 '.H.t.5.F 0 q 5 g t.L.1X8XL.u.C 1 # u n ! ( ( ~ F N c F i.8.p I V %XZX=X$Xp.9.v ",
"q = 2.1 x y.c Z.<.7 b.f 2 1.v.7 # b 2 6 2 2 c K.D.m.i.F z :.d.> 0 o.].6X8XL.M.u.f C 7 ( ( ! ! N l y m z 5.+.L B G.F.*XzX+Xe.a.Z ",
"9 - V.@.o.F e e X.*.C.g k &.x > > S q S 2 2 C }./.#.o.O.a.,.7.f q #.).yXL.N.-.-.f g r ( ! ^ ~ K z z c l v d.L 0.q.qXaXaXP.L n.Z ",
"0 = 9 y.S M.z.1.~.t.@.0 M.1.Z.C X.c f o. .2 1 z.H.z.7.@.H.i.K.q q #./.6XJ.V.u.u.x @.i ( ( ~ e.N u y f y z m q.d.g.G.NXpX+XM a.*.",
"A 1 9 B.N.K * + + v.1.V.A g  .c.<.F g 1 z.B.f *._.@.K.j '.A 4Xl e x V.`./.N.B.-.J q i Q ! ( ^ z 7 u 4 i u p G r.+XR.pXpXF.8.8.#.",
"q ).c.3 c.z 4 @ m | N.&.A /.@.- q F g *.oXx.F t.dX-.5Xx _.S jXJ 3 9 *.6XH.V.t.*.f w 5 Q ! ~ H c K c > c L P / p.q.F.R.pXF.p M A ",
"g 9 &.M.c /.o.g k ;.B.*.<.V.u.7 q F C x S.).J c gXfX5XT.o.u.J.l #. .D.yXuX8X`.n.z  .q m H F H 0 4 6 : 7 7 K p.0.r.m.$X9XF.M D c ",
"g 2 9 J D.J.Z.1.c.:.J.B.M.`.-.l. .| :. .h ~.u.N.hXfXgX|./.M.o.J d.G.^.iXyXuX6Xn.a.o.u b E H z z b N ~ a.( t G q.w.Y.Y.$Xd.B L x ",
"u q 0 N.J l 1XZ `.:.$.g z.V.<.g S c.C A XXN./.j {.].hX#..XoXA n.c.C.1X1XuXuX4X/.5.O.y ( ! H H 6.~ H K e.a.s.s.+X&Xq.I.P./ p P t.",
"Z o.+.~.J.o.2XL.l.:.b.`.B.B.*.2X8.#.j v.o.oX[.x.{.].dX~.+.j  .J.c.J.yXuXuXuX8XJ.o.6.c ! Q ^ H ^ H c S J 9.a.r.s.%XpXaX*XqXd.G.n.",
"o.c 8 0 F.Z 3Xs.h $.}.oX~.z.t.n.H.B.o.&.&.oXl.[.x.6X5XM.R ' 3.%.;./.5XuXiX1X2XD.8.8.n ! Q Q 6.6.F z Z J 5.^ s.+XP.3XsX=X9XF.s.y.",
"G 8 8 x C '.Z Z 2Xm.9X X/._.-./.A J.J.A g g o.M.^./.dXgXSXOX!.,.>.p.uXuXBXiX3X#X).$.H ! ~ 6.K F u F l J a.d.s.G.$X=XNX3X+Xs.a.l.",
"Y / 4X8.v.H.q q 7XF.3.S.y.#...2.C 2X . .j 9 q S l.dXgXVXIXoX!.,.>.l.4XmXmXmXuX6XC.i.i ! ^ 6.~ y c 0 7 c 5.p s.r.#X$XaXpXG.s.n.u.",
"W.c.'.Z.#X#Xm.f 3XZ j #.pXj  .u.C.J M.@.9 e 2 8 w hXhXBXOXOXOX,...<._.GXCXmX7X5XK.m.B ^ Q N Z u q 7 0 c G s.0.d.r.Y.aXpXP.w.8.O.",
"HXQ.K.S.V.1X~ 2X3Xv g J 7XO.C K._.=.x.0 9 q e 9 8 hX6XvXfXjXSX,.X.$.4XNXmXmX7X6XB.M.u ~ ~ K m u - 7 $ u L M / 0.g.G.aXpXm.I L o.",
"+XkXQ.7X'.).c o.J.7Xf c /.C.*.f K.$.D w w  .x g w 4XhXAXvXAXPX>.f.| 4XuXaX>X7X_.NX9Xk.MXF u u N F H c u 5.m 5.G.m.T.$X3Xq.M P o.",
"0X X/.M.x.lXd.(.0XA.+.$.K.v.2XK.T.P./.U P  .+.v v gXjXvXFXSXnXdX:X~.1XtXUXNXaX1XF.MXk.*XQ K 6.6.H K m P M p I 9.A.Y.%X3Xd.p p S ",
"(.fX}.2.C.rXp.|.M w.q.0X}.v.2X).<.n.'.U.`.T.V.L  .6XSXbXSXAXbXCXF.<XNXfXcXGXNXa.P.$.y ( h.( 6.5.4.z Z ~ e.d 0./ d.j.K.G./ F.P u ",
"0XcXBX~.XXf.kXxXf.E.0 tXp.N.I K.K.9X(.+.fXjXm.u.l.).bXbXPXjXjX5X}.tXGXaXjXMXNXsXsXb.N e.e.e.6.K w.l u L a.8.V / r.pXR.G.9Xs.s.Z ",
"0XPXjX0X).T.R.nX X0XkXP.+.rXcXU.0XV.(.v.d._.5XT.[.[.bXcX(.~.2Xd.lX1XMXzXDXMXNXZXFX:.! ( 6.6.e.Z q.v p.+.5.p.p.V $Xg.ZXGX3Xg.D.J ",
"T.}..XLXkXkX:XkXm.E.%.W.U.;.T Y '.m.{.~.Y F.C.|.[.b.C.b.b.b.gXr.:XkXpXGXbXzXkXsXDX-X&X( 9.e.4.F p.%.S.p.L p.w.r.g.9XpXZX*Xr.D.o.",
"b.F.q.U.LXwXkXxXkXS.S.LXe T T R U n.n.Z.[ [ ] Z.Z.d.T.Z.p.b.5XlXa.D.cXtXvXvXBX@XBXs.pXe.e.e.G.5.C $.n.E 5.Q b.r.+X&XMXaX+XI d.i.",
"U.kXA.sXXX0XzXkX&XnXW.W.,.R T T i.[.4X/.[ [ ' HX<.C.:.b.'._ I.LXq.oXfXjXjXvXSX3Xm.m.Z ^ K t.e.+.z F.P.k.2XL p.C.k.+XCXaXG.+.8.#.",
"r d p }.>X8 LXS.T. X|.,.3.(.>.%.dXdXW.' ' OX[ OXHXn.n.P.h.` JXHX&Xn.aXAXBXDXAXqXT.O.b F 4.F z s.e.(.a.e.iXH V D.G.I.aXNXP.G v P ",
"a M v v U.IXPXU.&X&XxX_ (.XXE.T.tXeX' ' ' W.OX!.R I B 8 % ] JXKXJXHXNXvXGXSXbX0Xw z N ( ^ 8.e.K e.n.+X( G.P.s.N.d.R.wXaXP.p.M w.",
"v i z c d.kXPXW.q.w.%.l f.f.f.w q p Y OXOXq Y 9 0 w d Q.w Y JXKXKX:X@XtXvXAXSXvXj.G v ! Q F i.a.G.K.h.;Xh.G.s.h.j.T.$XpXR.j.I d ",
"0.) _ w./ 0.%.:XZ c q S :.:.f.w q l f !.Y z Y c l c / Q.E !.HXKXLX-X%XzXZXDXSXBXBXj.^ H e.J 9.a.F.T.9.Y.5.@X;X$XG.&XY.pX$Xj.w._ ",
"q.y.z.p.r.P #.z P #.y.9.8.#.:.Z ..S Z U.I $.*. .&.*.W.U.Y.O.A.#.LXP.lX{ { } <X,XVXNXz a.P 7.#.p.F.E.0XI / g.5.j.G.-XpX+XNXpX0XzX",
"S.m.b.a.I #.y.D.m.n.+.Z $.@.*.v.=.&.<.<.-.<.=.&. .j 8.|.E.t.*.uXrXSX>X{ } { VXVXDXNXG.Y.Y.D.n.i.U.U.U.I V d r.&Xh.;X*X=XNX&XY.ZX",
"z.(.n.+.m.D.D.R.~.C.H.K.K.V.c.2.1.1.;.&.-...@.v.v.<.*.c.m.K.C.V.3XjX:X` ( k.>XZXvXMXaXT.I.9Xv.t.#.z.t.g.$XG.k.r._ _ &XpXiXpXaX3X",
"wXY.wX'.(.eX/.2X|.9X}.C.p.c.@.*.c.V.i.&.=.v.x.Z.(.a.(. Xp.~.<.*.o./.V.0X2X$X9X(./.0X7XV.2XwX_.D.n.D.P.'.&X;XY.&XY.r.r.@X=XpX%X+X",
"Y.Y.P.q.K.m.z.9XV.|.(. X'.~.x./.B.].].).~.V.}.C.m.C.[./.(.'.n.D.F.wX0XR.R.F.p.i.m.9X0XsXwX%X%XJ.J./.K.F.P.Y.j.f.h._ ) G.*X*XpX$X",
"&XM ;.a.z 6 #XcXfXlX9XJ.'.(.N.{.{.].{.5X[.].1XV.].`.{.~.$XH.2X9XlX9X9XwXK.[.L K r.tX|.'.sXlXqXt.L.v.a.D.F.G./ 0.;X;X/ g.%X*X3XP.",
"tXP.'.5XsXdX5XrXG.p.R.5X2X2X'.tX(.(.^./.~.).^.].^.=.2.eX(.eX'.dX].'.[.tX|.y._.sX4XdX_.F.o.z D.n.n.x.@.-.%.I V V h.h.0.).G.F.m.P.",
"|.c 2XP.qXsXsXuXD.eX5XrXH.dXsX'.R.5X.X5X5X'.v.;.b.c.V./.N.eX|.V.v.fX X Xx 4.2XqXzXsXrX8X'.F.P.#.*. .-.n.V ) d V _ k.e.P.8Xm.[.'.",
"sX'.h.G dX4XyX4XfXqXsXlXq.:..X0X9X9X X$Xu.J.'. XeX|.4Xr.eXeX XvXoX.XcXcXzX'.2Xr.dX6X#X2X2XG.G.m.-.D.Z.<.I L t B _ *Xd.a.V.V.K.9X",
"sXlX-XZXhX6Xv.~.Y.:XE.m.+.>.U j D A g j A J t.g x +.C D %.p.d.p.p.A.p.p.%XlX&XwXZXuXuX2X'.&X&Xm.F.m.C.+.d 8 < t ) ;Xk.w.1.1.V.0X"
};
