/* XPM */
static char *result[] = {
/* columns rows colors chars-per-pixel */
"64 64 256 2 ",
"   c #00000C",
".  c #000007",
"X  c #000113",
"o  c #00031C",
"O  c #000B1C",
"+  c #000424",
"@  c #000B24",
"#  c #00042C",
"$  c #000B2C",
"%  c #01112C",
"&  c #001024",
"*  c #010532",
"=  c #000C34",
"-  c #010C3B",
";  c #040438",
":  c #001334",
">  c #00133C",
",  c #001A3C",
"<  c #061935",
"1  c #17153E",
"2  c #201539",
"3  c #6A213F",
"4  c #42122F",
"5  c #010A42",
"6  c #000848",
"7  c #011444",
"8  c #011A43",
"9  c #00134B",
"0  c #011B4B",
"q  c #0A1949",
"w  c #001152",
"e  c #001953",
"r  c #001A5A",
"t  c #041557",
"y  c #13104A",
"u  c #291951",
"i  c #01234C",
"p  c #042648",
"a  c #012353",
"s  c #022B54",
"d  c #00225A",
"f  c #09225B",
"g  c #012B5B",
"h  c #092A5A",
"j  c #082653",
"k  c #182857",
"l  c #01335C",
"z  c #083659",
"x  c #163154",
"c  c #2D2A53",
"v  c #001A63",
"b  c #00196B",
"n  c #001A78",
"m  c #002263",
"M  c #012A63",
"N  c #00236B",
"B  c #002A6B",
"V  c #092867",
"C  c #132D67",
"Z  c #013263",
"A  c #013A63",
"S  c #00326C",
"D  c #09326B",
"F  c #01396B",
"G  c #0A3767",
"H  c #133668",
"J  c #012273",
"K  c #002B73",
"L  c #00227B",
"P  c #002B7B",
"I  c #0A2A73",
"U  c #003273",
"Y  c #0A3273",
"T  c #013A73",
"R  c #01337C",
"E  c #013A7B",
"W  c #083A7B",
"Q  c #093877",
"!  c #123A76",
"~  c #112C75",
"^  c #2B306A",
"/  c #4D324F",
"(  c #6E1F47",
")  c #07445D",
"_  c #00426B",
"`  c #044766",
"'  c #004273",
"]  c #014B73",
"[  c #01427C",
"{  c #07487A",
"}  c #11447D",
"|  c #174879",
" . c #035577",
".. c #19577A",
"X. c #094B6B",
"o. c #244977",
"O. c #2C4F75",
"+. c #13697B",
"@. c #3A6A7A",
"#. c #4C5273",
"$. c #754A6D",
"%. c #646760",
"&. c #852F4C",
"*. c #8A6765",
"=. c #A8D85C",
"-. c #BDC94C",
";. c #002D8C",
":. c #022787",
">. c #003283",
",. c #013A84",
"<. c #093B83",
"1. c #00338B",
"2. c #003B8C",
"3. c #093689",
"4. c #143A87",
"5. c #022B95",
"6. c #003B94",
"7. c #003A9B",
"8. c #023397",
"9. c #183598",
"0. c #0037A8",
"q. c #013AB4",
"w. c #012EA9",
"e. c #004283",
"r. c #094284",
"t. c #014B84",
"y. c #01428B",
"u. c #09428C",
"i. c #0A4B8B",
"p. c #074B87",
"a. c #114384",
"s. c #104A84",
"d. c #114B8C",
"f. c #16488A",
"g. c #0A548B",
"h. c #035688",
"j. c #15558A",
"k. c #014292",
"l. c #01439B",
"z. c #064998",
"x. c #114897",
"c. c #075698",
"v. c #105294",
"b. c #105A9C",
"n. c #155698",
"m. c #275A8A",
"M. c #265A93",
"N. c #2F508B",
"B. c #17668C",
"V. c #096498",
"C. c #16659A",
"Z. c #147593",
"A. c #29678B",
"S. c #246797",
"D. c #336F92",
"F. c #0248A8",
"G. c #0657A8",
"H. c #1359A8",
"J. c #0248B7",
"K. c #0254B4",
"L. c #0557B9",
"P. c #1251B0",
"I. c #2154A9",
"U. c #0863AC",
"Y. c #196BAD",
"T. c #1466A7",
"R. c #1973AD",
"E. c #1577AA",
"W. c #0467B9",
"Q. c #1368B7",
"!. c #0476BC",
"~. c #1A73B4",
"^. c #1679B7",
"/. c #216BA6",
"(. c #2578A9",
"). c #226AB5",
"_. c #2378B8",
"`. c #346DAD",
"'. c #4D6F92",
"]. c #677996",
"[. c #4B73A9",
"{. c #035AC4",
"}. c #034FCC",
"|. c #0668C9",
" X c #156AC7",
".X c #0873CE",
"XX c #067ACA",
"oX c #1379C8",
"OX c #0878D5",
"+X c #0C72D9",
"@X c #257AC8",
"#X c #2774CF",
"$X c #2A6EDE",
"%X c #4568E4",
"&X c #1888B8",
"*X c #1898B9",
"=X c #0F87B2",
"-X c #2388B9",
";X c #2397BB",
":X c #2E8EB1",
">X c #1BA6BB",
",X c #27A8BD",
"<X c #31A0BB",
"1X c #1F829E",
"2X c #4A8DAE",
"3X c #5D97A3",
"4X c #28D0BE",
"5X c #30FFBC",
"6X c #6CE09C",
"7X c #0887CB",
"8X c #1886CC",
"9X c #0593CB",
"0X c #1797C8",
"qX c #0B8AD7",
"wX c #1385D7",
"eX c #0693DA",
"rX c #159BD8",
"tX c #2688C8",
"yX c #239AC9",
"uX c #3796C9",
"iX c #2788D7",
"pX c #328FD2",
"aX c #09A3D7",
"sX c #13ABD8",
"dX c #16ADCF",
"fX c #23A8C7",
"gX c #28B7CB",
"hX c #30AED4",
"jX c #1191E5",
"kX c #3298E8",
"lX c #16AAFB",
"zX c #2FB2EC",
"xX c #4B9AD1",
"cX c #44A8CA",
"vX c #4AB5D5",
"bX c #4C96E6",
"nX c #4FB1EF",
"mX c #69B0E8",
"MX c #1CC6DC",
"NX c #32D4DC",
"BX c #2DCED1",
"VX c #23C7E7",
"CX c #38CAF0",
"ZX c #37F2EA",
"AX c #34F0D1",
"SX c #47D3D4",
"DX c #55D0F1",
"FX c #6CD7F7",
"GX c #50E9F6",
"HX c #61E5DC",
"JX c #B0B0A6",
"KX c #CCB4B2",
"LX c #C5B595",
"PX c #E6D0AC",
"IX c #8FEFFF",
"UX c #8BC3A8",
/* pixels */
"6.2.G.Q.C $ . ; I.X 9 Y 5 * | c.GXd kX, $ 8 | H > 8 > i.F.,.W.G.1.J.J.L.{.{.q.:.7.e d 7 l l d 8 Z F Z U >.y.p.C.!.&X&X=X~.r f r ",
"7.n.6.f.a X + y x.- R w - X `.^.8 r z.>.G.0 r.B i 8 > v U m 7.l.n 5.0.L.K.K.w.J.w.t.i , T.{ A Z F S g B 2.W i.C.=X&X;X&X~.j.k.k.",
"# + G.4.M c.X X 9.; > 5 X s.t.e e c.r Y.s.y.,.r.} d - b B S M 5.5.8.q..X|.|.K.q.5.P g 8 s z l g g F M B R 2.Q r.=XC.-X=XE.i.k.2.",
"z.Y # 4.+ X ^.+ . # # $ d y.e = a B g.iXH.i F nXkX8 O b e 6 * 7.:.;.L.XXXX|.{.0.n K i < ) l A F M M d v R e Y { } Y.;X*XH.z.1.R ",
"- * ; B 9 8 W.X X X X M # - 0 e lXE L.f.kXD G.IXmXj S e g w o 5.b 5.q.7XOX.XJ.8.:.B 8 g A A F Z S d 0 e r e.V Q Y.C.;X&XT.u.K R ",
"6 5 5 e z.k.G   + X ; 7 6 a M 6 T.qXlXCXY.s.e G { n.z.z.7 5 + n w b q..X|.{.}.8.J r : l A A l M M d 7 e ,.M W D a.H.E.R.r.I R R ",
"5 6 r.,.G.d c.  X X - 9 B r.xX,.|.DXIXDXH.(.j.= + e.v e - 5 e 7.1.7.w.F.}.}.w.;.n r 8 s l ` A d e > = 6 U d u.r.u.Y.Y.~.u.V ,.K ",
"e 5 5 9 e D X X X 6 6 e 7 7 7 8XlX7XFXIXnXvXM M X e 9 7 : a >.n 2.l.G.W.XX|.q.:.b n g g A Z A d 8 a d m 0 7 f W v.| n.H.a.0 K P ",
"- * * $ X X X   $ 0 v e U K e wXG.7XtXFX`.` G % X r 7 5 : - 6 v 6.0..X9XeXXXl.m v 0.i s Z A F a F F M F ,.M W i s.-X-XC.! r.r b ",
"> # + # X       # 9 .XW.J L B S , G : Z < : X   $ m 8 8 - = + 9 n q..X9X7X7XF.w.;.J 0 s g d s T T S K B e.<.f V s.x.,X,X^.x.R r ",
"# + * # X     o M ' d 9 K 3.E @ % , O < @   X   @ 8 7 K : $ o 1.v ;.K.qX{.|.q.J.n r 7 d l Z _ _ ' M a d E 3.W D s.-XyX<X^.c.k.B ",
"$ # * o     i ' d 0 d 0 7 f U & & , % B @   X   + 7 > , + $ + 6.b 1.K.OXK.F.J.0.b P : 0 _ ` _ F F M 5 e m { 3.a.T.T.gX,XU.E c.K ",
"* # + + o 0 z d 0 0 7 + - > , g l , O < @ X   X O 8 = + o O $ K ; b 0.K.{.L.7.;.v v $ l ` _ F T B d 0 > d D W n.! (.fX*X^.V F.r ",
"# + + # e i 7 7 7 $ O @ 9 K g M @ O + + @     , o 7 : + o O O J n w F.!.l.2.:.>.r 9 a A ] ' ' S S d e e d i v Q E.H.yX*Xv.E ,.>.",
"# + # = 0 , p > o X X d [ g O D   o @ o @ X   : + 7 > $ O o @ w m k.w.U.W.|.F.6.N b i A ` _ ` S M e 0 v R V i.v.x.T.;X&XH.C S B ",
"+ X # # = > # X X X ' d 9 : : & X @ = + # o   X X 5 , = $ @ @ # m >.6.F.!.W.F.>.d M i Z F _ F F d 7 - 0 e V d.} Y.T.Y.E.H.r K N ",
"# + # * = > X X X , - # 7   i X X = - 0 o X X X X 5 > > = & % 7 J 1.k.K.K.!.F.b v m e l F F M d 8 o 8 E Z i V E ! n.H.Y.x.V B P ",
"# # # * - +     o o # q X f $     : # 8 X o   X X 7 7 > , : $ = w w K.K.U.k.1.R n K 7 M S r d d S F S [ { c.v.E.-XY.E.*XH V v B ",
"# + # = + X X X X X &   < X o     : # $ o o X X X , 7 - 8 > : , r v l.=XW.G.G.2.1.K 8 M ` ` T [ T S T T e.c.r.T.*X,X,X*XtXx.T.l.",
"# + + # X X   X X o . ; o X O . . O 0 $ o + X X o 0 8 i a , , = 6 e z.W.9XXXF.>.J >.- ` ] ` Z T ' S B R y.[ v.E.&X;XyX*X&XS.c.6.",
"= + + X X O   X @ o ; $ $ o X .   O g $ @ X o i X 0 0 i d p : d ; 6 7..XXX|.q.:.L n - _ _ _ _ S T B r K y.u.z.d.&XE.fX&XE.c.k.k.",
"$ # + X X X   X o @ * ; * ^ 1     O i $ $ X $ X X : : M d 8 , e 9 9 8.{.{.W.F.1.B t A _ ` ' ' T M d r K >.j R } b.&XgXfXQ.g.6.2.",
"= # X + @   .   @ # # - x 0 @   . O @ X + X < X   > : , , 0 e 5 v F.:.K.L.{.;.E r 6 Z ` ` ' F B M 7 0 r B z.h s.n.Y.;X*XY.3.4.1.",
"= # + o O       - - - 5 - $ $     O o o # # @ X X , , , p 8 0 * K 2.W.W.J.J.W.v r r M _ ] ] Z d 5 > $ d U Y r.} j.T.*X&Xi.Y Y K ",
"- $ + X X     = = i q 5 O $ X     O O + @ : X o > 8 i : p < % e R F.W.aX0XdX,.v 9 6 0 F _ T S d > e e 9 Y j n.v.x.T.;X&Xx.D >.1.",
"6 o @ X   @ X > l 7 > = O 6 o     O @ + + s X X i H , p p $ % 8 N 2.L.7XaX.XG.m v r g M S N d M ] T ,.,.B q r a.f.C._.~.i.q r K ",
"@ = + o X 2 8 A i = q q $ o @   X & $ + @ : = X : a 8 p : @ $ 8 = K F.XXXXXXl.P 0 e a g S M T ' T B ,.T u.h W h C.(.H.R.4.T.V v ",
"$ - X X @ 1 l 7 $ 8 q q @ : $ $   $ O @ + % i o z l 8 p : $ > : v k.!.7X9XW.l.n 5 @ r F ]  . .E U F N T z.u.s ! H ;XSX,X&Xx.i.m ",
"$ X 0 o : i : j e @ j = + e a @ X < + + + + : z s s p < : q p @ e >.OXeX9X!.J.l.v n 8  . .] ] F m a B M r.<.W D E.T.<XBX8Xg.b.K ",
"+ + d 7 8 : # + 7 8 h = * 7 = O O , $ > + + : G l 8 8 , p q 8 7 r 2.OXaX!.K.7.6.v N i  .] { [ R M M N M V v.W s.f.;XgXfX^.Q G.K ",
"@ X # p > d p e g 8 8 $ d t d = - : $ , > + o i l i 8 7 s 0 x 7 r 2.|.eXW.L.F.k.N ;.g ]  .[ h.F r i m a M D s.v.T.R.NXfX&XD c.2.",
"> + @ g d , O     a e s > $ , a 0 , = + i d $ 0 A 8 z = z , ` 7 w b K.XX|.K.K.7.R v s ' ]  .{ M 0 d 7 d d h Y v.&X_.fXfXT.u.u.1.",
"$ Z j o j % o O : - d 9 > l , O $ : = 8 ^ a : p { p G : A = .., 6 w 6.aXW.K.6.6.v t 7 ' ] [ T M E B - N W Y } x.f.Y._.0XY.V D K ",
"= $ 7 r : Z , $ $ q s 8 e h 0 @ $ , : = k l , : | ! ` z , p l $ 3.:.U.aXaX9XXXG.v >.d S T U T e 7 9 : 0 8 W n.a.j.H._.;XT.D I B ",
": + @ , s l s e a q g s e A 0 0 , 5 q , * g i d  .X.| ) g d 7 , n.~.}.aXaXsXeXK.c.>.d S _ T M M Z S [ c.{ p ~ d.f.(.(.-Xn.D W N ",
", $ @ d , $ G : l q 8 : a s e = > a = < H d Z : D A  .8 C ^ , i F.G.7X0XsXsXqXW.p.>.a  .] T T e.[ T E h.c.V.b.&X-Xf./.^.} j Q 6.",
"0 d 8 g z , ` z a 9 i l d g 8 ` 8 8 : e , ^ G d M F X.M , = - h F.Q.aXaXsXsX9XW.,.e.S ] ' { T { T B P R i.c.j.V.;XfXgXfXyXn.E.G.",
"d 0 = @ s < ) s $ q C ^ l i 0 i l d , q 6 ^ i G i _ G a 4 4 2 p 8.|.qXsXdX7X8XU.u.u.A ' ' ' t.e.U M K >.r.[ b.&X^.yXfX>XtX/.V.z.",
"i : % 9 : l : : ) p X.x l A 0 g - l s > = = , d g z }  .@./ u y :.x.sXsXVXdX0X=X+X4.T ] [ t.E F d U m U c.v.b.E.-X;XgXfX&Xb.l.l.",
"k d B.D R [ $ % ` z u c i 8 7 e = ) 7 > = + $ , i '  .+.@.c / C :.x.qXVXVXVXsXeXP.k.g ] { t.[ d N e 0 B r.f b.v.=X-XgXfX&Xb.G.l.",
"O.~ p.E h.B.G 8 ` : = 8 X.% > i s , d 8 + + + @ $  .X.../ / / ^ 5.9.OXHXVXMXsXqXQ.H.F { ' F K r r 0 e B Y b.s.v.n.(.gXfX^.f.2.3.",
"%.#.} | [ g.l h.Z.8 6 d V.g - s A 9 a $ @ $ # @ @ X._ ..| ..2Xu :.5.qXBXMXMXsXeXJ.J.M [ [ E B d - 8 : r W D } d.C.R.gXfXH.! W R ",
"B.'.N.B.g.p.0 d { B.q 0 s.W B 7 | , < $ $ > = $ @ ` { +.o.;X3Xf M.:.qXsXgX3XrXOXNX@XZ.NXT d d F U T B d r.D r.R.H.).;X0Xx.G R >.",
"A.N.} :.R D.X.a.M.! g V { I B.s.f.s.p.q > > 8 < % ....`.3X2X[.C.2XL.XXpXUXBX4X7XT.SXZ.,X' E t.t.T E F E V j ! s.n._.;XyXn.j f P ",
"d.b.d.I <.A.H j.p H z m.a.Y b.p.V Q g.o.p.| W s d V.2X[.2X:X[.*X} 6X4XkXbXHX4Xc.^.3.i +.h.h.t.r.e.M K E g.g s.! n.S.)./.} T.R d ",
"M.'.=Xs.N.H A.'.H | < j.H E p | { j.i.g T.(.Q D U h.2X[.2X1X(.b.N.#XHXgXkXNXBXfXhXP.F h.h.h.t.R 4.M d W g.u.H s.j.yX_.(.;Xn.b.K ",
"m.].E.M.j.! | [.m.m.N.a.h C.D.o.S.,.p.Y G g.b.| v.v.[.D.4.a.V.D D.XXNXvXGXNXBXDXGX9.{  .r.e.h.K x.V x.<.a.x.x.H tXC.AXSX0XV.U.R ",
"s.m.x.'.'.A.m.'.} O.H O.o.B y u j.Q z.2.c | W j.c.~ <.D ~ ! T.l @.xXfXHXmXvXxXhXHXuX<X .p.g.,.T x.4.I.x.<.v.r.n.C.-X,XSXfXs.Q.>.",
"Y ! h o.'.D.D.'.A.| ^ ].; y u u q ' Q ,.&.&.( ~ <.H s.Q C C c.@.l U.bXkXbXnXCXyXCXb.fXh.h.g.E.r.J 3.G.H r.' x.n.&X;XNXgX*XH H.k.",
"o.D.| S.m.A.'.m.m.'.N.N.u u 2 u g c.V.r.&.&.&.'.Y <.C ~ E x | 3Xf.%XbXlXCXnXFX0XG.G.B { E k.t.<.g Y.&XZ.8XW x.P.S.-XNXMX~.<.u.2.",
"& q , f.A.# ].! f.A...u ^ | y v T.T.^ 3 ( $.&.*.*.F E s...%.*.%.-XG.gXDXVXGXDXiX).<.Z U ,.T B b.c. Xc.i.dXT H T.E.(.gXgX~.Y V Q ",
"p p 8 q C JX3X^ O.A.D.x f.N.N.f.S.n.( ( 3 #.$.^ / j p % & %.*.PXLXJXMXDXFXmXmXpXw N S  .t.u.g.E g.z.*Xt.E.^.v.K.n._.uXgX^.d.~ d.",
", p 0 0 X.'.3XO.H h f 8 C ^ ^ , , , u $.$.> c - - - 1 #.< x LXPXKX:X*XbXnXDXFXzXS.U B ] ' T z.c.R.Q.Z.1XV.E.C.C.S.).-XfX~.M.! k ",
"z x x z x s x N.0 0 7 i V C ^ > 7 7 7 #.c , k 0 0 0 x O.V '.JXPXKXhX;XvXHXHXGXDXDXC.{ T t.R t.c.T.).p.(.s.*X=X-XR.:X(.fX-X/.m.| ",
"p.z.F.x.d.j M p j g D Z M d M e ;.P N `.P ;.2.:.5.1.[.`.`.3.I.2.UXR.cX=.=.-.6X5XZXBXM z.R u.2.n.C.`.pX! ! b.} S.R.,X,X*XBXfXtXvX",
"I.H.x.b.T 2.k.U.H.G.,.K 3.1.6.F.8.8.w.0.l.0.w.5.:.n 9.@X_.6.6.sXiXDXvX-.-.=.AXZXGXBXY.(.(.U.G.7.`.).[.V H C B.(.j.1XdX,X4X:X(.vX",
"F. XG.y.G.H.U.~.{.L.L.Q.Q.J.L.8.q.q.7.5.7.;.;.F.F.0.6.P.H.Q.P.P.rXzX2X@...D.cXSXnXNXgX).Y.tXF.u.2.G.l.B.-X(.S.n...j.:XfXdXyXgXfX",
"uX(.uX~. XiX|.tX#XiX#XH.x.P.5.6.F.L.x.5.w.F.P.P.|.x. X#XF.{.0.6.;..XL.tX_.tX@X~.|.pXyXL.oXuXXXW.G.G.^.oX-X1X(.:X(.j.j.;XfXfX;X&X",
"(.(.).x.Q.H.F.tXL.iX X@XoX{.K.|.K.+XOX+XL.L.@XL.H.Q.+X{. XoXG.Q.Y.pXtX_._.Y.v.x.H.tXpXhXuXuX*XW.W. XQ.U.~.-XA.j.Z.+...R.>X>XfX&X",
":XF 7.c.Z 9 7XxXiXcXtXQ.oXoXK.}.+XOX+X+X+XOXoXL.+X.X+X|.:XW.8XtXcXtXtXxXQ.+XW E f.uX#XoXcXhXyXy.!.F.z.E.T./.| s.1XZ.H C.;X>X0X~.",
"kX).oXwXzXwXwXrX(.v.oXoXoX8XoXpX X XP..X{.|.}.OX}.5.w.iX XiXoXjX|.oXiX$X@Xz.XXhXwXjXoXU.,.g U.G.F.F.2.0.4.! H H Z.E.s..XE.T.n.~.",
"@Xd 8X^.hXhXhXsXG.8XwXkXW.jXkXwX@XwX+X+XwX8XF.3.I.F.|.{.K.pXoXL.F.zX$X@XN e.8XyXhXhXhX7XoXU.~.6.6.>.7.G.! X.k H +.Z.d.^.qXG.+X8X",
"hXoXV.' jXeXaXqXkXyXhXvXf.9.$XpXtXtX-X@Xz.W.oX$XiXoX7Xd.iXiX#XnX%X%XbXbXvXoX8Xj.jXeX7X8X8X(.(.H.6.U.P.q.! Q y ) ..1Xn.n.L.P. XtX",
"hXvX2XSXjXeXF.L.(.xX`.x.3.:.~ V I n n n P P k.b I 3.J V <.x.I.f.x.n.z.x.uXcX:X<XSXsXdX8XoX:X:XG.T.H.P.3.h q y j X.1XZ.a.q.q.L.uX"
};
